<svg width="20" height="20" viewBox="0 0 20 20" fill="none" xmlns="http://www.w3.org/2000/svg">
<path fill-rule="evenodd" clip-rule="evenodd" d="M0.649902 9.99977C0.649902 4.8442 4.84428 0.649872 9.9999 0.649872C15.1555 0.649872 19.3499 4.8442 19.3499 9.99979C19.3499 12.628 18.2351 15.1497 16.2911 16.9186C14.5662 18.4866 12.332 19.3499 9.9999 19.3499C7.6541 19.3499 5.41331 18.48 3.69048 16.9007C1.75847 15.1339 0.649902 12.6184 0.649902 9.99977ZM4.51756 16.4958C6.04684 17.7903 7.98047 18.4998 9.99999 18.4998C12.0075 18.4998 13.9351 17.7956 15.4654 16.5108C14.3176 14.5837 12.2483 13.3998 9.98753 13.3998C7.73452 13.3998 5.66838 14.5778 4.51756 16.4958ZM6.58769 9.14993C6.58769 7.27523 8.11296 5.74997 9.98769 5.74997C11.8624 5.74997 13.3877 7.27523 13.3877 9.14993C13.3877 11.0248 11.8624 12.5501 9.98769 12.5501C8.11296 12.5501 6.58769 11.0248 6.58769 9.14993ZM12.069 12.8542C13.7233 13.3496 15.1601 14.4279 16.1004 15.9204C17.6313 14.3408 18.5 12.2117 18.5 9.99988C18.5 5.31311 14.687 1.49997 10 1.49997C5.31297 1.49997 1.5 5.31311 1.5 9.99988C1.5 12.2032 2.36328 14.3259 3.88465 15.9036C4.82569 14.4202 6.25881 13.3482 7.90656 12.8544C6.61308 12.1249 5.73754 10.7378 5.73754 9.14987C5.73754 6.80638 7.64422 4.89993 9.98753 4.89993C12.3308 4.89993 14.2375 6.80638 14.2375 9.14987C14.2375 10.7376 13.3622 12.1246 12.069 12.8542Z" fill="#B62222"/>
</svg>
