<svg width="38" height="37" viewBox="0 0 38 37" fill="none" xmlns="http://www.w3.org/2000/svg">
<path d="M31.5 25H21C20.1716 25 19.5 24.3284 19.5 23.5V14.5C19.5 13.6716 20.1716 13 21 13H31.5M31.5 25C32.3284 25 33 24.3284 33 23.5V14.5C33 13.6716 32.3284 13 31.5 13M31.5 25V29.5C31.5 30.3284 30.8284 31 30 31H9C8.17157 31 7.5 30.3284 7.5 29.5V8.5C7.5 7.67157 8.17157 7 9 7H30C30.8284 7 31.5 7.67157 31.5 8.5V13" stroke="#283238" stroke-width="2"/>
<rect x="23.25" y="16.75" width="4.5" height="4.5" rx="2.25" fill="#7D909B"/>
<circle cx="8.5" cy="8" r="7.5" fill="#056CF2" stroke="white"/>
<path d="M8.39766 12.909H8.98005V12.1171C10.4715 12.0141 11.3096 11.1335 11.3096 10.0255C11.3096 8.66187 10.017 8.22153 9.26414 8.02266L8.98005 7.94454V5.41968C9.73289 5.49425 10.2798 5.89908 10.3579 6.54539H11.2102C11.1746 5.50846 10.2656 4.7201 8.98005 4.63488V3.81812H8.39766V4.64553C7.17962 4.76982 6.26698 5.54397 6.26698 6.65902C6.26698 7.63914 6.97721 8.22152 8.11357 8.54823L8.39766 8.62991V11.3181C7.65192 11.24 7.04113 10.8565 6.97721 10.1249H6.06812C6.14979 11.2435 7.00206 12.0248 8.39766 12.1171V12.909ZM8.98005 11.3181V8.79681L9.00846 8.80391C9.7755 9.01698 10.4573 9.28687 10.4573 10.0113C10.4573 10.7251 9.83942 11.2222 8.98005 11.3181ZM8.39766 7.78829C7.85789 7.63559 7.11925 7.33729 7.11925 6.61641C7.11925 6.00206 7.61641 5.53331 8.39766 5.43033V7.78829Z" fill="white"/>
</svg>
