<svg width="50" height="50" viewBox="0 0 50 50" fill="none" xmlns="http://www.w3.org/2000/svg">
<path d="M18.7501 35.4167H31.2501M18.7501 27.0833H31.2501M18.7501 18.75H20.8334M27.0834 6.25H20.4168C16.9164 6.25 15.1663 6.25 13.8293 6.93121C12.6533 7.53042 11.6972 8.48655 11.098 9.66256C10.4167 10.9995 10.4167 12.7497 10.4167 16.25V33.75C10.4167 37.2503 10.4167 39.0005 11.098 40.3374C11.6972 41.5135 12.6533 42.4696 13.8293 43.0688C15.1663 43.75 16.9164 43.75 20.4167 43.75H29.5834C33.0837 43.75 34.8339 43.75 36.1709 43.0688C37.3469 42.4696 38.303 41.5135 38.9022 40.3374C39.5834 39.0005 39.5834 37.2503 39.5834 33.75V18.75M27.0834 6.25L39.5834 18.75M27.0834 6.25V12.0833C27.0834 14.4169 27.0834 15.5837 27.5376 16.475C27.937 17.259 28.5744 17.8964 29.3585 18.2959C30.2498 18.75 31.4165 18.75 33.7501 18.75H39.5834" stroke="#27AE60" stroke-width="2" stroke-linecap="round" stroke-linejoin="round"/>
</svg>
