<svg width="18" height="18" viewBox="0 0 18 18" fill="none" xmlns="http://www.w3.org/2000/svg">
<path d="M3.75 11.5C2.36148 12.0294 1.5 12.7671 1.5 13.5831C1.5 15.1941 4.85786 16.5 9 16.5C13.1421 16.5 16.5 15.1941 16.5 13.5831C16.5 12.7671 15.6385 12.0294 14.25 11.5M9 6.5H9.00833M14 6.5C14 9.88642 10.25 11.5 9 14C7.75 11.5 4 9.88642 4 6.5C4 3.73858 6.23858 1.5 9 1.5C11.7614 1.5 14 3.73858 14 6.5ZM9.83333 6.5C9.83333 6.96024 9.46024 7.33333 9 7.33333C8.53976 7.33333 8.16667 6.96024 8.16667 6.5C8.16667 6.03976 8.53976 5.66667 9 5.66667C9.46024 5.66667 9.83333 6.03976 9.83333 6.5Z" stroke="#6B7280" stroke-width="2" stroke-linecap="round" stroke-linejoin="round"/>
</svg>
