<svg width="31" height="30" viewBox="0 0 31 30" fill="none" xmlns="http://www.w3.org/2000/svg">
<path d="M10.8125 12.375H20.1875M20.1875 12.375L17.0625 9.25M20.1875 12.375L17.0625 15.5M3 18.625H7.17893C7.94328 18.625 8.32545 18.625 8.6851 18.7113C9.00396 18.7879 9.30879 18.9142 9.58839 19.0855C9.90375 19.2788 10.174 19.549 10.7145 20.0895L10.9105 20.2855C11.451 20.826 11.7212 21.0962 12.0366 21.2895C12.3162 21.4608 12.621 21.5871 12.9399 21.6637C13.2995 21.75 13.6817 21.75 14.4461 21.75H16.5539C17.3183 21.75 17.7005 21.75 18.0601 21.6637C18.379 21.5871 18.6838 21.4608 18.9634 21.2895C19.2788 21.0962 19.549 20.826 20.0895 20.2855L20.2855 20.0895C20.826 19.549 21.0962 19.2788 21.4116 19.0855C21.6912 18.9142 21.996 18.7879 22.3149 18.7113C22.6745 18.625 23.0567 18.625 23.8211 18.625H28M10.5 28H20.5C23.1252 28 24.4379 28 25.4406 27.4891C26.3226 27.0397 27.0397 26.3226 27.4891 25.4406C28 24.4379 28 23.1252 28 20.5V10.5C28 7.87475 28 6.56213 27.4891 5.55942C27.0397 4.67741 26.3226 3.96031 25.4406 3.51091C24.4379 3 23.1252 3 20.5 3H10.5C7.87475 3 6.56213 3 5.55942 3.51091C4.67741 3.96031 3.96031 4.67741 3.51091 5.55942C3 6.56213 3 7.87475 3 10.5V20.5C3 23.1252 3 24.4379 3.51091 25.4406C3.96031 26.3226 4.67741 27.0397 5.55942 27.4891C6.56213 28 7.87475 28 10.5 28Z" stroke="#777E90" stroke-width="1.5" stroke-linecap="round" stroke-linejoin="round"/>
</svg>
