<svg width="31" height="30" viewBox="0 0 31 30" fill="none" xmlns="http://www.w3.org/2000/svg">
<path d="M3.2002 18.625H7.37913C8.14347 18.625 8.52565 18.625 8.88529 18.7113C9.20416 18.7879 9.50898 18.9142 9.78859 19.0855C10.1039 19.2788 10.3742 19.549 10.9147 20.0895L11.1107 20.2855C11.6512 20.826 11.9214 21.0962 12.2368 21.2895C12.5164 21.4608 12.8212 21.5871 13.1401 21.6637C13.4997 21.75 13.8819 21.75 14.6463 21.75H16.7541C17.5185 21.75 17.9006 21.75 18.2603 21.6637C18.5792 21.5871 18.884 21.4608 19.1636 21.2895C19.479 21.0962 19.7492 20.826 20.2897 20.2855L20.4857 20.0895C21.0262 19.549 21.2964 19.2788 21.6118 19.0855C21.8914 18.9142 22.1962 18.7879 22.5151 18.7113C22.8747 18.625 23.2569 18.625 24.0213 18.625H28.2002M10.7002 28H20.7002C23.3254 28 24.6381 28 25.6408 27.4891C26.5228 27.0397 27.2399 26.3226 27.6893 25.4406C28.2002 24.4379 28.2002 23.1252 28.2002 20.5V10.5C28.2002 7.87475 28.2002 6.56213 27.6893 5.55942C27.2399 4.67741 26.5228 3.96031 25.6408 3.51091C24.6381 3 23.3254 3 20.7002 3H10.7002C8.07495 3 6.76233 3 5.75961 3.51091C4.87761 3.96031 4.16051 4.67741 3.7111 5.55942C3.2002 6.56213 3.2002 7.87475 3.2002 10.5V20.5C3.2002 23.1252 3.2002 24.4379 3.7111 25.4406C4.16051 26.3226 4.87761 27.0397 5.75961 27.4891C6.76233 28 8.07495 28 10.7002 28Z" stroke="#777E90" stroke-width="1.5" stroke-linecap="round" stroke-linejoin="round"/>
<path d="M9.3999 12C9.3999 15.3137 12.0862 18 15.3999 18C18.7136 18 21.3999 15.3137 21.3999 12C21.3999 8.68629 18.7136 6 15.3999 6C13.6079 6 11.9993 6.78563 10.8999 8.03126C10.8369 8.10268 10.7755 8.17562 10.7159 8.25M15.3999 9V12L17.2749 13.875M10.7153 6.00293V8.25293H12.9653" stroke="#777E90" stroke-width="1.5" stroke-linecap="round" stroke-linejoin="round"/>
</svg>
