<svg width="27" height="27" viewBox="0 0 27 27" fill="none" xmlns="http://www.w3.org/2000/svg">
<path d="M10.1758 6.46875L16.4258 12.7188M16.4258 6.46875L10.1758 12.7188M0.800781 16.625H4.97971C5.74406 16.625 6.12623 16.625 6.48588 16.7113C6.80474 16.7879 7.10957 16.9142 7.38917 17.0855C7.70454 17.2788 7.97478 17.549 8.51525 18.0895L8.71132 18.2855C9.25179 18.826 9.52203 19.0962 9.83739 19.2895C10.117 19.4608 10.4218 19.5871 10.7407 19.6637C11.1003 19.75 11.4825 19.75 12.2468 19.75H14.3547C15.1191 19.75 15.5012 19.75 15.8609 19.6637C16.1797 19.5871 16.4846 19.4608 16.7642 19.2895C17.0795 19.0962 17.3498 18.826 17.8902 18.2855L18.0863 18.0895C18.6268 17.549 18.897 17.2788 19.2124 17.0855C19.492 16.9142 19.7968 16.7879 20.1157 16.7113C20.4753 16.625 20.8575 16.625 21.6218 16.625H25.8008M8.30078 26H18.3008C20.926 26 22.2387 26 23.2414 25.4891C24.1234 25.0397 24.8405 24.3226 25.2899 23.4406C25.8008 22.4379 25.8008 21.1252 25.8008 18.5V8.5C25.8008 5.87475 25.8008 4.56213 25.2899 3.55942C24.8405 2.67741 24.1234 1.96031 23.2414 1.51091C22.2387 1 20.926 1 18.3008 1H8.30078C5.67554 1 4.36291 1 3.3602 1.51091C2.47819 1.96031 1.76109 2.67741 1.31169 3.55942C0.800781 4.56213 0.800781 5.87475 0.800781 8.5V18.5C0.800781 21.1252 0.800781 22.4379 1.31169 23.4406C1.76109 24.3226 2.47819 25.0397 3.3602 25.4891C4.36291 26 5.67554 26 8.30078 26Z" stroke="#6B7280" stroke-width="1.5" stroke-linecap="round" stroke-linejoin="round"/>
</svg>
