<svg width="32" height="32" viewBox="0 0 32 32" fill="none" xmlns="http://www.w3.org/2000/svg">
<rect width="32" height="32" rx="16" fill="#F8F8FC"/>
<path d="M19.9999 14.3996C20.4872 14.3996 20.963 14.2513 21.364 13.9743C21.7649 13.6974 22.0721 13.3049 22.2446 12.8491C22.4171 12.3934 22.4467 11.8959 22.3296 11.4228C22.2125 10.9498 21.9542 10.5236 21.589 10.201C21.2237 9.87832 20.769 9.6745 20.2851 9.61661C19.8012 9.55871 19.3112 9.64949 18.8802 9.87687C18.4491 10.1042 18.0975 10.4575 17.8721 10.8895C17.6467 11.3216 17.5582 11.812 17.6183 12.2956L13.6663 14.2716C13.3273 13.9447 12.8996 13.7247 12.4364 13.6392C11.9733 13.5536 11.4953 13.6062 11.0618 13.7903C10.6283 13.9745 10.2587 14.2821 9.99878 14.6749C9.73891 15.0677 9.60034 15.5282 9.60034 15.9992C9.60034 16.4702 9.73891 16.9307 9.99878 17.3235C10.2587 17.7163 10.6283 18.0239 11.0618 18.2081C11.4953 18.3923 11.9733 18.4448 12.4364 18.3593C12.8996 18.2737 13.3273 18.0537 13.6663 17.7268L17.6183 19.7028C17.5483 20.2646 17.6791 20.8331 17.9877 21.3077C18.2963 21.7824 18.7627 22.1326 19.3046 22.2966C19.8464 22.4607 20.4288 22.4278 20.9488 22.204C21.4688 21.9801 21.893 21.5797 22.1463 21.0734C22.3996 20.567 22.4657 19.9875 22.333 19.4371C22.2004 18.8868 21.8774 18.401 21.4212 18.0657C20.9651 17.7304 20.405 17.5672 19.8402 17.6049C19.2753 17.6426 18.7419 17.8787 18.3343 18.2716L14.3823 16.2956C14.4065 16.099 14.4065 15.9002 14.3823 15.7036L18.3343 13.7276C18.7647 14.1436 19.3519 14.3996 19.9999 14.3996Z" fill="#BCBFD6"/>
</svg>
