<svg width="32" height="32" viewBox="0 0 32 32" fill="none" xmlns="http://www.w3.org/2000/svg">
<rect width="32" height="32" rx="16" fill="#F8F8FC"/>
<g clip-path="url(#clip0_2475_19548)">
<path d="M17.1667 12.8297C17.1667 12.5203 17.0438 12.2235 16.825 12.0048C16.6062 11.786 16.3094 11.663 16 11.663C15.6906 11.663 15.3938 11.786 15.175 12.0048C14.9562 12.2235 14.8333 12.5203 14.8333 12.8297V13.8297C14.8333 13.8739 14.8509 13.9163 14.8821 13.9476C14.9134 13.9788 14.9558 13.9964 15 13.9964H17C17.0442 13.9964 17.0866 13.9788 17.1179 13.9476C17.1491 13.9163 17.1667 13.8739 17.1667 13.8297V12.8297Z" fill="#BCBFD6"/>
<path d="M24 9.30288C23.9979 8.95813 23.8595 8.62819 23.6151 8.38503C23.3707 8.14188 23.0401 8.00522 22.6953 8.00488H9.306C8.96096 8.00682 8.63072 8.14529 8.38749 8.39002C8.14426 8.63475 8.00782 8.96583 8.008 9.31088L8 14.2049C8.01749 16.4891 8.80907 18.6999 10.2454 20.4762C11.6818 22.2524 13.678 23.4891 15.908 23.9842C15.9506 23.9927 15.9939 23.997 16.0373 23.9969C16.0821 23.9967 16.1268 23.992 16.1707 23.9829C18.3962 23.4681 20.3814 22.2139 21.802 20.425C23.2226 18.6362 23.9947 16.4185 23.992 14.1342L24 9.30288ZM13 18.3302V14.6635C13 14.4867 13.0702 14.3172 13.1953 14.1921C13.3203 14.0671 13.4899 13.9969 13.6667 13.9969H13.8333V12.8302C13.8333 12.2556 14.0616 11.7045 14.4679 11.2981C14.8743 10.8918 15.4254 10.6635 16 10.6635C16.5746 10.6635 17.1257 10.8918 17.5321 11.2981C17.9384 11.7045 18.1667 12.2556 18.1667 12.8302V13.9969H18.3333C18.5101 13.9969 18.6797 14.0671 18.8047 14.1921C18.9298 14.3172 19 14.4867 19 14.6635V18.3302C19 18.507 18.9298 18.6766 18.8047 18.8016C18.6797 18.9266 18.5101 18.9969 18.3333 18.9969H13.6667C13.4899 18.9969 13.3203 18.9266 13.1953 18.8016C13.0702 18.6766 13 18.507 13 18.3302Z" fill="#BCBFD6"/>
<path d="M16 17.663C16.4602 17.663 16.8333 17.2899 16.8333 16.8297C16.8333 16.3695 16.4602 15.9964 16 15.9964C15.5398 15.9964 15.1667 16.3695 15.1667 16.8297C15.1667 17.2899 15.5398 17.663 16 17.663Z" fill="#BCBFD6"/>
</g>
<defs>
<clipPath id="clip0_2475_19548">
<rect width="16" height="16" fill="white" transform="translate(8 8)"/>
</clipPath>
</defs>
</svg>
