<svg width="25" height="24" viewBox="0 0 25 24" fill="none" xmlns="http://www.w3.org/2000/svg">
<path d="M4.42944 2H20.4294C20.6947 2 20.949 2.10536 21.1366 2.29289C21.3241 2.48043 21.4294 2.73478 21.4294 3V21C21.4294 21.2652 21.3241 21.5196 21.1366 21.7071C20.949 21.8946 20.6947 22 20.4294 22H4.42944C4.16423 22 3.90987 21.8946 3.72234 21.7071C3.5348 21.5196 3.42944 21.2652 3.42944 21V3C3.42944 2.73478 3.5348 2.48043 3.72234 2.29289C3.90987 2.10536 4.16423 2 4.42944 2ZM5.42944 4V20H19.4294V4H5.42944ZM7.42944 6H17.4294V10H7.42944V6ZM7.42944 12H9.42944V14H7.42944V12ZM7.42944 16H9.42944V18H7.42944V16ZM11.4294 12H13.4294V14H11.4294V12ZM11.4294 16H13.4294V18H11.4294V16ZM15.4294 12H17.4294V18H15.4294V12Z" fill="#6A737D"/>
</svg>
