<svg width="18" height="16" viewBox="0 0 18 16" fill="none" xmlns="http://www.w3.org/2000/svg">
<path d="M12.125 1.33325L12.8147 0.609114C12.6287 0.432027 12.3818 0.333252 12.125 0.333252V1.33325ZM16.5 5.49992H17.5C17.5 5.22624 17.3878 4.96452 17.1897 4.77578L16.5 5.49992ZM15.135 11.0608L14.681 10.1698L15.135 11.0608ZM16.2275 9.96823L15.3365 9.51424L16.2275 9.96823ZM5.10582 9.96823L5.99682 9.51424L5.99682 9.51424L5.10582 9.96823ZM6.19836 11.0608L5.74437 11.9518H5.74437L6.19836 11.0608ZM6.19836 1.60574L6.65235 2.49674L6.65235 2.49674L6.19836 1.60574ZM5.10582 2.69828L5.99682 3.15227L5.99682 3.15227L5.10582 2.69828ZM12.5 1.33325C12.5 0.780967 12.0523 0.333252 11.5 0.333252C10.9477 0.333252 10.5 0.780967 10.5 1.33325H12.5ZM12.41 5.31826L11.956 6.20927L12.41 5.31826ZM11.6817 4.5899L12.5727 4.13591V4.13591L11.6817 4.5899ZM2.5 2.99992C2.5 2.44763 2.05228 1.99992 1.5 1.99992C0.947715 1.99992 0.5 2.44763 0.5 2.99992H2.5ZM14 15.6666C14.5523 15.6666 15 15.2189 15 14.6666C15 14.1143 14.5523 13.6666 14 13.6666V15.6666ZM12.125 0.333252H8.83333V2.33325H12.125V0.333252ZM3.83333 5.33325V7.33325H5.83333V5.33325H3.83333ZM8.83333 12.3333H12.5V10.3333H8.83333V12.3333ZM17.5 7.33325V5.49992H15.5V7.33325H17.5ZM17.1897 4.77578L12.8147 0.609114L11.4353 2.05739L15.8103 6.22406L17.1897 4.77578ZM12.5 12.3333C13.1836 12.3333 13.7564 12.334 14.2234 12.2959C14.7021 12.2568 15.1571 12.1718 15.589 11.9518L14.681 10.1698C14.5781 10.2222 14.4156 10.2735 14.0606 10.3025C13.6938 10.3325 13.2166 10.3333 12.5 10.3333V12.3333ZM15.5 7.33325C15.5 8.04982 15.4992 8.5271 15.4693 8.89382C15.4403 9.24885 15.389 9.41132 15.3365 9.51424L17.1185 10.4222C17.3386 9.99036 17.4235 9.5354 17.4626 9.05668C17.5008 8.58963 17.5 8.01682 17.5 7.33325H15.5ZM15.589 11.9518C16.2475 11.6162 16.783 11.0808 17.1185 10.4222L15.3365 9.51424C15.1927 9.79648 14.9632 10.026 14.681 10.1698L15.589 11.9518ZM3.83333 7.33325C3.83333 8.01682 3.83256 8.58963 3.87071 9.05668C3.90983 9.5354 3.99477 9.99036 4.21481 10.4222L5.99682 9.51424C5.94438 9.41132 5.89308 9.24885 5.86407 8.89382C5.83411 8.5271 5.83333 8.04982 5.83333 7.33325H3.83333ZM8.83333 10.3333C8.11677 10.3333 7.63948 10.3325 7.27277 10.3025C6.91773 10.2735 6.75527 10.2222 6.65235 10.1698L5.74437 11.9518C6.17622 12.1718 6.63118 12.2568 7.10991 12.2959C7.57695 12.334 8.14977 12.3333 8.83333 12.3333V10.3333ZM4.21481 10.4222C4.55037 11.0808 5.0858 11.6162 5.74437 11.9518L6.65235 10.1698C6.3701 10.026 6.14063 9.79648 5.99682 9.51424L4.21481 10.4222ZM8.83333 0.333252C8.14977 0.333252 7.57695 0.332474 7.10991 0.370634C6.63118 0.409747 6.17622 0.494687 5.74437 0.714729L6.65235 2.49674C6.75527 2.4443 6.91773 2.393 7.27277 2.36399C7.63948 2.33403 8.11677 2.33325 8.83333 2.33325V0.333252ZM5.83333 5.33325C5.83333 4.61669 5.83411 4.1394 5.86407 3.77269C5.89308 3.41765 5.94438 3.25519 5.99682 3.15227L4.21481 2.24428C3.99477 2.67614 3.90983 3.1311 3.87071 3.60982C3.83256 4.07687 3.83333 4.64969 3.83333 5.33325H5.83333ZM5.74437 0.714729C5.0858 1.05029 4.55037 1.58572 4.21481 2.24429L5.99682 3.15227C6.14063 2.87002 6.3701 2.64055 6.65235 2.49674L5.74437 0.714729ZM16.5 4.49992H14.1667V6.49992H16.5V4.49992ZM12.5 2.83325V1.33325H10.5V2.83325H12.5ZM14.1667 4.49992C13.6835 4.49992 13.3812 4.49914 13.1534 4.48053C12.9374 4.46288 12.8778 4.43428 12.864 4.42726L11.956 6.20927C12.2988 6.3839 12.6508 6.44613 12.9906 6.47389C13.3187 6.5007 13.7165 6.49992 14.1667 6.49992V4.49992ZM10.5 2.83325C10.5 3.28346 10.4992 3.68126 10.526 4.00935C10.5538 4.34911 10.616 4.70117 10.7906 5.04389L12.5727 4.13591C12.5656 4.12212 12.537 4.06256 12.5194 3.84648C12.5008 3.61873 12.5 3.31646 12.5 2.83325H10.5ZM12.864 4.42726C12.7386 4.36334 12.6366 4.26135 12.5727 4.13591L10.7906 5.04389C11.0463 5.54566 11.4543 5.95361 11.956 6.20927L12.864 4.42726ZM0.5 2.99992V9.66658H2.5V2.99992H0.5ZM6.5 15.6666H14V13.6666H6.5V15.6666ZM0.5 9.66658C0.5 12.9803 3.18629 15.6666 6.5 15.6666V13.6666C4.29086 13.6666 2.5 11.8757 2.5 9.66658H0.5Z" fill="#6B7280"/>
</svg>
