<svg width="19" height="20" viewBox="0 0 19 20" fill="none" xmlns="http://www.w3.org/2000/svg">
<path d="M18.5 6V18.993C18.5009 19.1243 18.476 19.2545 18.4266 19.3762C18.3772 19.4979 18.3043 19.6087 18.2121 19.7022C18.1199 19.7957 18.0101 19.8701 17.8892 19.9212C17.7682 19.9723 17.6383 19.9991 17.507 20H1.493C1.22981 20 0.977391 19.8955 0.791196 19.7095C0.605001 19.5235 0.500265 19.2712 0.5 19.008V0.992C0.5 0.455 0.949 0 1.502 0H12.497L18.5 6ZM16.5 7H11.5V2H2.5V18H16.5V7ZM5.5 5H8.5V7H5.5V5ZM5.5 9H13.5V11H5.5V9ZM5.5 13H13.5V15H5.5V13Z" fill="#6A737D"/>
</svg>
