<svg width="33" height="32" viewBox="0 0 33 32" fill="none" xmlns="http://www.w3.org/2000/svg">
<path d="M9.64823 12.287C12.5482 16.3862 16.1255 19.9611 20.2267 22.8583C20.5603 22.3801 20.8735 21.9329 21.1832 21.4858C22.5162 19.5944 24.5989 19.2261 26.4975 20.5496C27.9186 21.5396 29.339 22.5315 30.7585 23.5254C32.5112 24.7509 32.9703 26.5144 32.0019 28.4273C30.853 30.6929 28.9042 31.7486 26.4521 31.9566C23.6616 32.1957 21.0433 31.4652 18.5768 30.2577C11.2001 26.6411 5.6837 21.1355 2.1412 13.7085C0.997036 11.3114 0.315558 8.7744 0.543913 6.07957C0.772268 3.38474 1.99893 1.34269 4.58137 0.278631C6.09019 -0.343069 7.74248 0.0849471 8.7109 1.40247C9.90647 3.02726 11.0674 4.67596 12.1781 6.35933C13.2075 7.92076 12.8129 9.94606 11.3292 11.0878C10.7972 11.4967 10.2376 11.8685 9.64823 12.287Z" fill="white"/>
</svg>
