<svg width="31" height="30" viewBox="0 0 31 30" fill="none" xmlns="http://www.w3.org/2000/svg">
<path d="M20.6001 8.75C20.6001 11.5114 18.3615 13.75 15.6001 13.75C12.8387 13.75 10.6001 11.5114 10.6001 8.75C10.6001 5.98858 12.8387 3.75 15.6001 3.75C18.3615 3.75 20.6001 5.98858 20.6001 8.75Z" fill="#B62222"/>
<path d="M15.6001 17.5C10.7676 17.5 6.8501 21.4175 6.8501 26.25H24.3501C24.3501 21.4175 20.4326 17.5 15.6001 17.5Z" fill="#B62222"/>
<path d="M20.6001 8.75C20.6001 11.5114 18.3615 13.75 15.6001 13.75C12.8387 13.75 10.6001 11.5114 10.6001 8.75C10.6001 5.98858 12.8387 3.75 15.6001 3.75C18.3615 3.75 20.6001 5.98858 20.6001 8.75Z" stroke="#B62222" stroke-width="1.5" stroke-linecap="round" stroke-linejoin="round"/>
<path d="M15.6001 17.5C10.7676 17.5 6.8501 21.4175 6.8501 26.25H24.3501C24.3501 21.4175 20.4326 17.5 15.6001 17.5Z" stroke="#B62222" stroke-width="1.5" stroke-linecap="round" stroke-linejoin="round"/>
</svg>
