<svg width="37" height="36" viewBox="0 0 37 36" fill="none" xmlns="http://www.w3.org/2000/svg">
<g clip-path="url(#clip0_2475_28263)">
<path d="M18.8889 6.90909L13.7444 13.7811C13.5556 14.0333 13.259 14.1818 12.9439 14.1818H8M18.8889 6.90909L23.2604 13.7219C23.4443 14.0085 23.7615 14.1818 24.1021 14.1818H29.7778M18.8889 6.90909V26M29.7778 14.1818H34.4175C35.1522 14.1818 35.636 13.4161 35.3206 12.7525L32.3824 6.57072C32.2167 6.22212 31.8652 6 31.4792 6H6.61316C6.26654 6 5.94465 6.17949 5.76245 6.47435L1.9427 12.6562C1.53104 13.3224 2.01026 14.1818 2.7934 14.1818H8M29.7778 14.1818V25C29.7778 25.5523 29.3301 26 28.7778 26H18.8889M18.8889 26H9C8.44771 26 8 25.5523 8 25V21.9091M8 14.1818V18.2727" stroke="#111827" stroke-width="1.5" stroke-linecap="round"/>
<circle cx="29" cy="29" r="7.5" fill="#056CF2" stroke="white"/>
<path d="M26 30.7502V32H27.2498L30.936 28.3138L29.6862 27.064L26 30.7502ZM31.9025 27.3473C32.0325 27.2173 32.0325 27.0074 31.9025 26.8774L31.1226 26.0975C30.9926 25.9675 30.7827 25.9675 30.6527 26.0975L30.0428 26.7074L31.2926 27.9572L31.9025 27.3473Z" fill="white"/>
</g>
<defs>
<clipPath id="clip0_2475_28263">
<rect width="36" height="36" fill="white" transform="translate(0.5)"/>
</clipPath>
</defs>
</svg>
