<svg width="18" height="18" viewBox="0 0 18 18" fill="none" xmlns="http://www.w3.org/2000/svg">
<path d="M16.5 3.58333C16.5 10.717 10.717 16.5 3.58333 16.5C3.26148 16.5 2.94238 16.4882 2.62644 16.4651C2.26385 16.4385 2.08255 16.4253 1.91753 16.3302C1.78084 16.2516 1.65121 16.1121 1.58271 15.97C1.5 15.7985 1.5 15.5984 1.5 15.1983V12.8506C1.5 12.5141 1.5 12.3459 1.55538 12.2016C1.60429 12.0743 1.68374 11.9608 1.78675 11.8713C1.90336 11.77 2.06147 11.7125 2.37768 11.5975L5.05004 10.6257C5.41794 10.492 5.60189 10.4251 5.77642 10.4364C5.93031 10.4464 6.0784 10.499 6.20422 10.5881C6.3469 10.6893 6.44761 10.8571 6.64902 11.1928L7.33333 12.3333C9.54155 11.3333 11.3318 9.54073 12.3333 7.33333L11.1928 6.64902C10.8571 6.44761 10.6893 6.3469 10.5881 6.20422C10.499 6.0784 10.4464 5.93031 10.4364 5.77641C10.4251 5.60189 10.492 5.41795 10.6257 5.05007L10.6257 5.05004L11.5975 2.37768C11.7125 2.06147 11.77 1.90336 11.8713 1.78675C11.9608 1.68374 12.0743 1.60429 12.2016 1.55538C12.3459 1.5 12.5141 1.5 12.8506 1.5H15.1983C15.5984 1.5 15.7985 1.5 15.97 1.58271C16.1121 1.65121 16.2516 1.78085 16.3302 1.91753C16.4253 2.08255 16.4385 2.26385 16.4651 2.62644C16.4882 2.94238 16.5 3.26148 16.5 3.58333Z" stroke="white" stroke-width="2" stroke-linecap="round" stroke-linejoin="round"/>
</svg>
