<svg width="32" height="32" viewBox="0 0 32 32" fill="none" xmlns="http://www.w3.org/2000/svg">
<rect width="32" height="32" rx="16" fill="#F8F8FC"/>
<path d="M16 16.6667C15.8231 16.6667 15.6536 16.7369 15.5286 16.8619C15.4035 16.9869 15.3333 17.1565 15.3333 17.3333V19.3333C15.3333 19.5101 15.4035 19.6797 15.5286 19.8047C15.6536 19.9298 15.8231 20 16 20C16.1768 20 16.3463 19.9298 16.4714 19.8047C16.5964 19.6797 16.6666 19.5101 16.6666 19.3333V17.3333C16.6666 17.1565 16.5964 16.9869 16.4714 16.8619C16.3463 16.7369 16.1768 16.6667 16 16.6667ZM19.3333 14V12.6667C19.3333 11.7826 18.9821 10.9348 18.357 10.3096C17.7319 9.68452 16.884 9.33333 16 9.33333C15.1159 9.33333 14.2681 9.68452 13.6429 10.3096C13.0178 10.9348 12.6666 11.7826 12.6666 12.6667V14C12.1362 14 11.6275 14.2107 11.2524 14.5858C10.8773 14.9609 10.6666 15.4696 10.6666 16V20.6667C10.6666 21.1971 10.8773 21.7058 11.2524 22.0809C11.6275 22.4559 12.1362 22.6667 12.6666 22.6667H19.3333C19.8637 22.6667 20.3724 22.4559 20.7475 22.0809C21.1226 21.7058 21.3333 21.1971 21.3333 20.6667V16C21.3333 15.4696 21.1226 14.9609 20.7475 14.5858C20.3724 14.2107 19.8637 14 19.3333 14ZM14 12.6667C14 12.1362 14.2107 11.6275 14.5857 11.2524C14.9608 10.8774 15.4695 10.6667 16 10.6667C16.5304 10.6667 17.0391 10.8774 17.4142 11.2524C17.7892 11.6275 18 12.1362 18 12.6667V14H14V12.6667ZM20 20.6667C20 20.8435 19.9297 21.013 19.8047 21.1381C19.6797 21.2631 19.5101 21.3333 19.3333 21.3333H12.6666C12.4898 21.3333 12.3202 21.2631 12.1952 21.1381C12.0702 21.013 12 20.8435 12 20.6667V16C12 15.8232 12.0702 15.6536 12.1952 15.5286C12.3202 15.4036 12.4898 15.3333 12.6666 15.3333H19.3333C19.5101 15.3333 19.6797 15.4036 19.8047 15.5286C19.9297 15.6536 20 15.8232 20 16V20.6667Z" fill="#BCBFD6"/>
</svg>
