<svg width="41" height="40" viewBox="0 0 41 40" fill="none" xmlns="http://www.w3.org/2000/svg">
<path d="M10 12.8333H19.3333V3.5H10V12.8333ZM12.3333 5.83333H17V10.5H12.3333V5.83333Z" fill="#F83142"/>
<path d="M10 24.4998H19.3333V15.1665H10V24.4998ZM12.3333 17.4998H17V22.1665H12.3333V17.4998Z" fill="#F83142"/>
<path d="M21.6666 3.5V12.8333H31V3.5H21.6666ZM28.6666 10.5H24V5.83333H28.6666V10.5Z" fill="#F83142"/>
<path d="M31 22.1665H28.6666V24.4998H31V22.1665Z" fill="#F83142"/>
<path d="M24 15.1665H21.6666V17.4998H24V15.1665Z" fill="#F83142"/>
<path d="M26.3333 17.5H24V19.8333H26.3333V17.5Z" fill="#F83142"/>
<path d="M24 19.8335H21.6666V22.1668H24V19.8335Z" fill="#F83142"/>
<path d="M26.3333 22.1665H24V24.4998H26.3333V22.1665Z" fill="#F83142"/>
<path d="M28.6667 19.8335H26.3334V22.1668H28.6667V19.8335Z" fill="#F83142"/>
<path d="M28.6667 15.1665H26.3334V17.4998H28.6667V15.1665Z" fill="#F83142"/>
<path d="M31 17.5H28.6666V19.8333H31V17.5Z" fill="#F83142"/>
<path d="M4.62109 36.0527L6.49121 37.5371L5.69531 38.2354L3.85938 36.7656L4.62109 36.0527ZM6.50586 33.25V33.6406C6.50586 34.1777 6.43587 34.6595 6.2959 35.0859C6.15592 35.5124 5.95573 35.8753 5.69531 36.1748C5.4349 36.4743 5.12402 36.7038 4.7627 36.8633C4.40137 37.0195 4.00098 37.0977 3.56152 37.0977C3.12533 37.0977 2.72656 37.0195 2.36523 36.8633C2.00716 36.7038 1.69629 36.4743 1.43262 36.1748C1.16895 35.8753 0.963867 35.5124 0.817383 35.0859C0.674154 34.6595 0.602539 34.1777 0.602539 33.6406V33.25C0.602539 32.7129 0.674154 32.2327 0.817383 31.8096C0.960612 31.3831 1.16243 31.0202 1.42285 30.7207C1.68652 30.418 1.9974 30.1885 2.35547 30.0322C2.7168 29.8727 3.11556 29.793 3.55176 29.793C3.99121 29.793 4.3916 29.8727 4.75293 30.0322C5.11751 30.1885 5.43001 30.418 5.69043 30.7207C5.95085 31.0202 6.15104 31.3831 6.29102 31.8096C6.43424 32.2327 6.50586 32.7129 6.50586 33.25ZM5.27539 33.6406V33.2402C5.27539 32.8431 5.23633 32.4932 5.1582 32.1904C5.08333 31.8844 4.97103 31.6289 4.82129 31.4238C4.6748 31.2155 4.49414 31.0592 4.2793 30.9551C4.06771 30.8477 3.8252 30.7939 3.55176 30.7939C3.28483 30.7939 3.04557 30.8477 2.83398 30.9551C2.6224 31.0592 2.44173 31.2155 2.29199 31.4238C2.14225 31.6289 2.02832 31.8844 1.9502 32.1904C1.87207 32.4932 1.83301 32.8431 1.83301 33.2402V33.6406C1.83301 34.0378 1.87207 34.3893 1.9502 34.6953C2.02832 35.0013 2.14225 35.2601 2.29199 35.4717C2.44499 35.68 2.62728 35.8379 2.83887 35.9453C3.05371 36.0495 3.2946 36.1016 3.56152 36.1016C3.83496 36.1016 4.07747 36.0495 4.28906 35.9453C4.50065 35.8379 4.67969 35.68 4.82617 35.4717C4.97266 35.2601 5.08333 35.0013 5.1582 34.6953C5.23633 34.3893 5.27539 34.0378 5.27539 33.6406ZM11.7402 29.8906H12.9609V34.6416C12.9609 35.182 12.8438 35.6344 12.6094 35.999C12.375 36.3636 12.056 36.6387 11.6523 36.8242C11.252 37.0065 10.8044 37.0977 10.3096 37.0977C9.7985 37.0977 9.34277 37.0065 8.94238 36.8242C8.54199 36.6387 8.22624 36.3636 7.99512 35.999C7.76725 35.6344 7.65332 35.182 7.65332 34.6416V29.8906H8.87402V34.6416C8.87402 34.9834 8.93262 35.265 9.0498 35.4863C9.16699 35.7044 9.33301 35.8656 9.54785 35.9697C9.7627 36.0739 10.0166 36.126 10.3096 36.126C10.6025 36.126 10.8548 36.0739 11.0664 35.9697C11.2812 35.8656 11.4473 35.7044 11.5645 35.4863C11.6816 35.265 11.7402 34.9834 11.7402 34.6416V29.8906ZM18.9473 36.0283V37H15.1729V36.0283H18.9473ZM15.5195 29.8906V37H14.2939V29.8906H15.5195ZM18.4541 32.8594V33.8164H15.1729V32.8594H18.4541ZM18.9229 29.8906V30.8672H15.1729V29.8906H18.9229ZM16.0469 29.417L16.999 27.9473H18.3271L16.999 29.417H16.0469ZM22.9707 29.8906V37H21.7549V29.8906H22.9707ZM25.2021 29.8906V30.8672H19.543V29.8906H25.2021ZM32.1602 36.0527L34.0303 37.5371L33.2344 38.2354L31.3984 36.7656L32.1602 36.0527ZM34.0449 33.25V33.6406C34.0449 34.1777 33.9749 34.6595 33.835 35.0859C33.695 35.5124 33.4948 35.8753 33.2344 36.1748C32.974 36.4743 32.6631 36.7038 32.3018 36.8633C31.9404 37.0195 31.54 37.0977 31.1006 37.0977C30.6644 37.0977 30.2656 37.0195 29.9043 36.8633C29.5462 36.7038 29.2354 36.4743 28.9717 36.1748C28.708 35.8753 28.5029 35.5124 28.3564 35.0859C28.2132 34.6595 28.1416 34.1777 28.1416 33.6406V33.25C28.1416 32.7129 28.2132 32.2327 28.3564 31.8096C28.4997 31.3831 28.7015 31.0202 28.9619 30.7207C29.2256 30.418 29.5365 30.1885 29.8945 30.0322C30.2559 29.8727 30.6546 29.793 31.0908 29.793C31.5303 29.793 31.9307 29.8727 32.292 30.0322C32.6566 30.1885 32.9691 30.418 33.2295 30.7207C33.4899 31.0202 33.6901 31.3831 33.8301 31.8096C33.9733 32.2327 34.0449 32.7129 34.0449 33.25ZM32.8145 33.6406V33.2402C32.8145 32.8431 32.7754 32.4932 32.6973 32.1904C32.6224 31.8844 32.5101 31.6289 32.3604 31.4238C32.2139 31.2155 32.0332 31.0592 31.8184 30.9551C31.6068 30.8477 31.3643 30.7939 31.0908 30.7939C30.8239 30.7939 30.5846 30.8477 30.373 30.9551C30.1615 31.0592 29.9808 31.2155 29.8311 31.4238C29.6813 31.6289 29.5674 31.8844 29.4893 32.1904C29.4111 32.4932 29.3721 32.8431 29.3721 33.2402V33.6406C29.3721 34.0378 29.4111 34.3893 29.4893 34.6953C29.5674 35.0013 29.6813 35.2601 29.8311 35.4717C29.984 35.68 30.1663 35.8379 30.3779 35.9453C30.5928 36.0495 30.8337 36.1016 31.1006 36.1016C31.374 36.1016 31.6165 36.0495 31.8281 35.9453C32.0397 35.8379 32.2188 35.68 32.3652 35.4717C32.5117 35.2601 32.6224 35.0013 32.6973 34.6953C32.7754 34.3893 32.8145 34.0378 32.8145 33.6406ZM35.29 29.8906H37.8047C38.3451 29.8906 38.8057 29.972 39.1865 30.1348C39.5674 30.2975 39.8587 30.5384 40.0605 30.8574C40.2656 31.1732 40.3682 31.5638 40.3682 32.0293C40.3682 32.3841 40.3031 32.6966 40.1729 32.9668C40.0426 33.237 39.8587 33.4648 39.6211 33.6504C39.3835 33.8327 39.1003 33.9743 38.7715 34.0752L38.4004 34.2559H36.1396L36.1299 33.2842H37.8242C38.1172 33.2842 38.3613 33.2321 38.5566 33.1279C38.752 33.0238 38.8984 32.8822 38.9961 32.7031C39.097 32.5208 39.1475 32.3158 39.1475 32.0879C39.1475 31.8405 39.0986 31.6257 39.001 31.4434C38.9066 31.2578 38.7601 31.1162 38.5615 31.0186C38.363 30.9176 38.1107 30.8672 37.8047 30.8672H36.5156V37H35.29V29.8906ZM39.3477 37L37.6777 33.8066L38.9619 33.8018L40.6562 36.9365V37H39.3477Z" fill="#F83142"/>
<path d="M0.133789 37.9766H40.8613V38.4648H0.133789V37.9766Z" fill="#F83142"/>
</svg>
