<svg xmlns="http://www.w3.org/2000/svg" width="24" height="24" viewBox="0 0 24 24" fill="none">
    <g clip-path="url(#clip0_389_9291)">
        <path fill-rule="evenodd" clip-rule="evenodd" d="M2.43183 0.232666C1.87701 0.232666 1.3449 0.453072 0.952574 0.845396C0.560249 1.23772 0.339844 1.76983 0.339844 2.32466V8.77486C0.339844 9.48494 0.915479 10.0606 1.62556 10.0606C2.33565 10.0606 2.91127 9.48494 2.91127 8.77486V2.80409H8.88204C9.59211 2.80409 10.1678 2.22847 10.1678 1.51838C10.1678 0.808301 9.59211 0.232666 8.88204 0.232666H2.43183ZM15.3322 0.232666C14.6221 0.232666 14.0465 0.808301 14.0465 1.51838C14.0465 2.22847 14.6221 2.80409 15.3322 2.80409H21.3029V8.77486C21.3029 9.48494 21.8786 10.0606 22.5886 10.0606C23.2989 10.0606 23.8743 9.48494 23.8743 8.77486V2.32466C23.8743 1.76983 23.6541 1.23772 23.2617 0.845396C22.8694 0.453072 22.3373 0.232666 21.7824 0.232666H15.3322ZM22.5886 13.9394C23.2989 13.9394 23.8743 14.515 23.8743 15.2251V21.6752C23.8743 22.2301 23.6541 22.7623 23.2617 23.1545C22.8694 23.5469 22.3373 23.7673 21.7824 23.7673H15.3322C14.6221 23.7673 14.0465 23.1917 14.0465 22.4816C14.0465 21.7714 14.6221 21.1959 15.3322 21.1959H21.3029V15.2251C21.3029 14.515 21.8786 13.9394 22.5886 13.9394ZM2.91127 15.2251C2.91127 14.515 2.33565 13.9394 1.62556 13.9394C0.915479 13.9394 0.339844 14.515 0.339844 15.2251V21.6752C0.339844 22.2301 0.560249 22.7623 0.952574 23.1545C1.3449 23.5469 1.87701 23.7673 2.43183 23.7673H8.88204C9.59211 23.7673 10.1678 23.1917 10.1678 22.4816C10.1678 21.7714 9.59211 21.1959 8.88204 21.1959H2.91127V15.2251ZM18.2921 5.62747C18.8839 5.62747 19.3635 6.10718 19.3635 6.6989V17.3011C19.3635 17.8927 18.8839 18.3725 18.2921 18.3725C17.7003 18.3725 17.2207 17.8927 17.2207 17.3011V6.6989C17.2207 6.10718 17.7003 5.62747 18.2921 5.62747ZM4.64397 6.6989C4.64397 6.10718 5.12367 5.62747 5.71539 5.62747C6.30713 5.62747 6.78682 6.10718 6.78682 6.6989V17.3011C6.78682 17.8927 6.30713 18.3725 5.71539 18.3725C5.12367 18.3725 4.64397 17.8927 4.64397 17.3011V6.6989ZM14.4513 5.62747C15.043 5.62747 15.5227 6.10718 15.5227 6.6989V12.8839C15.5227 13.4756 15.043 13.9553 14.4513 13.9553C13.8596 13.9553 13.3799 13.4756 13.3799 12.8839V6.6989C13.3799 6.10718 13.8596 5.62747 14.4513 5.62747ZM13.3799 17.3011C13.3799 17.8927 13.8596 18.3725 14.4513 18.3725C15.043 18.3725 15.5227 17.8927 15.5227 17.3011V16.8191C15.5227 16.2273 15.043 15.7476 14.4513 15.7476C13.8596 15.7476 13.3799 16.2273 13.3799 16.8191V17.3011ZM9.98438 5.62747C10.5761 5.62747 11.0558 6.10718 11.0558 6.6989V12.8839C11.0558 13.4756 10.5761 13.9553 9.98438 13.9553C9.39264 13.9553 8.91295 13.4756 8.91295 12.8839V6.6989C8.91295 6.10718 9.39264 5.62747 9.98438 5.62747ZM8.91295 17.3011C8.91295 17.8927 9.39264 18.3725 9.98438 18.3725C10.5761 18.3725 11.0558 17.8927 11.0558 17.3011V16.8191C11.0558 16.2273 10.5761 15.7476 9.98438 15.7476C9.39264 15.7476 8.91295 16.2273 8.91295 16.8191V17.3011Z" fill="#FAFAFA"/>
    </g>
    <defs>
        <clipPath id="clip0_389_9291">
            <rect width="24" height="24" fill="white"/>
        </clipPath>
    </defs>
</svg>