<svg xmlns="http://www.w3.org/2000/svg" width="20" height="20" viewBox="0 0 20 20" fill="none">
    <path d="M15.8334 8.33333V14C15.8334 14.9334 15.8334 15.4001 15.6517 15.7566C15.4919 16.0702 15.237 16.3252 14.9234 16.485C14.5668 16.6667 14.1001 16.6667 13.1667 16.6667H6.83337C5.89995 16.6667 5.43324 16.6667 5.07672 16.485C4.76312 16.3252 4.50815 16.0702 4.34836 15.7566C4.16671 15.4001 4.16671 14.9334 4.16671 14V8.33333M7.50004 11.6667H12.5M4.66671 3.33333H15.3334C15.8001 3.33333 16.0334 3.33333 16.2117 3.42416C16.3685 3.50405 16.496 3.63153 16.5759 3.78834C16.6667 3.9666 16.6667 4.19995 16.6667 4.66666V6.99999C16.6667 7.46671 16.6667 7.70006 16.5759 7.87832C16.496 8.03512 16.3685 8.16261 16.2117 8.2425C16.0334 8.33333 15.8001 8.33333 15.3334 8.33333H4.66671C4.2 8.33333 3.96664 8.33333 3.78838 8.2425C3.63158 8.16261 3.5041 8.03512 3.4242 7.87832C3.33337 7.70006 3.33337 7.46671 3.33337 6.99999V4.66666C3.33337 4.19995 3.33337 3.9666 3.4242 3.78834C3.5041 3.63153 3.63158 3.50405 3.78838 3.42416C3.96664 3.33333 4.2 3.33333 4.66671 3.33333Z" stroke="#9E9E9E" stroke-width="2" stroke-linecap="round" stroke-linejoin="round"/>
</svg>