<svg width="25" height="24" viewBox="0 0 25 24" fill="none" xmlns="http://www.w3.org/2000/svg">
<g id="Cart Alt">
<path id="Vector" d="M20 22C20.3978 22 20.7794 21.842 21.0607 21.5607C21.342 21.2794 21.5 20.8978 21.5 20.5C21.5 20.1022 21.342 19.7206 21.0607 19.4393C20.7794 19.158 20.3978 19 20 19C19.6022 19 19.2206 19.158 18.9393 19.4393C18.658 19.7206 18.5 20.1022 18.5 20.5C18.5 20.8978 18.658 21.2794 18.9393 21.5607C19.2206 21.842 19.6022 22 20 22ZM10 22C10.3978 22 10.7794 21.842 11.0607 21.5607C11.342 21.2794 11.5 20.8978 11.5 20.5C11.5 20.1022 11.342 19.7206 11.0607 19.4393C10.7794 19.158 10.3978 19 10 19C9.60218 19 9.22064 19.158 8.93934 19.4393C8.65804 19.7206 8.5 20.1022 8.5 20.5C8.5 20.8978 8.65804 21.2794 8.93934 21.5607C9.22064 21.842 9.60218 22 10 22Z" fill="#353535" stroke="#353535" stroke-width="1.5" stroke-linecap="round" stroke-linejoin="round"/>
<path id="Vector_2" d="M17 4H22.5L20.5 15M17 4L16 15M17 4H11.25M20.5 15H16M20.5 15H5.73C3.946 15 3 15.781 3 17C3 18.219 3.946 19 5.73 19H20M16 15H12M11.25 4H5.5M11.25 4L12 15M12 15H7.5L5.5 4M5.5 4C5.333 3.333 4.5 2 2.5 2" stroke="#353535" stroke-width="1.5" stroke-linecap="round" stroke-linejoin="round"/>
</g>
</svg>
