<svg xmlns="http://www.w3.org/2000/svg" width="20" height="20" viewBox="0 0 20 20" fill="none">
    <path d="M11.6667 8.75C11.6667 9.90059 9.80123 10.8333 7.50004 10.8333C5.19885 10.8333 3.33337 9.90059 3.33337 8.75M11.6667 8.75C11.6667 7.59941 9.80123 6.66667 7.50004 6.66667C5.19885 6.66667 3.33337 7.59941 3.33337 8.75M11.6667 8.75V15.8333C11.6667 16.7538 9.80123 17.5 7.50004 17.5C5.19885 17.5 3.33337 16.7538 3.33337 15.8333V8.75M11.6667 12.5C11.6667 13.4205 9.80123 14.1667 7.50004 14.1667C5.19885 14.1667 3.33337 13.4205 3.33337 12.5M16.6667 4.58333C16.6667 3.43274 14.8012 2.5 12.5 2.5C10.8508 2.5 9.42534 2.9791 8.75004 3.67414M16.6667 4.58333C16.6667 5.35446 15.8288 6.02774 14.5834 6.38795M16.6667 4.58333V11.6667C16.6667 12.2836 15.8288 12.8222 14.5834 13.1104M16.6667 8.33333C16.6667 8.9639 15.7912 9.51269 14.5 9.79581" stroke="#6B7280" stroke-width="2" stroke-linecap="round" stroke-linejoin="round"/>
</svg>