<svg width="14" height="14" viewBox="0 0 14 14" fill="none" xmlns="http://www.w3.org/2000/svg">
<g id="customer-support-3--customer-headset-help-microphone-phone-support">
<path id="Ellipse 28" d="M7 13.1251C11.2292 13.1251 12.8333 12.2501 12.8333 9.04175" stroke="#353535" stroke-linecap="round" stroke-linejoin="round"/>
<path id="Vector" d="M1.98423 10.4367C1.49306 10.3139 1.16669 9.8656 1.16669 9.35956V8.4583V7.55764C1.16669 7.05131 1.49306 6.60272 1.98423 6.47993C2.45848 6.36122 3.08148 6.22793 3.69398 6.16376C4.1134 6.11972 4.48265 6.3656 4.55235 6.78122C4.6136 7.14405 4.66669 7.68276 4.66669 8.4583C4.66669 9.23414 4.61331 9.77285 4.55235 10.1354C4.48235 10.551 4.1134 10.7969 3.69398 10.7531C3.08148 10.689 2.45848 10.5554 1.98423 10.4367Z" stroke="#353535" stroke-linecap="round" stroke-linejoin="round"/>
<path id="Vector_2" d="M12.0158 10.4367C12.507 10.3139 12.8334 9.8656 12.8334 9.35956V8.4583V7.55764C12.8334 7.05131 12.507 6.60272 12.0158 6.47993C11.5416 6.36122 10.9186 6.22793 10.3061 6.16376C9.88667 6.11972 9.51742 6.3656 9.44771 6.78122C9.38646 7.14405 9.33337 7.68276 9.33337 8.4583C9.33337 9.23414 9.38675 9.77285 9.44771 10.1354C9.51771 10.551 9.88667 10.7969 10.3061 10.7531C10.9186 10.689 11.5416 10.5554 12.0158 10.4367Z" stroke="#353535" stroke-linecap="round" stroke-linejoin="round"/>
<path id="Subtract" d="M12.8334 7.55738V6.70833C12.8334 3.48658 10.2218 0.875 7.00002 0.875C3.77827 0.875 1.16669 3.48658 1.16669 6.70833V7.55738M11.0705 6.27463C10.9043 4.23208 9.14552 2.625 7.00002 2.625C4.85481 2.625 3.09577 4.23208 2.92952 6.27463" stroke="#353535" stroke-linecap="round" stroke-linejoin="round"/>
</g>
</svg>
