<svg width="14" height="14" viewBox="0 0 14 14" fill="none" xmlns="http://www.w3.org/2000/svg">
<g id="information-desk-customer">
<path id="Ellipse 227" d="M9.30957 2.75379C9.30957 4.00069 10.6594 4.77999 11.7392 4.15659C12.2404 3.86719 12.5491 3.33249 12.5491 2.75379C12.5491 1.50689 11.1993 0.72759 10.1195 1.35099C9.61827 1.64039 9.30957 2.17509 9.30957 2.75379Z" stroke="black" stroke-linecap="round" stroke-linejoin="round"/>
<path id="Ellipse 228" d="M8.49927 7.61465V6.80445C8.49927 5.46225 9.58737 4.37415 10.9297 4.37415C12.272 4.37415 13.3601 5.46225 13.3601 6.80445V7.61465" stroke="black" stroke-linecap="round" stroke-linejoin="round"/>
<path id="Vector 637" d="M6.62799 7.61572H13.3604" stroke="black" stroke-linecap="round" stroke-linejoin="round"/>
<path id="Vector" d="M3.63379 4.86133C4.57869 4.86133 5.34479 4.09523 5.34479 3.15033C5.34479 2.20533 4.57869 1.43933 3.63379 1.43933C2.68879 1.43933 1.92279 2.20533 1.92279 3.15033C1.92279 4.09523 2.68879 4.86133 3.63379 4.86133Z" stroke="black" stroke-linecap="round" stroke-linejoin="round"/>
<path id="Vector_2" d="M6.62799 7.85551C6.62799 7.06131 6.31259 6.29981 5.75109 5.73821C5.18949 5.17671 4.42789 4.86121 3.63379 4.86121C2.83969 4.86121 2.07809 5.17671 1.51659 5.73821C0.955087 6.29981 0.639587 7.06131 0.639587 7.85551V9.13871H1.92289L2.35059 12.5607H4.91709L5.34479 9.13871H6.62799V7.85551Z" stroke="black" stroke-linecap="round" stroke-linejoin="round"/>
</g>
</svg>
