<svg xmlns="http://www.w3.org/2000/svg" width="17" height="16" viewBox="0 0 17 16" fill="none">
    <g clip-path="url(#clip0_242_3916)">
        <path d="M8.41514 15.0878L4.98657 15.385L5.28372 11.9564L12.4151 4.87071C12.5216 4.76186 12.6487 4.67537 12.7891 4.61632C12.9293 4.55727 13.08 4.52686 13.2323 4.52686C13.3845 4.52686 13.5352 4.55727 13.6756 4.61632C13.8159 4.67537 13.943 4.76186 14.0494 4.87071L15.5008 6.33356C15.6079 6.43982 15.6929 6.56622 15.751 6.70548C15.8091 6.84475 15.8389 6.99412 15.8389 7.14499C15.8389 7.29586 15.8091 7.44524 15.751 7.58451C15.6929 7.72378 15.6079 7.85018 15.5008 7.95642L8.41514 15.0878Z" stroke="#F2F2F2" stroke-linecap="round" stroke-linejoin="round"/>
        <path d="M1.46193 4.53951C1.06087 4.46973 1.06087 3.89399 1.46193 3.82422C2.91491 3.57143 4.07055 2.46473 4.38593 1.02404L4.4101 0.91361C4.49687 0.517229 5.06127 0.514762 5.1515 0.910369L5.18085 1.03907C5.5079 2.47296 6.66385 3.57031 8.1128 3.82239C8.51591 3.89252 8.51591 4.4712 8.1128 4.54133C6.66385 4.79341 5.5079 5.89076 5.18085 7.32465L5.1515 7.45335C5.06127 7.84896 4.49687 7.84649 4.4101 7.4501L4.38593 7.33968C4.07055 5.89898 2.91491 4.79229 1.46193 4.53951Z" stroke="#F2F2F2" stroke-linecap="round" stroke-linejoin="round"/>
    </g>
    <defs>
        <clipPath id="clip0_242_3916">
            <rect width="16" height="16" fill="white" transform="translate(0.5)"/>
        </clipPath>
    </defs>
</svg>