<svg width="20" height="20" viewBox="0 0 20 20" fill="none" xmlns="http://www.w3.org/2000/svg">
<g id="Icon-right">
<path id="Icon" d="M13.125 3.3335L13.8147 2.60936C13.6287 2.43227 13.3818 2.3335 13.125 2.3335V3.3335ZM17.5 7.50016H18.5C18.5 7.22649 18.3878 6.96477 18.1897 6.77602L17.5 7.50016ZM16.135 13.061L15.681 12.17L16.135 13.061ZM17.2275 11.9685L16.3365 11.5145L17.2275 11.9685ZM6.10582 11.9685L6.99682 11.5145L6.99682 11.5145L6.10582 11.9685ZM7.19836 13.061L6.74437 13.952H6.74437L7.19836 13.061ZM7.19836 3.60598L7.65235 4.49699L7.65235 4.49699L7.19836 3.60598ZM6.10582 4.69852L6.99682 5.15251L6.99682 5.15251L6.10582 4.69852ZM13.5 3.3335C13.5 2.78121 13.0523 2.3335 12.5 2.3335C11.9477 2.3335 11.5 2.78121 11.5 3.3335H13.5ZM13.41 7.31851L12.956 8.20951L13.41 7.31851ZM12.6817 6.59015L13.5727 6.13616V6.13616L12.6817 6.59015ZM3.5 5.00016C3.5 4.44788 3.05228 4.00016 2.5 4.00016C1.94772 4.00016 1.5 4.44788 1.5 5.00016H3.5ZM15 17.6668C15.5523 17.6668 16 17.2191 16 16.6668C16 16.1145 15.5523 15.6668 15 15.6668V17.6668ZM13.125 2.3335H9.83333V4.3335H13.125V2.3335ZM4.83333 7.3335V9.3335H6.83333V7.3335H4.83333ZM9.83333 14.3335H13.5V12.3335H9.83333V14.3335ZM18.5 9.3335V7.50016H16.5V9.3335H18.5ZM18.1897 6.77602L13.8147 2.60936L12.4353 4.05763L16.8103 8.2243L18.1897 6.77602ZM13.5 14.3335C14.1836 14.3335 14.7564 14.3343 15.2234 14.2961C15.7021 14.257 16.1571 14.1721 16.589 13.952L15.681 12.17C15.5781 12.2224 15.4156 12.2737 15.0606 12.3028C14.6938 12.3327 14.2166 12.3335 13.5 12.3335V14.3335ZM16.5 9.3335C16.5 10.0501 16.4992 10.5273 16.4693 10.8941C16.4403 11.2491 16.389 11.4116 16.3365 11.5145L18.1185 12.4225C18.3386 11.9906 18.4235 11.5356 18.4626 11.0569C18.5008 10.5899 18.5 10.0171 18.5 9.3335H16.5ZM16.589 13.952C17.2475 13.6165 17.783 13.081 18.1185 12.4225L16.3365 11.5145C16.1927 11.7967 15.9632 12.0262 15.681 12.17L16.589 13.952ZM4.83333 9.3335C4.83333 10.0171 4.83256 10.5899 4.87071 11.0569C4.90983 11.5356 4.99477 11.9906 5.21481 12.4225L6.99682 11.5145C6.94438 11.4116 6.89308 11.2491 6.86407 10.8941C6.83411 10.5273 6.83333 10.0501 6.83333 9.3335H4.83333ZM9.83333 12.3335C9.11677 12.3335 8.63948 12.3327 8.27277 12.3028C7.91773 12.2737 7.75527 12.2224 7.65235 12.17L6.74437 13.952C7.17622 14.1721 7.63118 14.257 8.10991 14.2961C8.57695 14.3343 9.14977 14.3335 9.83333 14.3335V12.3335ZM5.21481 12.4225C5.55037 13.081 6.0858 13.6165 6.74437 13.952L7.65235 12.17C7.3701 12.0262 7.14063 11.7967 6.99682 11.5145L5.21481 12.4225ZM9.83333 2.3335C9.14977 2.3335 8.57695 2.33272 8.10991 2.37088C7.63118 2.40999 7.17622 2.49493 6.74437 2.71497L7.65235 4.49699C7.75527 4.44455 7.91773 4.39324 8.27277 4.36424C8.63948 4.33427 9.11677 4.3335 9.83333 4.3335V2.3335ZM6.83333 7.3335C6.83333 6.61693 6.83411 6.13965 6.86407 5.77293C6.89308 5.41789 6.94438 5.25543 6.99682 5.15251L5.21481 4.24453C4.99477 4.67639 4.90983 5.13135 4.87071 5.61007C4.83256 6.07712 4.83333 6.64993 4.83333 7.3335H6.83333ZM6.74437 2.71497C6.0858 3.05053 5.55037 3.58596 5.21481 4.24453L6.99682 5.15251C7.14063 4.87027 7.3701 4.6408 7.65235 4.49699L6.74437 2.71497ZM17.5 6.50016H15.1667V8.50016H17.5V6.50016ZM13.5 4.8335V3.3335H11.5V4.8335H13.5ZM15.1667 6.50016C14.6835 6.50016 14.3812 6.49938 14.1534 6.48078C13.9374 6.46312 13.8778 6.43453 13.864 6.4275L12.956 8.20951C13.2988 8.38414 13.6508 8.44637 13.9906 8.47413C14.3187 8.50094 14.7165 8.50016 15.1667 8.50016V6.50016ZM11.5 4.8335C11.5 5.28371 11.4992 5.6815 11.526 6.00959C11.5538 6.34935 11.616 6.70141 11.7906 7.04414L13.5727 6.13616C13.5656 6.12236 13.537 6.06281 13.5194 5.84673C13.5008 5.61897 13.5 5.31671 13.5 4.8335H11.5ZM13.864 6.4275C13.7386 6.36358 13.6366 6.2616 13.5727 6.13616L11.7906 7.04414C12.0463 7.5459 12.4543 7.95385 12.956 8.20951L13.864 6.4275ZM1.5 5.00016V11.6668H3.5V5.00016H1.5ZM7.5 17.6668H15V15.6668H7.5V17.6668ZM1.5 11.6668C1.5 14.9805 4.18629 17.6668 7.5 17.6668V15.6668C5.29086 15.6668 3.5 13.876 3.5 11.6668H1.5Z" fill="#6B7280"/>
</g>
</svg>
