<svg width="24" height="24" viewBox="0 0 24 24" fill="none" xmlns="http://www.w3.org/2000/svg">
<g id="fastforward-clock--time-clock-reset-stopwatch-circle-measure-loading">
<path id="Vector 1560 (Stroke)" fill-rule="evenodd" clip-rule="evenodd" d="M11.9996 4.71436C12.3406 4.71436 12.6676 4.84981 12.9087 5.09093C13.1498 5.33205 13.2853 5.65908 13.2853 6.00007V12.1286L16.947 14.3264C17.0935 14.4124 17.2216 14.5266 17.3237 14.6624C17.4258 14.7981 17.5001 14.9528 17.542 15.1175C17.584 15.2821 17.593 15.4534 17.5683 15.6216C17.5437 15.7897 17.486 15.9513 17.3985 16.0969C17.3111 16.2426 17.1956 16.3695 17.0588 16.4703C16.922 16.5711 16.7666 16.6438 16.6016 16.6841C16.4365 16.7245 16.2651 16.7317 16.0972 16.7054C15.9294 16.6791 15.7684 16.6198 15.6236 16.5309L11.3379 13.9595C11.1476 13.8453 10.9901 13.6837 10.8807 13.4905C10.7714 13.2974 10.7139 13.0792 10.7139 12.8572V6.00007C10.7139 5.65908 10.8493 5.33205 11.0904 5.09093C11.3316 4.84981 11.6586 4.71436 11.9996 4.71436Z" fill="#B92F2E"/>
<path id="Union" fill-rule="evenodd" clip-rule="evenodd" d="M2.57097 12.0003C2.57063 10.0405 3.18101 8.12926 4.31722 6.53242C5.45344 4.93558 7.05901 3.73248 8.91068 3.09043C10.7623 2.44838 12.7681 2.39929 14.6489 2.94999C16.5298 3.50069 18.1923 4.62381 19.4053 6.16316L17.7493 7.81744C17.6292 7.93722 17.5473 8.08993 17.5141 8.25624C17.4808 8.42255 17.4977 8.59499 17.5624 8.75173C17.6272 8.90847 17.7371 9.04247 17.878 9.13676C18.019 9.23106 18.1848 9.28141 18.3544 9.28144H23.1424C23.3697 9.28144 23.5877 9.19114 23.7485 9.03039C23.9092 8.86965 23.9995 8.65163 23.9995 8.4243V3.63458C23.9998 3.46484 23.9497 3.29882 23.8556 3.15758C23.7614 3.01634 23.6274 2.90624 23.4706 2.84124C23.3138 2.77624 23.1412 2.75926 22.9748 2.79246C22.8083 2.82566 22.6554 2.90754 22.5355 3.02773L21.2327 4.3323C19.5049 2.25227 17.1252 0.816778 14.4794 0.258528C11.8336 -0.299723 9.07677 0.051996 6.65589 1.25667C4.23501 2.46134 2.29196 4.44834 1.14174 6.89556C-0.00848777 9.34277 -0.298463 12.1067 0.318821 14.7394C0.936105 17.372 2.42446 19.719 4.54261 21.3999C6.66076 23.0808 9.28453 23.997 11.9886 24C14.6926 24.003 17.3184 23.0927 19.4403 21.4165C21.5622 19.7404 23.0558 17.3967 23.679 14.7654C23.7551 14.4343 23.6971 14.0864 23.5176 13.7979C23.338 13.5094 23.0516 13.3037 22.7208 13.2258C22.3901 13.1479 22.0419 13.2041 21.7525 13.3821C21.463 13.5601 21.2558 13.8454 21.1761 14.1757C20.645 16.4267 19.3051 18.4039 17.4112 19.7313C15.5173 21.0588 13.2016 21.6438 10.9045 21.3752C8.60744 21.1066 6.48919 20.0031 4.95265 18.2746C3.41611 16.546 2.56848 14.313 2.57097 12.0003Z" fill="#B92F2E"/>
</g>
</svg>
