<svg xmlns="http://www.w3.org/2000/svg" width="24" height="24" viewBox="0 0 24 24" fill="none">
    <path d="M11 8L16 8.00053M11 12L16 12.0005M11 16L16 16.0005M8 16H8.01M8 12H8.01M8 8H8.01M8.8 20H15.2C16.8802 20 17.7202 20 18.362 19.673C18.9265 19.3854 19.3854 18.9265 19.673 18.362C20 17.7202 20 16.8802 20 15.2V8.8C20 7.11984 20 6.27976 19.673 5.63803C19.3854 5.07354 18.9265 4.6146 18.362 4.32698C17.7202 4 16.8802 4 15.2 4H8.8C7.11984 4 6.27976 4 5.63803 4.32698C5.07354 4.6146 4.6146 5.07354 4.32698 5.63803C4 6.27976 4 7.11984 4 8.8V15.2C4 16.8802 4 17.7202 4.32698 18.362C4.6146 18.9265 5.07354 19.3854 5.63803 19.673C6.27976 20 7.11984 20 8.8 20Z" stroke="#B62222" stroke-width="2" stroke-linecap="round" stroke-linejoin="round"/>
</svg>