<svg width="24" height="24" viewBox="0 0 24 24" fill="none" xmlns="http://www.w3.org/2000/svg">
<g id="Lef icon">
<path id="business-customer" fill-rule="evenodd" clip-rule="evenodd" d="M7.90236 7.21829C8.18437 5.11871 9.98273 3.5 12.1596 3.5C14.2828 3.5 16.046 5.03989 16.3933 7.06392C15.2616 6.91039 14.266 6.41666 13.5252 5.64402C13.3838 5.4965 13.1882 5.41309 12.9839 5.41309C12.7795 5.41309 12.5839 5.4965 12.4425 5.64402C11.5164 6.60991 10.2343 7.20541 8.81719 7.20541C8.67208 7.20541 8.52906 7.2094 8.39914 7.21303L8.3692 7.21386C8.22729 7.2178 8.10093 7.22092 7.97891 7.2197C7.95278 7.21944 7.92728 7.21897 7.90236 7.21829ZM7.90359 8.71874C8.20072 12.0731 10.1215 13.7733 12.1596 13.7733C14.226 13.7733 16.1718 12.0256 16.4271 8.57811C15.1452 8.44766 13.9552 7.97463 12.9871 7.18487C11.8541 8.13214 10.403 8.70541 8.81719 8.70541C8.69386 8.70541 8.5707 8.70884 8.43646 8.71257H8.43645L8.41078 8.71329C8.27067 8.71717 8.11788 8.72117 7.96388 8.71963C7.94395 8.71943 7.92385 8.71913 7.90359 8.71874ZM12.1596 2C8.95849 2 6.3639 4.59459 6.3639 7.79572C6.3639 10.1761 7.06363 12.1517 8.22928 13.4733L4.18007 15.9133L4.17972 15.9135C3.44873 16.3532 3 17.1441 3 17.9982V21.251C3 21.6653 3.33579 22.001 3.75 22.001H9.6222C9.63173 22.0012 9.64124 22.0012 9.65074 22.001H14.6684C14.6779 22.0012 14.6874 22.0012 14.6969 22.001H20.5691C20.9833 22.001 21.3191 21.6653 21.3191 21.251V17.9982C21.3191 17.1439 20.8708 16.3525 20.1391 15.9133L20.1382 15.9128L16.0899 13.4734C17.2556 12.1518 17.9553 10.1761 17.9553 7.79572C17.9553 4.59459 15.3608 2 12.1596 2ZM4.95365 17.1984L9.43109 14.5004C10.231 15.0012 11.1542 15.2733 12.1596 15.2733C13.165 15.2733 14.0882 15.0012 14.8881 14.5004L19.3654 17.1984L19.3668 17.1992C19.6471 17.3673 19.8191 17.6706 19.8191 17.9982V20.501H15.1902L13.6969 16.7677C13.583 16.4829 13.3072 16.2962 13.0005 16.2962H11.3186C11.0119 16.2962 10.7361 16.4829 10.6223 16.7677L9.1289 20.501H4.5V17.9982C4.5 17.6718 4.67175 17.3679 4.95307 17.1987L4.95365 17.1984ZM12.4927 17.7962L13.5747 20.501H10.7445L11.8264 17.7962H12.4927Z" fill="#B62222"/>
</g>
</svg>
