<svg width="25" height="24" viewBox="0 0 25 24" fill="none" xmlns="http://www.w3.org/2000/svg">
<g id="Synchronize-Warning--Streamline-Core" clip-path="url(#clip0_562_27968)">
<g id="synchronize-warning--arrow-fail-notification-sync-warning-failure-synchronize-error">
<path id="Vector" d="M19.3572 15.4284L22.7857 14.5713L23.6429 17.9999" stroke="#FAFAFA" stroke-width="1.5" stroke-linecap="round" stroke-linejoin="round"/>
<path id="Vector_2" d="M22.7858 14.5713C22.0569 16.7491 20.6824 18.6535 18.8452 20.0315C17.0079 21.4094 14.7949 22.1956 12.5001 22.2856C10.3883 22.2859 8.32756 21.6364 6.59779 20.4249C4.86803 19.2134 3.55307 17.4989 2.83154 15.5141" stroke="#FAFAFA" stroke-width="1.5" stroke-linecap="round" stroke-linejoin="round"/>
<path id="Vector_3" d="M5.64289 8.57143L2.21432 9.42857L1.35718 6" stroke="#FAFAFA" stroke-width="1.5" stroke-linecap="round" stroke-linejoin="round"/>
<path id="Vector_4" d="M2.21436 9.42815C2.98162 7.2742 4.36626 5.39394 6.19548 4.02202C8.02469 2.65011 10.2174 1.84732 12.5001 1.71387C14.6222 1.71983 16.6905 2.38203 18.4214 3.60966C20.1525 4.8373 21.4613 6.57027 22.1686 8.57101" stroke="#FAFAFA" stroke-width="1.5" stroke-linecap="round" stroke-linejoin="round"/>
</g>
</g>
<defs>
<clipPath id="clip0_562_27968">
<rect width="24" height="24" fill="white" transform="translate(0.5)"/>
</clipPath>
</defs>
</svg>
