<svg xmlns="http://www.w3.org/2000/svg" width="25" height="25" viewBox="0 0 25 25" fill="none">
    <path d="M21.6103 4.98567L20.2884 6.01926C18.486 3.71536 15.6829 2.23645 12.5353 2.23645C7.10011 2.23645 2.70089 6.63098 2.69386 12.0685C2.68682 17.5107 7.09542 21.924 12.5353 21.924C16.7845 21.924 20.4056 19.2286 21.7837 15.4529C21.8189 15.3544 21.7673 15.2443 21.6689 15.2114L20.34 14.7544C20.2936 14.7385 20.2429 14.7414 20.1987 14.7624C20.1544 14.7835 20.1202 14.821 20.1032 14.8669C20.061 14.9841 20.0142 15.1013 19.965 15.2161C19.5595 16.1771 18.9782 17.0396 18.2376 17.7802C17.5029 18.5162 16.6331 19.1035 15.6759 19.5099C14.6845 19.9294 13.6274 20.1427 12.5399 20.1427C11.4501 20.1427 10.3954 19.9294 9.40401 19.5099C8.44583 19.1053 7.5757 18.5177 6.84229 17.7802C6.10567 17.0456 5.51899 16.1748 5.11495 15.2161C4.69542 14.2224 4.48214 13.1677 4.48214 12.0779C4.48214 10.988 4.69542 9.93333 5.11495 8.93958C5.52042 7.97864 6.10167 7.11614 6.84229 6.37551C7.58292 5.63489 8.44542 5.05364 9.40401 4.64583C10.3954 4.22629 11.4524 4.01301 12.5399 4.01301C13.6298 4.01301 14.6845 4.22629 15.6759 4.64583C16.6341 5.05046 17.5042 5.63798 18.2376 6.37551C18.4696 6.60754 18.6876 6.85364 18.8892 7.11145L17.4782 8.21301C17.4503 8.23461 17.4291 8.26365 17.4169 8.29678C17.4048 8.32992 17.4022 8.36582 17.4096 8.40034C17.4169 8.43486 17.4338 8.46661 17.4584 8.49193C17.483 8.51725 17.5143 8.53512 17.5485 8.54348L21.6642 9.55129C21.7814 9.57942 21.8962 9.49036 21.8962 9.37082L21.9149 5.13098C21.9126 4.97629 21.7321 4.88958 21.6103 4.98567Z" fill="#FAFAFA"/>
</svg>