<svg xmlns="http://www.w3.org/2000/svg" width="20" height="20" viewBox="0 0 20 20" fill="none">
    <path d="M12.0422 3.55034C12.0419 3.00343 11.8502 2.49452 11.4555 2.09269L10.742 2.79335L11.4555 2.09269C11.0615 1.69144 10.5551 1.48802 10.0025 1.48669H10.0001C9.44555 1.48669 8.93687 1.69052 8.54225 2.09517C8.15073 2.49664 7.95933 3.00367 7.95806 3.54919V3.5515C7.95806 4.09883 8.14972 4.60779 8.54347 5.01014C8.93816 5.41346 9.44644 5.61735 10.0013 5.61631M12.0422 3.55034C12.0431 4.09798 11.8514 4.60688 11.4578 5.00907C11.0632 5.41227 10.5554 5.61602 10.0013 5.61631M12.0422 3.55034C12.0422 3.55073 12.0422 3.55111 12.0422 3.5515H11.0422L12.0422 3.54919C12.0422 3.54958 12.0422 3.54996 12.0422 3.55034ZM10.0013 5.61631C10.0017 5.61631 10.0021 5.61631 10.0025 5.61631L10.0001 4.61631V5.61631C10.0005 5.61631 10.0009 5.61631 10.0013 5.61631ZM11.9847 4.33358L11.6066 5.61631H12.9439H14.7675C15.0357 5.61631 15.2442 5.6981 15.4415 5.88137C15.659 6.08338 15.7857 6.31536 15.8373 6.60715L17.3195 17.2359C17.3196 17.2365 17.3197 17.237 17.3197 17.2375C17.3689 17.6014 17.2861 17.8822 17.0614 18.1513C16.8463 18.4089 16.6037 18.5241 16.2535 18.5237H16.2524H3.74784C3.39768 18.5237 3.1541 18.4083 2.93783 18.1501C2.71359 17.8824 2.63077 17.6025 2.6804 17.238C2.68046 17.2376 2.68051 17.2372 2.68056 17.2369L4.16291 6.60713C4.21454 6.31535 4.34124 6.08338 4.55869 5.88137C4.75599 5.6981 4.96447 5.61631 5.23275 5.61631H7.05633H8.39212L8.01584 4.33462C7.97085 4.18139 7.93423 4.03509 7.90542 3.89556C7.88618 3.80235 7.87397 3.68878 7.87397 3.5515C7.87397 2.91949 8.07974 2.41812 8.50047 1.98819C8.92039 1.5591 9.40095 1.35706 10.0001 1.35706C10.5993 1.35706 11.0798 1.5591 11.4997 1.98819C11.9205 2.41812 12.1262 2.91949 12.1262 3.5515C12.1262 3.68776 12.1141 3.80168 12.0946 3.89637C12.0659 4.03614 12.0294 4.18184 11.9847 4.33358Z" stroke="#6B7280" stroke-width="2"/>
</svg>