<svg width="343" height="343" viewBox="0 0 343 343" fill="none" xmlns="http://www.w3.org/2000/svg">
<path d="M176.419 294.836C260.989 294.836 329.548 258.211 329.548 213.031C329.548 167.851 260.989 131.225 176.419 131.225C91.848 131.225 23.2898 167.851 23.2898 213.031C23.2898 258.211 91.848 294.836 176.419 294.836Z" fill="#F5F5F5"/>
<path d="M114.795 258.568L65.9724 230.181L148.553 182.456L114.795 258.568Z" fill="#E0E0E0"/>
<path d="M44.3227 228.439L64.2167 239.909C64.6302 240.119 65.0873 240.228 65.551 240.228C66.0146 240.228 66.4717 240.119 66.8852 239.909L94.3252 223.898C94.4867 223.844 94.6272 223.741 94.7267 223.603C94.8263 223.465 94.8799 223.3 94.8799 223.13C94.8799 222.959 94.8263 222.794 94.7267 222.656C94.6272 222.518 94.4867 222.415 94.3252 222.361L74.4312 210.884C74.0177 210.675 73.5606 210.565 73.097 210.565C72.6333 210.565 72.1762 210.675 71.7627 210.884L44.3227 226.896C44.1621 226.951 44.0227 227.055 43.9241 227.194C43.8255 227.332 43.7725 227.498 43.7725 227.667C43.7725 227.837 43.8255 228.003 43.9241 228.141C44.0227 228.28 44.1621 228.384 44.3227 228.439Z" fill="#E0E0E0"/>
<path d="M46.4762 226.655C45.1042 224.446 40.8716 222.017 35.315 220.817C29.7584 219.616 24.1744 218.148 25.4503 214.903C26.8223 211.425 31.9948 211.254 37.0506 213.326C42.5729 215.589 46.6546 221.187 46.73 224.713L46.4762 226.655Z" fill="#B92F2E"/>
<g opacity="0.1">
<path d="M46.4762 226.655C45.1042 224.446 40.8716 222.017 35.315 220.817C29.7584 219.616 24.1744 218.148 25.4503 214.903C26.8223 211.425 31.9948 211.254 37.0506 213.326C42.5729 215.589 46.6546 221.187 46.73 224.713L46.4762 226.655Z" fill="black"/>
</g>
<path d="M46.9083 225.653C46.8302 225.652 46.7538 225.63 46.6882 225.587C46.6226 225.544 46.5705 225.484 46.5379 225.413C42.1269 216.289 31.8987 214.814 28.7019 215.315C28.5928 215.331 28.482 215.303 28.3933 215.238C28.3047 215.172 28.2455 215.074 28.2286 214.965C28.2198 214.912 28.2217 214.857 28.2342 214.804C28.2467 214.751 28.2696 214.701 28.3015 214.657C28.3333 214.613 28.3736 214.576 28.42 214.548C28.4664 214.519 28.5179 214.5 28.5716 214.492C31.9604 213.971 42.6963 215.5 47.3131 225.056C47.3606 225.156 47.367 225.27 47.3311 225.374C47.2951 225.478 47.2197 225.563 47.121 225.612C47.0545 225.643 46.9815 225.657 46.9083 225.653Z" fill="white"/>
<path d="M46.4759 226.654C46.4759 226.654 43.8211 216.138 37.0914 210.485C35.0952 208.805 32.9754 206.699 31.4731 205.251C28.2763 202.137 29.614 198.741 34.0387 198.81C40.6243 198.899 45.44 204.442 47.5255 211.693C49.6109 218.944 46.4759 226.654 46.4759 226.654Z" fill="#B92F2E"/>
<path d="M47.5258 222.573C47.4216 222.573 47.321 222.535 47.2436 222.465C47.1662 222.395 47.1176 222.299 47.1074 222.195C45.8726 208.818 35.6649 202.095 32.8866 201.382C32.7802 201.355 32.6889 201.286 32.633 201.192C32.577 201.097 32.5609 200.984 32.5882 200.878C32.6155 200.771 32.6839 200.68 32.7785 200.624C32.873 200.568 32.986 200.552 33.0924 200.579C36.4675 201.444 46.6683 208.42 47.9374 222.12C47.947 222.23 47.9127 222.339 47.842 222.424C47.7713 222.509 47.67 222.562 47.5601 222.573H47.5258Z" fill="white"/>
<path d="M64.8897 238.221L46.1482 227.396L46.1414 187.196L64.8897 198.021V238.221Z" fill="#263238"/>
<path d="M64.8896 198.021L91.6711 182.558V222.758L64.8896 238.22V198.021Z" fill="#37474F"/>
<path d="M91.6709 182.558L64.8895 198.021L46.1411 187.196L72.9294 171.733L91.6709 182.558Z" fill="#455A64"/>
<path d="M76.4627 197.527L80.1054 195.421C80.5787 195.147 80.9629 195.27 80.9629 195.702C80.9281 195.965 80.8325 196.216 80.6836 196.435C80.5347 196.654 80.3367 196.835 80.1054 196.964L76.4627 199.07C75.9894 199.345 75.6052 199.221 75.6052 198.789C75.64 198.527 75.7356 198.276 75.8845 198.057C76.0334 197.837 76.2314 197.656 76.4627 197.527Z" fill="#263238"/>
<path d="M67.0779 218.409L88.5017 206.041L88.9956 206.322L88.5017 220.927L88.9956 221.215L67.5718 233.583L67.0779 233.295V218.409Z" fill="#263238"/>
<path d="M67.572 218.69L88.9958 206.321V221.214L67.572 233.583V218.69Z" fill="#455A64"/>
<path d="M75.9683 216.365L79.611 214.266C80.0843 213.991 80.4685 214.115 80.4685 214.54C80.4342 214.804 80.3388 215.056 80.19 215.276C80.0411 215.496 79.8429 215.679 79.611 215.809L75.9683 217.915C75.495 218.189 75.1108 218.059 75.1108 217.634C75.1462 217.37 75.2419 217.119 75.3907 216.899C75.5395 216.678 75.7372 216.496 75.9683 216.365Z" fill="#263238"/>
<path d="M67.0779 199.887L88.5017 187.518L88.9956 187.799L88.5017 202.404L88.9956 202.692L67.5718 215.061L67.0779 214.773V199.887Z" fill="#263238"/>
<path d="M67.572 200.168L88.9958 187.799V202.692L67.572 215.061V200.168Z" fill="#455A64"/>
<path d="M75.9683 197.843L79.611 195.744C80.0843 195.469 80.4685 195.593 80.4685 196.018C80.4342 196.282 80.3388 196.534 80.19 196.754C80.0411 196.974 79.8429 197.157 79.611 197.287L75.9683 199.393C75.495 199.667 75.1108 199.537 75.1108 199.112C75.1462 198.848 75.2419 198.597 75.3907 198.377C75.5395 198.157 75.7372 197.974 75.9683 197.843Z" fill="#263238"/>
<path d="M64.8895 196.313L46.148 185.488L46.1411 145.281L64.8895 156.106V196.313Z" fill="#263238"/>
<path d="M64.8892 156.106L91.6706 140.643V180.85L64.8892 196.312V156.106Z" fill="#37474F"/>
<path d="M91.6704 140.643L64.889 156.106L46.1406 145.281L72.9289 129.818L91.6704 140.643Z" fill="#455A64"/>
<path d="M67.5715 157.65L88.9953 145.281L89.4892 145.569V160.456L68.0655 172.831L67.5715 172.543V157.65Z" fill="#263238"/>
<path d="M76.4622 155.612L80.1049 153.506C80.5782 153.232 80.9624 153.362 80.9624 153.787C80.9271 154.051 80.8313 154.302 80.6825 154.522C80.5338 154.743 80.3361 154.925 80.1049 155.056L76.4622 157.155C75.9889 157.43 75.6047 157.306 75.6047 156.881C75.639 156.617 75.7344 156.365 75.8833 156.145C76.0321 155.925 76.2304 155.742 76.4622 155.612Z" fill="#263238"/>
<path d="M67.0774 176.494L88.5012 164.125V179.019L88.9951 179.3L67.5713 191.668L67.0774 191.387V176.494Z" fill="#263238"/>
<path d="M67.5715 176.782L88.9953 164.407V179.3L67.5715 191.668V176.782Z" fill="#455A64"/>
<path d="M75.9681 174.457L79.6108 172.351C80.0841 172.076 80.4683 172.2 80.4683 172.632C80.4335 172.895 80.3378 173.145 80.189 173.365C80.0401 173.584 79.8421 173.765 79.6108 173.894L75.9681 176C75.4948 176.275 75.1106 176.151 75.1106 175.719C75.1454 175.456 75.241 175.205 75.3899 174.986C75.5388 174.767 75.7368 174.586 75.9681 174.457Z" fill="#263238"/>
<path d="M67.5715 157.65L88.9953 145.281V160.174L67.5715 172.543V157.65Z" fill="#263238"/>
<path d="M99.7108 152.635L87.9802 145.871V158.987L99.7108 165.758V152.635Z" fill="#263238"/>
<path d="M75.6047 174.663V156.107L80.2009 153.445L80.9624 154.563L94.3531 146.825V163.838L75.6047 174.663Z" fill="#B92F2E"/>
<g opacity="0.2">
<path d="M75.6047 174.663V156.107L80.2009 153.445L80.9624 154.563L94.3531 146.825V163.838L75.6047 174.663Z" fill="black"/>
</g>
<path d="M75.6047 174.662L76.9424 158.424L95.6908 147.599L94.3531 163.837L75.6047 174.662Z" fill="#B92F2E"/>
<path d="M78.28 165.01L68.0586 159.111V172.227L78.28 178.127V165.01Z" fill="#37474F"/>
<path d="M78.28 163.837L99.7107 151.469V166.355L78.28 178.73V163.837Z" fill="#455A64"/>
<path d="M86.6834 161.512L90.3261 159.406C90.7994 159.131 91.1836 159.262 91.1836 159.687C91.1483 159.95 91.0525 160.202 90.9037 160.422C90.755 160.642 90.5573 160.825 90.3261 160.956L86.6834 163.055C86.2101 163.33 85.8259 163.206 85.8259 162.781C85.8612 162.518 85.957 162.266 86.1058 162.046C86.2546 161.826 86.4523 161.643 86.6834 161.512Z" fill="#263238"/>
<path d="M78.2801 163.837L77.5667 163.426V178.319L78.2801 178.73V163.837Z" fill="#263238"/>
<path d="M77.5667 163.426L98.9973 151.057L99.7107 151.469L78.2801 163.838L77.5667 163.426Z" fill="#37474F"/>
<path d="M257.25 56.4578L254.465 54.8389L112.332 136.884V255.72C112.294 256.088 112.354 256.46 112.506 256.797C112.658 257.134 112.896 257.425 113.197 257.641L115.982 259.26C116.32 259.415 116.693 259.478 117.063 259.442C117.433 259.406 117.787 259.272 118.088 259.054L254.259 180.418C255.123 179.854 255.843 179.094 256.359 178.2C256.875 177.306 257.173 176.304 257.229 175.273L257.25 56.4578Z" fill="#E6E6E6"/>
<path d="M115.118 257.339C115.118 259.232 116.442 260.001 118.088 259.054L254.259 180.418C255.123 179.854 255.843 179.094 256.359 178.2C256.875 177.306 257.173 176.303 257.229 175.273V56.4575L115.118 138.51V257.339Z" fill="#FAFAFA"/>
<path d="M256.564 57.624V175.287C256.508 176.197 256.241 177.083 255.785 177.873C255.329 178.663 254.697 179.337 253.937 179.842L117.766 258.457C117.469 258.645 117.129 258.754 116.778 258.773C115.913 258.773 115.824 257.771 115.824 257.339V138.901L256.564 57.624ZM257.25 56.4373L115.118 138.51V257.339C115.118 258.711 115.804 259.459 116.757 259.459C117.228 259.441 117.687 259.301 118.088 259.054L254.259 180.418C255.123 179.854 255.843 179.094 256.359 178.2C256.875 177.306 257.173 176.304 257.229 175.273V56.4578L257.25 56.4373Z" fill="#E0E0E0"/>
<path d="M115.118 138.51V151.372L257.229 69.32V56.4575L115.118 138.51Z" fill="#B92F2E"/>
<path d="M204.284 92.0685V94.8125C204.284 95.3751 204.689 95.6083 205.176 95.327L248.867 70.0959V65.2939L205.176 90.5525C204.921 90.7199 204.708 90.9437 204.553 91.2066C204.399 91.4695 204.306 91.7644 204.284 92.0685Z" fill="#FAFAFA"/>
<path d="M253.553 62.5973C254.047 62.3092 254.445 62.5424 254.445 63.1118V65.8558C254.428 66.1652 254.339 66.4664 254.184 66.7347C254.029 67.0029 253.813 67.2307 253.553 67.3993L248.867 70.1021V65.3001L253.553 62.5973Z" fill="#455A64"/>
<path d="M253.209 66.3909L252.681 66.2262C252.739 66.0021 252.769 65.7717 252.77 65.5402C252.794 65.3292 252.762 65.1157 252.678 64.9209C252.593 64.726 252.46 64.5564 252.29 64.4289C252.175 64.3607 252.043 64.3247 251.909 64.3247C251.775 64.3247 251.644 64.3607 251.529 64.4289C251.196 64.6841 250.929 65.0139 250.748 65.3917C250.566 65.7695 250.477 66.1846 250.486 66.6035C250.461 66.8146 250.492 67.0286 250.577 67.2237C250.661 67.4188 250.795 67.5883 250.966 67.7148C251.065 67.7752 251.179 67.8062 251.295 67.804C251.445 67.8008 251.592 67.7582 251.721 67.6805C252.12 67.408 252.417 67.0095 252.564 66.5486L253.093 66.7133H253.134C253.174 66.714 253.214 66.7017 253.248 66.6783C253.281 66.6549 253.306 66.6215 253.319 66.5829C253.322 66.5436 253.313 66.5044 253.293 66.4702C253.274 66.436 253.244 66.4084 253.209 66.3909ZM251.529 67.3924C251.476 67.4324 251.414 67.4568 251.348 67.4629C251.283 67.469 251.217 67.4564 251.158 67.4267C251.052 67.33 250.971 67.2089 250.922 67.0739C250.873 66.9388 250.857 66.7939 250.877 66.6515C250.87 66.3013 250.942 65.9541 251.088 65.6357C251.234 65.3174 251.451 65.0362 251.721 64.8131C251.793 64.7682 251.876 64.7422 251.961 64.7376C252.01 64.7375 252.057 64.7518 252.098 64.7788C252.203 64.8765 252.283 64.9977 252.332 65.1325C252.381 65.2672 252.397 65.4117 252.379 65.5539C252.385 65.9046 252.311 66.252 252.164 66.5703C252.017 66.8887 251.799 67.1696 251.529 67.3924Z" fill="#FAFAFA"/>
<path d="M253.601 46.7092C253.263 46.5436 252.886 46.474 252.511 46.5079C252.136 46.5417 251.778 46.6778 251.475 46.9013L115.304 125.537C114.438 126.1 113.718 126.86 113.202 127.754C112.686 128.648 112.388 129.651 112.333 130.682V136.904L115.118 138.53L257.251 56.4573V50.2352C257.293 49.8686 257.235 49.4976 257.084 49.1608C256.933 48.8241 256.695 48.5342 256.393 48.3213C255.879 48.0195 254.088 47.0042 253.601 46.7092Z" fill="#263238"/>
<path d="M115.118 132.288C115.171 131.257 115.468 130.253 115.985 129.359C116.501 128.464 117.222 127.705 118.088 127.143L254.259 48.5205C255.899 47.5739 257.229 48.3422 257.229 50.2355V56.4576L115.118 138.51V132.288Z" fill="#37474F"/>
<path d="M256.399 48.3358C256.06 48.1666 255.68 48.0943 255.303 48.127C254.925 48.1597 254.564 48.296 254.259 48.521L118.088 127.137C117.21 127.684 116.488 128.447 115.989 129.352L113.19 127.74C113.691 126.832 114.416 126.067 115.296 125.518L251.474 46.8952C251.777 46.6728 252.136 46.538 252.511 46.5053C252.886 46.4727 253.263 46.5435 253.6 46.71C254.087 47.005 255.871 48.0271 256.344 48.3152L256.399 48.3358Z" fill="#455A64"/>
<path d="M240.512 59.6822C240.11 59.9491 239.776 60.3067 239.538 60.7261C239.3 61.1455 239.163 61.6151 239.14 62.0969C239.14 62.9818 239.764 63.3454 240.512 62.8995C240.913 62.6326 241.247 62.275 241.485 61.8555C241.724 61.4361 241.86 60.9666 241.884 60.4848C241.904 59.5861 241.28 59.2225 240.512 59.6822Z" fill="#B92F2E"/>
<path d="M245.389 56.8621C244.987 57.1276 244.654 57.4839 244.416 57.9022C244.177 58.3205 244.041 58.7891 244.017 59.27C244.017 60.1618 244.641 60.5185 245.389 60.0795C245.79 59.8117 246.123 59.454 246.361 59.0347C246.599 58.6155 246.736 58.1463 246.761 57.6648C246.782 56.773 246.157 56.4162 245.389 56.8621Z" fill="#B92F2E"/>
<path d="M250.26 54.0499C249.858 54.3168 249.524 54.6744 249.286 55.0938C249.048 55.5132 248.911 55.9828 248.888 56.4646C248.888 57.3564 249.512 57.7131 250.26 57.2672C250.663 57.0015 250.997 56.6442 251.235 56.2245C251.474 55.8048 251.61 55.3347 251.632 54.8525C251.659 53.9675 251.035 53.604 250.26 54.0499Z" fill="#B92F2E"/>
<path d="M118.088 259.054L142.983 244.682V135.279L115.118 151.372V257.339C115.118 259.232 116.442 259.993 118.088 259.054Z" fill="#F5F5F5"/>
<path d="M142.297 136.465V244.284L117.745 258.457C117.448 258.645 117.108 258.753 116.757 258.772C115.893 258.772 115.804 257.771 115.804 257.339V151.763L142.297 136.465ZM142.983 135.279L115.118 151.372V257.339C115.118 258.711 115.804 259.458 116.757 259.458C117.228 259.44 117.687 259.301 118.088 259.054L142.983 244.682V135.279Z" fill="#E0E0E0"/>
<path d="M124.365 152.463L137.701 144.745C138.188 144.457 138.586 144.691 138.586 145.26V146.419C138.569 146.728 138.48 147.028 138.326 147.296C138.173 147.564 137.959 147.792 137.701 147.963L124.365 155.667C123.871 155.955 123.473 155.721 123.473 155.152V154.006C123.492 153.698 123.582 153.397 123.737 153.129C123.892 152.861 124.107 152.633 124.365 152.463Z" fill="#E0E0E0"/>
<path d="M120.688 155.619V156.778C120.671 157.088 120.582 157.389 120.427 157.657C120.272 157.925 120.056 158.153 119.796 158.322L118.795 158.898C118.301 159.186 117.903 158.953 117.903 158.384V157.224C117.92 156.915 118.009 156.614 118.164 156.346C118.319 156.077 118.535 155.85 118.795 155.681L119.796 155.104C120.29 154.816 120.688 155.036 120.688 155.619Z" fill="#B92F2E"/>
<path d="M124.365 158.877L137.701 151.174C138.188 150.885 138.586 151.119 138.586 151.681V152.841C138.569 153.15 138.48 153.451 138.326 153.72C138.173 153.989 137.959 154.219 137.701 154.391L124.365 162.095C123.871 162.376 123.473 162.15 123.473 161.58V160.421C123.491 160.112 123.58 159.811 123.735 159.543C123.89 159.275 124.106 159.047 124.365 158.877Z" fill="#E0E0E0"/>
<path d="M120.688 162.026V163.186C120.672 163.495 120.583 163.796 120.428 164.064C120.273 164.333 120.056 164.561 119.796 164.729L118.795 165.312C118.301 165.593 117.903 165.367 117.903 164.798V163.638C117.919 163.329 118.008 163.028 118.163 162.759C118.318 162.491 118.535 162.263 118.795 162.095L119.796 161.512C120.29 161.21 120.688 161.457 120.688 162.026Z" fill="#B92F2E"/>
<path d="M124.365 165.285L137.701 157.581C138.188 157.3 138.586 157.526 138.586 158.095V159.255C138.57 159.563 138.482 159.864 138.328 160.132C138.174 160.4 137.959 160.628 137.701 160.798L124.365 168.502C123.871 168.79 123.473 168.557 123.473 167.994V166.828C123.492 166.519 123.583 166.219 123.737 165.951C123.892 165.683 124.107 165.455 124.365 165.285Z" fill="#E0E0E0"/>
<path d="M120.688 168.441V169.6C120.672 169.909 120.583 170.21 120.428 170.479C120.273 170.747 120.056 170.975 119.796 171.143L118.795 171.727C118.301 172.008 117.903 171.775 117.903 171.212V170.046C117.921 169.737 118.011 169.436 118.165 169.168C118.32 168.9 118.536 168.672 118.795 168.502L119.796 167.926C120.29 167.645 120.688 167.871 120.688 168.441Z" fill="#B92F2E"/>
<path d="M124.365 186.55L137.701 178.84C138.188 178.558 138.586 178.785 138.586 179.354V180.513C138.57 180.822 138.482 181.123 138.328 181.391C138.174 181.659 137.959 181.887 137.701 182.057L124.365 189.768C123.871 190.049 123.473 189.822 123.473 189.253V188.094C123.491 187.785 123.58 187.484 123.735 187.216C123.89 186.948 124.106 186.72 124.365 186.55Z" fill="#E0E0E0"/>
<path d="M120.688 189.699V190.859C120.672 191.168 120.583 191.469 120.428 191.738C120.273 192.006 120.056 192.234 119.796 192.402L118.795 192.985C118.301 193.267 117.903 193.04 117.903 192.471V191.311C117.919 191.002 118.008 190.701 118.163 190.433C118.318 190.164 118.535 189.937 118.795 189.768L119.796 189.185C120.29 188.904 120.688 189.13 120.688 189.699Z" fill="#B92F2E"/>
<path d="M124.365 192.224L137.701 184.534C138.188 184.253 138.586 184.479 138.586 185.048V186.208C138.57 186.516 138.482 186.817 138.328 187.085C138.174 187.353 137.959 187.582 137.701 187.751L124.365 195.441C123.871 195.729 123.473 195.496 123.473 194.927V193.768C123.492 193.459 123.583 193.159 123.737 192.891C123.892 192.623 124.107 192.395 124.365 192.224Z" fill="#E0E0E0"/>
<path d="M120.688 195.38V196.539C120.672 196.849 120.583 197.15 120.428 197.418C120.273 197.686 120.056 197.914 119.796 198.083L118.795 198.659C118.301 198.947 117.903 198.714 117.903 198.144V196.985C117.921 196.676 118.011 196.375 118.165 196.107C118.32 195.839 118.536 195.611 118.795 195.442L119.796 194.865C120.29 194.584 120.688 194.824 120.688 195.38Z" fill="#B92F2E"/>
<path d="M124.365 197.904L137.701 190.2C138.188 189.912 138.586 190.145 138.586 190.715V191.874C138.569 192.183 138.48 192.483 138.326 192.751C138.173 193.019 137.959 193.247 137.701 193.418L124.365 201.121C123.871 201.41 123.473 201.176 123.473 200.607V199.448C123.492 199.139 123.582 198.838 123.737 198.57C123.892 198.302 124.107 198.074 124.365 197.904Z" fill="#E0E0E0"/>
<path d="M120.688 201.06V202.219C120.671 202.528 120.582 202.829 120.427 203.098C120.272 203.366 120.056 203.594 119.796 203.763L118.795 204.339C118.301 204.627 117.903 204.394 117.903 203.824V202.665C117.92 202.356 118.009 202.055 118.164 201.787C118.319 201.518 118.535 201.291 118.795 201.122L119.796 200.545C120.29 200.257 120.688 200.49 120.688 201.06Z" fill="#B92F2E"/>
<path d="M123.473 172.289V174.285L125.209 172.289H123.473Z" fill="#B92F2E"/>
<path d="M126.265 171.87C126.265 172.248 126.526 172.392 126.855 172.2L137.996 165.792C138.168 165.679 138.311 165.527 138.414 165.348C138.516 165.17 138.575 164.969 138.586 164.763C138.586 164.386 138.325 164.235 137.996 164.427L126.855 170.855C126.684 170.966 126.541 171.116 126.439 171.292C126.336 171.468 126.277 171.667 126.265 171.87Z" fill="#E0E0E0"/>
<path d="M123.473 175.499V177.502L125.209 175.499H123.473Z" fill="#B92F2E"/>
<path d="M126.265 175.088C126.265 175.458 126.526 175.609 126.855 175.417L137.996 169.003C138.168 168.892 138.312 168.741 138.414 168.564C138.517 168.386 138.576 168.186 138.586 167.981C138.586 167.604 138.325 167.453 137.996 167.645L126.855 174.073C126.684 174.184 126.541 174.333 126.439 174.51C126.336 174.686 126.277 174.884 126.265 175.088Z" fill="#E0E0E0"/>
<path d="M123.473 178.717V180.72L125.209 178.717H123.473Z" fill="#B92F2E"/>
<path d="M126.265 178.305C126.265 178.676 126.526 178.826 126.855 178.634L137.996 172.22C138.168 172.109 138.312 171.958 138.414 171.781C138.517 171.603 138.576 171.403 138.586 171.198C138.586 170.821 138.325 170.67 137.996 170.862L126.855 177.29C126.684 177.401 126.541 177.55 126.439 177.727C126.336 177.903 126.277 178.101 126.265 178.305Z" fill="#E0E0E0"/>
<path d="M123.473 181.934V183.937L125.209 181.934H123.473Z" fill="#B92F2E"/>
<path d="M126.265 181.522C126.265 181.892 126.526 182.043 126.855 181.851L137.996 175.437C138.168 175.326 138.312 175.175 138.414 174.997C138.517 174.82 138.576 174.62 138.586 174.415C138.586 174.038 138.325 173.887 137.996 174.079L126.855 180.507C126.684 180.617 126.541 180.767 126.439 180.944C126.336 181.12 126.277 181.318 126.265 181.522Z" fill="#E0E0E0"/>
<path d="M151.339 139.114V155.88C151.339 156.566 151.833 156.868 152.443 156.518L170.876 145.871C171.198 145.663 171.466 145.382 171.658 145.051C171.85 144.719 171.96 144.347 171.98 143.964V130.182C171.98 129.496 171.486 129.195 170.876 129.544L160.181 135.718C159.571 136.068 159.077 135.787 159.077 135.087V134.648C159.077 133.962 158.59 133.66 157.979 134.01L152.443 137.2C152.121 137.41 151.854 137.693 151.662 138.025C151.47 138.358 151.359 138.731 151.339 139.114Z" fill="#B92F2E"/>
<path d="M154.967 159.042V160.119C154.967 160.641 155.338 160.853 155.79 160.593L169.62 152.608C169.86 152.451 170.06 152.241 170.203 151.993C170.346 151.745 170.428 151.467 170.443 151.181V150.104C170.443 149.582 170.073 149.37 169.62 149.63L155.79 157.615C155.551 157.772 155.351 157.982 155.208 158.23C155.065 158.478 154.982 158.756 154.967 159.042Z" fill="#E0E0E0"/>
<path d="M176.988 124.399V141.165C176.988 141.851 177.482 142.146 178.085 141.796L196.518 131.156C196.839 130.947 197.106 130.666 197.298 130.335C197.49 130.003 197.601 129.632 197.623 129.249V115.461C197.623 114.775 197.129 114.473 196.518 114.823L185.823 120.997C185.213 121.347 184.726 121.059 184.726 120.359V119.92C184.726 119.234 184.232 118.939 183.621 119.289L178.085 122.485C177.765 122.696 177.498 122.978 177.307 123.311C177.117 123.644 177.007 124.016 176.988 124.399Z" fill="#B92F2E"/>
<path d="M180.596 144.327V145.432C180.596 145.96 180.967 146.173 181.42 145.912L195.249 137.886C195.489 137.728 195.688 137.516 195.831 137.267C195.974 137.018 196.057 136.739 196.073 136.452V135.382C196.073 134.854 195.702 134.641 195.249 134.909L181.42 142.894C181.18 143.052 180.981 143.264 180.838 143.513C180.695 143.762 180.612 144.041 180.596 144.327Z" fill="#E0E0E0"/>
<path d="M151.339 172.796V189.562C151.339 190.248 151.833 190.55 152.443 190.2L170.876 179.553C171.193 179.347 171.458 179.07 171.65 178.744C171.842 178.418 171.955 178.051 171.98 177.674V163.885C171.98 163.199 171.486 162.904 170.876 163.254L160.181 169.428C159.571 169.778 159.077 169.497 159.077 168.797V168.358C159.077 167.672 158.59 167.37 157.979 167.72L152.443 170.917C152.126 171.123 151.86 171.4 151.669 171.726C151.477 172.052 151.364 172.419 151.339 172.796Z" fill="#B92F2E"/>
<path d="M154.967 192.725V193.802C154.967 194.323 155.338 194.536 155.79 194.275L169.62 186.29C169.859 186.133 170.058 185.922 170.201 185.674C170.344 185.427 170.427 185.149 170.443 184.863V183.786C170.443 183.265 170.073 183.052 169.62 183.313L155.79 191.298C155.551 191.454 155.351 191.665 155.208 191.913C155.065 192.161 154.982 192.439 154.967 192.725Z" fill="#E0E0E0"/>
<path d="M176.988 158.075V174.841C176.988 175.527 177.482 175.829 178.085 175.479L196.518 164.832C196.839 164.625 197.106 164.345 197.298 164.015C197.49 163.684 197.601 163.313 197.623 162.932V149.143C197.623 148.457 197.129 148.156 196.518 148.505L185.823 154.679C185.213 155.029 184.726 154.741 184.726 154.041V153.602C184.726 152.916 184.232 152.615 183.621 152.971L178.085 156.168C177.765 156.377 177.499 156.659 177.308 156.99C177.117 157.322 177.008 157.693 176.988 158.075Z" fill="#B92F2E"/>
<path d="M180.596 178.01V179.08C180.596 179.608 180.967 179.821 181.42 179.553L195.249 171.575C195.489 171.417 195.688 171.205 195.831 170.956C195.974 170.707 196.057 170.428 196.073 170.142V169.071C196.073 168.543 195.702 168.331 195.249 168.591L181.42 176.576C181.18 176.734 180.981 176.946 180.838 177.195C180.695 177.444 180.612 177.723 180.596 178.01Z" fill="#E0E0E0"/>
<path d="M202.905 108.868V125.633C202.905 126.319 203.399 126.621 204.003 126.271L222.443 115.625C222.762 115.415 223.028 115.133 223.219 114.802C223.41 114.471 223.52 114.099 223.54 113.718V99.9359C223.54 99.2499 223.046 98.948 222.443 99.2979L211.741 105.472C211.137 105.829 210.643 105.54 210.643 104.841V104.402C210.643 103.716 210.149 103.414 209.539 103.764L204.003 106.967C203.684 107.176 203.418 107.456 203.227 107.786C203.037 108.117 202.926 108.487 202.905 108.868Z" fill="#B92F2E"/>
<path d="M206.225 129.606V130.683C206.225 131.204 206.596 131.417 207.055 131.156L220.892 123.171C221.133 123.016 221.335 122.806 221.479 122.558C221.623 122.31 221.706 122.031 221.722 121.744V120.674C221.722 120.146 221.351 119.933 220.892 120.194L207.069 128.179C206.825 128.333 206.621 128.542 206.474 128.79C206.327 129.038 206.242 129.318 206.225 129.606Z" fill="#E0E0E0"/>
<path d="M228.232 94.9628V111.729C228.232 112.415 228.726 112.71 229.337 112.36L247.77 101.72C248.089 101.51 248.355 101.229 248.546 100.897C248.737 100.566 248.847 100.195 248.867 99.8128V86.0242C248.867 85.3382 248.38 85.0364 247.77 85.3863L237.075 91.5603C236.464 91.9101 235.971 91.622 235.971 90.9223V90.4832C235.971 89.7972 235.483 89.5023 234.873 89.8521L229.337 93.0489C229.014 93.2574 228.746 93.5397 228.554 93.8725C228.362 94.2053 228.251 94.5791 228.232 94.9628Z" fill="#B92F2E"/>
<path d="M231.868 114.891V115.934C231.868 116.462 232.232 116.675 232.691 116.414L246.521 108.429C246.76 108.271 246.959 108.06 247.101 107.813C247.244 107.565 247.328 107.287 247.344 107.002V105.925C247.344 105.397 246.974 105.184 246.521 105.452L232.691 113.43C232.447 113.59 232.245 113.806 232.102 114.06C231.959 114.314 231.879 114.599 231.868 114.891Z" fill="#E0E0E0"/>
<path d="M206.225 163.268V164.345C206.225 164.866 206.596 165.079 207.055 164.818L220.892 156.84C221.133 156.685 221.335 156.475 221.479 156.227C221.623 155.979 221.706 155.7 221.722 155.413V154.35C221.722 153.829 221.351 153.616 220.892 153.877L207.069 161.862C206.828 162.013 206.625 162.219 206.479 162.464C206.332 162.708 206.245 162.984 206.225 163.268Z" fill="#E0E0E0"/>
<path d="M206.575 139.711L220.892 131.431C221.544 131.053 222.079 131.362 222.079 132.117V148.677C222.057 149.089 221.938 149.49 221.731 149.847C221.525 150.205 221.238 150.509 220.892 150.735L206.575 159.015C205.889 159.392 205.388 159.09 205.388 158.329V141.769C205.411 141.357 205.531 140.956 205.737 140.598C205.943 140.241 206.23 139.937 206.575 139.711Z" fill="#FAFAFA"/>
<path d="M206.04 159.522C205.872 159.524 205.707 159.481 205.56 159.399C205.386 159.283 205.247 159.122 205.156 158.934C205.066 158.746 205.028 158.537 205.046 158.329V141.769C205.069 141.295 205.207 140.835 205.445 140.425C205.684 140.016 206.017 139.67 206.418 139.416L220.762 131.136C220.933 131.017 221.133 130.946 221.34 130.932C221.548 130.917 221.756 130.959 221.942 131.053C222.115 131.168 222.255 131.327 222.346 131.514C222.438 131.701 222.478 131.909 222.463 132.117V148.677C222.439 149.15 222.302 149.611 222.063 150.02C221.825 150.429 221.491 150.776 221.091 151.03L206.747 159.316C206.533 159.445 206.29 159.516 206.04 159.522ZM221.448 131.616C221.32 131.621 221.197 131.661 221.091 131.732L206.747 140.012C206.453 140.206 206.208 140.466 206.032 140.77C205.855 141.075 205.753 141.417 205.732 141.769V158.329C205.732 158.569 205.793 158.74 205.903 158.802C205.987 158.83 206.076 158.836 206.164 158.822C206.251 158.808 206.333 158.773 206.404 158.72L220.748 150.44C221.041 150.243 221.285 149.982 221.461 149.677C221.638 149.371 221.741 149.029 221.763 148.677V132.117C221.774 132.029 221.763 131.94 221.732 131.858C221.701 131.776 221.651 131.702 221.585 131.643C221.542 131.623 221.495 131.614 221.448 131.616Z" fill="#EBEBEB"/>
<path d="M222.607 133.667L219.41 135.513C219.064 135.738 218.775 136.041 218.567 136.399C218.36 136.756 218.24 137.158 218.217 137.571V141.261C218.217 142.023 218.752 142.332 219.41 141.947L222.607 140.102C222.953 139.876 223.24 139.572 223.446 139.215C223.653 138.857 223.772 138.456 223.794 138.044V134.353C223.794 133.599 223.259 133.29 222.607 133.667Z" fill="#B92F2E"/>
<path d="M207.666 141.501L214.855 137.385C215.178 137.2 215.445 137.35 215.445 137.735V137.961C215.433 138.166 215.374 138.366 215.271 138.545C215.169 138.723 215.027 138.876 214.855 138.99L207.666 143.106C207.337 143.298 207.069 143.147 207.076 142.763V142.53C207.087 142.324 207.145 142.123 207.248 141.945C207.35 141.766 207.494 141.614 207.666 141.501Z" fill="#EBEBEB"/>
<path d="M207.666 144.746L214.855 140.63C215.178 140.438 215.445 140.596 215.445 140.973V141.199C215.435 141.405 215.376 141.606 215.273 141.785C215.171 141.963 215.028 142.115 214.855 142.228L207.666 146.344C207.337 146.537 207.069 146.344 207.076 146.001V145.761C207.089 145.558 207.149 145.36 207.251 145.184C207.353 145.008 207.495 144.858 207.666 144.746Z" fill="#EBEBEB"/>
<path d="M207.666 147.929L214.855 143.813C215.178 143.627 215.445 143.778 215.445 144.156V144.389C215.433 144.594 215.374 144.794 215.271 144.973C215.169 145.151 215.027 145.304 214.855 145.418L207.666 149.534C207.337 149.726 207.069 149.575 207.076 149.191V148.958C207.086 148.752 207.145 148.551 207.247 148.372C207.35 148.193 207.493 148.041 207.666 147.929Z" fill="#EBEBEB"/>
<path d="M207.666 151.14L219.602 144.28C219.932 144.095 220.199 144.28 220.199 144.623V144.856C220.187 145.062 220.127 145.263 220.024 145.442C219.92 145.62 219.776 145.772 219.602 145.885L207.666 152.745C207.337 152.93 207.069 152.779 207.076 152.402V152.162C207.088 151.957 207.147 151.758 207.249 151.581C207.352 151.403 207.495 151.252 207.666 151.14Z" fill="#EBEBEB"/>
<path d="M207.666 154.35L219.602 147.49C219.932 147.298 220.199 147.49 220.199 147.833V148.059C220.188 148.266 220.128 148.466 220.024 148.645C219.921 148.824 219.776 148.976 219.602 149.088L207.666 155.948C207.337 156.14 207.069 155.982 207.076 155.605V155.372C207.086 155.167 207.145 154.967 207.247 154.789C207.35 154.612 207.493 154.461 207.666 154.35Z" fill="#EBEBEB"/>
<path d="M231.305 148.8V149.87C231.305 150.398 231.676 150.611 232.129 150.35L245.958 142.365C246.199 142.208 246.399 141.996 246.542 141.747C246.685 141.498 246.767 141.219 246.782 140.932V139.861C246.782 139.333 246.418 139.121 245.958 139.381L232.129 147.366C231.889 147.524 231.69 147.736 231.547 147.985C231.404 148.234 231.321 148.513 231.305 148.8Z" fill="#E0E0E0"/>
<path d="M231.655 125.236L245.993 116.956C246.679 116.572 247.186 116.88 247.186 117.642V134.202C247.162 134.614 247.042 135.015 246.834 135.373C246.627 135.73 246.339 136.034 245.993 136.26L231.655 144.54C230.969 144.917 230.462 144.608 230.462 143.854V127.294C230.484 126.881 230.604 126.479 230.811 126.122C231.019 125.764 231.308 125.46 231.655 125.236Z" fill="#FAFAFA"/>
<path d="M231.12 145.04C230.952 145.042 230.786 144.999 230.64 144.917C230.467 144.802 230.327 144.643 230.235 144.456C230.144 144.269 230.103 144.061 230.119 143.854V127.293C230.141 126.819 230.278 126.357 230.517 125.946C230.756 125.536 231.09 125.188 231.491 124.934L245.828 116.654C245.995 116.523 246.198 116.445 246.409 116.43C246.621 116.415 246.832 116.464 247.016 116.57C247.2 116.677 247.347 116.835 247.44 117.026C247.533 117.217 247.566 117.431 247.536 117.641V134.202C247.513 134.675 247.376 135.136 247.137 135.545C246.898 135.955 246.565 136.301 246.164 136.554L231.827 144.835C231.613 144.963 231.37 145.034 231.12 145.04ZM231.806 125.53C231.511 125.725 231.264 125.985 231.087 126.291C230.909 126.597 230.806 126.94 230.784 127.293V143.854C230.774 143.941 230.784 144.03 230.815 144.112C230.846 144.194 230.897 144.268 230.962 144.327C231.047 144.355 231.137 144.361 231.224 144.346C231.311 144.33 231.394 144.293 231.463 144.238L245.801 135.958C246.096 135.764 246.342 135.505 246.519 135.2C246.696 134.895 246.8 134.554 246.823 134.202V117.641C246.86 117.552 246.863 117.452 246.832 117.36C246.8 117.268 246.737 117.191 246.652 117.143C246.568 117.095 246.469 117.08 246.374 117.099C246.279 117.119 246.195 117.173 246.137 117.25L231.806 125.53Z" fill="#EBEBEB"/>
<path d="M247.68 119.192L244.483 121.038C244.138 121.263 243.85 121.567 243.644 121.925C243.438 122.282 243.319 122.684 243.297 123.096V126.786C243.297 127.541 243.832 127.85 244.483 127.472L247.68 125.627C248.026 125.401 248.315 125.098 248.522 124.74C248.729 124.383 248.85 123.982 248.874 123.569V119.878C248.874 119.117 248.332 118.808 247.68 119.192Z" fill="#B92F2E"/>
<path d="M232.746 127.02L239.928 122.904C240.257 122.711 240.525 122.904 240.525 123.247V123.48C240.515 123.686 240.455 123.888 240.352 124.067C240.248 124.246 240.103 124.397 239.928 124.509L232.746 128.625C232.416 128.817 232.149 128.659 232.149 128.282V128.042C232.162 127.837 232.222 127.637 232.326 127.46C232.43 127.282 232.573 127.132 232.746 127.02Z" fill="#EBEBEB"/>
<path d="M232.746 130.237L239.928 126.121C240.257 125.935 240.525 126.121 240.525 126.464V126.697C240.513 126.903 240.453 127.104 240.349 127.283C240.246 127.461 240.101 127.613 239.928 127.726L232.746 131.842C232.416 132.034 232.149 131.883 232.149 131.499V131.266C232.16 131.059 232.22 130.858 232.324 130.679C232.428 130.501 232.572 130.349 232.746 130.237Z" fill="#EBEBEB"/>
<path d="M232.746 133.448L239.928 129.332C240.257 129.139 240.525 129.332 240.525 129.675V129.901C240.514 130.107 240.454 130.308 240.35 130.487C240.246 130.666 240.102 130.818 239.928 130.93L232.746 135.046C232.416 135.231 232.149 135.08 232.149 134.703V134.456C232.164 134.253 232.225 134.057 232.329 133.882C232.433 133.707 232.575 133.558 232.746 133.448Z" fill="#EBEBEB"/>
<path d="M232.746 136.665L244.682 129.805C245.011 129.613 245.279 129.771 245.279 130.148V130.34C245.267 130.547 245.207 130.747 245.103 130.926C245 131.105 244.855 131.257 244.682 131.369L232.746 138.229C232.416 138.421 232.149 138.264 232.149 137.886V137.653C232.165 137.453 232.228 137.26 232.331 137.089C232.435 136.918 232.577 136.773 232.746 136.665Z" fill="#EBEBEB"/>
<path d="M232.746 139.875L244.682 133.015C245.011 132.83 245.279 132.981 245.279 133.358V133.592C245.267 133.798 245.207 133.998 245.103 134.177C245 134.356 244.855 134.508 244.682 134.621L232.746 141.481C232.416 141.666 232.149 141.515 232.149 141.138V140.897C232.162 140.692 232.222 140.493 232.326 140.316C232.43 140.138 232.573 139.987 232.746 139.875Z" fill="#EBEBEB"/>
<path d="M206.225 197.452V198.529C206.225 199.05 206.596 199.263 207.055 199.002L220.892 191.017C221.133 190.862 221.335 190.652 221.479 190.403C221.623 190.155 221.706 189.877 221.722 189.59V188.513C221.722 187.992 221.351 187.779 220.892 188.04L207.069 196.025C206.825 196.178 206.621 196.388 206.474 196.636C206.327 196.884 206.242 197.164 206.225 197.452Z" fill="#E0E0E0"/>
<path d="M206.575 173.887L220.892 165.607C221.544 165.23 222.079 165.539 222.079 166.293V182.853C222.056 183.265 221.936 183.666 221.73 184.023C221.524 184.381 221.237 184.685 220.892 184.911L206.548 193.191C205.862 193.569 205.361 193.267 205.361 192.505V175.945C205.386 175.531 205.509 175.128 205.72 174.77C205.931 174.412 206.224 174.11 206.575 173.887Z" fill="#FAFAFA"/>
<path d="M206.04 193.699C205.872 193.701 205.706 193.658 205.56 193.576C205.387 193.459 205.248 193.298 205.158 193.11C205.068 192.922 205.029 192.714 205.045 192.506V175.946C205.069 175.472 205.206 175.012 205.445 174.602C205.684 174.193 206.017 173.847 206.417 173.593L220.748 165.326C220.915 165.199 221.115 165.123 221.325 165.109C221.535 165.095 221.744 165.144 221.926 165.249C222.108 165.354 222.255 165.511 222.348 165.699C222.441 165.887 222.476 166.099 222.449 166.307V182.867C222.425 183.341 222.288 183.801 222.049 184.211C221.811 184.62 221.477 184.966 221.077 185.22L206.733 193.5C206.522 193.624 206.284 193.692 206.04 193.699ZM221.447 165.786C221.321 165.794 221.198 165.834 221.091 165.903L206.746 174.189C206.452 174.383 206.207 174.642 206.03 174.947C205.854 175.252 205.752 175.594 205.731 175.946V192.506C205.694 192.595 205.691 192.695 205.722 192.787C205.754 192.879 205.817 192.956 205.902 193.004C205.986 193.052 206.085 193.068 206.18 193.048C206.275 193.028 206.359 192.974 206.417 192.897L220.761 184.617C221.055 184.42 221.299 184.159 221.475 183.854C221.651 183.548 221.754 183.206 221.777 182.854V166.294C221.787 166.206 221.776 166.118 221.745 166.035C221.714 165.953 221.664 165.879 221.598 165.82C221.552 165.795 221.5 165.783 221.447 165.786Z" fill="#EBEBEB"/>
<path d="M222.607 167.844L219.41 169.689C219.064 169.914 218.775 170.218 218.567 170.575C218.36 170.933 218.24 171.334 218.217 171.747V175.438C218.217 176.199 218.752 176.501 219.41 176.124L222.607 174.279C222.953 174.053 223.24 173.749 223.446 173.391C223.653 173.034 223.772 172.633 223.794 172.221V168.53C223.794 167.775 223.259 167.467 222.607 167.844Z" fill="#B92F2E"/>
<path d="M207.666 175.677L214.855 171.561C215.178 171.376 215.445 171.527 215.445 171.904V172.138C215.433 172.343 215.374 172.543 215.271 172.722C215.169 172.9 215.027 173.052 214.855 173.167L207.666 177.283C207.337 177.475 207.069 177.324 207.076 176.94V176.706C207.086 176.5 207.145 176.3 207.247 176.121C207.35 175.942 207.493 175.79 207.666 175.677Z" fill="#EBEBEB"/>
<path d="M207.666 178.888L214.855 174.772C215.178 174.58 215.445 174.738 215.445 175.115V175.342C215.434 175.547 215.375 175.748 215.273 175.926C215.17 176.105 215.027 176.257 214.855 176.371L207.666 180.487C207.337 180.672 207.069 180.521 207.076 180.144V179.903C207.089 179.7 207.149 179.502 207.251 179.326C207.353 179.15 207.495 179 207.666 178.888Z" fill="#EBEBEB"/>
<path d="M207.666 182.105L214.855 177.989C215.178 177.804 215.445 177.955 215.445 178.332V178.566C215.433 178.771 215.374 178.971 215.271 179.15C215.169 179.328 215.027 179.48 214.855 179.595L207.666 183.711C207.337 183.903 207.069 183.745 207.076 183.368V183.162C207.08 182.951 207.137 182.744 207.239 182.56C207.342 182.376 207.489 182.22 207.666 182.105Z" fill="#EBEBEB"/>
<path d="M207.666 185.316L219.602 178.456C219.932 178.271 220.199 178.422 220.199 178.799V179.046C220.187 179.252 220.127 179.453 220.024 179.632C219.92 179.811 219.776 179.962 219.602 180.075L207.666 186.935C207.337 187.12 207.069 186.969 207.076 186.592V186.352C207.085 186.145 207.144 185.943 207.246 185.763C207.349 185.583 207.493 185.43 207.666 185.316Z" fill="#EBEBEB"/>
<path d="M207.666 188.533L219.602 181.673C219.932 181.481 220.199 181.632 220.199 182.016V182.242C220.187 182.449 220.127 182.649 220.024 182.828C219.92 183.007 219.776 183.159 219.602 183.271L207.666 190.131C207.337 190.323 207.069 190.166 207.076 189.788V189.555C207.086 189.35 207.145 189.15 207.247 188.972C207.35 188.795 207.493 188.644 207.666 188.533Z" fill="#EBEBEB"/>
<path d="M231.305 182.97V184.047C231.305 184.575 231.676 184.788 232.129 184.52L245.958 176.542C246.199 176.385 246.399 176.173 246.542 175.924C246.685 175.675 246.767 175.395 246.782 175.108V174.038C246.782 173.51 246.418 173.297 245.958 173.558L232.129 181.543C231.89 181.7 231.691 181.911 231.548 182.159C231.405 182.407 231.322 182.684 231.305 182.97Z" fill="#E0E0E0"/>
<path d="M231.655 159.413L245.993 151.133C246.679 150.748 247.186 151.057 247.186 151.819V168.372C247.164 168.785 247.044 169.186 246.837 169.544C246.629 169.902 246.34 170.205 245.993 170.43L231.655 178.717C230.969 179.094 230.462 178.785 230.462 178.031V161.471C230.484 161.058 230.604 160.656 230.811 160.298C231.019 159.941 231.308 159.637 231.655 159.413Z" fill="#FAFAFA"/>
<path d="M231.12 179.217C230.952 179.219 230.786 179.176 230.64 179.094C230.467 178.979 230.327 178.82 230.235 178.633C230.144 178.446 230.103 178.238 230.119 178.031V161.47C230.141 160.996 230.277 160.534 230.516 160.123C230.755 159.712 231.089 159.365 231.491 159.111L245.828 150.831C245.995 150.7 246.198 150.622 246.409 150.607C246.621 150.592 246.832 150.641 247.016 150.747C247.2 150.854 247.347 151.012 247.44 151.203C247.533 151.394 247.566 151.608 247.536 151.818V168.372C247.514 168.846 247.378 169.309 247.139 169.719C246.9 170.13 246.566 170.477 246.164 170.731L231.827 179.046C231.61 179.163 231.367 179.222 231.12 179.217ZM231.806 159.707C231.511 159.902 231.264 160.162 231.087 160.468C230.909 160.774 230.806 161.117 230.784 161.47V178.031C230.772 178.117 230.783 178.205 230.814 178.287C230.845 178.368 230.896 178.44 230.962 178.497C231.046 178.526 231.136 178.534 231.223 178.52C231.311 178.506 231.393 178.469 231.463 178.415L245.821 170.128C246.117 169.934 246.363 169.673 246.54 169.367C246.718 169.061 246.822 168.718 246.843 168.365V151.818C246.88 151.729 246.884 151.629 246.852 151.537C246.821 151.445 246.757 151.368 246.673 151.32C246.589 151.272 246.49 151.257 246.395 151.276C246.3 151.296 246.215 151.35 246.157 151.427L231.806 159.707Z" fill="#EBEBEB"/>
<path d="M247.68 153.369L244.483 155.214C244.138 155.44 243.85 155.744 243.644 156.102C243.438 156.459 243.319 156.86 243.297 157.272V160.963C243.297 161.718 243.832 162.026 244.483 161.649L247.68 159.804C248.026 159.578 248.315 159.274 248.522 158.917C248.729 158.559 248.85 158.158 248.874 157.746V154.055C248.874 153.294 248.332 152.978 247.68 153.369Z" fill="#B92F2E"/>
<path d="M232.746 161.21L239.928 157.094C240.257 156.902 240.525 157.059 240.525 157.437V157.663C240.514 157.87 240.454 158.07 240.35 158.249C240.246 158.428 240.102 158.58 239.928 158.692L232.746 162.808C232.416 162.993 232.149 162.808 232.149 162.465V162.225C232.163 162.021 232.224 161.823 232.328 161.647C232.431 161.471 232.574 161.321 232.746 161.21Z" fill="#EBEBEB"/>
<path d="M232.746 164.413L239.928 160.297C240.257 160.112 240.525 160.297 240.525 160.64V160.873C240.513 161.08 240.453 161.28 240.349 161.459C240.246 161.638 240.101 161.79 239.928 161.902L232.746 166.018C232.416 166.21 232.149 166.053 232.149 165.675V165.442C232.159 165.235 232.219 165.034 232.322 164.855C232.426 164.676 232.571 164.525 232.746 164.413Z" fill="#EBEBEB"/>
<path d="M232.746 167.624L239.928 163.508C240.257 163.316 240.525 163.467 240.525 163.851V164.077C240.513 164.284 240.453 164.484 240.349 164.663C240.246 164.842 240.101 164.994 239.928 165.106L232.746 169.222C232.416 169.407 232.149 169.256 232.149 168.879V168.639C232.163 168.435 232.224 168.237 232.328 168.061C232.431 167.885 232.574 167.735 232.746 167.624Z" fill="#EBEBEB"/>
<path d="M232.746 170.814L244.682 163.954C245.011 163.762 245.279 163.913 245.279 164.297V164.523C245.267 164.73 245.207 164.93 245.103 165.109C245 165.288 244.855 165.44 244.682 165.552L232.746 172.412C232.416 172.605 232.149 172.447 232.149 172.069V171.836C232.16 171.631 232.22 171.431 232.324 171.253C232.428 171.075 232.572 170.925 232.746 170.814Z" fill="#EBEBEB"/>
<path d="M232.746 174.052L244.682 167.192C245.011 167 245.279 167.158 245.279 167.535V167.761C245.269 167.968 245.209 168.169 245.106 168.348C245.002 168.527 244.857 168.679 244.682 168.79L232.746 175.65C232.416 175.835 232.149 175.685 232.149 175.307V175.067C232.163 174.863 232.224 174.665 232.328 174.489C232.431 174.313 232.574 174.163 232.746 174.052Z" fill="#EBEBEB"/>
<path d="M154.967 227.066V228.136C154.967 228.664 155.338 228.877 155.797 228.616L169.62 220.631C169.861 220.475 170.062 220.265 170.207 220.017C170.351 219.769 170.434 219.49 170.45 219.204V218.148C170.45 217.619 170.08 217.407 169.62 217.674L155.797 225.652C155.559 225.807 155.36 226.016 155.215 226.261C155.071 226.506 154.986 226.782 154.967 227.066Z" fill="#E0E0E0"/>
<path d="M155.317 203.502L169.661 195.222C170.347 194.844 170.848 195.146 170.848 195.908V212.468C170.824 212.879 170.705 213.28 170.499 213.637C170.293 213.994 170.006 214.299 169.661 214.526L155.317 222.806C154.631 223.183 154.13 222.874 154.13 222.12V205.56C154.152 205.147 154.27 204.746 154.476 204.388C154.683 204.03 154.971 203.727 155.317 203.502Z" fill="#FAFAFA"/>
<path d="M154.782 223.307C154.614 223.308 154.448 223.266 154.302 223.183C154.129 223.068 153.991 222.908 153.9 222.721C153.81 222.535 153.771 222.327 153.787 222.12V205.56C153.811 205.086 153.948 204.626 154.187 204.216C154.426 203.807 154.759 203.461 155.159 203.207L169.504 194.927C169.67 194.795 169.871 194.717 170.082 194.701C170.293 194.686 170.504 194.734 170.687 194.84C170.871 194.945 171.018 195.104 171.11 195.294C171.203 195.485 171.236 195.698 171.205 195.908V212.468C171.181 212.941 171.044 213.402 170.805 213.811C170.567 214.221 170.233 214.567 169.833 214.821L155.489 223.101C155.275 223.23 155.032 223.301 154.782 223.307ZM155.489 203.797C155.194 203.992 154.95 204.253 154.773 204.559C154.597 204.865 154.494 205.207 154.473 205.56V222.12C154.436 222.209 154.433 222.309 154.464 222.401C154.496 222.493 154.56 222.57 154.644 222.618C154.728 222.666 154.827 222.682 154.922 222.662C155.017 222.642 155.101 222.589 155.159 222.511L169.504 214.224C169.797 214.029 170.041 213.769 170.217 213.465C170.393 213.16 170.496 212.819 170.519 212.468V195.908C170.556 195.818 170.559 195.718 170.528 195.626C170.497 195.535 170.433 195.458 170.349 195.409C170.264 195.361 170.165 195.346 170.071 195.366C169.976 195.385 169.891 195.439 169.833 195.517L155.489 203.797Z" fill="#EBEBEB"/>
<path d="M171.349 197.458L168.152 199.304C167.805 199.528 167.516 199.832 167.308 200.189C167.101 200.547 166.981 200.949 166.958 201.362V205.052C166.958 205.807 167.494 206.115 168.152 205.738L171.349 203.893C171.694 203.666 171.981 203.362 172.187 203.005C172.393 202.647 172.512 202.247 172.536 201.835V198.144C172.536 197.383 172.001 197.081 171.349 197.458Z" fill="#B92F2E"/>
<path d="M156.408 205.293L163.597 201.177C163.92 200.985 164.187 201.142 164.187 201.52V201.746C164.177 201.952 164.118 202.152 164.015 202.331C163.913 202.51 163.77 202.662 163.597 202.775L156.408 206.891C156.079 207.083 155.818 206.891 155.818 206.548V206.315C155.828 206.11 155.887 205.91 155.989 205.732C156.092 205.555 156.235 205.404 156.408 205.293Z" fill="#EBEBEB"/>
<path d="M156.408 208.503L163.597 204.387C163.92 204.201 164.187 204.352 164.187 204.737V204.963C164.175 205.168 164.116 205.368 164.013 205.547C163.911 205.725 163.769 205.878 163.597 205.992L156.408 210.108C156.079 210.293 155.818 210.108 155.818 209.765V209.525C155.83 209.32 155.889 209.121 155.991 208.944C156.094 208.766 156.237 208.615 156.408 208.503Z" fill="#EBEBEB"/>
<path d="M156.408 211.72L163.597 207.604C163.92 207.412 164.187 207.569 164.187 207.947V208.173C164.177 208.379 164.118 208.579 164.015 208.758C163.913 208.937 163.77 209.089 163.597 209.202L156.408 213.346C156.079 213.538 155.818 213.346 155.818 213.003V212.762C155.825 212.554 155.882 212.35 155.985 212.168C156.087 211.987 156.233 211.833 156.408 211.72Z" fill="#EBEBEB"/>
<path d="M156.408 214.93L168.344 208.07C168.674 207.878 168.941 208.07 168.941 208.413V208.639C168.931 208.846 168.872 209.047 168.768 209.226C168.664 209.405 168.519 209.557 168.344 209.668L156.408 216.528C156.079 216.721 155.818 216.57 155.818 216.185V215.952C155.83 215.748 155.889 215.548 155.991 215.371C156.094 215.193 156.237 215.042 156.408 214.93Z" fill="#EBEBEB"/>
<path d="M156.408 218.148L168.344 211.288C168.674 211.103 168.941 211.288 168.941 211.631V211.864C168.93 212.071 168.869 212.271 168.766 212.45C168.662 212.629 168.518 212.781 168.344 212.893L156.408 219.753C156.079 219.939 155.818 219.788 155.818 219.41V219.17C155.83 218.966 155.889 218.766 155.991 218.589C156.094 218.411 156.237 218.26 156.408 218.148Z" fill="#EBEBEB"/>
<path d="M180.047 212.584V213.661C180.047 214.183 180.418 214.402 180.871 214.135L194.7 206.15C194.941 205.995 195.142 205.784 195.285 205.536C195.428 205.288 195.51 205.009 195.524 204.723V203.653C195.524 203.124 195.16 202.912 194.7 203.172L180.871 211.158C180.631 211.315 180.432 211.525 180.289 211.773C180.147 212.021 180.064 212.299 180.047 212.584Z" fill="#E0E0E0"/>
<path d="M180.418 189.02L194.755 180.74C195.441 180.363 195.949 180.672 195.949 181.426V197.986C195.926 198.399 195.806 198.801 195.599 199.159C195.392 199.516 195.102 199.82 194.755 200.044L180.418 208.324C179.732 208.709 179.224 208.4 179.224 207.638V191.078C179.248 190.666 179.369 190.265 179.576 189.907C179.783 189.55 180.072 189.246 180.418 189.02Z" fill="#FAFAFA"/>
<path d="M179.863 208.832C179.694 208.833 179.529 208.791 179.382 208.708C179.209 208.591 179.069 208.431 178.978 208.243C178.886 208.055 178.846 207.846 178.861 207.638V191.078C178.885 190.605 179.023 190.144 179.261 189.735C179.5 189.326 179.833 188.979 180.233 188.725L194.564 180.417C194.73 180.287 194.932 180.21 195.143 180.195C195.354 180.18 195.564 180.228 195.748 180.333C195.931 180.439 196.079 180.596 196.172 180.786C196.265 180.976 196.3 181.189 196.272 181.398V197.958C196.249 198.432 196.113 198.894 195.874 199.303C195.635 199.713 195.301 200.059 194.9 200.311L180.562 208.598C180.353 208.736 180.112 208.816 179.863 208.832ZM195.27 180.925C195.14 180.929 195.014 180.969 194.907 181.042L180.569 189.335C180.274 189.529 180.028 189.788 179.851 190.093C179.673 190.398 179.569 190.74 179.547 191.092V207.652C179.535 207.739 179.545 207.828 179.576 207.911C179.607 207.994 179.658 208.067 179.725 208.125C179.809 208.153 179.899 208.16 179.986 208.145C180.073 208.131 180.155 208.096 180.226 208.043L194.564 199.763C194.859 199.568 195.105 199.307 195.282 199.001C195.459 198.695 195.563 198.353 195.586 198V181.426C195.596 181.338 195.585 181.25 195.554 181.167C195.523 181.085 195.473 181.011 195.407 180.953C195.364 180.933 195.317 180.924 195.27 180.925Z" fill="#EBEBEB"/>
<path d="M196.422 182.977L193.226 184.822C192.881 185.049 192.594 185.353 192.388 185.71C192.182 186.068 192.063 186.468 192.039 186.88V190.571C192.039 191.332 192.574 191.641 193.226 191.257L196.422 189.411C196.77 189.187 197.059 188.883 197.266 188.526C197.474 188.168 197.594 187.766 197.616 187.353V183.663C197.616 182.908 197.081 182.599 196.422 182.977Z" fill="#B92F2E"/>
<path d="M181.488 190.811L188.671 186.695C189 186.51 189.267 186.661 189.267 187.045V187.278C189.256 187.484 189.195 187.685 189.092 187.864C188.988 188.043 188.844 188.194 188.671 188.307L181.488 192.423C181.159 192.608 180.891 192.457 180.891 192.073V191.84C180.903 191.634 180.963 191.433 181.067 191.254C181.171 191.076 181.315 190.924 181.488 190.811Z" fill="#EBEBEB"/>
<path d="M181.488 194.028L188.671 189.912C189 189.72 189.267 189.878 189.267 190.255V190.482C189.257 190.688 189.198 190.89 189.094 191.069C188.99 191.248 188.845 191.399 188.671 191.511L181.488 195.627C181.159 195.819 180.891 195.661 180.891 195.284V195.044C180.904 194.839 180.964 194.641 181.068 194.464C181.172 194.288 181.316 194.138 181.488 194.028Z" fill="#EBEBEB"/>
<path d="M181.488 197.238L188.671 193.122C189 192.937 189.267 193.088 189.267 193.465V193.699C189.256 193.905 189.195 194.106 189.092 194.284C188.988 194.463 188.844 194.615 188.671 194.728L181.488 198.844C181.159 199.036 180.891 198.885 180.891 198.501V198.254C180.905 198.05 180.966 197.852 181.07 197.676C181.174 197.499 181.317 197.35 181.488 197.238Z" fill="#EBEBEB"/>
<path d="M181.488 200.45L193.425 193.59C193.754 193.404 194.021 193.555 194.021 193.933V194.138C194.01 194.345 193.949 194.545 193.846 194.724C193.742 194.903 193.598 195.055 193.425 195.167L181.488 202.027C181.159 202.213 180.891 202.062 180.891 201.684V201.444C180.908 201.244 180.971 201.05 181.074 200.878C181.178 200.705 181.319 200.559 181.488 200.45Z" fill="#EBEBEB"/>
<path d="M181.488 203.666L193.425 196.806C193.754 196.614 194.021 196.772 194.021 197.149V197.376C194.01 197.582 193.95 197.783 193.846 197.962C193.743 198.14 193.598 198.292 193.425 198.405L181.488 205.265C181.159 205.457 180.891 205.265 180.891 204.922V204.688C180.903 204.483 180.963 204.283 181.066 204.105C181.17 203.927 181.315 203.777 181.488 203.666Z" fill="#EBEBEB"/>
<path d="M115.118 138.51L112.333 136.885V149.761L115.118 151.373V138.51Z" fill="#B92F2E"/>
<path opacity="0.1" d="M115.118 138.51L112.333 136.885V149.761L115.118 151.373V138.51Z" fill="black"/>
<path d="M279.703 191.717C279.385 191.573 279.036 191.515 278.689 191.549C278.342 191.583 278.011 191.707 277.727 191.909C276.917 192.435 276.243 193.143 275.757 193.977C275.27 194.811 274.987 195.748 274.928 196.711C274.891 197.058 274.947 197.408 275.089 197.726C275.231 198.044 275.455 198.319 275.737 198.522L310.463 220.474C311.149 220.954 312.185 220.927 313.317 220.275C314.454 219.539 315.402 218.544 316.082 217.373C316.763 216.201 317.157 214.885 317.234 213.532C317.234 212.229 316.753 211.33 315.985 210.953L279.703 191.717Z" fill="#B92F2E"/>
<path opacity="0.15" d="M274.928 196.738C274.928 198.515 276.17 199.242 277.713 198.357C278.523 197.832 279.198 197.123 279.684 196.289C280.17 195.455 280.454 194.519 280.512 193.555C280.512 191.779 279.271 191.052 277.727 191.936C276.918 192.462 276.243 193.171 275.757 194.005C275.271 194.839 274.987 195.775 274.928 196.738Z" fill="black"/>
<path d="M267.245 187.1C266.752 187.419 266.342 187.85 266.047 188.358C265.753 188.866 265.582 189.436 265.55 190.022C265.528 190.231 265.562 190.442 265.647 190.633C265.733 190.825 265.867 190.99 266.037 191.113L276.519 197.198C276.709 197.286 276.92 197.322 277.129 197.302C277.337 197.281 277.537 197.205 277.706 197.081C278.204 196.762 278.618 196.329 278.914 195.817C279.21 195.305 279.379 194.729 279.407 194.138C279.432 193.929 279.4 193.716 279.314 193.523C279.228 193.33 279.092 193.163 278.92 193.041L268.438 186.956C268.244 186.872 268.032 186.84 267.822 186.866C267.612 186.891 267.413 186.972 267.245 187.1Z" fill="#263238"/>
<path opacity="0.1" d="M279.023 197.218L314.75 219.17C314.327 219.609 313.847 219.99 313.323 220.302C312.191 220.954 311.176 220.988 310.463 220.501L275.744 198.549C276.06 198.695 276.409 198.754 276.755 198.72C277.101 198.687 277.432 198.561 277.713 198.357C278.212 198.055 278.655 197.67 279.023 197.218Z" fill="black"/>
<path d="M285.019 165.964C285.019 165.669 285.019 165.388 284.978 165.1C284.937 164.812 284.943 164.53 284.909 164.249C284.875 163.968 284.875 163.879 284.854 163.694C284.806 163.2 284.731 162.719 284.655 162.26C284.614 162.054 284.58 161.834 284.539 161.629C284.498 161.423 284.456 161.238 284.415 161.039C284.292 160.51 284.168 159.989 284.017 159.495C283.935 159.262 283.866 159.022 283.784 158.809C283.771 158.773 283.759 158.737 283.75 158.699C283.661 158.466 283.585 158.247 283.496 158.013C283.403 157.761 283.298 157.514 283.18 157.273C283.106 157.092 283.021 156.916 282.927 156.744C282.877 156.615 282.815 156.491 282.741 156.374C282.673 156.223 282.59 156.072 282.508 155.928L282.446 155.825C282.378 155.695 282.295 155.571 282.22 155.441C282.145 155.311 282.11 155.276 282.062 155.194C281.692 154.615 281.28 154.065 280.827 153.548C280.745 153.465 280.67 153.376 280.594 153.294C280.519 153.211 280.464 153.157 280.402 153.088L280.148 152.841C279.915 152.596 279.665 152.367 279.401 152.155C279.281 152.049 279.155 151.951 279.023 151.86C278.893 151.757 278.763 151.661 278.625 151.572C278.421 151.42 278.208 151.28 277.987 151.153L277.816 151.044H277.782L270.236 146.66L270.181 146.626C268.228 145.537 266.023 144.979 263.787 145.007C260.453 145.007 256.694 146.104 252.708 148.403C238.988 156.305 227.916 175.527 227.916 191.346C227.916 199.228 230.66 204.771 235.133 207.371H235.174L242.72 211.748H242.761L242.885 211.816C243.084 211.926 243.276 212.029 243.475 212.125C243.674 212.221 243.969 212.352 244.222 212.454C244.476 212.557 244.675 212.633 244.908 212.701C245.029 212.747 245.153 212.784 245.279 212.811C245.405 212.863 245.536 212.902 245.67 212.928L246.075 213.031C246.172 213.058 246.27 213.078 246.37 213.092L246.905 213.188H247.028L247.673 213.271C251.371 213.662 255.665 212.619 260.261 209.971C273.981 202.062 285.053 182.833 285.053 167.027C285.039 166.698 285.033 166.341 285.019 165.964ZM268.411 154.782C268.948 156.749 269.211 158.781 269.193 160.819C269.193 174.766 258.985 192.437 246.912 199.407C245.149 200.456 243.246 201.248 241.259 201.76C240.722 199.791 240.459 197.757 240.477 195.716C240.477 181.77 250.678 164.098 262.758 157.129C264.52 156.08 266.424 155.29 268.411 154.782Z" fill="#B92F2E"/>
<path opacity="0.1" d="M242.363 211.576L235.092 207.364C230.633 204.757 227.875 199.208 227.875 191.339C227.875 184.287 230.084 176.563 233.74 169.463L241.286 173.846C237.623 180.939 235.414 188.671 235.414 195.723C235.442 203.433 238.042 208.901 242.363 211.576Z" fill="black"/>
<path opacity="0.4" d="M285.019 165.965C285.019 165.67 285.019 165.388 284.978 165.1C284.937 164.812 284.944 164.531 284.909 164.25C284.875 163.968 284.875 163.879 284.855 163.694C284.806 163.2 284.731 162.72 284.656 162.26C284.614 162.054 284.58 161.835 284.539 161.629C284.498 161.423 284.457 161.238 284.415 161.039C284.292 160.511 284.169 159.99 284.018 159.496C283.935 159.262 283.867 159.022 283.784 158.81C283.771 158.774 283.759 158.737 283.75 158.7C283.661 158.467 283.585 158.247 283.496 158.014C283.404 157.762 283.298 157.514 283.181 157.273C283.106 157.092 283.021 156.916 282.927 156.745C282.878 156.615 282.816 156.491 282.742 156.374C282.673 156.223 282.591 156.072 282.508 155.928L282.447 155.825C282.378 155.695 282.296 155.572 282.22 155.441C282.145 155.311 282.111 155.277 282.062 155.194C281.693 154.615 281.28 154.065 280.828 153.548C280.745 153.466 280.67 153.376 280.594 153.294C280.519 153.212 280.464 153.157 280.402 153.088L280.149 152.841C279.915 152.596 279.665 152.367 279.401 152.155C279.281 152.05 279.155 151.951 279.024 151.86C278.893 151.758 278.763 151.661 278.626 151.572C278.422 151.42 278.208 151.28 277.988 151.154C273.487 148.41 267.012 148.478 260.248 152.752C246.658 161.313 235.517 180.295 235.449 195.696C235.414 203.708 238.289 209.299 242.878 211.844C243.077 211.954 243.269 212.057 243.468 212.153C243.667 212.249 243.962 212.379 244.216 212.482C244.47 212.585 244.669 212.661 244.902 212.729C245.022 212.775 245.146 212.812 245.272 212.839C245.399 212.89 245.53 212.929 245.663 212.956L246.068 213.058C246.165 213.086 246.263 213.106 246.363 213.12L246.898 213.216H247.022L247.666 213.299C251.364 213.69 255.658 212.647 260.255 209.999C273.975 202.089 285.047 182.861 285.047 167.055C285.04 166.699 285.033 166.342 285.019 165.965ZM257.73 205.684C254.657 207.461 251.7 208.394 249.169 208.394C244.422 208.394 242.24 205.156 241.259 201.76C240.722 199.791 240.459 197.757 240.477 195.716C240.477 181.77 250.678 164.099 262.758 157.129C264.521 156.08 266.424 155.29 268.411 154.783C269.363 154.55 270.339 154.428 271.32 154.419C279.168 154.419 280.005 163.282 280.005 167.096C280.005 181.043 269.811 198.714 257.73 205.684Z" fill="white"/>
<path opacity="0.1" d="M280.004 167.096C280.004 181.036 269.81 198.714 257.73 205.684C254.657 207.46 251.7 208.393 249.175 208.393C248.072 208.438 246.973 208.23 245.962 207.787C244.95 207.344 244.053 206.676 243.338 205.835C243.214 205.691 243.097 205.54 242.981 205.389C242.864 205.238 242.754 205.08 242.658 204.915C242.581 204.803 242.51 204.686 242.446 204.566C242.398 204.49 242.35 204.415 242.309 204.339C242.267 204.264 242.213 204.147 242.158 204.051C242.103 203.955 242.068 203.873 242.027 203.783C241.986 203.694 241.938 203.605 241.897 203.509L241.691 203.015C241.609 202.809 241.533 202.604 241.465 202.391C241.396 202.178 241.321 201.972 241.266 201.76C243.252 201.249 245.156 200.456 246.919 199.407C258.992 192.437 269.2 174.766 269.2 160.819C269.218 158.781 268.954 156.749 268.418 154.783C269.37 154.549 270.346 154.427 271.326 154.419C271.709 154.42 272.092 154.443 272.472 154.488L272.829 154.542C279.27 155.613 280.004 163.543 280.004 167.096Z" fill="black"/>
<path opacity="0.7" d="M275.669 164.64C275.669 178.587 265.475 196.258 253.394 203.228C250.321 205.005 247.364 205.972 244.833 205.972C244.33 205.974 243.827 205.933 243.331 205.848C243.207 205.704 243.091 205.553 242.974 205.402C242.857 205.252 242.748 205.094 242.652 204.929C242.574 204.817 242.503 204.7 242.439 204.579C242.391 204.504 242.343 204.428 242.302 204.353C242.261 204.277 242.206 204.161 242.151 204.065C242.096 203.969 242.062 203.886 242.02 203.797C241.979 203.708 241.931 203.619 241.89 203.523L241.684 203.029C241.602 202.823 241.527 202.617 241.458 202.405C241.389 202.192 241.314 201.986 241.259 201.773C243.246 201.262 245.149 200.47 246.912 199.421C258.985 192.451 269.193 174.779 269.193 160.833C269.211 158.794 268.948 156.763 268.411 154.796C269.363 154.563 270.339 154.441 271.32 154.433C271.702 154.434 272.085 154.457 272.465 154.501L272.822 154.556C275.305 157.465 275.669 162.15 275.669 164.64Z" fill="white"/>
</svg>
