<svg xmlns="http://www.w3.org/2000/svg" width="24" height="24" viewBox="0 0 22 21" fill="none">
    <path d="M9.13423 15.5394C10.6453 15.5393 12.1129 15.0334 13.3031 14.1024L17.0455 17.8448L18.2492 16.641L14.5069 12.8987C15.4383 11.7083 15.9445 10.2404 15.9447 8.72895C15.9447 4.97382 12.8894 1.91846 9.13423 1.91846C5.37909 1.91846 2.32373 4.97382 2.32373 8.72895C2.32373 12.4841 5.37909 15.5394 9.13423 15.5394ZM9.13423 3.62108C11.9512 3.62108 14.2421 5.91196 14.2421 8.72895C14.2421 11.5459 11.9512 13.8368 9.13423 13.8368C6.31723 13.8368 4.02635 11.5459 4.02635 8.72895C4.02635 5.91196 6.31723 3.62108 9.13423 3.62108Z" fill="#B92F2E"/>
    <path d="M10.3364 7.5251C10.659 7.8486 10.8369 8.27596 10.8369 8.72886H12.5396C12.5402 8.28145 12.4522 7.83835 12.2806 7.42514C12.1091 7.01193 11.8574 6.63678 11.5401 6.32134C10.2512 5.03416 8.01655 5.03416 6.72852 6.32134L7.93057 7.5268C8.57757 6.88151 9.69278 6.88321 10.3364 7.5251Z" fill="#B92F2E"/>
</svg>