<svg width="25" height="24" viewBox="0 0 25 24" fill="none" xmlns="http://www.w3.org/2000/svg">
<g id="Delivery" clip-path="url(#clip0_115_6341)">
<path id="Vector" d="M2.68625 4.125H14.405C14.8854 4.125 15.3461 4.31583 15.6857 4.6555C16.0254 4.99518 16.2162 5.45588 16.2162 5.93625V6.10125H21.2787C21.4629 6.10214 21.6431 6.15415 21.7994 6.25149C21.9556 6.34882 22.0818 6.48766 22.1637 6.6525L24.02 10.44C24.0876 10.5751 24.1235 10.7239 24.125 10.875V16.7438C24.125 16.9427 24.046 17.1334 23.9053 17.2741C23.7647 17.4147 23.5739 17.4938 23.375 17.4938H22.3587C22.2445 18.1599 21.8984 18.7641 21.3817 19.1998C20.8649 19.6354 20.2109 19.8743 19.535 19.8743C18.8591 19.8743 18.2051 19.6354 17.6883 19.1998C17.1716 18.7641 16.8255 18.1599 16.7112 17.4938H8.83625C8.72198 18.1599 8.37589 18.7641 7.85917 19.1998C7.34244 19.6354 6.68835 19.8743 6.0125 19.8743C5.33665 19.8743 4.68256 19.6354 4.16583 19.1998C3.64911 18.7641 3.30302 18.1599 3.18875 17.4938H1.8875C1.62219 17.4938 1.36745 17.3897 1.1781 17.2039C0.988752 17.018 0.879913 16.7653 0.875 16.5V5.94375C0.874012 5.70526 0.920132 5.46893 1.01071 5.24831C1.1013 5.02769 1.23456 4.82714 1.40284 4.65815C1.57113 4.48917 1.77114 4.35508 1.99138 4.26359C2.21162 4.17209 2.44776 4.125 2.68625 4.125ZM20.9563 7.60875H16.2162V10.065H22.1637L20.9563 7.60875ZM19.535 18.375C19.8068 18.3757 20.0726 18.2958 20.2989 18.1453C20.5252 17.9947 20.7017 17.7804 20.8061 17.5295C20.9104 17.2785 20.9379 17.0023 20.8851 16.7357C20.8322 16.4691 20.7014 16.2242 20.5092 16.032C20.3171 15.8398 20.0722 15.709 19.8056 15.6562C19.539 15.6034 19.2627 15.6309 19.0118 15.7352C18.7608 15.8395 18.5465 16.016 18.396 16.2423C18.2455 16.4686 18.1655 16.7345 18.1663 17.0062C18.1672 17.369 18.3118 17.7165 18.5682 17.973C18.8247 18.2295 19.1723 18.374 19.535 18.375ZM19.535 14.1337C20.1204 14.135 20.6914 14.3153 21.1713 14.6505C21.6513 14.9856 22.0172 15.4596 22.22 16.0087H22.625V11.565H16.2162V15.9938H16.85C17.054 15.446 17.4205 14.9736 17.9003 14.6399C18.3802 14.3061 18.9505 14.1269 19.535 14.1262V14.1337ZM6.01625 18.375C6.28802 18.3757 6.5539 18.2958 6.78018 18.1453C7.00646 17.9947 7.18296 17.7804 7.2873 17.5295C7.39165 17.2785 7.41914 17.0023 7.3663 16.7357C7.31347 16.4691 7.18267 16.2242 6.9905 16.032C6.79833 15.8398 6.55343 15.709 6.28684 15.6562C6.02025 15.6034 5.74398 15.6309 5.49303 15.7352C5.24209 15.8395 5.02777 16.016 4.87724 16.2423C4.72672 16.4686 4.64676 16.7345 4.6475 17.0062C4.64849 17.369 4.79301 17.7165 5.04949 17.973C5.30597 18.2295 5.65354 18.374 6.01625 18.375ZM2.375 15.9938H3.33125C3.53441 15.4448 3.90082 14.9713 4.38119 14.6369C4.86155 14.3025 5.43282 14.1232 6.01813 14.1232C6.60343 14.1232 7.1747 14.3025 7.65506 14.6369C8.13543 14.9713 8.50184 15.4448 8.705 15.9938H14.705V5.94375C14.704 5.8615 14.6709 5.7829 14.6128 5.72474C14.5546 5.66658 14.476 5.63347 14.3937 5.6325H2.68625C2.604 5.63347 2.5254 5.66658 2.46724 5.72474C2.40908 5.7829 2.37597 5.8615 2.375 5.94375V15.9938Z" fill="#353535"/>
</g>
<defs>
<clipPath id="clip0_115_6341">
<rect width="24" height="24" fill="white" transform="matrix(-1 0 0 1 24.5 0)"/>
</clipPath>
</defs>
</svg>
