<svg width="272" height="48" viewBox="0 0 272 48" fill="none" xmlns="http://www.w3.org/2000/svg">
<mask id="mask0_2475_19914" style="mask-type:luminance" maskUnits="userSpaceOnUse" x="0" y="0" width="272" height="48">
<path d="M271.708 0H0V48H271.708V0Z" fill="white"/>
</mask>
<g mask="url(#mask0_2475_19914)">
<path d="M84.2507 0.123047H37.0371L46.41 14.8348L59.5041 17.4611L59.2332 18.7696L74.4761 15.3355L68.8856 7.46577L69.7941 7.28133L78.9223 14.1322C82.5211 13.5086 85.8406 13.1924 86.0152 14.0971C86.1899 15.0018 83.0454 16.1962 79.4813 17.0043L73.7074 27.0522L72.7989 27.2367L75.0265 17.6631L58.4121 22.7572L53.5466 46.621H63.8454C66.1952 46.621 68.2304 44.9611 68.7021 42.6511L70.1435 35.7211C70.4666 34.1665 71.8294 33.0423 73.4192 33.0423H82.9142C89.1337 33.0423 94.4796 28.6068 95.6589 22.4674L96.9691 15.6604C98.5503 7.6063 92.4094 0.123047 84.2507 0.123047Z" fill="#751414"/>
<path d="M40.2341 28.3343C38.7317 28.791 37.6049 30.0294 37.2728 31.5665L37.1856 31.9529C37.0546 32.5062 36.5741 32.8928 36.0063 32.9015L27.7952 32.963L30.4245 21.4395H22.6939C18.6932 21.4395 15.2428 24.2589 14.4217 28.2026L10.552 46.7964H40.2079C45.1084 46.7964 49.3275 43.3359 50.3058 38.5139L53.1273 24.3818L40.2341 28.3343Z" fill="#CB3433"/>
<path d="M34.1455 16.0469H40.2076L39.57 19.4021C39.2118 21.2815 40.8891 22.9065 42.7408 22.4848L74.5806 15.309L58.0711 15.9327C56.3066 16.0029 54.9439 14.378 55.3021 12.639L55.337 12.4633C56.6647 6.02525 51.7731 -0.00878906 45.2392 -0.00878906H37.3775L34.1367 16.038L34.1455 16.0469Z" fill="#CB3433"/>
<path d="M1.58107 0.0351562C0.707549 0.0351562 0 0.746592 0 1.61613C0 2.48566 0.707549 3.20587 1.58107 3.20587H34.5388C35.3338 3.20587 36.0588 3.77679 36.1461 4.57605C36.2422 5.4895 35.526 6.2712 34.6349 6.2712H24.3886C23.5151 6.2712 22.8076 6.98264 22.8076 7.86096C22.8076 8.73927 23.5151 9.4507 24.3886 9.4507H27.9788C28.9134 9.4507 29.6733 10.2149 29.6733 11.1546C29.6733 12.0944 28.9134 12.8586 27.9788 12.8586H16.9463C16.064 12.8586 15.339 13.5788 15.339 14.4747C15.339 15.3705 16.0552 16.0908 16.9463 16.0908H38.0417V0.0351562H1.58107Z" fill="#CB3433"/>
<path d="M21.0691 7.86076C21.0691 6.98243 20.3616 6.271 19.4881 6.271H6.7959C5.92239 6.271 5.21484 6.98243 5.21484 7.86076C5.21484 8.73907 5.92239 9.4505 6.7959 9.4505H19.4881C20.3616 9.4505 21.0691 8.73907 21.0691 7.86076Z" fill="#CB3433"/>
<path d="M115.828 33.4552C112.893 33.4552 110.229 32.8756 107.844 31.7162C105.46 30.5568 103.66 28.7299 102.455 26.2532C101.241 23.7762 100.97 20.667 101.625 16.9429C102.28 13.175 103.651 10.0482 105.739 7.54495C107.818 5.05053 110.255 3.21484 113.051 2.05548C115.846 0.896095 118.711 0.316406 121.646 0.316406C123.148 0.316406 124.546 0.456937 125.821 0.737998C127.097 1.01906 128.538 1.40552 130.137 1.89738C130.731 2.10817 131.325 2.3014 131.927 2.47707C132.53 2.65273 133.045 2.77569 133.491 2.84596L129.63 11.392C129.324 11.3217 128.949 11.1987 128.486 11.0231C128.023 10.8474 127.56 10.6366 127.071 10.3907C125.926 9.93397 124.887 9.57387 123.952 9.31036C123.017 9.04687 121.978 8.91513 120.825 8.91513C119.357 8.91513 117.925 9.20497 116.527 9.78466C115.13 10.3644 113.924 11.2602 112.902 12.4811C111.88 13.6932 111.225 15.1774 110.91 16.9429C110.605 18.6996 110.745 20.184 111.338 21.3784C111.932 22.5729 112.832 23.4513 114.029 24.0133C115.226 24.5755 116.553 24.8565 118.03 24.8565C119.392 24.8565 120.755 24.6984 122.1 24.3824C123.445 24.0662 124.642 23.6971 125.682 23.2757C126.721 22.854 127.472 22.4851 127.953 22.1689L129.08 29.8191C127.202 30.9433 125.262 31.8305 123.262 32.4804C121.262 33.1304 118.79 33.4552 115.846 33.4552H115.828ZM129.971 32.7176C132.163 28.809 133.901 25.5592 135.203 22.9506L141.344 10.9704C142.296 8.93269 143.03 7.04431 143.545 5.32281C144.06 3.6013 144.357 2.17843 144.453 1.04541H160.99C160.684 2.20479 160.473 3.68035 160.369 5.45455C160.265 7.22875 160.351 9.14349 160.623 11.1812L162.535 23.0032C162.92 25.6119 163.523 28.8441 164.352 32.7176H152.385C152.682 31.0311 152.874 29.2745 152.962 27.4652C153.049 25.6559 153.023 24.0573 152.883 22.6872L151.381 7.58887H151.17L144.261 22.7398C143.65 24.0397 143.082 25.5943 142.549 27.4125C142.025 29.2218 141.571 30.996 141.195 32.7176H129.962H129.971ZM139.579 20.1049H159.102L158.133 25.647H138.61L139.579 20.1049ZM166.606 32.7176C167.034 31.8743 167.524 30.4778 168.074 28.5192C168.623 26.5694 169.157 24.1275 169.672 21.2115L171.375 11.4974C171.856 8.75703 172.144 6.49975 172.248 4.74312C172.345 2.98648 172.318 1.75684 172.162 1.04541H181.77L178.232 21.2028C177.717 24.1275 177.411 26.5605 177.316 28.5104C177.219 30.4602 177.271 31.8655 177.472 32.7087H166.606V32.7176ZM178.834 15.037H186.182C187.788 15.037 189.003 14.7735 189.816 14.2465C190.627 13.7195 191.134 12.8588 191.343 11.6555C191.563 10.4258 191.282 9.48603 190.523 8.83608C189.763 8.18613 188.436 7.86114 186.549 7.86114H180.04L181.238 1.05419H190.636C192.802 1.05419 194.628 1.467 196.114 2.29261C197.598 3.11823 198.638 4.26004 199.241 5.72683C199.844 7.18483 199.975 8.85364 199.651 10.7157C199.048 14.1323 197.66 16.7058 195.458 18.4449C193.266 20.184 190.523 21.0534 187.23 21.0534H177.778L178.834 15.037ZM186.444 32.7176C186.365 32.3661 186.304 32.0324 186.252 31.7162C186.155 30.873 185.962 29.8191 185.674 28.5455C185.386 27.2719 184.958 25.7875 184.391 24.0573L181.832 17.7246H190.383L192.602 23.056C193.344 25.2079 194.175 27.0259 195.083 28.5192C195.992 30.0123 196.847 31.1805 197.642 32.0324C197.843 32.2784 198.044 32.5067 198.253 32.7176H186.444ZM216.65 33.4552C213.714 33.4552 211.05 32.8756 208.666 31.7162C206.281 30.5568 204.482 28.7299 203.276 26.2532C202.062 23.7762 201.792 20.667 202.447 16.9429C203.111 13.175 204.499 10.0569 206.63 7.57129C208.762 5.09445 211.26 3.25876 214.125 2.08182C216.99 0.904877 219.89 0.316406 222.834 0.316406C224.442 0.316406 225.908 0.43937 227.229 0.685298C228.547 0.931228 230.032 1.26499 231.674 1.68658C232.338 1.89738 233.002 2.07304 233.657 2.21356C234.312 2.3541 234.907 2.44192 235.422 2.47707L231.613 10.7069C230.827 10.1799 229.569 9.63534 227.831 9.07321C226.092 8.5111 224.188 8.23003 222.127 8.23003C220.554 8.23003 219.034 8.55501 217.575 9.20497C216.116 9.85492 214.85 10.8211 213.784 12.1034C212.719 13.3858 212.029 14.9492 211.705 16.776C211.374 18.6732 211.505 20.2893 212.09 21.6067C212.675 22.9242 213.567 23.9081 214.745 24.558C215.925 25.2079 217.253 25.5329 218.719 25.5329C220.047 25.5329 221.367 25.3572 222.668 25.0059C223.97 24.6546 225.106 24.2505 226.058 23.7937C226.442 23.6181 226.756 23.4775 227.027 23.3722L224.406 26.0598L226.066 16.6092L228.582 19.3056H223.436C221.619 19.3056 219.89 19.5516 218.266 20.0434L219.183 14.8174H234.189C233.491 16.7848 232.968 18.7962 232.61 20.834L231.106 29.3888C230.922 29.459 230.687 29.5555 230.399 29.6786C230.111 29.8015 229.796 29.9683 229.447 30.1791C227.866 30.9872 226.669 31.4615 225.84 31.602C224.703 32.0939 223.341 32.5242 221.751 32.8932C220.162 33.2621 218.458 33.4466 216.641 33.4466L216.65 33.4552ZM251.188 33.4552C248.209 33.4552 245.537 32.8756 243.152 31.7162C240.768 30.5568 238.977 28.7299 237.789 26.2532C236.602 23.7762 236.33 20.667 236.985 16.9429C237.649 13.175 239.012 10.0482 241.073 7.54495C243.134 5.05053 245.572 3.21484 248.358 2.05548C251.154 0.896095 254.036 0.316406 257.006 0.316406C259.977 0.316406 262.728 0.896095 265.147 2.05548C267.567 3.21484 269.375 5.05053 270.562 7.54495C271.751 10.0482 272.013 13.175 271.358 16.9429C270.703 20.7109 269.341 23.8201 267.279 26.2882C265.217 28.7563 262.78 30.5656 259.95 31.725C257.12 32.8843 254.202 33.4641 251.197 33.4641L251.188 33.4552ZM252.752 24.8565C254.115 24.8565 255.407 24.6282 256.622 24.1714C257.836 23.7147 258.91 22.9066 259.827 21.7473C260.745 20.5879 261.382 19.0069 261.74 16.9956C262.091 14.9931 262.011 13.3858 261.504 12.1912C260.999 10.9967 260.221 10.1535 259.164 9.66169C258.115 9.16983 256.902 8.9239 255.539 8.9239C254.177 8.9239 252.892 9.16983 251.687 9.66169C250.481 10.1535 249.415 10.9967 248.49 12.1912C247.563 13.3858 246.926 14.9843 246.568 16.9956C246.218 18.9982 246.288 20.5791 246.786 21.7473C247.284 22.9066 248.062 23.7147 249.118 24.1714C250.175 24.6282 251.39 24.8565 252.752 24.8565Z" fill="url(#paint0_linear_2475_19914)"/>
<path d="M80.8353 41.974C80.6695 41.9214 80.4423 41.8774 80.1627 41.8423C79.8833 41.8071 79.5688 41.7895 79.2194 41.7895H77.7431C77.385 41.7895 77.053 41.8071 76.756 41.8423C76.459 41.8774 76.2231 41.9214 76.0398 41.974L76.3892 40.4019H81.0363L80.8353 41.974ZM77.8829 40.4019H79.5339L78.9136 43.9678C78.8263 44.4508 78.7738 44.8725 78.7564 45.2151C78.7389 45.5575 78.7477 45.8211 78.7738 45.9967H76.6862C76.7735 45.8211 76.8695 45.5575 76.9744 45.2151C77.0793 44.8636 77.1754 44.4508 77.2626 43.9678L77.8829 40.4019Z" fill="#751414"/>
<path d="M80.582 45.9978C80.6606 45.8486 80.7393 45.6026 80.8353 45.2601C80.9314 44.9175 81.0188 44.4872 81.1149 43.9689L81.4119 42.2738C81.508 41.7468 81.5692 41.2989 81.5953 40.9299C81.6215 40.5611 81.6303 40.2977 81.6127 40.1307C81.8486 40.1307 82.0758 40.1219 82.3028 40.0868C82.53 40.0605 82.7659 40.0166 83.0192 39.9726C83.1414 39.9462 83.2637 39.92 83.386 39.8936C83.2899 40.1396 83.1851 40.4996 83.0715 40.9563C82.958 41.4131 82.8445 41.9576 82.7396 42.5724L82.495 43.9689C82.4077 44.4872 82.3465 44.9175 82.3203 45.2601C82.2942 45.6026 82.2942 45.8486 82.3203 45.9978H80.582ZM83.7878 45.9978C83.8664 45.8222 83.9538 45.5499 84.0587 45.1898C84.1547 44.8209 84.2508 44.3817 84.3469 43.8548L84.4255 43.4156C84.4692 43.1697 84.4255 42.9765 84.2945 42.836C84.1634 42.6954 83.9801 42.6251 83.7267 42.6251C83.4909 42.6251 83.2899 42.6866 83.1153 42.8184C82.9406 42.9501 82.8094 43.1082 82.7134 43.2927C82.6173 43.4771 82.5561 43.6527 82.53 43.8284H82.4601L82.6348 42.836H82.8008C82.9318 42.3177 83.1414 41.9138 83.4472 41.6238C83.7529 41.334 84.1373 41.1935 84.6002 41.1935C85.0982 41.1935 85.4738 41.334 85.7095 41.6238C85.9454 41.9138 86.024 42.3002 85.9367 42.8009L85.7532 43.8548C85.6659 44.373 85.6048 44.8122 85.5699 45.1811C85.5348 45.5499 85.5262 45.8222 85.5436 46.0067H83.8054L83.7878 45.9978Z" fill="#751414"/>
<path d="M88.6271 41.3336C88.5659 41.4477 88.4873 41.676 88.3999 42.0098C88.3126 42.3435 88.2164 42.7739 88.1291 43.301L88.0679 43.6259C88.0242 43.8806 88.0242 44.0915 88.0679 44.2496C88.1028 44.4077 88.1903 44.5305 88.3038 44.6009C88.4261 44.6711 88.5834 44.715 88.7755 44.715C89.0114 44.715 89.2035 44.6624 89.3607 44.5481C89.518 44.4428 89.6403 44.3022 89.7276 44.1353C89.815 43.9685 89.8762 43.784 89.9111 43.5732L89.9548 43.301C90.0508 42.7739 90.112 42.3435 90.1381 42.0011C90.1644 41.6673 90.1732 41.4389 90.1557 41.3159H91.8503C91.7804 41.4828 91.693 41.7551 91.5969 42.1239C91.5009 42.4929 91.4048 42.9408 91.3174 43.4766L91.2301 43.9509C91.1427 44.4339 91.0903 44.8467 91.0554 45.1982C91.0292 45.5406 91.0204 45.8042 91.038 45.9798H89.6228C89.649 45.6461 89.7101 45.1982 89.815 44.6184H89.7538C89.684 44.9082 89.5791 45.1718 89.4394 45.3914C89.2996 45.611 89.0986 45.7953 88.8453 45.9359C88.592 46.0764 88.2689 46.1379 87.8758 46.1379C87.3604 46.1379 86.9847 45.9974 86.7489 45.7076C86.513 45.4176 86.4432 45.0048 86.5393 44.4515L86.714 43.4853C86.81 42.9584 86.8712 42.5105 86.9061 42.1328C86.9412 41.7639 86.9498 41.4917 86.9324 41.3247H88.6357L88.6271 41.3336Z" fill="#751414"/>
<path d="M93.7112 45.9978C93.7898 45.8486 93.8684 45.6026 93.9645 45.2601C94.0606 44.9175 94.148 44.4872 94.244 43.9689L94.5411 42.2738C94.6371 41.7468 94.6982 41.2989 94.7244 40.9299C94.7507 40.5611 94.7593 40.2977 94.7419 40.1307C94.9777 40.1307 95.2049 40.1219 95.432 40.0868C95.659 40.0605 95.8949 40.0166 96.1482 39.9726C96.2705 39.9462 96.3928 39.92 96.5152 39.8936C96.4191 40.1396 96.3142 40.4996 96.2007 40.9563C96.0872 41.4131 95.9735 41.9576 95.8688 42.5724L95.6241 43.9689C95.5368 44.4872 95.4757 44.9175 95.4494 45.2601C95.4232 45.6026 95.4232 45.8486 95.4494 45.9978H93.7112ZM96.9169 45.9978C96.9955 45.8222 97.0829 45.5499 97.1877 45.1898C97.2839 44.8209 97.38 44.3817 97.476 43.8548L97.5547 43.4156C97.5984 43.1697 97.5547 42.9765 97.4235 42.836C97.2926 42.6954 97.1091 42.6251 96.8558 42.6251C96.6199 42.6251 96.4191 42.6866 96.2444 42.8184C96.0697 42.9501 95.9386 43.1082 95.8425 43.2927C95.7464 43.4771 95.6853 43.6527 95.659 43.8284H95.5892L95.7639 42.836H95.9299C96.0609 42.3177 96.2705 41.9138 96.5763 41.6238C96.882 41.334 97.2663 41.1935 97.7294 41.1935C98.2272 41.1935 98.6028 41.334 98.8387 41.6238C99.0745 41.9138 99.1531 42.3002 99.0659 42.8009L98.8824 43.8548C98.7949 44.373 98.7339 44.8122 98.6989 45.1811C98.664 45.5499 98.6553 45.8222 98.6728 46.0067H96.9344L96.9169 45.9978Z" fill="#751414"/>
<path d="M99.7821 43.863L99.887 43.257H103.364L103.163 43.4502H103.128C103.154 43.3008 103.145 43.1427 103.11 42.9846C103.075 42.8265 102.988 42.6859 102.866 42.5631C102.743 42.4489 102.56 42.3874 102.324 42.3874C102.123 42.3874 101.922 42.4312 101.739 42.5278C101.555 42.6246 101.389 42.765 101.25 42.9495C101.11 43.134 101.014 43.3798 100.97 43.6609C100.918 43.9507 100.935 44.1967 101.014 44.3811C101.092 44.5656 101.215 44.7061 101.389 44.794C101.555 44.8818 101.765 44.9257 102.01 44.9257C102.342 44.9257 102.647 44.8906 102.918 44.8203C103.189 44.7501 103.451 44.6535 103.704 44.548C103.739 44.5305 103.765 44.5129 103.8 44.5041L103.879 45.6987C103.792 45.7162 103.634 45.7513 103.425 45.8128C103.128 45.9094 102.831 45.9796 102.542 46.0411C102.254 46.1026 101.957 46.129 101.652 46.129C101.162 46.129 100.743 46.0411 100.402 45.8655C100.053 45.6898 99.8084 45.4176 99.6598 45.0487C99.5114 44.6797 99.4765 44.2231 99.5725 43.6698C99.6686 43.1251 99.852 42.6684 100.132 42.2995C100.411 41.9307 100.752 41.6584 101.154 41.4828C101.555 41.2983 102.001 41.2104 102.49 41.2104C102.927 41.2104 103.294 41.2983 103.608 41.4651C103.923 41.632 104.141 41.8956 104.272 42.238C104.403 42.5806 104.429 43.011 104.342 43.5117C104.324 43.6258 104.298 43.7311 104.272 43.8279L104.255 43.863H99.8084H99.7821ZM101.18 47.9472C100.909 47.9472 100.708 47.8768 100.568 47.7451C100.437 47.6134 100.385 47.4376 100.429 47.2182C100.463 46.9986 100.577 46.8229 100.76 46.6824C100.944 46.5418 101.171 46.4803 101.442 46.4803C101.713 46.4803 101.913 46.5505 102.053 46.6824C102.184 46.8229 102.237 46.9986 102.193 47.2182C102.158 47.4376 102.045 47.6134 101.861 47.7451C101.678 47.8768 101.451 47.9472 101.18 47.9472Z" fill="#751414"/>
<path d="M104.062 47.8593C104.158 47.5782 104.263 47.2269 104.368 46.8141C104.473 46.3924 104.569 45.9445 104.656 45.4615L105.005 43.494C105.093 42.9934 105.154 42.5631 105.18 42.1854C105.215 41.8164 105.215 41.5266 105.206 41.3334H106.691L106.49 43.011H106.482L106.054 45.4527C105.966 45.9358 105.905 46.3924 105.87 46.8052C105.827 47.2269 105.809 47.5782 105.809 47.8504H104.062V47.8593ZM106.289 44.0473C106.289 44.1439 106.324 44.2407 106.403 44.3373C106.473 44.4426 106.586 44.5305 106.752 44.6007C106.91 44.671 107.119 44.7148 107.373 44.7148C107.748 44.7148 108.028 44.6358 108.211 44.469C108.395 44.302 108.517 44.0826 108.587 43.8015L108.613 43.6609C108.613 43.6083 108.631 43.573 108.631 43.5379C108.674 43.1955 108.631 42.9495 108.482 42.8089C108.342 42.6597 108.115 42.5893 107.801 42.5893C107.512 42.5893 107.277 42.6333 107.076 42.7212C106.875 42.8089 106.726 42.9231 106.613 43.0461C106.508 43.1691 106.438 43.2832 106.42 43.3887H106.281C106.298 43.2745 106.316 43.1691 106.342 43.0636C106.359 42.967 106.377 42.8704 106.394 42.7738H106.613C106.77 42.2556 107.014 41.8692 107.329 41.5969C107.643 41.3245 108.045 41.1928 108.534 41.1928C109.155 41.1928 109.591 41.4124 109.862 41.8428C110.124 42.2731 110.194 42.8793 110.054 43.6609C109.958 44.1879 109.801 44.6358 109.565 45.0048C109.329 45.3736 109.032 45.6459 108.683 45.8391C108.325 46.0324 107.914 46.1202 107.451 46.1202C107.084 46.1202 106.787 46.05 106.578 45.9181C106.368 45.7864 106.228 45.5668 106.158 45.277C106.088 44.9872 106.088 44.5744 106.158 44.0562L106.316 44.0035V44.0386L106.289 44.0473Z" fill="#751414"/>
<path d="M112.186 45.9978C112.256 45.8486 112.334 45.6026 112.431 45.2601C112.527 44.9175 112.614 44.4872 112.71 43.9689L113.007 42.2738C113.103 41.7468 113.164 41.2989 113.19 40.9299C113.217 40.5611 113.226 40.2977 113.217 40.1307C113.444 40.1307 113.671 40.1219 113.907 40.0868C114.134 40.0605 114.379 40.0166 114.632 39.9726C114.754 39.9462 114.876 39.92 114.99 39.8936C114.903 40.1396 114.798 40.4996 114.684 40.9563C114.571 41.4131 114.457 41.9576 114.352 42.5724L114.108 43.9689C114.02 44.4872 113.959 44.9175 113.933 45.2601C113.907 45.6026 113.898 45.8486 113.915 45.9978H112.186ZM116.16 46.1297C115.898 46.1297 115.663 46.0682 115.47 45.954C115.278 45.8397 115.112 45.6993 114.981 45.5324C114.85 45.3654 114.728 45.1635 114.614 44.9351C114.571 44.8473 114.536 44.7594 114.492 44.6804C114.448 44.6013 114.413 44.5223 114.379 44.4521V43.319L114.999 43.3365C115.383 43.3541 115.654 43.3103 115.82 43.2137C115.986 43.1171 116.091 42.9852 116.126 42.836V42.8096C116.152 42.6779 116.117 42.5813 116.012 42.5198C115.916 42.4583 115.776 42.4232 115.61 42.4232C115.383 42.4232 115.165 42.4847 114.964 42.5988C114.763 42.713 114.597 42.8622 114.457 43.0467C114.317 43.2312 114.23 43.4156 114.195 43.6089H114.055L114.186 42.8447H114.352C114.448 42.5109 114.606 42.2211 114.815 41.9751C115.025 41.7293 115.269 41.5448 115.558 41.4131C115.837 41.2814 116.134 41.2199 116.449 41.2199C116.763 41.2199 117.016 41.2725 117.191 41.3867C117.375 41.4921 117.497 41.6327 117.549 41.7908C117.611 41.9489 117.619 42.1245 117.593 42.2913C117.532 42.6339 117.383 42.915 117.148 43.1433C116.912 43.3629 116.615 43.5299 116.257 43.6352C115.898 43.7406 115.505 43.7846 115.077 43.767L115.331 43.5035C115.357 43.6176 115.392 43.7318 115.427 43.8284C115.488 44.0042 115.566 44.1621 115.654 44.294C115.741 44.4345 115.855 44.5398 115.986 44.6189C116.117 44.6979 116.274 44.7332 116.458 44.7332C116.527 44.7332 116.597 44.7243 116.667 44.6979C116.737 44.6717 116.798 44.6453 116.859 44.6277C116.912 44.6102 116.964 44.5926 117.016 44.5838C117.069 44.5751 117.121 44.5662 117.174 44.5574L117.016 45.9276C116.92 45.9978 116.798 46.0593 116.667 46.1033C116.536 46.1472 116.37 46.1648 116.178 46.1648L116.16 46.1297Z" fill="#751414"/>
<path d="M117.479 45.9978C117.558 45.8486 117.637 45.6026 117.733 45.2601C117.829 44.9175 117.916 44.4872 118.012 43.9689L118.309 42.2738C118.405 41.7468 118.467 41.2989 118.493 40.9299C118.519 40.5611 118.528 40.2977 118.51 40.1307C118.746 40.1307 118.973 40.1219 119.2 40.0868C119.427 40.0605 119.663 40.0166 119.917 39.9726C120.039 39.9462 120.161 39.92 120.283 39.8936C120.187 40.1396 120.083 40.4996 119.969 40.9563C119.855 41.4131 119.742 41.9576 119.637 42.5724L119.392 43.9689C119.305 44.4872 119.244 44.9175 119.218 45.2601C119.192 45.6026 119.192 45.8486 119.218 45.9978H117.479ZM120.685 45.9978C120.764 45.8222 120.851 45.5499 120.956 45.1898C121.052 44.8209 121.148 44.3817 121.244 43.8548L121.323 43.4156C121.367 43.1697 121.323 42.9765 121.192 42.836C121.061 42.6954 120.878 42.6251 120.624 42.6251C120.388 42.6251 120.187 42.6866 120.013 42.8184C119.838 42.9501 119.707 43.1082 119.611 43.2927C119.515 43.4771 119.454 43.6527 119.427 43.8284H119.358L119.532 42.836H119.698C119.829 42.3177 120.039 41.9138 120.345 41.6238C120.65 41.334 121.035 41.1935 121.498 41.1935C121.996 41.1935 122.371 41.334 122.607 41.6238C122.843 41.9138 122.921 42.3002 122.834 42.8009L122.651 43.8548C122.563 44.373 122.502 44.8122 122.467 45.1811C122.432 45.5499 122.424 45.8222 122.441 46.0067H120.703L120.685 45.9978Z" fill="#751414"/>
<path d="M125.42 46.129C124.922 46.129 124.494 46.0324 124.144 45.8479C123.795 45.6634 123.542 45.3825 123.393 45.0223C123.245 44.6622 123.218 44.2054 123.306 43.6698C123.393 43.134 123.585 42.6859 123.865 42.3171C124.144 41.9482 124.485 41.676 124.904 41.4915C125.324 41.307 125.778 41.2104 126.284 41.2104C126.791 41.2104 127.219 41.307 127.569 41.4915C127.918 41.676 128.162 41.9569 128.32 42.3171C128.468 42.6859 128.503 43.134 128.407 43.6698C128.311 44.2054 128.128 44.6535 127.848 45.0223C127.569 45.3912 127.219 45.6634 126.809 45.8479C126.398 46.0324 125.935 46.129 125.428 46.129H125.42ZM124.738 43.6698C124.703 43.8892 124.712 44.0737 124.782 44.2318C124.852 44.3899 124.957 44.5129 125.105 44.592C125.262 44.671 125.446 44.715 125.664 44.715C125.883 44.715 126.092 44.671 126.276 44.592C126.459 44.5129 126.608 44.3899 126.73 44.2318C126.844 44.0737 126.922 43.8892 126.966 43.6698C127.001 43.4502 126.992 43.2657 126.931 43.1076C126.87 42.9495 126.756 42.8265 126.608 42.7474C126.45 42.6684 126.258 42.6246 126.04 42.6246C125.822 42.6246 125.612 42.6684 125.437 42.7474C125.254 42.8265 125.105 42.9495 124.983 43.1076C124.861 43.2657 124.782 43.4502 124.747 43.6698H124.738Z" fill="#751414"/>
<path d="M129.805 46.1465C129.359 46.1465 129.036 46.0235 128.827 45.7776C128.617 45.5316 128.547 45.1979 128.617 44.7762C128.704 44.2932 128.914 43.9506 129.263 43.7487C129.613 43.5467 129.997 43.4501 130.434 43.4501C130.827 43.4501 131.342 43.494 131.98 43.5818L131.893 44.0649C131.788 44.0561 131.639 44.0297 131.465 44.0121C131.29 43.9859 131.089 43.9682 130.871 43.9506C130.652 43.9331 130.46 43.9244 130.285 43.9244C130.172 43.9244 130.058 43.9419 129.971 43.9682C129.875 43.9946 129.796 44.0472 129.735 44.1175C129.674 44.1877 129.63 44.2668 129.613 44.3722C129.587 44.5303 129.639 44.6534 129.779 44.7236C129.919 44.7939 130.119 44.8377 130.382 44.8377C130.644 44.8377 130.897 44.7851 131.107 44.6796C131.307 44.5743 131.473 44.4602 131.596 44.3283C131.718 44.1966 131.805 44.0825 131.849 43.9859H131.971L131.875 44.5479H131.788C131.657 44.873 131.508 45.1539 131.342 45.3824C131.176 45.6195 130.967 45.8039 130.713 45.9533C130.46 46.1025 130.154 46.1729 129.805 46.1729V46.1465ZM131.639 45.9972C131.692 45.8478 131.735 45.6546 131.77 45.4174C131.805 45.1803 131.832 44.9168 131.84 44.6183L131.858 43.977V43.8453C131.858 43.6082 131.84 43.4061 131.788 43.2216C131.735 43.046 131.622 42.8879 131.465 42.765C131.307 42.6332 131.072 42.5717 130.775 42.5717C130.539 42.5717 130.312 42.6069 130.093 42.6683C129.875 42.7298 129.674 42.8088 129.482 42.8879L129.342 42.9494V41.6495C129.456 41.6231 129.587 41.5792 129.753 41.5177C130.032 41.4211 130.285 41.3421 130.53 41.2806C130.766 41.2191 131.037 41.1927 131.342 41.1927C131.989 41.1927 132.46 41.3597 132.766 41.6934C133.072 42.0272 133.22 42.5279 133.194 43.1954L133.159 44.6358C133.151 45.0047 133.159 45.3033 133.185 45.5316C133.212 45.7601 133.247 45.9181 133.29 45.9883H131.639V45.9972ZM130.609 40.9205L130.705 40.3496C130.705 40.3496 130.757 40.332 130.783 40.3145C130.888 40.2705 130.993 40.2179 131.098 40.1475C131.203 40.086 131.307 40.0158 131.404 39.9456C131.456 39.9807 131.508 40.007 131.569 40.0334C131.631 40.0598 131.692 40.0773 131.762 40.0773C131.858 40.0773 131.928 40.0598 131.98 40.0247C132.032 39.9894 132.067 39.9279 132.076 39.8577C132.094 39.7611 132.076 39.6732 132.024 39.6117C131.971 39.5504 131.858 39.5151 131.674 39.5151C131.517 39.5151 131.351 39.5591 131.176 39.6381C131.002 39.7172 130.836 39.8137 130.687 39.9103C130.67 39.9103 130.661 39.9192 130.661 39.9279C130.661 39.9279 130.652 39.9279 130.635 39.9456L130.46 39.1463C130.46 39.1463 130.512 39.1463 130.548 39.1287C130.582 39.1112 130.626 39.1023 130.679 39.0848C130.853 39.0146 131.028 38.9531 131.22 38.9004C131.412 38.8476 131.622 38.8214 131.858 38.8214C132.242 38.8214 132.522 38.918 132.705 39.1112C132.888 39.3044 132.95 39.559 132.897 39.8841C132.854 40.1475 132.74 40.332 132.557 40.4375C132.373 40.5428 132.19 40.5956 131.98 40.5956C131.866 40.5956 131.762 40.5779 131.666 40.5516C131.578 40.5252 131.5 40.4901 131.447 40.4637H131.421H131.412L131.342 40.9293H130.6L130.609 40.9205Z" fill="#751414"/>
<path d="M133.613 45.9972C133.692 45.8391 133.779 45.5757 133.884 45.2155C133.989 44.8554 134.085 44.4075 134.172 43.8717L134.295 43.1778C134.364 42.7825 134.408 42.4225 134.426 42.0975C134.443 41.7726 134.443 41.5179 134.426 41.3334H135.841C135.841 41.4651 135.823 41.5969 135.806 41.7462C135.788 41.8867 135.78 42.0273 135.762 42.1678C135.736 42.4752 135.71 42.7563 135.692 43.0021L135.544 43.8717C135.448 44.4075 135.386 44.8554 135.36 45.2155C135.334 45.5757 135.325 45.8391 135.352 45.9972H133.604H133.613ZM136.845 45.9972C136.915 45.8215 137.003 45.5493 137.107 45.1891C137.212 44.8203 137.308 44.3811 137.395 43.8541L137.474 43.4149C137.518 43.1691 137.474 42.9759 137.343 42.8353C137.212 42.6948 137.02 42.6244 136.767 42.6244C136.531 42.6244 136.33 42.6859 136.155 42.8178C135.98 42.9495 135.849 43.1076 135.753 43.2921C135.657 43.4764 135.596 43.6521 135.561 43.8277H135.491L135.666 42.8353H135.841C135.963 42.3171 136.173 41.9131 136.478 41.6232C136.784 41.3334 137.168 41.1928 137.631 41.1928C138.129 41.1928 138.505 41.3334 138.741 41.6232C138.977 41.9131 139.055 42.2995 138.968 42.8002L138.784 43.8541C138.697 44.3724 138.636 44.8116 138.601 45.1804C138.566 45.5493 138.566 45.8215 138.584 46.006H136.845V45.9972Z" fill="#751414"/>
<path d="M145.1 41.3334C145.013 41.5266 144.925 41.8077 144.82 42.1765C144.716 42.5455 144.628 42.9846 144.532 43.4764L144.13 45.7513C144.034 46.3134 143.825 46.7614 143.519 47.0863C143.204 47.4201 142.846 47.6572 142.436 47.7891C142.025 47.9295 141.606 47.991 141.16 47.991C140.855 47.991 140.575 47.9734 140.348 47.9472C140.112 47.9208 139.876 47.8857 139.641 47.8417C139.509 47.8153 139.387 47.7978 139.274 47.7891C139.16 47.7802 139.064 47.7715 138.985 47.7802L139.571 46.4013H139.588C139.719 46.4979 139.929 46.5858 140.208 46.6735C140.488 46.7614 140.82 46.8054 141.195 46.8054C141.615 46.8054 141.938 46.7263 142.174 46.5682C142.409 46.4101 142.558 46.2256 142.637 46.0236C142.715 45.8215 142.776 45.5844 142.829 45.321V45.2683L143.274 42.7827L143.667 41.3158H145.109L145.1 41.3334ZM143.213 43.9947C143.135 44.4163 143.004 44.7763 142.811 45.0838C142.628 45.3825 142.392 45.6196 142.104 45.7777C141.816 45.9358 141.475 46.0149 141.073 46.0149C140.366 46.0149 139.885 45.8304 139.623 45.4527C139.361 45.0838 139.3 44.4954 139.44 43.6873C139.536 43.1691 139.693 42.7212 139.911 42.3522C140.138 41.9833 140.418 41.7022 140.759 41.5003C141.099 41.307 141.475 41.2104 141.885 41.2104C142.383 41.2104 142.733 41.3422 142.951 41.6145C143.17 41.8867 143.257 42.2556 143.213 42.7212H143.414L143.292 43.3974H143.152C143.17 43.2921 143.152 43.1779 143.073 43.0461C143.004 42.9144 142.881 42.8089 142.724 42.7212C142.558 42.6333 142.348 42.5893 142.078 42.5893C141.772 42.5893 141.501 42.6684 141.265 42.844C141.038 43.011 140.89 43.2921 140.82 43.6873C140.82 43.7311 140.802 43.7664 140.802 43.8015C140.767 44.1352 140.837 44.3724 140.995 44.5129C141.152 44.6535 141.396 44.7237 141.702 44.7237C141.947 44.7237 142.165 44.6797 142.357 44.6007C142.558 44.5129 142.715 44.4163 142.838 44.2933C142.96 44.1703 143.03 44.0562 143.047 43.9507L143.196 43.9947H143.213Z" fill="#751414"/>
<path d="M148.576 43.6609C148.533 43.9069 148.55 44.1001 148.62 44.2582C148.69 44.4163 148.804 44.5305 148.961 44.6007C149.118 44.671 149.301 44.7061 149.512 44.7061C149.8 44.7061 150.07 44.6797 150.341 44.6446C150.611 44.6007 150.865 44.5392 151.109 44.4601L151.136 45.8743C150.987 45.8919 150.795 45.927 150.55 45.9796C150.341 46.0324 150.14 46.0675 149.931 46.0939C149.72 46.1202 149.503 46.129 149.258 46.129C148.769 46.129 148.349 46.0411 148 45.8568C147.651 45.6723 147.397 45.4 147.24 45.0399C147.083 44.671 147.048 44.2143 147.144 43.6698C147.24 43.1251 147.432 42.6684 147.72 42.2995C148.009 41.9307 148.358 41.6584 148.769 41.4828C149.179 41.2983 149.634 41.2104 150.123 41.2104C150.323 41.2104 150.525 41.2279 150.708 41.2632C150.9 41.2983 151.091 41.3422 151.293 41.4037C151.397 41.4388 151.503 41.4651 151.599 41.4915C151.696 41.5179 151.791 41.5354 151.87 41.5441L151.363 42.8968C151.109 42.8089 150.865 42.7387 150.638 42.6948C150.411 42.6421 150.158 42.6246 149.886 42.6246C149.677 42.6246 149.476 42.6597 149.301 42.7299C149.118 42.8002 148.961 42.9144 148.83 43.0725C148.699 43.2306 148.611 43.4326 148.568 43.6785L148.576 43.6609Z" fill="#751414"/>
<path d="M152.901 46.1468C152.455 46.1468 152.131 46.0239 151.922 45.7779C151.712 45.5321 151.642 45.1983 151.712 44.7767C151.8 44.2935 152.009 43.9511 152.359 43.749C152.708 43.547 153.092 43.4504 153.529 43.4504C153.923 43.4504 154.437 43.4943 155.076 43.5821L154.988 44.0652C154.883 44.0564 154.734 44.0301 154.56 44.0126C154.385 43.9862 154.184 43.9686 153.966 43.9511C153.748 43.9335 153.556 43.9247 153.381 43.9247C153.268 43.9247 153.153 43.9422 153.066 43.9686C152.969 43.995 152.892 44.0477 152.831 44.1179C152.77 44.1882 152.725 44.2673 152.708 44.3726C152.682 44.5307 152.734 44.6537 152.874 44.724C153.014 44.7942 153.214 44.8382 153.477 44.8382C153.739 44.8382 153.993 44.7854 154.202 44.6801C154.403 44.5746 154.569 44.4605 154.691 44.3288C154.813 44.1969 154.9 44.0828 154.945 43.9862H155.067L154.97 44.5482H154.883C154.752 44.8733 154.603 45.1544 154.437 45.3827C154.272 45.6198 154.061 45.8043 153.809 45.9536C153.556 46.103 153.25 46.1732 152.901 46.1732V46.1468ZM154.734 45.9975C154.786 45.8483 154.831 45.6549 154.866 45.4178C154.9 45.1806 154.927 44.9172 154.936 44.6186L154.954 43.9773V43.8456C154.954 43.6085 154.936 43.4064 154.883 43.2221C154.831 43.0464 154.718 42.8883 154.56 42.7653C154.403 42.6336 154.167 42.5721 153.87 42.5721C153.633 42.5721 153.407 42.6072 153.189 42.6687C152.969 42.7302 152.77 42.8093 152.577 42.8883L152.437 42.9498L152.455 41.6499C152.55 41.6235 152.682 41.5796 152.847 41.5181C153.128 41.4215 153.381 41.3424 153.626 41.2809C153.862 41.2194 154.132 41.1932 154.437 41.1932C155.083 41.1932 155.556 41.36 155.862 41.6937C156.168 42.0275 156.316 42.5282 156.29 43.1957L156.254 44.6361C156.254 45.005 156.254 45.3036 156.281 45.5321C156.307 45.7604 156.342 45.9185 156.386 45.9887H154.734V45.9975ZM153.914 40.3587C154.175 40.2621 154.49 40.104 154.84 39.9108C155.189 39.7176 155.486 39.5243 155.722 39.3575L155.966 40.0776C155.862 40.1216 155.756 40.1655 155.652 40.2182C155.389 40.3412 155.119 40.4729 154.848 40.6047C154.578 40.7364 154.324 40.8594 154.097 40.9647L153.905 40.3676L153.914 40.3587Z" fill="#751414"/>
<path d="M158.429 43.6609C158.386 43.9069 158.404 44.1001 158.473 44.2582C158.543 44.4163 158.656 44.5305 158.814 44.6007C158.971 44.671 159.154 44.7061 159.365 44.7061C159.644 44.7061 159.923 44.6797 160.194 44.6446C160.464 44.6007 160.718 44.5392 160.963 44.4601L160.989 45.8743C160.84 45.8919 160.648 45.927 160.403 45.9796C160.194 46.0324 159.993 46.0675 159.784 46.0939C159.574 46.1202 159.356 46.129 159.111 46.129C158.622 46.129 158.203 46.0411 157.854 45.8568C157.503 45.6723 157.251 45.4 157.093 45.0399C156.936 44.671 156.9 44.2143 156.997 43.6698C157.093 43.1251 157.285 42.6684 157.573 42.2995C157.863 41.9307 158.212 41.6584 158.622 41.4828C159.032 41.2983 159.487 41.2104 159.976 41.2104C160.176 41.2104 160.378 41.2279 160.561 41.2632C160.754 41.2983 160.945 41.3422 161.146 41.4037C161.25 41.4388 161.356 41.4651 161.452 41.4915C161.549 41.5179 161.644 41.5354 161.723 41.5441L161.216 42.8968C160.963 42.8089 160.718 42.7387 160.491 42.6948C160.264 42.6421 160.011 42.6246 159.739 42.6246C159.53 42.6246 159.329 42.6597 159.154 42.7299C158.971 42.8002 158.814 42.9144 158.683 43.0725C158.552 43.2306 158.465 43.4326 158.42 43.6785L158.429 43.6609Z" fill="#751414"/>
<path d="M161.434 45.9978C161.513 45.8486 161.592 45.6026 161.688 45.2601C161.785 44.9175 161.871 44.4872 161.968 43.9689L162.265 42.2738C162.361 41.7468 162.422 41.2989 162.449 40.9299C162.474 40.5611 162.483 40.2977 162.465 40.1307C162.701 40.1307 162.929 40.1219 163.156 40.0868C163.382 40.0605 163.618 40.0166 163.872 39.9726C163.994 39.9462 164.116 39.92 164.239 39.8936C164.143 40.1396 164.037 40.4996 163.924 40.9563C163.811 41.4131 163.697 41.9576 163.593 42.5724L163.348 43.9689C163.26 44.4872 163.199 44.9175 163.174 45.2601C163.147 45.6026 163.147 45.8486 163.174 45.9978H161.434ZM164.64 45.9978C164.719 45.8222 164.807 45.5499 164.911 45.1898C165.007 44.8209 165.104 44.3817 165.199 43.8548L165.278 43.4156C165.322 43.1697 165.278 42.9765 165.147 42.836C165.016 42.6954 164.832 42.6251 164.579 42.6251C164.343 42.6251 164.143 42.6866 163.967 42.8184C163.793 42.9501 163.661 43.1082 163.566 43.2927C163.47 43.4771 163.409 43.6527 163.382 43.8284H163.312L163.487 42.836H163.654C163.784 42.3177 163.994 41.9138 164.3 41.6238C164.606 41.334 164.991 41.1935 165.453 41.1935C165.951 41.1935 166.326 41.334 166.563 41.6238C166.799 41.9138 166.876 42.3002 166.79 42.8009L166.606 43.8548C166.518 44.373 166.457 44.8122 166.423 45.1811C166.387 45.5499 166.379 45.8222 166.396 46.0067H164.658L164.64 45.9978Z" fill="#751414"/>
<path d="M169.681 43.9689C169.409 43.9689 169.191 43.8723 169.042 43.6791C168.886 43.4859 168.833 43.2574 168.886 42.9852C168.938 42.7129 169.069 42.4933 169.287 42.3001C169.506 42.1068 169.76 42.019 170.03 42.019C170.301 42.019 170.501 42.1156 170.659 42.3001C170.816 42.4933 170.877 42.7216 170.825 42.9852C170.773 43.2487 170.641 43.4859 170.415 43.6791C170.186 43.8723 169.942 43.9689 169.69 43.9689H169.681Z" fill="#751414"/>
<path d="M172.293 45.9968C172.511 45.417 172.667 44.8461 172.773 44.2752L173.149 42.1322C173.218 41.7456 173.262 41.4032 173.279 41.1045C173.297 40.8059 173.297 40.5687 173.279 40.4019H175.202C175.132 40.5687 175.053 40.8059 174.965 41.1045C174.878 41.4032 174.799 41.7456 174.738 42.1322L174.362 44.2752C174.257 44.8461 174.214 45.4259 174.223 45.9968H172.302H172.293ZM175.682 45.9968C175.628 45.5312 175.533 45.057 175.393 44.5739L174.869 43.1334L175.34 43.4232L174.223 44.2928L174.459 42.9842L175.934 41.3943C176.057 41.2362 176.17 41.0694 176.276 40.8938C176.38 40.7181 176.476 40.5512 176.555 40.3931H178.678C178.197 40.7883 177.787 41.1836 177.445 41.5613L176.04 43.0632L176.197 42.4484L176.983 44.2577C177.271 44.9516 177.542 45.5312 177.812 45.9968H175.69H175.682Z" fill="#751414"/>
<path d="M178.154 45.9978C178.233 45.8486 178.311 45.6026 178.408 45.2601C178.503 44.9175 178.591 44.4872 178.687 43.9689L178.983 42.2738C179.08 41.7468 179.142 41.2989 179.167 40.9299C179.194 40.5611 179.203 40.2977 179.185 40.1307C179.421 40.1307 179.647 40.1219 179.874 40.0868C180.102 40.0605 180.338 40.0166 180.592 39.9726C180.714 39.9462 180.835 39.92 180.957 39.8936C180.862 40.1396 180.757 40.4996 180.644 40.9563C180.531 41.4131 180.416 41.9576 180.311 42.5724L180.067 43.9689C179.98 44.4872 179.919 44.9175 179.892 45.2601C179.867 45.6026 179.867 45.8486 179.892 45.9978H178.154ZM181.36 45.9978C181.439 45.8222 181.526 45.5499 181.63 45.1898C181.727 44.8209 181.822 44.3817 181.919 43.8548L181.997 43.4156C182.042 43.1697 181.997 42.9765 181.866 42.836C181.736 42.6954 181.552 42.6251 181.299 42.6251C181.063 42.6251 180.862 42.6866 180.687 42.8184C180.513 42.9501 180.381 43.1082 180.286 43.2927C180.189 43.4771 180.128 43.6527 180.102 43.8284H180.032L180.207 42.836H180.372C180.504 42.3177 180.714 41.9138 181.018 41.6238C181.324 41.334 181.709 41.1935 182.171 41.1935C182.67 41.1935 183.046 41.334 183.281 41.6238C183.517 41.9138 183.596 42.3002 183.508 42.8009L183.325 43.8548C183.238 44.373 183.177 44.8122 183.141 45.1811C183.107 45.5499 183.098 45.8222 183.116 46.0067H181.378L181.36 45.9978Z" fill="#751414"/>
<path d="M185.003 46.1466C184.557 46.1466 184.233 46.0236 184.024 45.7777C183.814 45.5317 183.744 45.198 183.814 44.7763C183.902 44.2933 184.111 43.9507 184.462 43.7488C184.811 43.5468 185.194 43.4502 185.631 43.4502C186.025 43.4502 186.54 43.494 187.178 43.5819L187.09 44.0649C186.986 44.0562 186.837 44.0298 186.662 44.0122C186.487 43.9858 186.286 43.9683 186.068 43.9507C185.85 43.9332 185.658 43.9245 185.483 43.9245C185.37 43.9245 185.255 43.942 185.169 43.9683C185.072 43.9947 184.994 44.0473 184.933 44.1177C184.872 44.1879 184.829 44.2669 184.811 44.3724C184.784 44.5305 184.836 44.6535 184.976 44.7237C185.116 44.7939 185.316 44.8378 185.579 44.8378C185.841 44.8378 186.095 44.7852 186.304 44.6797C186.505 44.5744 186.671 44.4601 186.793 44.3284C186.916 44.1967 187.004 44.0826 187.047 43.9858H187.169L187.072 44.548H186.986C186.854 44.8729 186.705 45.154 186.54 45.3825C186.374 45.6196 186.164 45.804 185.912 45.9534C185.658 46.1026 185.352 46.173 185.003 46.173V46.1466ZM186.837 45.9972C186.889 45.8479 186.933 45.6547 186.968 45.4176C187.004 45.1804 187.029 44.9169 187.038 44.6182L187.056 43.9771V43.8454C187.056 43.6083 187.038 43.4062 186.986 43.2217C186.933 43.0461 186.82 42.888 186.662 42.765C186.505 42.6333 186.27 42.5718 185.973 42.5718C185.736 42.5718 185.509 42.6069 185.291 42.6684C185.072 42.7299 184.872 42.8089 184.679 42.888L184.539 42.9495V41.6496C184.653 41.6232 184.784 41.5794 184.951 41.5179C185.23 41.4213 185.483 41.3422 185.728 41.2807C185.964 41.2192 186.234 41.1928 186.54 41.1928C187.187 41.1928 187.659 41.3598 187.964 41.6935C188.27 42.0273 188.418 42.5278 188.392 43.1955L188.357 44.6359C188.348 45.0048 188.357 45.3034 188.384 45.5317C188.409 45.76 188.445 45.9181 188.488 45.9885H186.837V45.9972ZM188.742 39.1375C188.68 39.4714 188.567 39.7699 188.4 40.0423C188.225 40.3146 188.008 40.5253 187.736 40.6923C187.466 40.8504 187.16 40.9381 186.82 40.9381C186.478 40.9381 186.182 40.8591 185.964 40.6923C185.745 40.5342 185.606 40.3146 185.527 40.0423C185.457 39.7699 185.448 39.4714 185.5 39.1375H186.313C186.295 39.2254 186.286 39.3309 186.286 39.445C186.286 39.6471 186.34 39.8139 186.444 39.9193C186.549 40.0335 186.714 40.0861 186.95 40.0861C187.169 40.0861 187.353 40.0335 187.5 39.9193C187.641 39.8052 187.754 39.6558 187.824 39.4537C187.858 39.3396 187.894 39.2343 187.912 39.1375H188.742ZM186.322 38.9532L186.426 38.3734C186.426 38.3734 186.487 38.3559 186.505 38.3383C186.61 38.2944 186.714 38.2417 186.82 38.1802C186.925 38.1187 187.029 38.0485 187.126 37.9782C187.178 38.0133 187.23 38.0485 187.292 38.0748C187.353 38.1012 187.414 38.11 187.484 38.11C187.579 38.11 187.65 38.0923 187.702 38.0572C187.754 38.0221 187.79 37.9695 187.797 37.8816C187.815 37.785 187.797 37.7059 187.745 37.6357C187.693 37.5654 187.579 37.5303 187.405 37.5303C187.247 37.5303 187.072 37.5742 186.898 37.6533C186.723 37.7323 186.567 37.8201 186.417 37.9255C186.401 37.9255 186.392 37.9342 186.392 37.9431C186.392 37.9431 186.383 37.9431 186.365 37.9606L186.182 37.1701C186.182 37.1701 186.252 37.1526 186.286 37.1439C186.322 37.135 186.365 37.1262 186.408 37.1086C186.583 37.0384 186.766 36.9681 186.95 36.9154C187.133 36.8628 187.353 36.8364 187.597 36.8364C187.972 36.8364 188.252 36.933 188.436 37.1262C188.619 37.3195 188.68 37.5829 188.628 37.8991C188.583 38.1627 188.47 38.3472 188.287 38.4525C188.103 38.5579 187.912 38.6106 187.711 38.6106C187.597 38.6106 187.491 38.593 187.405 38.5666C187.308 38.5404 187.239 38.514 187.178 38.4876L187.16 38.47H187.151L187.081 38.9532H186.331H186.322Z" fill="#751414"/>
<path d="M188.803 45.9972C188.88 45.8391 188.968 45.5757 189.073 45.2155C189.177 44.8554 189.274 44.4075 189.361 43.8717L189.483 43.1778C189.553 42.7825 189.596 42.4225 189.614 42.0975C189.632 41.7726 189.632 41.5179 189.614 41.3334H191.03C191.03 41.4651 191.012 41.5969 190.994 41.7462C190.978 41.8867 190.969 42.0273 190.951 42.1678C190.924 42.4752 190.899 42.7563 190.881 43.0021L190.733 43.8717C190.636 44.4075 190.575 44.8554 190.55 45.2155C190.523 45.5757 190.514 45.8391 190.541 45.9972H188.794H188.803ZM192.034 45.9972C192.104 45.8215 192.191 45.5493 192.296 45.1891C192.401 44.8203 192.496 44.3811 192.584 43.8541L192.663 43.4149C192.707 43.1691 192.663 42.9759 192.532 42.8353C192.401 42.6948 192.208 42.6244 191.955 42.6244C191.719 42.6244 191.519 42.6859 191.345 42.8178C191.169 42.9495 191.039 43.1076 190.942 43.2921C190.846 43.4764 190.785 43.6521 190.749 43.8277H190.679L190.855 42.8353H191.03C191.152 42.3171 191.361 41.9131 191.667 41.6232C191.973 41.3334 192.358 41.1928 192.82 41.1928C193.318 41.1928 193.694 41.3334 193.93 41.6232C194.166 41.9131 194.245 42.2995 194.157 42.8002L193.973 43.8541C193.885 44.3724 193.824 44.8116 193.79 45.1804C193.755 45.5493 193.755 45.8215 193.772 46.006H192.034V45.9972Z" fill="#751414"/>
<path d="M200.297 41.3334C200.21 41.5266 200.122 41.8077 200.018 42.1765C199.913 42.5455 199.825 42.9846 199.739 43.4764L199.336 45.7513C199.241 46.3134 199.03 46.7614 198.725 47.0863C198.411 47.4201 198.052 47.6572 197.641 47.7891C197.231 47.9295 196.812 47.991 196.366 47.991C196.06 47.991 195.781 47.9734 195.554 47.9472C195.319 47.9208 195.083 47.8857 194.847 47.8417C194.716 47.8153 194.594 47.7978 194.48 47.7891C194.365 47.7802 194.27 47.7715 194.191 47.7802L194.777 46.4013H194.794C194.925 46.4979 195.135 46.5858 195.414 46.6735C195.695 46.7614 196.026 46.8054 196.402 46.8054C196.821 46.8054 197.145 46.7263 197.38 46.5682C197.616 46.4101 197.764 46.2256 197.843 46.0236C197.922 45.8215 197.983 45.5844 198.035 45.321V45.2683L198.48 42.7827L198.874 41.3158H200.315L200.297 41.3334ZM198.411 43.9947C198.332 44.4163 198.201 44.7763 198.008 45.0838C197.825 45.3825 197.589 45.6196 197.301 45.7777C197.013 45.9358 196.672 46.0149 196.27 46.0149C195.563 46.0149 195.083 45.8304 194.82 45.4527C194.558 45.0838 194.497 44.4954 194.637 43.6873C194.732 43.1691 194.891 42.7212 195.117 42.3522C195.344 41.9833 195.625 41.7022 195.965 41.5003C196.305 41.307 196.681 41.2104 197.091 41.2104C197.589 41.2104 197.938 41.3422 198.158 41.6145C198.375 41.8867 198.463 42.2556 198.419 42.7212H198.62L198.498 43.3974H198.358C198.375 43.2921 198.358 43.1779 198.28 43.0461C198.21 42.9144 198.088 42.8089 197.929 42.7212C197.764 42.6333 197.555 42.5893 197.283 42.5893C196.978 42.5893 196.708 42.6684 196.472 42.844C196.244 43.011 196.096 43.2921 196.026 43.6873C196.026 43.7311 196.008 43.7664 196.008 43.8015C195.974 44.1352 196.044 44.3724 196.2 44.5129C196.366 44.6535 196.602 44.7237 196.907 44.7237C197.152 44.7237 197.371 44.6797 197.564 44.6007C197.764 44.5129 197.922 44.4163 198.044 44.2933C198.167 44.1703 198.235 44.0562 198.253 43.9507L198.402 43.9947H198.411Z" fill="#751414"/>
<path d="M206.124 43.9953C206.045 44.4257 205.906 44.7945 205.723 45.1196C205.539 45.4445 205.294 45.6905 204.998 45.8661C204.699 46.0418 204.359 46.1297 203.967 46.1297C203.267 46.1297 202.787 45.9276 202.524 45.5148C202.263 45.1107 202.211 44.4959 202.35 43.6791C202.447 43.1609 202.603 42.713 202.823 42.3441C203.049 41.9751 203.328 41.6942 203.67 41.4921C204.01 41.2989 204.386 41.2023 204.796 41.2023C205.127 41.2023 205.399 41.2637 205.608 41.3867C205.818 41.5097 205.958 41.6853 206.045 41.9136C206.133 42.1421 206.158 42.4056 206.124 42.713H206.325L206.203 43.3893H206.063C206.081 43.2839 206.063 43.1697 205.984 43.0379C205.914 42.9062 205.791 42.8007 205.635 42.713C205.469 42.6251 205.259 42.5813 204.989 42.5813C204.683 42.5813 204.411 42.6603 204.176 42.836C203.949 43.0028 203.8 43.2839 203.731 43.6791C203.67 44.048 203.713 44.3202 203.879 44.4783C204.044 44.6364 204.289 44.7155 204.613 44.7155C204.839 44.7155 205.05 44.6804 205.242 44.6013C205.433 44.5223 205.591 44.4345 205.714 44.3202C205.836 44.2061 205.923 44.1008 205.958 43.9865C205.958 43.9778 205.958 43.9602 205.958 43.9427L206.106 43.9865L206.124 43.9953ZM205.635 45.9978C205.669 45.7871 205.723 45.506 205.775 45.1635C205.827 44.8209 205.897 44.4432 205.967 44.0217L206.272 42.2562C206.369 41.7293 206.43 41.2814 206.455 40.9124C206.482 40.5435 206.491 40.28 206.473 40.1132C206.761 40.1132 207.041 40.0956 207.32 40.0517C207.599 40.0077 207.905 39.9551 208.256 39.876C208.159 40.1219 208.054 40.482 207.941 40.9388C207.828 41.3955 207.714 41.94 207.608 42.5549L207.364 43.9514C207.277 44.4696 207.216 44.9 207.189 45.2426C207.164 45.585 207.164 45.831 207.189 45.9803H205.644L205.635 45.9978ZM208.385 41.2023C207.923 41.1759 207.478 41.1671 207.041 41.1671C206.604 41.1671 206.167 41.1759 205.73 41.2023L205.87 40.4118C206.307 40.4381 206.753 40.4469 207.198 40.4469C207.644 40.4469 208.089 40.4381 208.535 40.4118L208.394 41.2023H208.385Z" fill="#751414"/>
<path d="M208.333 47.9475C208.063 47.9475 207.862 47.8773 207.722 47.7456C207.592 47.6137 207.54 47.4381 207.583 47.2185C207.617 46.9989 207.731 46.8232 207.914 46.6828C208.098 46.5423 208.326 46.4808 208.596 46.4808C208.867 46.4808 209.067 46.551 209.208 46.6828C209.339 46.8232 209.391 46.9989 209.348 47.2185C209.312 47.4381 209.199 47.6137 209.015 47.7456C208.832 47.8773 208.605 47.9475 208.333 47.9475ZM207.792 45.9976C207.862 45.8571 207.941 45.6112 208.037 45.2686C208.134 44.9262 208.22 44.4957 208.317 43.96L208.404 43.4857C208.5 42.9586 208.562 42.5107 208.587 42.133C208.614 41.7553 208.623 41.4919 208.614 41.325H210.325C210.256 41.4919 210.168 41.7642 210.073 42.133C209.976 42.502 209.88 42.9499 209.783 43.4857L209.697 43.96C209.6 44.487 209.548 44.9262 209.522 45.2686C209.496 45.6112 209.496 45.8571 209.513 45.9976H207.801H207.792ZM209.496 41.1054C209.226 41.1054 209.024 41.0352 208.884 40.9035C208.753 40.7716 208.7 40.596 208.736 40.3764C208.771 40.1569 208.884 39.9811 209.067 39.8494C209.251 39.7177 209.478 39.6474 209.749 39.6474C210.019 39.6474 210.229 39.7177 210.361 39.8494C210.492 39.9811 210.535 40.1569 210.5 40.3764C210.465 40.596 210.352 40.7716 210.177 40.9035C209.994 41.0352 209.776 41.1054 209.496 41.1054Z" fill="#751414"/>
<path d="M210.159 45.9972C210.238 45.8391 210.325 45.5757 210.429 45.2155C210.535 44.8554 210.631 44.4075 210.719 43.8717L210.841 43.1778C210.911 42.7825 210.954 42.4225 210.972 42.0975C210.989 41.7726 210.989 41.5179 210.972 41.3334H212.387C212.387 41.4651 212.369 41.5969 212.352 41.7462C212.334 41.8867 212.325 42.0273 212.308 42.1678C212.282 42.4752 212.255 42.7563 212.239 43.0021L212.09 43.8717C211.994 44.4075 211.933 44.8554 211.906 45.2155C211.879 45.5757 211.872 45.8391 211.897 45.9972H210.15H210.159ZM213.391 45.9972C213.461 45.8215 213.549 45.5493 213.653 45.1891C213.758 44.8203 213.855 44.3811 213.941 43.8541L214.02 43.4149C214.063 43.1691 214.02 42.9759 213.889 42.8353C213.758 42.6948 213.567 42.6244 213.313 42.6244C213.077 42.6244 212.876 42.6859 212.701 42.8178C212.527 42.9495 212.396 43.1076 212.3 43.2921C212.203 43.4764 212.142 43.6521 212.108 43.8277H212.038L212.212 42.8353H212.387C212.509 42.3171 212.719 41.9131 213.025 41.6232C213.329 41.3334 213.714 41.1928 214.177 41.1928C214.675 41.1928 215.051 41.3334 215.287 41.6232C215.522 41.9131 215.601 42.2995 215.513 42.8002L215.33 43.8541C215.243 44.3724 215.182 44.8116 215.146 45.1804C215.112 45.5493 215.112 45.8215 215.13 46.006H213.391V45.9972Z" fill="#751414"/>
<path d="M215.697 45.9978C215.776 45.8486 215.855 45.6026 215.95 45.2601C216.047 44.9175 216.134 44.4872 216.231 43.9689L216.528 42.2738C216.623 41.7468 216.684 41.2989 216.711 40.9299C216.737 40.5611 216.746 40.2977 216.728 40.1307C216.963 40.1307 217.192 40.1219 217.418 40.0868C217.645 40.0605 217.881 40.0166 218.134 39.9726C218.257 39.9462 218.379 39.92 218.501 39.8936C218.406 40.1396 218.3 40.4996 218.187 40.9563C218.073 41.4131 217.96 41.9576 217.855 42.5724L217.611 43.9689C217.523 44.4872 217.462 44.9175 217.436 45.2601C217.409 45.6026 217.409 45.8486 217.436 45.9978H215.697ZM218.903 45.9978C218.982 45.8222 219.07 45.5499 219.174 45.1898C219.27 44.8209 219.367 44.3817 219.462 43.8548L219.541 43.4156C219.584 43.1697 219.541 42.9765 219.41 42.836C219.279 42.6954 219.095 42.6251 218.842 42.6251C218.606 42.6251 218.406 42.6866 218.23 42.8184C218.055 42.9501 217.926 43.1082 217.829 43.2927C217.733 43.4771 217.672 43.6527 217.645 43.8284H217.575L217.75 42.836H217.917C218.046 42.3177 218.257 41.9138 218.563 41.6238C218.868 41.334 219.253 41.1935 219.716 41.1935C220.214 41.1935 220.588 41.334 220.826 41.6238C221.061 41.9138 221.139 42.3002 221.052 42.8009L220.869 43.8548C220.781 44.373 220.72 44.8122 220.685 45.1811C220.65 45.5499 220.642 45.8222 220.659 46.0067H218.921L218.903 45.9978Z" fill="#751414"/>
<path d="M225.018 43.6609C224.974 43.9069 224.992 44.1001 225.062 44.2582C225.131 44.4163 225.246 44.5305 225.403 44.6007C225.559 44.671 225.743 44.7061 225.953 44.7061C226.241 44.7061 226.512 44.6797 226.782 44.6446C227.054 44.6007 227.306 44.5392 227.551 44.4601L227.578 45.8743C227.428 45.8919 227.237 45.927 226.993 45.9796C226.782 46.0324 226.581 46.0675 226.372 46.0939C226.162 46.1202 225.944 46.129 225.699 46.129C225.21 46.129 224.791 46.0411 224.442 45.8568C224.093 45.6723 223.839 45.4 223.681 45.0399C223.524 44.671 223.49 44.2143 223.586 43.6698C223.681 43.1251 223.873 42.6684 224.163 42.2995C224.451 41.9307 224.8 41.6584 225.21 41.4828C225.62 41.2983 226.075 41.2104 226.565 41.2104C226.765 41.2104 226.966 41.2279 227.149 41.2632C227.342 41.2983 227.534 41.3422 227.734 41.4037C227.84 41.4388 227.945 41.4651 228.04 41.4915C228.137 41.5179 228.232 41.5354 228.312 41.5441L227.804 42.8968C227.551 42.8089 227.306 42.7387 227.079 42.6948C226.853 42.6421 226.599 42.6246 226.329 42.6246C226.119 42.6246 225.917 42.6597 225.743 42.7299C225.559 42.8002 225.403 42.9144 225.271 43.0725C225.14 43.2306 225.053 43.4326 225.009 43.6785L225.018 43.6609Z" fill="#751414"/>
<path d="M228.024 45.9978C228.101 45.8486 228.18 45.6026 228.276 45.2601C228.373 44.9175 228.459 44.4872 228.556 43.9689L228.853 42.2738C228.949 41.7468 229.01 41.2989 229.037 40.9299C229.062 40.5611 229.071 40.2977 229.055 40.1307C229.29 40.1307 229.517 40.1219 229.744 40.0868C229.97 40.0605 230.206 40.0166 230.46 39.9726C230.582 39.9462 230.704 39.92 230.827 39.8936C230.731 40.1396 230.627 40.4996 230.512 40.9563C230.399 41.4131 230.285 41.9576 230.181 42.5724L229.936 43.9689C229.848 44.4872 229.787 44.9175 229.762 45.2601C229.735 45.6026 229.735 45.8486 229.762 45.9978H228.024ZM231.23 45.9978C231.307 45.8222 231.395 45.5499 231.5 45.1898C231.595 44.8209 231.692 44.3817 231.787 43.8548L231.867 43.4156C231.91 43.1697 231.867 42.9765 231.735 42.836C231.604 42.6954 231.421 42.6251 231.168 42.6251C230.931 42.6251 230.731 42.6866 230.557 42.8184C230.382 42.9501 230.251 43.1082 230.154 43.2927C230.059 43.4771 229.997 43.6527 229.97 43.8284H229.902L230.076 42.836H230.242C230.373 42.3177 230.582 41.9138 230.888 41.6238C231.194 41.334 231.579 41.1935 232.041 41.1935C232.539 41.1935 232.915 41.334 233.151 41.6238C233.387 41.9138 233.466 42.3002 233.378 42.8009L233.194 43.8548C233.106 44.373 233.045 44.8122 233.011 45.1811C232.976 45.5499 232.968 45.8222 232.984 46.0067H231.246L231.23 45.9978Z" fill="#751414"/>
<path d="M234.871 46.1471C234.426 46.1471 234.103 46.0242 233.894 45.7782C233.684 45.5322 233.613 45.1985 233.684 44.777C233.772 44.2938 233.98 43.9514 234.329 43.7493C234.68 43.5473 235.063 43.4507 235.501 43.4507C235.893 43.4507 236.409 43.4946 237.046 43.5824L236.96 44.0655C236.855 44.0567 236.706 44.0304 236.531 44.0129C236.357 43.9865 236.155 43.9689 235.938 43.9514C235.718 43.9338 235.527 43.925 235.351 43.925C235.238 43.925 235.125 43.9425 235.038 43.9689C234.941 43.9952 234.862 44.048 234.802 44.1182C234.741 44.1885 234.696 44.2676 234.68 44.3729C234.653 44.531 234.705 44.654 234.846 44.7242C234.984 44.7945 235.186 44.8385 235.448 44.8385C235.709 44.8385 235.963 44.7857 236.173 44.6804C236.373 44.5749 236.54 44.4608 236.663 44.3291C236.785 44.1972 236.871 44.0831 236.916 43.9865H237.037L236.942 44.5485H236.855C236.724 44.8736 236.575 45.1547 236.409 45.383C236.243 45.6201 236.033 45.8046 235.78 45.9539C235.527 46.1033 235.222 46.1735 234.871 46.1735V46.1471ZM236.706 45.9978C236.758 45.8484 236.801 45.6552 236.837 45.4181C236.872 45.1809 236.898 44.9175 236.907 44.6189L236.924 43.9776V43.8459C236.924 43.6088 236.907 43.4067 236.855 43.2224C236.801 43.0467 236.688 42.8886 236.531 42.7656C236.373 42.6339 236.138 42.5724 235.841 42.5724C235.605 42.5724 235.378 42.6075 235.16 42.669C234.941 42.7305 234.741 42.8096 234.549 42.8886L234.409 42.95V41.6501C234.522 41.6238 234.653 41.5799 234.819 41.5184C235.099 41.4218 235.351 41.3427 235.596 41.2812C235.832 41.2197 236.103 41.1935 236.409 41.1935C237.055 41.1935 237.526 41.3603 237.832 41.694C238.138 42.0278 238.287 42.5285 238.26 43.196L238.226 44.6364C238.217 45.0053 238.226 45.3039 238.251 45.5322C238.278 45.7607 238.313 45.9188 238.357 45.989H236.706V45.9978ZM235.378 40.5786C235.509 40.482 235.623 40.3941 235.727 40.3151C235.832 40.236 235.947 40.1483 236.051 40.0428C236.33 39.7706 236.54 39.551 236.697 39.3929H237.195C237.213 39.4455 237.238 39.4983 237.274 39.5597C237.309 39.6212 237.343 39.6827 237.388 39.753C237.519 39.9198 237.641 40.0692 237.755 40.2009C237.868 40.3326 237.981 40.4645 238.104 40.5786L237.483 41.0529C237.404 40.9388 237.309 40.8158 237.204 40.6928C237.098 40.5698 236.968 40.4381 236.828 40.3064C236.801 40.2711 236.785 40.2536 236.776 40.236C236.776 40.2185 236.749 40.1921 236.724 40.157H236.907C236.733 40.28 236.557 40.4205 236.373 40.5786C236.278 40.6577 236.182 40.7454 236.085 40.8245C235.99 40.9035 235.902 40.9914 235.832 41.0616L235.378 40.5873V40.5786ZM236.085 38.6199C236.357 38.5233 236.672 38.3652 237.021 38.1632C237.37 37.9613 237.667 37.7768 237.893 37.6011L238.138 38.3301C238.034 38.3741 237.938 38.4179 237.823 38.4618C237.562 38.5848 237.291 38.7165 237.021 38.8484C236.749 38.9801 236.496 39.1031 236.269 39.2084L236.076 38.6199H236.085Z" fill="#751414"/>
<path d="M242.689 42.6857C242.54 42.677 242.366 42.6593 242.148 42.6417C241.921 42.6155 241.693 42.5891 241.45 42.5627C241.205 42.5364 241.013 42.5189 240.872 42.5012L241.151 42.2027L240.846 43.9505C240.802 44.2052 240.802 44.3897 240.846 44.5038C240.89 44.618 241.013 44.6795 241.213 44.6795C241.371 44.6795 241.527 44.6444 241.668 44.574C241.808 44.5038 241.964 44.4248 242.114 44.3193C242.157 44.2931 242.191 44.2754 242.227 44.2578C242.261 44.2403 242.296 44.2227 242.322 44.2227L242.234 45.5841C242.017 45.7422 241.738 45.8739 241.396 45.9794C241.056 46.0848 240.725 46.1375 240.419 46.1375C239.991 46.1375 239.685 46.0233 239.492 45.8037C239.3 45.5841 239.248 45.224 239.334 44.741L239.771 42.2202L239.991 42.5189C239.991 42.5189 239.921 42.5189 239.877 42.5189C239.842 42.5189 239.789 42.5189 239.728 42.5364C239.44 42.5715 239.23 42.5891 239.099 42.5891L239.318 41.3594L240.261 41.4473L239.877 41.7195L240.279 40.6743H241.432C241.318 41.0256 241.23 41.3946 241.16 41.781L241.056 41.5088C241.824 41.4033 242.454 41.3507 242.934 41.3507L242.698 42.6945L242.689 42.6857Z" fill="#751414"/>
<path d="M244.663 45.9978C244.742 45.8486 244.821 45.6026 244.917 45.2601C245.014 44.9175 245.1 44.4872 245.197 43.9689L245.494 42.2738C245.589 41.7468 245.651 41.2989 245.678 40.9299C245.703 40.5611 245.712 40.2977 245.694 40.1307C245.93 40.1307 246.158 40.1219 246.385 40.0868C246.611 40.0605 246.847 40.0166 247.101 39.9726C247.223 39.9462 247.345 39.92 247.468 39.8936C247.372 40.1396 247.266 40.4996 247.153 40.9563C247.04 41.4131 246.926 41.9576 246.822 42.5724L246.577 43.9689C246.489 44.4872 246.428 44.9175 246.403 45.2601C246.376 45.6026 246.376 45.8486 246.403 45.9978H244.663Z" fill="#751414"/>
<path d="M249.52 41.3331C249.459 41.4472 249.38 41.6755 249.294 42.0093C249.206 42.343 249.11 42.7734 249.022 43.3005L248.961 43.6254C248.918 43.8801 248.918 44.091 248.961 44.2491C248.997 44.4072 249.083 44.53 249.197 44.6004C249.319 44.6706 249.477 44.7145 249.668 44.7145C249.905 44.7145 250.096 44.6619 250.254 44.5476C250.411 44.4423 250.533 44.3017 250.621 44.1348C250.708 43.968 250.769 43.7835 250.805 43.5727L250.848 43.3005C250.944 42.7734 251.005 42.343 251.032 42.0006C251.057 41.6668 251.066 41.4384 251.05 41.3154H252.744C252.674 41.4823 252.586 41.7546 252.491 42.1234C252.394 42.4924 252.298 42.9403 252.21 43.4761L252.124 43.9504C252.036 44.4334 251.983 44.8462 251.949 45.1975C251.922 45.5401 251.913 45.8037 251.931 45.9793H250.515C250.542 45.6456 250.604 45.1975 250.708 44.6179H250.647C250.577 44.9077 250.472 45.1713 250.332 45.3909C250.193 45.6105 249.992 45.7948 249.738 45.9354C249.485 46.0759 249.162 46.1374 248.769 46.1374C248.254 46.1374 247.878 45.9969 247.642 45.7071C247.407 45.4171 247.336 45.0043 247.432 44.451L247.608 43.4848C247.703 42.9579 247.765 42.51 247.799 42.1323C247.835 41.7634 247.844 41.4912 247.826 41.3242H249.529L249.52 41.3331ZM251.992 41.983L252.106 41.3506C252.325 41.3506 252.507 41.3067 252.647 41.2276C252.787 41.1486 252.883 41.0256 252.953 40.8763C252.989 40.7797 253.014 40.7007 253.023 40.6392H253.853C253.809 40.885 253.714 41.1046 253.547 41.3067C253.39 41.5087 253.171 41.6755 252.91 41.7985C252.647 41.9215 252.341 41.983 252.001 41.983H251.992Z" fill="#751414"/>
<path d="M254.945 46.1286C254.446 46.1286 254.02 46.032 253.669 45.8476C253.32 45.6631 253.066 45.382 252.919 45.0219C252.77 44.6619 252.744 44.2051 252.831 43.6693C252.919 43.1335 253.111 42.6856 253.39 42.3168C253.669 41.9478 254.011 41.6755 254.43 41.4912C254.849 41.3067 255.303 41.2101 255.81 41.2101C256.317 41.2101 256.744 41.3067 257.094 41.4912C257.443 41.6755 257.688 41.9566 257.845 42.3168C257.994 42.6856 258.028 43.1335 257.933 43.6693C257.836 44.2051 257.652 44.653 257.373 45.0219C257.094 45.3909 256.744 45.6631 256.334 45.8476C255.923 46.032 255.461 46.1286 254.954 46.1286H254.945ZM254.639 47.9467C254.369 47.9467 254.167 47.8765 254.027 47.7447C253.897 47.613 253.844 47.4373 253.888 47.2177C253.923 46.9981 254.036 46.8225 254.22 46.6819C254.403 46.5414 254.63 46.4799 254.901 46.4799C255.171 46.4799 255.373 46.5502 255.513 46.6819C255.644 46.8225 255.697 46.9981 255.653 47.2177C255.617 47.4373 255.504 47.613 255.321 47.7447C255.137 47.8765 254.91 47.9467 254.639 47.9467ZM254.264 43.6606C254.229 43.8801 254.238 44.0646 254.308 44.2227C254.378 44.3808 254.482 44.5038 254.63 44.5828C254.788 44.6619 254.972 44.7057 255.189 44.7057C255.409 44.7057 255.617 44.6619 255.801 44.5828C255.984 44.5038 256.134 44.3808 256.256 44.2227C256.369 44.0646 256.447 43.8801 256.492 43.6606C256.526 43.441 256.517 43.2565 256.456 43.0984C256.395 42.9403 256.281 42.8173 256.134 42.7383C255.975 42.6592 255.783 42.6154 255.565 42.6154C255.347 42.6154 255.137 42.6592 254.963 42.7383C254.779 42.8173 254.63 42.9403 254.508 43.0984C254.385 43.2565 254.308 43.441 254.272 43.6606H254.264ZM256.578 41.9917L256.692 41.3593C256.911 41.3593 257.094 41.3154 257.233 41.2363C257.373 41.1573 257.469 41.0344 257.539 40.885C257.575 40.7973 257.591 40.7182 257.609 40.6479H258.438C258.395 40.8939 258.291 41.1222 258.133 41.3242C257.976 41.5263 257.767 41.6844 257.496 41.8074C257.233 41.9302 256.927 41.9917 256.587 41.9917H256.578Z" fill="#751414"/>
<path d="M258.01 45.9972C258.089 45.8391 258.176 45.5757 258.282 45.2155C258.386 44.8554 258.482 44.4075 258.57 43.8717L258.692 43.1778C258.762 42.7825 258.806 42.4225 258.823 42.0975C258.84 41.7726 258.84 41.5179 258.823 41.3334H260.238C260.238 41.4651 260.221 41.5969 260.203 41.7462C260.185 41.8867 260.177 42.0273 260.16 42.1678C260.133 42.4752 260.106 42.7563 260.09 43.0021L259.941 43.8717C259.845 44.4075 259.784 44.8554 259.757 45.2155C259.732 45.5757 259.723 45.8391 259.748 45.9972H258.001H258.01ZM261.243 45.9972C261.313 45.8215 261.4 45.5493 261.504 45.1891C261.61 44.8203 261.706 44.3811 261.794 43.8541L261.871 43.4149C261.916 43.1691 261.871 42.9759 261.74 42.8353C261.61 42.6948 261.418 42.6244 261.164 42.6244C260.928 42.6244 260.727 42.6859 260.552 42.8178C260.378 42.9495 260.247 43.1076 260.151 43.2921C260.054 43.4764 259.993 43.6521 259.959 43.8277H259.889L260.063 42.8353H260.238C260.36 42.3171 260.57 41.9131 260.876 41.6232C261.182 41.3334 261.565 41.1928 262.029 41.1928C262.526 41.1928 262.902 41.3334 263.138 41.6232C263.373 41.9131 263.453 42.2995 263.366 42.8002L263.183 43.8541C263.094 44.3724 263.033 44.8116 262.999 45.1804C262.963 45.5493 262.963 45.8215 262.981 46.006H261.243V45.9972Z" fill="#751414"/>
<path d="M269.506 41.3334C269.418 41.5266 269.332 41.8077 269.227 42.1765C269.121 42.5455 269.035 42.9846 268.947 43.4764L268.545 45.7513C268.448 46.3134 268.24 46.7614 267.934 47.0863C267.619 47.4201 267.261 47.6572 266.851 47.7891C266.44 47.9295 266.021 47.991 265.575 47.991C265.269 47.991 264.99 47.9734 264.762 47.9472C264.526 47.9208 264.291 47.8857 264.055 47.8417C263.924 47.8153 263.801 47.7978 263.688 47.7891C263.575 47.7802 263.479 47.7715 263.4 47.7802L263.985 46.4013H264.003C264.134 46.4979 264.343 46.5858 264.623 46.6735C264.902 46.7614 265.235 46.8054 265.61 46.8054C266.029 46.8054 266.352 46.7263 266.588 46.5682C266.824 46.4101 266.973 46.2256 267.052 46.0236C267.13 45.8215 267.191 45.5844 267.243 45.321V45.2683L267.689 42.7827L268.081 41.3158H269.524L269.506 41.3334ZM267.619 43.9947C267.54 44.4163 267.41 44.7763 267.218 45.0838C267.034 45.3825 266.798 45.6196 266.509 45.7777C266.221 45.9358 265.881 46.0149 265.48 46.0149C264.771 46.0149 264.291 45.8304 264.03 45.4527C263.767 45.0838 263.706 44.4954 263.846 43.6873C263.942 43.1691 264.098 42.7212 264.327 42.3522C264.553 41.9833 264.832 41.7022 265.174 41.5003C265.514 41.307 265.89 41.2104 266.3 41.2104C266.798 41.2104 267.148 41.3422 267.365 41.6145C267.585 41.8867 267.671 42.2556 267.628 42.7212H267.829L267.707 43.3974H267.567C267.585 43.2921 267.567 43.1779 267.488 43.0461C267.418 42.9144 267.295 42.8089 267.139 42.7212C266.973 42.6333 266.763 42.5893 266.493 42.5893C266.187 42.5893 265.915 42.6684 265.68 42.844C265.453 43.011 265.304 43.2921 265.235 43.6873C265.235 43.7311 265.217 43.7664 265.217 43.8015C265.181 44.1352 265.251 44.3724 265.41 44.5129C265.575 44.6535 265.811 44.7237 266.117 44.7237C266.361 44.7237 266.579 44.6797 266.772 44.6007C266.973 44.5129 267.13 44.4163 267.252 44.2933C267.374 44.1703 267.444 44.0562 267.462 43.9507L267.61 43.9947H267.619Z" fill="#751414"/>
</g>
<defs>
<linearGradient id="paint0_linear_2475_19914" x1="186.487" y1="33.4553" x2="186.487" y2="0.307624" gradientUnits="userSpaceOnUse">
<stop stop-color="#CB3433"/>
<stop offset="1" stop-color="#751414"/>
</linearGradient>
</defs>
</svg>
