<svg xmlns="http://www.w3.org/2000/svg" width="22" height="21" viewBox="0 0 22 21" fill="none">
    <g clip-path="url(#clip0_969_22887)">
        <path fill-rule="evenodd" clip-rule="evenodd" d="M2.85136 0.414551C2.37907 0.414551 1.92611 0.602171 1.59214 0.936137C1.25818 1.2701 1.07056 1.72306 1.07056 2.19536V7.6861C1.07056 8.29055 1.56057 8.78056 2.16502 8.78056C2.76948 8.78056 3.25948 8.29055 3.25948 7.6861V2.60348H8.3421C8.94655 2.60348 9.43657 2.11348 9.43657 1.50902C9.43657 0.90456 8.94655 0.414551 8.3421 0.414551H2.85136ZM13.8328 0.414551C13.2284 0.414551 12.7383 0.90456 12.7383 1.50902C12.7383 2.11348 13.2284 2.60348 13.8328 2.60348H18.9154V7.6861C18.9154 8.29055 19.4054 8.78056 20.0098 8.78056C20.6144 8.78056 21.1043 8.29055 21.1043 7.6861V2.19536C21.1043 1.72306 20.9168 1.27011 20.5827 0.936137C20.2489 0.602171 19.7959 0.414551 19.3235 0.414551H13.8328ZM20.0098 12.0824C20.6144 12.0824 21.1043 12.5724 21.1043 13.1768V18.6675C21.1043 19.1399 20.9168 19.5929 20.5827 19.9267C20.2489 20.2608 19.7959 20.4484 19.3235 20.4484H13.8328C13.2284 20.4484 12.7383 19.9584 12.7383 19.354C12.7383 18.7494 13.2284 18.2595 13.8328 18.2595H18.9154V13.1768C18.9154 12.5724 19.4054 12.0824 20.0098 12.0824ZM3.25948 13.1768C3.25948 12.5724 2.76948 12.0824 2.16502 12.0824C1.56057 12.0824 1.07056 12.5724 1.07056 13.1768V18.6675C1.07056 19.1399 1.25818 19.5929 1.59214 19.9267C1.92611 20.2608 2.37907 20.4484 2.85136 20.4484H8.3421C8.94655 20.4484 9.43657 19.9584 9.43657 19.354C9.43657 18.7494 8.94655 18.2595 8.3421 18.2595H3.25948V13.1768ZM16.3524 5.00688C16.8562 5.00688 17.2645 5.41523 17.2645 5.91893V14.944C17.2645 15.4476 16.8562 15.8561 16.3524 15.8561C15.8487 15.8561 15.4404 15.4476 15.4404 14.944V5.91893C15.4404 5.41523 15.8487 5.00688 16.3524 5.00688ZM4.73444 5.91893C4.73444 5.41523 5.14279 5.00688 5.64649 5.00688C6.15021 5.00688 6.55855 5.41523 6.55855 5.91893V14.944C6.55855 15.4476 6.15021 15.8561 5.64649 15.8561C5.14279 15.8561 4.73444 15.4476 4.73444 14.944V5.91893ZM13.0829 5.00688C13.5867 5.00688 13.995 5.41523 13.995 5.91893V11.1839C13.995 11.6876 13.5867 12.0959 13.0829 12.0959C12.5792 12.0959 12.1709 11.6876 12.1709 11.1839V5.91893C12.1709 5.41523 12.5792 5.00688 13.0829 5.00688ZM12.1709 14.944C12.1709 15.4476 12.5792 15.8561 13.0829 15.8561C13.5867 15.8561 13.995 15.4476 13.995 14.944V14.5337C13.995 14.03 13.5867 13.6217 13.0829 13.6217C12.5792 13.6217 12.1709 14.03 12.1709 14.5337V14.944ZM9.28047 5.00688C9.78418 5.00688 10.1925 5.41523 10.1925 5.91893V11.1839C10.1925 11.6876 9.78418 12.0959 9.28047 12.0959C8.77675 12.0959 8.36841 11.6876 8.36841 11.1839V5.91893C8.36841 5.41523 8.77675 5.00688 9.28047 5.00688ZM8.36841 14.944C8.36841 15.4476 8.77675 15.8561 9.28047 15.8561C9.78418 15.8561 10.1925 15.4476 10.1925 14.944V14.5337C10.1925 14.03 9.78418 13.6217 9.28047 13.6217C8.77675 13.6217 8.36841 14.03 8.36841 14.5337V14.944Z" fill="#B92F2E"/>
    </g>
    <defs>
        <clipPath id="clip0_969_22887">
            <rect width="20.43" height="20.43" fill="white" transform="translate(0.78125 0.216553)"/>
        </clipPath>
    </defs>
</svg>