<svg width="12" height="14" viewBox="0 0 12 14" fill="none" xmlns="http://www.w3.org/2000/svg">
<g id="calculator-1--shop-shopping-pay-payment-store-cash-calculate-math">
<path id="Vector" d="M10.5 0.5H1.5C0.94772 0.5 0.5 0.947715 0.5 1.5V12.5C0.5 13.0523 0.94772 13.5 1.5 13.5H10.5C11.0523 13.5 11.5 13.0523 11.5 12.5V1.5C11.5 0.947715 11.0523 0.5 10.5 0.5Z" stroke="#353535" stroke-linecap="round" stroke-linejoin="round"/>
<path id="Vector_2" d="M0.5 5.5H11.5" stroke="#353535" stroke-linecap="round" stroke-linejoin="round"/>
<g id="Group 623">
<path id="Vector_3" d="M3.25 8.5C3.11193 8.5 3 8.38807 3 8.25C3 8.11193 3.11193 8 3.25 8" stroke="#353535" stroke-linecap="round" stroke-linejoin="round"/>
<path id="Vector_4" d="M3.25 8.5C3.38807 8.5 3.5 8.38807 3.5 8.25C3.5 8.11193 3.38807 8 3.25 8" stroke="#353535" stroke-linecap="round" stroke-linejoin="round"/>
</g>
<g id="Group 641">
<path id="Vector_5" d="M6 8.5C5.86193 8.5 5.75 8.38807 5.75 8.25C5.75 8.11193 5.86193 8 6 8" stroke="#353535" stroke-linecap="round" stroke-linejoin="round"/>
<path id="Vector_6" d="M6 8.5C6.13807 8.5 6.25 8.38807 6.25 8.25C6.25 8.11193 6.13807 8 6 8" stroke="#353535" stroke-linecap="round" stroke-linejoin="round"/>
</g>
<g id="Group 642">
<path id="Vector_7" d="M8.75 8.5C8.61193 8.5 8.5 8.38807 8.5 8.25C8.5 8.11193 8.61193 8 8.75 8" stroke="#353535" stroke-linecap="round" stroke-linejoin="round"/>
<path id="Vector_8" d="M8.75 8.5C8.88807 8.5 9 8.38807 9 8.25C9 8.11193 8.88807 8 8.75 8" stroke="#353535" stroke-linecap="round" stroke-linejoin="round"/>
</g>
<g id="Group 643">
<path id="Vector_9" d="M3.25 11C3.11193 11 3 10.8881 3 10.75C3 10.6119 3.11193 10.5 3.25 10.5" stroke="#353535" stroke-linecap="round" stroke-linejoin="round"/>
<path id="Vector_10" d="M3.25 11C3.38807 11 3.5 10.8881 3.5 10.75C3.5 10.6119 3.38807 10.5 3.25 10.5" stroke="#353535" stroke-linecap="round" stroke-linejoin="round"/>
</g>
<g id="Group 644">
<path id="Vector_11" d="M6 11C5.86193 11 5.75 10.8881 5.75 10.75C5.75 10.6119 5.86193 10.5 6 10.5" stroke="#353535" stroke-linecap="round" stroke-linejoin="round"/>
<path id="Vector_12" d="M6 11C6.13807 11 6.25 10.8881 6.25 10.75C6.25 10.6119 6.13807 10.5 6 10.5" stroke="#353535" stroke-linecap="round" stroke-linejoin="round"/>
</g>
<g id="Group 645">
<path id="Vector_13" d="M8.75 11C8.61193 11 8.5 10.8881 8.5 10.75C8.5 10.6119 8.61193 10.5 8.75 10.5" stroke="#353535" stroke-linecap="round" stroke-linejoin="round"/>
<path id="Vector_14" d="M8.75 11C8.88807 11 9 10.8881 9 10.75C9 10.6119 8.88807 10.5 8.75 10.5" stroke="#353535" stroke-linecap="round" stroke-linejoin="round"/>
</g>
<path id="Vector_15" d="M9 3H8" stroke="#353535" stroke-linecap="round" stroke-linejoin="round"/>
</g>
</svg>
