<svg width="71" height="59" viewBox="0 0 71 59" fill="none" xmlns="http://www.w3.org/2000/svg">
    <rect width="71" height="59" fill="#FAFAFA"/>
    <rect x="61.2" y="5.64746" width="0.799999" height="1.61367" rx="0.399999" fill="white"/>
    <rect x="61.2" y="4.84082" width="0.799999" height="0.605127" rx="0.302564" fill="white"/>
    <rect x="10.0951" y="20.5177" width="53.8103" height="25.0744" stroke="#BDBDBD" stroke-width="0.189744" stroke-dasharray="0.19 0.19"/>
    <path d="M10.0002 23.5996H64.0002" stroke="#BDBDBD" stroke-width="0.189744" stroke-dasharray="0.38 0.38"/>
    <path d="M10.0002 26.7764H64.0002" stroke="#BDBDBD" stroke-width="0.189744" stroke-dasharray="0.38 0.38"/>
    <path d="M10.0002 29.9541H64.0002" stroke="#BDBDBD" stroke-width="0.189744" stroke-dasharray="0.38 0.38"/>
    <path d="M10.0002 33.1309H64.0002" stroke="#BDBDBD" stroke-width="0.189744" stroke-dasharray="0.38 0.38"/>
    <path d="M10.0002 36.3076H64.0002" stroke="#BDBDBD" stroke-width="0.189744" stroke-dasharray="0.38 0.38"/>
    <path d="M10.0002 39.4844H64.0002" stroke="#BDBDBD" stroke-width="0.189744" stroke-dasharray="0.38 0.38"/>
    <path d="M10.0002 42.5098H64.0002" stroke="#BDBDBD" stroke-width="0.189744" stroke-dasharray="0.38 0.38"/>
    <path d="M18.6001 20.4229L18.6001 45.719" stroke="#BDBDBD" stroke-width="0.189744" stroke-dasharray="0.38 0.38"/>
    <path d="M14.0002 20.4229L14.0002 45.719" stroke="#BDBDBD" stroke-width="0.189744" stroke-dasharray="0.38 0.38"/>
    <path d="M23.2002 20.4229L23.2002 45.719" stroke="#BDBDBD" stroke-width="0.189744" stroke-dasharray="0.38 0.38"/>
    <path d="M27.8003 20.4229L27.8003 45.719" stroke="#BDBDBD" stroke-width="0.189744" stroke-dasharray="0.38 0.38"/>
    <path d="M32.4001 20.4229L32.4001 45.719" stroke="#BDBDBD" stroke-width="0.189744" stroke-dasharray="0.38 0.38"/>
    <path d="M37.0002 20.4229L37.0002 45.719" stroke="#BDBDBD" stroke-width="0.189744" stroke-dasharray="0.38 0.38"/>
    <path d="M41.6001 20.4229L41.6001 45.719" stroke="#BDBDBD" stroke-width="0.189744" stroke-dasharray="0.38 0.38"/>
    <path d="M46.2002 20.4229L46.2002 45.719" stroke="#BDBDBD" stroke-width="0.189744" stroke-dasharray="0.38 0.38"/>
    <path d="M50.8003 20.4229L50.8003 45.719" stroke="#BDBDBD" stroke-width="0.189744" stroke-dasharray="0.38 0.38"/>
    <path d="M55.4001 20.4229L55.4001 45.719" stroke="#BDBDBD" stroke-width="0.189744" stroke-dasharray="0.38 0.38"/>
    <path d="M60.0002 20.4229L60.0002 45.719" stroke="#BDBDBD" stroke-width="0.189744" stroke-dasharray="0.38 0.38"/>
    <path d="M10.6258 47.05H10.7762V47.9378C10.7762 48.0171 10.7617 48.0844 10.7326 48.1398C10.7035 48.1952 10.6624 48.2372 10.6095 48.2659C10.5565 48.2946 10.494 48.309 10.4221 48.309C10.3542 48.309 10.2937 48.2966 10.2408 48.272C10.1878 48.2469 10.1461 48.2113 10.1158 48.1652C10.0855 48.1192 10.0703 48.0644 10.0703 48.0009H10.2183C10.2183 48.0361 10.227 48.0668 10.2444 48.0931C10.2622 48.119 10.2864 48.1392 10.3172 48.1537C10.3479 48.1683 10.3829 48.1756 10.4221 48.1756C10.4653 48.1756 10.5021 48.1665 10.5324 48.1483C10.5628 48.1301 10.5858 48.1034 10.6016 48.0682C10.6177 48.0326 10.6258 47.9892 10.6258 47.9378V47.05ZM11.3323 48.3138C11.2733 48.3138 11.2197 48.3027 11.1716 48.2805C11.1235 48.2578 11.0853 48.2253 11.057 48.1828C11.0287 48.14 11.0145 48.0882 11.0145 48.0276C11.0145 47.9742 11.0251 47.931 11.0461 47.8978C11.0671 47.8643 11.0952 47.838 11.1304 47.819C11.1655 47.8 11.2044 47.7858 11.2468 47.7765C11.2897 47.7668 11.3327 47.7591 11.376 47.7535C11.4326 47.7462 11.4785 47.7408 11.5136 47.7371C11.5492 47.7331 11.5751 47.7264 11.5913 47.7171C11.6078 47.7078 11.6161 47.6916 11.6161 47.6686V47.6637C11.6161 47.6039 11.5997 47.5574 11.567 47.5243C11.5347 47.4911 11.4855 47.4745 11.4196 47.4745C11.3513 47.4745 11.2977 47.4895 11.2589 47.5194C11.2201 47.5493 11.1928 47.5813 11.1771 47.6152L11.0412 47.5667C11.0655 47.5101 11.0978 47.466 11.1383 47.4345C11.1791 47.4026 11.2236 47.3803 11.2717 47.3678C11.3202 47.3549 11.3679 47.3484 11.4148 47.3484C11.4447 47.3484 11.4791 47.352 11.5179 47.3593C11.5571 47.3662 11.5949 47.3805 11.6313 47.4024C11.6681 47.4242 11.6986 47.4571 11.7229 47.5012C11.7471 47.5453 11.7592 47.6043 11.7592 47.6783V48.292H11.6161V48.1659H11.6088C11.5991 48.1861 11.583 48.2077 11.5603 48.2307C11.5377 48.2538 11.5076 48.2734 11.47 48.2896C11.4324 48.3057 11.3865 48.3138 11.3323 48.3138ZM11.3541 48.1853C11.4107 48.1853 11.4585 48.1741 11.4973 48.1519C11.5365 48.1297 11.566 48.101 11.5858 48.0658C11.606 48.0306 11.6161 47.9936 11.6161 47.9548V47.8238C11.6101 47.8311 11.5967 47.8378 11.5761 47.8438C11.5559 47.8495 11.5324 47.8546 11.5058 47.859C11.4795 47.863 11.4538 47.8667 11.4287 47.8699C11.4041 47.8728 11.3841 47.8752 11.3687 47.8772C11.3315 47.882 11.2967 47.8899 11.2644 47.9008C11.2325 47.9114 11.2066 47.9273 11.1868 47.9488C11.1674 47.9698 11.1577 47.9985 11.1577 48.0349C11.1577 48.0846 11.1761 48.1222 11.2128 48.1477C11.25 48.1727 11.2971 48.1853 11.3541 48.1853ZM12.1636 47.7317V48.292H12.0205V47.3605H12.1587V47.5061H12.1708C12.1927 47.4588 12.2258 47.4208 12.2703 47.3921C12.3148 47.3629 12.3722 47.3484 12.4425 47.3484C12.5056 47.3484 12.5608 47.3613 12.6081 47.3872C12.6554 47.4127 12.6922 47.4515 12.7185 47.5036C12.7447 47.5554 12.7579 47.6209 12.7579 47.7001V48.292H12.6148V47.7098C12.6148 47.6366 12.5958 47.5796 12.5577 47.5388C12.5197 47.4976 12.4676 47.477 12.4013 47.477C12.3556 47.477 12.3148 47.4869 12.2788 47.5067C12.2432 47.5265 12.2151 47.5554 12.1945 47.5934C12.1739 47.6314 12.1636 47.6775 12.1636 47.7317Z" fill="#4F4F4F"/>
    <path d="M14.1504 48.292V47.05H14.8951V47.1834H14.3008V47.6031H14.8393V47.7365H14.3008V48.292H14.1504ZM15.4554 48.3114C15.3657 48.3114 15.2882 48.2916 15.2232 48.252C15.1585 48.2119 15.1085 48.1562 15.0734 48.0846C15.0386 48.0126 15.0212 47.9289 15.0212 47.8335C15.0212 47.7381 15.0386 47.654 15.0734 47.5813C15.1085 47.5081 15.1575 47.4511 15.2201 47.4103C15.2832 47.369 15.3568 47.3484 15.4409 47.3484C15.4894 47.3484 15.5373 47.3565 15.5846 47.3727C15.6319 47.3888 15.6749 47.4151 15.7138 47.4515C15.7526 47.4875 15.7835 47.5352 15.8065 47.5946C15.8296 47.654 15.8411 47.7272 15.8411 47.8141V47.8748H15.1231V47.7511H15.6956C15.6956 47.6985 15.6851 47.6516 15.664 47.6104C15.6434 47.5691 15.6139 47.5366 15.5755 47.5127C15.5375 47.4889 15.4926 47.477 15.4409 47.477C15.3839 47.477 15.3345 47.4911 15.2929 47.5194C15.2517 47.5473 15.2199 47.5837 15.1977 47.6286C15.1755 47.6734 15.1643 47.7215 15.1643 47.7729V47.8554C15.1643 47.9257 15.1765 47.9853 15.2007 48.0343C15.2254 48.0828 15.2595 48.1198 15.3032 48.1452C15.3469 48.1703 15.3976 48.1828 15.4554 48.1828C15.493 48.1828 15.527 48.1776 15.5573 48.1671C15.588 48.1562 15.6145 48.14 15.6367 48.1186C15.659 48.0967 15.6762 48.0696 15.6883 48.0373L15.8266 48.0761C15.812 48.123 15.7875 48.1642 15.7532 48.1998C15.7188 48.235 15.6764 48.2625 15.6258 48.2823C15.5753 48.3017 15.5185 48.3114 15.4554 48.3114ZM16.0782 48.292V47.05H16.2213V47.5085H16.2335C16.244 47.4923 16.2585 47.4717 16.2771 47.4466C16.2961 47.4212 16.3232 47.3985 16.3584 47.3787C16.394 47.3585 16.4421 47.3484 16.5027 47.3484C16.5811 47.3484 16.6503 47.368 16.7101 47.4072C16.7699 47.4464 16.8166 47.502 16.8502 47.574C16.8838 47.6459 16.9005 47.7308 16.9005 47.8287C16.9005 47.9273 16.8838 48.0128 16.8502 48.0852C16.8166 48.1572 16.7701 48.213 16.7107 48.2526C16.6513 48.2918 16.5828 48.3114 16.5051 48.3114C16.4453 48.3114 16.3974 48.3015 16.3614 48.2817C16.3254 48.2615 16.2977 48.2386 16.2783 48.2132C16.2589 48.1873 16.244 48.1659 16.2335 48.1489H16.2165V48.292H16.0782ZM16.2189 47.8263C16.2189 47.8966 16.2292 47.9587 16.2498 48.0124C16.2705 48.0658 16.3006 48.1076 16.3402 48.138C16.3798 48.1679 16.4283 48.1828 16.4857 48.1828C16.5456 48.1828 16.5955 48.1671 16.6355 48.1355C16.676 48.1036 16.7063 48.0607 16.7265 48.007C16.7471 47.9528 16.7574 47.8926 16.7574 47.8263C16.7574 47.7608 16.7473 47.7017 16.7271 47.6492C16.7073 47.5962 16.6772 47.5544 16.6367 47.5237C16.5967 47.4925 16.5464 47.477 16.4857 47.477C16.4275 47.477 16.3786 47.4917 16.339 47.5212C16.2994 47.5503 16.2694 47.5912 16.2492 47.6437C16.229 47.6959 16.2189 47.7567 16.2189 47.8263Z" fill="#4F4F4F"/>
    <path d="M18.7505 47.05H18.93L19.3521 48.081H19.3666L19.7887 47.05H19.9682V48.292H19.8275V47.3484H19.8154L19.4273 48.292H19.2914L18.9033 47.3484H18.8912V48.292H18.7505V47.05ZM20.5244 48.3138C20.4654 48.3138 20.4118 48.3027 20.3637 48.2805C20.3156 48.2578 20.2774 48.2253 20.2491 48.1828C20.2208 48.14 20.2067 48.0882 20.2067 48.0276C20.2067 47.9742 20.2172 47.931 20.2382 47.8978C20.2592 47.8643 20.2873 47.838 20.3225 47.819C20.3577 47.8 20.3965 47.7858 20.4389 47.7765C20.4818 47.7668 20.5248 47.7591 20.5681 47.7535C20.6247 47.7462 20.6706 47.7408 20.7058 47.7371C20.7413 47.7331 20.7672 47.7264 20.7834 47.7171C20.8 47.7078 20.8082 47.6916 20.8082 47.6686V47.6637C20.8082 47.6039 20.7919 47.5574 20.7591 47.5243C20.7268 47.4911 20.6777 47.4745 20.6118 47.4745C20.5434 47.4745 20.4899 47.4895 20.4511 47.5194C20.4122 47.5493 20.385 47.5813 20.3692 47.6152L20.2334 47.5667C20.2576 47.5101 20.29 47.466 20.3304 47.4345C20.3712 47.4026 20.4157 47.3803 20.4638 47.3678C20.5123 47.3549 20.56 47.3484 20.6069 47.3484C20.6368 47.3484 20.6712 47.352 20.71 47.3593C20.7492 47.3662 20.787 47.3805 20.8234 47.4024C20.8602 47.4242 20.8907 47.4571 20.915 47.5012C20.9392 47.5453 20.9514 47.6043 20.9514 47.6783V48.292H20.8082V48.1659H20.801C20.7913 48.1861 20.7751 48.2077 20.7525 48.2307C20.7298 48.2538 20.6997 48.2734 20.6621 48.2896C20.6245 48.3057 20.5786 48.3138 20.5244 48.3138ZM20.5463 48.1853C20.6029 48.1853 20.6506 48.1741 20.6894 48.1519C20.7286 48.1297 20.7581 48.101 20.7779 48.0658C20.7981 48.0306 20.8082 47.9936 20.8082 47.9548V47.8238C20.8022 47.8311 20.7888 47.8378 20.7682 47.8438C20.748 47.8495 20.7246 47.8546 20.6979 47.859C20.6716 47.863 20.6459 47.8667 20.6209 47.8699C20.5962 47.8728 20.5762 47.8752 20.5608 47.8772C20.5236 47.882 20.4889 47.8899 20.4565 47.9008C20.4246 47.9114 20.3987 47.9273 20.3789 47.9488C20.3595 47.9698 20.3498 47.9985 20.3498 48.0349C20.3498 48.0846 20.3682 48.1222 20.405 48.1477C20.4422 48.1727 20.4893 48.1853 20.5463 48.1853ZM21.2126 48.292V47.3605H21.3508V47.5012H21.3605C21.3775 47.4551 21.4082 47.4177 21.4527 47.389C21.4972 47.3603 21.5473 47.346 21.6031 47.346C21.6136 47.346 21.6268 47.3462 21.6425 47.3466C21.6583 47.347 21.6702 47.3476 21.6783 47.3484V47.4939C21.6735 47.4927 21.6623 47.4909 21.645 47.4885C21.628 47.4856 21.61 47.4842 21.591 47.4842C21.5457 47.4842 21.5053 47.4937 21.4697 47.5127C21.4345 47.5313 21.4066 47.5572 21.386 47.5904C21.3658 47.6231 21.3557 47.6605 21.3557 47.7025V48.292H21.2126Z" fill="#4F4F4F"/>
    <path d="M23.4013 48.292H23.2436L23.6996 47.05H23.8549L24.3109 48.292H24.1533L23.7821 47.2465H23.7724L23.4013 48.292ZM23.4595 47.8069H24.095V47.9403H23.4595V47.8069ZM24.485 48.6413V47.3605H24.6232V47.5085H24.6402C24.6507 47.4923 24.6653 47.4717 24.6839 47.4466C24.7029 47.4212 24.73 47.3985 24.7651 47.3787C24.8007 47.3585 24.8488 47.3484 24.9095 47.3484C24.9879 47.3484 25.057 47.368 25.1169 47.4072C25.1767 47.4464 25.2234 47.502 25.2569 47.574C25.2905 47.6459 25.3073 47.7308 25.3073 47.8287C25.3073 47.9273 25.2905 48.0128 25.2569 48.0852C25.2234 48.1572 25.1769 48.213 25.1175 48.2526C25.058 48.2918 24.9895 48.3114 24.9119 48.3114C24.8521 48.3114 24.8041 48.3015 24.7682 48.2817C24.7322 48.2615 24.7045 48.2386 24.6851 48.2132C24.6657 48.1873 24.6507 48.1659 24.6402 48.1489H24.6281V48.6413H24.485ZM24.6257 47.8263C24.6257 47.8966 24.636 47.9587 24.6566 48.0124C24.6772 48.0658 24.7073 48.1076 24.7469 48.138C24.7866 48.1679 24.8351 48.1828 24.8925 48.1828C24.9523 48.1828 25.0022 48.1671 25.0423 48.1355C25.0827 48.1036 25.113 48.0607 25.1332 48.007C25.1539 47.9528 25.1642 47.8926 25.1642 47.8263C25.1642 47.7608 25.1541 47.7017 25.1338 47.6492C25.114 47.5962 25.0839 47.5544 25.0435 47.5237C25.0035 47.4925 24.9531 47.477 24.8925 47.477C24.8343 47.477 24.7853 47.4917 24.7457 47.5212C24.7061 47.5503 24.6762 47.5912 24.656 47.6437C24.6358 47.6959 24.6257 47.7567 24.6257 47.8263ZM25.5256 48.292V47.3605H25.6639V47.5012H25.6736C25.6905 47.4551 25.7213 47.4177 25.7657 47.389C25.8102 47.3603 25.8603 47.346 25.9161 47.346C25.9266 47.346 25.9398 47.3462 25.9555 47.3466C25.9713 47.347 25.9832 47.3476 25.9913 47.3484V47.4939C25.9865 47.4927 25.9754 47.4909 25.958 47.4885C25.941 47.4856 25.923 47.4842 25.904 47.4842C25.8587 47.4842 25.8183 47.4937 25.7827 47.5127C25.7475 47.5313 25.7196 47.5572 25.699 47.5904C25.6788 47.6231 25.6687 47.6605 25.6687 47.7025V48.292H25.5256Z" fill="#4F4F4F"/>
    <path d="M27.9504 47.05H28.1299L28.552 48.081H28.5666L28.9886 47.05H29.1681V48.292H29.0275V47.3484H29.0153L28.6272 48.292H28.4914L28.1033 47.3484H28.0911V48.292H27.9504V47.05ZM29.7244 48.3138C29.6654 48.3138 29.6118 48.3027 29.5637 48.2805C29.5156 48.2578 29.4774 48.2253 29.4491 48.1828C29.4208 48.14 29.4066 48.0882 29.4066 48.0276C29.4066 47.9742 29.4171 47.931 29.4382 47.8978C29.4592 47.8643 29.4873 47.838 29.5224 47.819C29.5576 47.8 29.5964 47.7858 29.6389 47.7765C29.6817 47.7668 29.7248 47.7591 29.768 47.7535C29.8246 47.7462 29.8705 47.7408 29.9057 47.7371C29.9413 47.7331 29.9672 47.7264 29.9833 47.7171C29.9999 47.7078 30.0082 47.6916 30.0082 47.6686V47.6637C30.0082 47.6039 29.9918 47.5574 29.9591 47.5243C29.9267 47.4911 29.8776 47.4745 29.8117 47.4745C29.7434 47.4745 29.6898 47.4895 29.651 47.5194C29.6122 47.5493 29.5849 47.5813 29.5691 47.6152L29.4333 47.5667C29.4576 47.5101 29.4899 47.466 29.5303 47.4345C29.5712 47.4026 29.6156 47.3803 29.6637 47.3678C29.7123 47.3549 29.76 47.3484 29.8069 47.3484C29.8368 47.3484 29.8711 47.352 29.91 47.3593C29.9492 47.3662 29.987 47.3805 30.0234 47.4024C30.0601 47.4242 30.0907 47.4571 30.1149 47.5012C30.1392 47.5453 30.1513 47.6043 30.1513 47.6783V48.292H30.0082V48.1659H30.0009C29.9912 48.1861 29.975 48.2077 29.9524 48.2307C29.9298 48.2538 29.8996 48.2734 29.862 48.2896C29.8244 48.3057 29.7786 48.3138 29.7244 48.3138ZM29.7462 48.1853C29.8028 48.1853 29.8505 48.1741 29.8893 48.1519C29.9285 48.1297 29.9581 48.101 29.9779 48.0658C29.9981 48.0306 30.0082 47.9936 30.0082 47.9548V47.8238C30.0021 47.8311 29.9888 47.8378 29.9682 47.8438C29.948 47.8495 29.9245 47.8546 29.8978 47.859C29.8715 47.863 29.8459 47.8667 29.8208 47.8699C29.7961 47.8728 29.7761 47.8752 29.7608 47.8772C29.7236 47.882 29.6888 47.8899 29.6565 47.9008C29.6245 47.9114 29.5987 47.9273 29.5788 47.9488C29.5594 47.9698 29.5497 47.9985 29.5497 48.0349C29.5497 48.0846 29.5681 48.1222 29.6049 48.1477C29.6421 48.1727 29.6892 48.1853 29.7462 48.1853ZM30.4125 48.292V47.3605H30.5556V48.292H30.4125ZM30.4853 47.2053C30.4574 47.2053 30.4333 47.1958 30.4131 47.1768C30.3933 47.1578 30.3834 47.1349 30.3834 47.1083C30.3834 47.0816 30.3933 47.0587 30.4131 47.0397C30.4333 47.0207 30.4574 47.0112 30.4853 47.0112C30.5132 47.0112 30.537 47.0207 30.5569 47.0397C30.5771 47.0587 30.5872 47.0816 30.5872 47.1083C30.5872 47.1349 30.5771 47.1578 30.5569 47.1768C30.537 47.1958 30.5132 47.2053 30.4853 47.2053Z" fill="#4F4F4F"/>
    <path d="M33.0257 47.05H33.1761V47.9378C33.1761 48.0171 33.1616 48.0844 33.1325 48.1398C33.1034 48.1952 33.0623 48.2372 33.0094 48.2659C32.9564 48.2946 32.8939 48.309 32.822 48.309C32.7541 48.309 32.6936 48.2966 32.6407 48.272C32.5877 48.2469 32.5461 48.2113 32.5157 48.1652C32.4854 48.1192 32.4702 48.0644 32.4702 48.0009H32.6182C32.6182 48.0361 32.6269 48.0668 32.6443 48.0931C32.6621 48.119 32.6863 48.1392 32.7171 48.1537C32.7478 48.1683 32.7828 48.1756 32.822 48.1756C32.8652 48.1756 32.902 48.1665 32.9323 48.1483C32.9627 48.1301 32.9857 48.1034 33.0015 48.0682C33.0176 48.0326 33.0257 47.9892 33.0257 47.9378V47.05ZM34.0451 47.9112V47.3605H34.1882V48.292H34.0451V48.1343H34.0354C34.0136 48.1816 33.9796 48.2218 33.9336 48.255C33.8875 48.2877 33.8292 48.3041 33.7589 48.3041C33.7007 48.3041 33.6489 48.2914 33.6037 48.2659C33.5584 48.24 33.5228 48.2012 33.4969 48.1495C33.4711 48.0973 33.4581 48.0316 33.4581 47.9524V47.3605H33.6012V47.9427C33.6012 48.0106 33.6202 48.0648 33.6582 48.1052C33.6966 48.1456 33.7456 48.1659 33.805 48.1659C33.8406 48.1659 33.8767 48.1568 33.9135 48.1386C33.9507 48.1204 33.9819 48.0925 34.0069 48.0549C34.0324 48.0173 34.0451 47.9694 34.0451 47.9112ZM34.5935 47.7317V48.292H34.4504V47.3605H34.5886V47.5061H34.6008C34.6226 47.4588 34.6558 47.4208 34.7002 47.3921C34.7447 47.3629 34.8021 47.3484 34.8724 47.3484C34.9355 47.3484 34.9907 47.3613 35.038 47.3872C35.0853 47.4127 35.1221 47.4515 35.1484 47.5036C35.1746 47.5554 35.1878 47.6209 35.1878 47.7001V48.292H35.0447V47.7098C35.0447 47.6366 35.0257 47.5796 34.9877 47.5388C34.9497 47.4976 34.8975 47.477 34.8312 47.477C34.7855 47.477 34.7447 47.4869 34.7087 47.5067C34.6731 47.5265 34.645 47.5554 34.6244 47.5934C34.6038 47.6314 34.5935 47.6775 34.5935 47.7317Z" fill="#4F4F4F"/>
    <path d="M37.6258 47.05H37.7762V47.9378C37.7762 48.0171 37.7617 48.0844 37.7326 48.1398C37.7035 48.1952 37.6624 48.2372 37.6095 48.2659C37.5565 48.2946 37.494 48.309 37.4221 48.309C37.3542 48.309 37.2937 48.2966 37.2408 48.272C37.1878 48.2469 37.1461 48.2113 37.1158 48.1652C37.0855 48.1192 37.0703 48.0644 37.0703 48.0009H37.2183C37.2183 48.0361 37.227 48.0668 37.2444 48.0931C37.2622 48.119 37.2864 48.1392 37.3172 48.1537C37.3479 48.1683 37.3829 48.1756 37.4221 48.1756C37.4653 48.1756 37.5021 48.1665 37.5324 48.1483C37.5628 48.1301 37.5858 48.1034 37.6016 48.0682C37.6177 48.0326 37.6258 47.9892 37.6258 47.9378V47.05ZM38.6452 47.9112V47.3605H38.7883V48.292H38.6452V48.1343H38.6355C38.6137 48.1816 38.5797 48.2218 38.5336 48.255C38.4876 48.2877 38.4293 48.3041 38.359 48.3041C38.3008 48.3041 38.249 48.2914 38.2038 48.2659C38.1585 48.24 38.1229 48.2012 38.097 48.1495C38.0711 48.0973 38.0582 48.0316 38.0582 47.9524V47.3605H38.2013V47.9427C38.2013 48.0106 38.2203 48.0648 38.2583 48.1052C38.2967 48.1456 38.3457 48.1659 38.4051 48.1659C38.4407 48.1659 38.4768 48.1568 38.5136 48.1386C38.5508 48.1204 38.582 48.0925 38.607 48.0549C38.6325 48.0173 38.6452 47.9694 38.6452 47.9112ZM39.1936 47.05V48.292H39.0505V47.05H39.1936Z" fill="#4F4F4F"/>
    <path d="M41.8014 48.292H41.6438L42.0998 47.05H42.255L42.7111 48.292H42.5534L42.1823 47.2465H42.1726L41.8014 48.292ZM41.8596 47.8069H42.4952V47.9403H41.8596V47.8069ZM43.4721 47.9112V47.3605H43.6152V48.292H43.4721V48.1343H43.4624C43.4406 48.1816 43.4066 48.2218 43.3605 48.255C43.3145 48.2877 43.2562 48.3041 43.1859 48.3041C43.1277 48.3041 43.0759 48.2914 43.0307 48.2659C42.9854 48.24 42.9498 48.2012 42.9239 48.1495C42.898 48.0973 42.8851 48.0316 42.8851 47.9524V47.3605H43.0282V47.9427C43.0282 48.0106 43.0472 48.0648 43.0852 48.1052C43.1236 48.1456 43.1726 48.1659 43.232 48.1659C43.2676 48.1659 43.3037 48.1568 43.3405 48.1386C43.3777 48.1204 43.4089 48.0925 43.4339 48.0549C43.4594 48.0173 43.4721 47.9694 43.4721 47.9112ZM44.2534 48.6607C44.1842 48.6607 44.1248 48.6518 44.0751 48.634C44.0253 48.6166 43.9839 48.5936 43.9508 48.5649C43.918 48.5366 43.8919 48.5063 43.8725 48.4739L43.9865 48.3939C43.9995 48.4109 44.0158 48.4303 44.0357 48.4521C44.0555 48.4743 44.0825 48.4935 44.1169 48.5097C44.1517 48.5263 44.1972 48.5346 44.2534 48.5346C44.3286 48.5346 44.3906 48.5164 44.4395 48.48C44.4884 48.4436 44.5129 48.3866 44.5129 48.309V48.1198H44.5008C44.4903 48.1367 44.4753 48.1578 44.4559 48.1828C44.4369 48.2075 44.4094 48.2295 44.3734 48.2489C44.3379 48.2679 44.2897 48.2774 44.2291 48.2774C44.1539 48.2774 44.0864 48.2596 44.0266 48.2241C43.9671 48.1885 43.92 48.1367 43.8853 48.0688C43.8509 48.0009 43.8337 47.9184 43.8337 47.8214C43.8337 47.726 43.8505 47.6429 43.884 47.5722C43.9176 47.501 43.9643 47.446 44.0241 47.4072C44.084 47.368 44.1531 47.3484 44.2315 47.3484C44.2922 47.3484 44.3403 47.3585 44.3759 47.3787C44.4118 47.3985 44.4393 47.4212 44.4583 47.4466C44.4777 47.4717 44.4927 47.4923 44.5032 47.5085H44.5178V47.3605H44.656V48.3187C44.656 48.3987 44.6378 48.4638 44.6014 48.5139C44.5655 48.5645 44.517 48.6015 44.4559 48.6249C44.3953 48.6488 44.3277 48.6607 44.2534 48.6607ZM44.2485 48.1489C44.3059 48.1489 44.3544 48.1357 44.394 48.1095C44.4337 48.0832 44.4638 48.0454 44.4844 47.9961C44.505 47.9467 44.5153 47.8877 44.5153 47.819C44.5153 47.7519 44.5052 47.6926 44.485 47.6413C44.4648 47.59 44.4349 47.5497 44.3953 47.5206C44.3556 47.4915 44.3067 47.477 44.2485 47.477C44.1879 47.477 44.1373 47.4923 44.0969 47.523C44.0569 47.5538 44.0268 47.595 44.0065 47.6468C43.9867 47.6985 43.9768 47.7559 43.9768 47.819C43.9768 47.8837 43.9869 47.9409 44.0071 47.9906C44.0278 48.0399 44.0581 48.0787 44.0981 48.107C44.1385 48.1349 44.1887 48.1489 44.2485 48.1489Z" fill="#4F4F4F"/>
    <path d="M47.0295 47.3605C47.0223 47.2991 46.9928 47.2514 46.941 47.2174C46.8893 47.1834 46.8258 47.1665 46.7506 47.1665C46.6956 47.1665 46.6475 47.1754 46.6063 47.1932C46.5654 47.2109 46.5335 47.2354 46.5104 47.2665C46.4878 47.2977 46.4765 47.333 46.4765 47.3727C46.4765 47.4058 46.4844 47.4343 46.5001 47.4582C46.5163 47.4816 46.5369 47.5012 46.562 47.517C46.5871 47.5323 46.6133 47.5451 46.6408 47.5552C46.6683 47.5649 46.6936 47.5728 46.7166 47.5788L46.8428 47.6128C46.8751 47.6213 46.9111 47.633 46.9507 47.648C46.9907 47.6629 47.0289 47.6833 47.0653 47.7092C47.1021 47.7347 47.1324 47.7674 47.1563 47.8075C47.1801 47.8475 47.1921 47.8966 47.1921 47.9548C47.1921 48.0219 47.1745 48.0826 47.1393 48.1367C47.1045 48.1909 47.0536 48.234 46.9865 48.2659C46.9198 48.2979 46.8387 48.3138 46.7433 48.3138C46.6544 48.3138 46.5773 48.2995 46.5123 48.2708C46.4476 48.2421 46.3966 48.202 46.3594 48.1507C46.3227 48.0994 46.3018 48.0397 46.297 47.9718H46.4522C46.4563 48.0187 46.472 48.0575 46.4995 48.0882C46.5274 48.1186 46.5626 48.1412 46.605 48.1562C46.6479 48.1707 46.694 48.178 46.7433 48.178C46.8007 48.178 46.8523 48.1687 46.8979 48.1501C46.9436 48.1311 46.9798 48.1048 47.0065 48.0713C47.0332 48.0373 47.0465 47.9977 47.0465 47.9524C47.0465 47.9112 47.035 47.8776 47.012 47.8517C46.9889 47.8259 46.9586 47.8048 46.921 47.7887C46.8834 47.7725 46.8428 47.7583 46.7991 47.7462L46.6463 47.7025C46.5493 47.6747 46.4724 47.6348 46.4158 47.5831C46.3592 47.5313 46.3309 47.4636 46.3309 47.3799C46.3309 47.3104 46.3497 47.2497 46.3873 47.198C46.4253 47.1458 46.4763 47.1054 46.5402 47.0767C46.6044 47.0476 46.6762 47.0331 46.7554 47.0331C46.8355 47.0331 46.9066 47.0474 46.9689 47.0761C47.0312 47.1044 47.0805 47.1432 47.1169 47.1925C47.1537 47.2419 47.1731 47.2979 47.1751 47.3605H47.0295ZM47.8105 48.3114C47.7207 48.3114 47.6433 48.2916 47.5782 48.252C47.5135 48.2119 47.4636 48.1562 47.4284 48.0846C47.3936 48.0126 47.3763 47.9289 47.3763 47.8335C47.3763 47.7381 47.3936 47.654 47.4284 47.5813C47.4636 47.5081 47.5125 47.4511 47.5752 47.4103C47.6382 47.369 47.7118 47.3484 47.7959 47.3484C47.8444 47.3484 47.8923 47.3565 47.9396 47.3727C47.9869 47.3888 48.03 47.4151 48.0688 47.4515C48.1076 47.4875 48.1385 47.5352 48.1616 47.5946C48.1846 47.654 48.1962 47.7272 48.1962 47.8141V47.8748H47.4781V47.7511H48.0506C48.0506 47.6985 48.0401 47.6516 48.0191 47.6104C47.9985 47.5691 47.9689 47.5366 47.9305 47.5127C47.8925 47.4889 47.8477 47.477 47.7959 47.477C47.7389 47.477 47.6896 47.4911 47.6479 47.5194C47.6067 47.5473 47.575 47.5837 47.5527 47.6286C47.5305 47.6734 47.5194 47.7215 47.5194 47.7729V47.8554C47.5194 47.9257 47.5315 47.9853 47.5558 48.0343C47.5804 48.0828 47.6146 48.1198 47.6583 48.1452C47.7019 48.1703 47.7527 48.1828 47.8105 48.1828C47.8481 48.1828 47.882 48.1776 47.9123 48.1671C47.9431 48.1562 47.9695 48.14 47.9918 48.1186C48.014 48.0967 48.0312 48.0696 48.0433 48.0373L48.1816 48.0761C48.167 48.123 48.1426 48.1642 48.1082 48.1998C48.0739 48.235 48.0314 48.2625 47.9809 48.2823C47.9303 48.3017 47.8735 48.3114 47.8105 48.3114ZM48.4139 48.6413V47.3605H48.5521V47.5085H48.5691C48.5796 47.4923 48.5942 47.4717 48.6128 47.4466C48.6318 47.4212 48.6589 47.3985 48.694 47.3787C48.7296 47.3585 48.7777 47.3484 48.8384 47.3484C48.9168 47.3484 48.9859 47.368 49.0458 47.4072C49.1056 47.4464 49.1523 47.502 49.1858 47.574C49.2194 47.6459 49.2362 47.7308 49.2362 47.8287C49.2362 47.9273 49.2194 48.0128 49.1858 48.0852C49.1523 48.1572 49.1058 48.213 49.0464 48.2526C48.9869 48.2918 48.9184 48.3114 48.8408 48.3114C48.7809 48.3114 48.733 48.3015 48.6971 48.2817C48.6611 48.2615 48.6334 48.2386 48.614 48.2132C48.5946 48.1873 48.5796 48.1659 48.5691 48.1489H48.557V48.6413H48.4139ZM48.5545 47.8263C48.5545 47.8966 48.5649 47.9587 48.5855 48.0124C48.6061 48.0658 48.6362 48.1076 48.6758 48.138C48.7155 48.1679 48.764 48.1828 48.8214 48.1828C48.8812 48.1828 48.9311 48.1671 48.9712 48.1355C49.0116 48.1036 49.0419 48.0607 49.0621 48.007C49.0827 47.9528 49.0931 47.8926 49.0931 47.8263C49.0931 47.7608 49.0829 47.7017 49.0627 47.6492C49.0429 47.5962 49.0128 47.5544 48.9724 47.5237C48.9323 47.4925 48.882 47.477 48.8214 47.477C48.7632 47.477 48.7142 47.4917 48.6746 47.5212C48.635 47.5503 48.6051 47.5912 48.5849 47.6437C48.5647 47.6959 48.5545 47.7567 48.5545 47.8263Z" fill="#4F4F4F"/>
    <path d="M51.9983 47.671C51.9983 47.802 51.9747 47.9152 51.9274 48.0106C51.8801 48.106 51.8152 48.1796 51.7327 48.2313C51.6503 48.2831 51.5561 48.309 51.4501 48.309C51.3442 48.309 51.25 48.2831 51.1675 48.2313C51.0851 48.1796 51.0202 48.106 50.9729 48.0106C50.9256 47.9152 50.9019 47.802 50.9019 47.671C50.9019 47.54 50.9256 47.4268 50.9729 47.3314C51.0202 47.236 51.0851 47.1624 51.1675 47.1107C51.25 47.0589 51.3442 47.0331 51.4501 47.0331C51.5561 47.0331 51.6503 47.0589 51.7327 47.1107C51.8152 47.1624 51.8801 47.236 51.9274 47.3314C51.9747 47.4268 51.9983 47.54 51.9983 47.671ZM51.8528 47.671C51.8528 47.5635 51.8348 47.4727 51.7988 47.3987C51.7633 47.3247 51.7149 47.2688 51.6539 47.2307C51.5933 47.1927 51.5253 47.1737 51.4501 47.1737C51.3749 47.1737 51.3068 47.1927 51.2458 47.2307C51.1851 47.2688 51.1368 47.3247 51.1008 47.3987C51.0653 47.4727 51.0475 47.5635 51.0475 47.671C51.0475 47.7786 51.0653 47.8693 51.1008 47.9433C51.1368 48.0173 51.1851 48.0733 51.2458 48.1113C51.3068 48.1493 51.3749 48.1683 51.4501 48.1683C51.5253 48.1683 51.5933 48.1493 51.6539 48.1113C51.7149 48.0733 51.7633 48.0173 51.7988 47.9433C51.8348 47.8693 51.8528 47.7786 51.8528 47.671ZM52.6102 48.3114C52.5229 48.3114 52.4477 48.2908 52.3846 48.2495C52.3216 48.2083 52.2731 48.1515 52.2391 48.0791C52.2051 48.0068 52.1882 47.9241 52.1882 47.8311C52.1882 47.7365 52.2055 47.653 52.2403 47.5807C52.2755 47.5079 52.3244 47.4511 52.3871 47.4103C52.4501 47.369 52.5237 47.3484 52.6078 47.3484C52.6733 47.3484 52.7323 47.3605 52.7849 47.3848C52.8374 47.409 52.8805 47.443 52.914 47.4867C52.9476 47.5303 52.9684 47.5813 52.9765 47.6395H52.8334C52.8225 47.597 52.7982 47.5594 52.7606 47.5267C52.7234 47.4935 52.6733 47.477 52.6102 47.477C52.5544 47.477 52.5055 47.4915 52.4635 47.5206C52.4218 47.5493 52.3893 47.59 52.3658 47.6425C52.3428 47.6947 52.3313 47.7559 52.3313 47.8263C52.3313 47.8982 52.3426 47.9609 52.3652 48.0142C52.3883 48.0676 52.4206 48.1091 52.4623 48.1386C52.5043 48.1681 52.5536 48.1828 52.6102 48.1828C52.6474 48.1828 52.6812 48.1764 52.7115 48.1634C52.7418 48.1505 52.7675 48.1319 52.7885 48.1076C52.8095 48.0834 52.8245 48.0543 52.8334 48.0203H52.9765C52.9684 48.0753 52.9484 48.1248 52.9165 48.1689C52.8849 48.2126 52.8431 48.2473 52.7909 48.2732C52.7392 48.2987 52.679 48.3114 52.6102 48.3114ZM53.5908 47.3605V47.4818H53.1081V47.3605H53.5908ZM53.2488 47.1374H53.3919V48.0252C53.3919 48.0656 53.3978 48.0959 53.4095 48.1161C53.4216 48.1359 53.437 48.1493 53.4556 48.1562C53.4746 48.1626 53.4946 48.1659 53.5156 48.1659C53.5314 48.1659 53.5443 48.165 53.5544 48.1634C53.5645 48.1614 53.5726 48.1598 53.5787 48.1586L53.6078 48.2871C53.5981 48.2908 53.5845 48.2944 53.5672 48.2981C53.5498 48.3021 53.5277 48.3041 53.5011 48.3041C53.4606 48.3041 53.421 48.2954 53.3822 48.278C53.3438 48.2607 53.3119 48.2342 53.2864 48.1986C53.2613 48.163 53.2488 48.1182 53.2488 48.064V47.1374Z" fill="#4F4F4F"/>
    <path d="M56.5351 47.05V48.292H56.3896L55.7128 47.3169H55.7007V48.292H55.5503V47.05H55.6958L56.375 48.0276H56.3872V47.05H56.5351ZM57.1951 48.3114C57.111 48.3114 57.0372 48.2914 56.9737 48.2514C56.9107 48.2113 56.8613 48.1553 56.8258 48.0834C56.7906 48.0114 56.773 47.9273 56.773 47.8311C56.773 47.7341 56.7906 47.6494 56.8258 47.577C56.8613 47.5047 56.9107 47.4485 56.9737 47.4084C57.0372 47.3684 57.111 47.3484 57.1951 47.3484C57.2792 47.3484 57.3527 47.3684 57.4158 47.4084C57.4793 47.4485 57.5286 47.5047 57.5638 47.577C57.5994 47.6494 57.6171 47.7341 57.6171 47.8311C57.6171 47.9273 57.5994 48.0114 57.5638 48.0834C57.5286 48.1553 57.4793 48.2113 57.4158 48.2514C57.3527 48.2914 57.2792 48.3114 57.1951 48.3114ZM57.1951 48.1828C57.2589 48.1828 57.3115 48.1665 57.3527 48.1337C57.394 48.101 57.4245 48.0579 57.4443 48.0045C57.4641 47.9512 57.474 47.8934 57.474 47.8311C57.474 47.7688 57.4641 47.7108 57.4443 47.6571C57.4245 47.6033 57.394 47.5598 57.3527 47.5267C57.3115 47.4935 57.2589 47.477 57.1951 47.477C57.1312 47.477 57.0786 47.4935 57.0374 47.5267C56.9962 47.5598 56.9656 47.6033 56.9458 47.6571C56.926 47.7108 56.9161 47.7688 56.9161 47.8311C56.9161 47.8934 56.926 47.9512 56.9458 48.0045C56.9656 48.0579 56.9962 48.101 57.0374 48.1337C57.0786 48.1665 57.1312 48.1828 57.1951 48.1828ZM58.5639 47.3605L58.2195 48.292H58.0739L57.7295 47.3605H57.8847L58.1419 48.1028H58.1516L58.4087 47.3605H58.5639Z" fill="#4F4F4F"/>
    <path d="M60.5337 48.292H60.1504V47.05H60.5506C60.6711 47.05 60.7742 47.0749 60.8599 47.1246C60.9456 47.1739 61.0113 47.2449 61.057 47.3375C61.1027 47.4297 61.1255 47.54 61.1255 47.6686C61.1255 47.798 61.1025 47.9093 61.0564 48.0027C61.0103 48.0957 60.9432 48.1673 60.8551 48.2174C60.7669 48.2671 60.6598 48.292 60.5337 48.292ZM60.3008 48.1586H60.524C60.6266 48.1586 60.7117 48.1388 60.7793 48.0991C60.8468 48.0595 60.8971 48.0031 60.9303 47.93C60.9634 47.8568 60.98 47.7697 60.98 47.6686C60.98 47.5683 60.9636 47.482 60.9309 47.4096C60.8981 47.3369 60.8492 47.2811 60.7841 47.2423C60.719 47.2031 60.638 47.1834 60.5409 47.1834H60.3008V48.1586ZM61.7489 48.3114C61.6592 48.3114 61.5818 48.2916 61.5167 48.252C61.452 48.2119 61.4021 48.1562 61.3669 48.0846C61.3321 48.0126 61.3147 47.9289 61.3147 47.8335C61.3147 47.7381 61.3321 47.654 61.3669 47.5813C61.4021 47.5081 61.451 47.4511 61.5136 47.4103C61.5767 47.369 61.6503 47.3484 61.7344 47.3484C61.7829 47.3484 61.8308 47.3565 61.8781 47.3727C61.9254 47.3888 61.9685 47.4151 62.0073 47.4515C62.0461 47.4875 62.077 47.5352 62.1 47.5946C62.1231 47.654 62.1346 47.7272 62.1346 47.8141V47.8748H61.4166V47.7511H61.9891C61.9891 47.6985 61.9786 47.6516 61.9575 47.6104C61.9369 47.5691 61.9074 47.5366 61.869 47.5127C61.831 47.4889 61.7861 47.477 61.7344 47.477C61.6774 47.477 61.628 47.4911 61.5864 47.5194C61.5452 47.5473 61.5134 47.5837 61.4912 47.6286C61.469 47.6734 61.4578 47.7215 61.4578 47.7729V47.8554C61.4578 47.9257 61.47 47.9853 61.4942 48.0343C61.5189 48.0828 61.5531 48.1198 61.5967 48.1452C61.6404 48.1703 61.6911 48.1828 61.7489 48.1828C61.7865 48.1828 61.8205 48.1776 61.8508 48.1671C61.8815 48.1562 61.908 48.14 61.9303 48.1186C61.9525 48.0967 61.9697 48.0696 61.9818 48.0373L62.1201 48.0761C62.1055 48.123 62.081 48.1642 62.0467 48.1998C62.0123 48.235 61.9699 48.2625 61.9193 48.2823C61.8688 48.3017 61.812 48.3114 61.7489 48.3114ZM62.7307 48.3114C62.6434 48.3114 62.5682 48.2908 62.5051 48.2495C62.4421 48.2083 62.3936 48.1515 62.3596 48.0791C62.3256 48.0068 62.3087 47.9241 62.3087 47.8311C62.3087 47.7365 62.326 47.653 62.3608 47.5807C62.396 47.5079 62.4449 47.4511 62.5076 47.4103C62.5706 47.369 62.6442 47.3484 62.7283 47.3484C62.7938 47.3484 62.8528 47.3605 62.9054 47.3848C62.9579 47.409 63.001 47.443 63.0345 47.4867C63.0681 47.5303 63.0889 47.5813 63.097 47.6395H62.9539C62.943 47.597 62.9187 47.5594 62.8811 47.5267C62.8439 47.4935 62.7938 47.477 62.7307 47.477C62.6749 47.477 62.626 47.4915 62.584 47.5206C62.5423 47.5493 62.5098 47.59 62.4863 47.6425C62.4633 47.6947 62.4518 47.7559 62.4518 47.8263C62.4518 47.8982 62.4631 47.9609 62.4857 48.0142C62.5088 48.0676 62.5411 48.1091 62.5828 48.1386C62.6248 48.1681 62.6741 48.1828 62.7307 48.1828C62.7679 48.1828 62.8017 48.1764 62.832 48.1634C62.8623 48.1505 62.888 48.1319 62.909 48.1076C62.93 48.0834 62.945 48.0543 62.9539 48.0203H63.097C63.0889 48.0753 63.0689 48.1248 63.037 48.1689C63.0054 48.2126 62.9636 48.2473 62.9114 48.2732C62.8597 48.2987 62.7995 48.3114 62.7307 48.3114Z" fill="#4F4F4F"/>
    <path d="M7.86635 46.1918C7.77498 46.1918 7.69715 46.1669 7.63287 46.1172C7.56859 46.0671 7.51947 45.9945 7.48551 45.8995C7.45155 45.8041 7.43457 45.6889 7.43457 45.5538C7.43457 45.4196 7.45155 45.305 7.48551 45.21C7.51988 45.1146 7.5692 45.0418 7.63348 44.9917C7.69816 44.9411 7.77579 44.9159 7.86635 44.9159C7.95691 44.9159 8.03433 44.9411 8.09861 44.9917C8.16329 45.0418 8.21261 45.1146 8.24657 45.21C8.28094 45.305 8.29812 45.4196 8.29812 45.5538C8.29812 45.6889 8.28114 45.8041 8.24718 45.8995C8.21322 45.9945 8.1641 46.0671 8.09982 46.1172C8.03554 46.1669 7.95771 46.1918 7.86635 46.1918ZM7.86635 46.0584C7.95691 46.0584 8.02725 46.0147 8.07738 45.9274C8.12751 45.8401 8.15258 45.7155 8.15258 45.5538C8.15258 45.4463 8.14106 45.3547 8.11801 45.2791C8.09537 45.2035 8.06263 45.1459 8.01977 45.1063C7.97732 45.0667 7.92618 45.0469 7.86635 45.0469C7.7766 45.0469 7.70645 45.0911 7.65592 45.1797C7.60538 45.2678 7.58011 45.3925 7.58011 45.5538C7.58011 45.6614 7.59143 45.7527 7.61407 45.8279C7.63671 45.9031 7.66926 45.9603 7.71171 45.9995C7.75456 46.0388 7.80611 46.0584 7.86635 46.0584Z" fill="#4F4F4F"/>
    <path d="M5.70156 41.9065V43.1484H5.55117V42.0641H5.54389L5.24068 42.2655V42.1127L5.55117 41.9065H5.70156ZM6.0921 43.1581C6.06218 43.1581 6.03651 43.1474 6.01508 43.126C5.99366 43.1046 5.98294 43.0789 5.98294 43.049C5.98294 43.0191 5.99366 42.9934 6.01508 42.972C6.03651 42.9505 6.06218 42.9398 6.0921 42.9398C6.12202 42.9398 6.14769 42.9505 6.16911 42.972C6.19054 42.9934 6.20125 43.0191 6.20125 43.049C6.20125 43.0688 6.1962 43.087 6.18609 43.1036C6.17639 43.1201 6.16325 43.1335 6.14668 43.1436C6.13051 43.1533 6.11231 43.1581 6.0921 43.1581ZM6.45565 43.1484V43.0393L6.86559 42.5905C6.9137 42.538 6.95332 42.4923 6.98445 42.4535C7.01558 42.4143 7.03863 42.3775 7.05358 42.3431C7.06895 42.3083 7.07663 42.272 7.07663 42.2339C7.07663 42.1903 7.06612 42.1525 7.04509 42.1205C7.02448 42.0886 6.99618 42.0639 6.9602 42.0466C6.92421 42.0292 6.88379 42.0205 6.83891 42.0205C6.79121 42.0205 6.74956 42.0304 6.71399 42.0502C6.67881 42.0696 6.65153 42.0969 6.63212 42.1321C6.61312 42.1672 6.60362 42.2085 6.60362 42.2558H6.4605C6.4605 42.183 6.47728 42.1191 6.51083 42.0641C6.54439 42.0092 6.59007 41.9663 6.64789 41.9356C6.7061 41.9049 6.7714 41.8895 6.84376 41.8895C6.91653 41.8895 6.98102 41.9049 7.03721 41.9356C7.09341 41.9663 7.13747 42.0078 7.16941 42.0599C7.20135 42.1121 7.21732 42.1701 7.21732 42.2339C7.21732 42.2796 7.20903 42.3243 7.19246 42.368C7.17628 42.4112 7.14799 42.4595 7.10756 42.5129C7.06753 42.5659 7.01194 42.6306 6.94079 42.707L6.66183 43.0053V43.015H7.23915V43.1484H6.45565ZM7.87772 43.1654C7.80656 43.1654 7.74248 43.1513 7.68548 43.123C7.62848 43.0947 7.58279 43.0559 7.54843 43.0065C7.51406 42.9572 7.49526 42.901 7.49203 42.8379H7.63757C7.64323 42.8941 7.6687 42.9406 7.71398 42.9774C7.75967 43.0138 7.81424 43.032 7.87772 43.032C7.92866 43.032 7.97394 43.0201 8.01356 42.9962C8.05358 42.9724 8.08491 42.9396 8.10755 42.898C8.1306 42.8559 8.14212 42.8084 8.14212 42.7555C8.14212 42.7013 8.13019 42.653 8.10634 42.6105C8.08289 42.5677 8.05055 42.5339 8.00931 42.5093C7.96807 42.4846 7.92097 42.4721 7.86801 42.4717C7.83001 42.4713 7.791 42.4771 7.75097 42.4893C7.71095 42.501 7.678 42.5161 7.65213 42.5347L7.51144 42.5178L7.58663 41.9065H8.23187V42.0399H7.71277L7.66911 42.4062H7.67638C7.70185 42.386 7.73379 42.3692 7.7722 42.3558C7.8106 42.3425 7.85063 42.3358 7.89227 42.3358C7.96828 42.3358 8.03599 42.354 8.09542 42.3904C8.15526 42.4264 8.20215 42.4757 8.23611 42.5384C8.27048 42.601 8.28766 42.6726 8.28766 42.753C8.28766 42.8323 8.26987 42.903 8.23429 42.9653C8.19912 43.0272 8.15061 43.0761 8.08875 43.1121C8.0269 43.1476 7.95655 43.1654 7.87772 43.1654Z" fill="#4F4F4F"/>
    <path d="M6.01038 39.9717V39.8625L6.42033 39.4138C6.46844 39.3612 6.50806 39.3155 6.53918 39.2767C6.57031 39.2375 6.59336 39.2007 6.60832 39.1663C6.62368 39.1316 6.63136 39.0952 6.63136 39.0572C6.63136 39.0135 6.62085 38.9757 6.59983 38.9438C6.57921 38.9119 6.55091 38.8872 6.51493 38.8698C6.47895 38.8524 6.43852 38.8437 6.39364 38.8437C6.34594 38.8437 6.3043 38.8536 6.26872 38.8734C6.23355 38.8928 6.20626 38.9201 6.18685 38.9553C6.16785 38.9905 6.15835 39.0317 6.15835 39.079H6.01523C6.01523 39.0063 6.03201 38.9424 6.06557 38.8874C6.09912 38.8324 6.14481 38.7896 6.20262 38.7588C6.26084 38.7281 6.32613 38.7127 6.39849 38.7127C6.47127 38.7127 6.53575 38.7281 6.59194 38.7588C6.64814 38.7896 6.69221 38.831 6.72414 38.8831C6.75608 38.9353 6.77205 38.9933 6.77205 39.0572C6.77205 39.1029 6.76376 39.1475 6.74719 39.1912C6.73102 39.2345 6.70272 39.2828 6.66229 39.3361C6.62227 39.3891 6.56668 39.4538 6.49552 39.5302L6.21657 39.8286V39.8383H6.79388V39.9717H6.01038ZM7.15107 39.9814C7.12115 39.9814 7.09548 39.9707 7.07405 39.9492C7.05262 39.9278 7.04191 39.9021 7.04191 39.8722C7.04191 39.8423 7.05262 39.8166 7.07405 39.7952C7.09548 39.7738 7.12115 39.7631 7.15107 39.7631C7.18098 39.7631 7.20666 39.7738 7.22808 39.7952C7.24951 39.8166 7.26022 39.8423 7.26022 39.8722C7.26022 39.892 7.25517 39.9102 7.24506 39.9268C7.23536 39.9434 7.22222 39.9567 7.20565 39.9668C7.18947 39.9765 7.17128 39.9814 7.15107 39.9814ZM7.87772 39.9887C7.80656 39.9887 7.74248 39.9745 7.68548 39.9462C7.62848 39.9179 7.58279 39.8791 7.54843 39.8298C7.51406 39.7805 7.49526 39.7243 7.49203 39.6612H7.63757C7.64323 39.7174 7.6687 39.7639 7.71398 39.8007C7.75967 39.8371 7.81424 39.8552 7.87772 39.8552C7.92866 39.8552 7.97394 39.8433 8.01356 39.8195C8.05358 39.7956 8.08491 39.7629 8.10755 39.7212C8.1306 39.6792 8.14212 39.6317 8.14212 39.5787C8.14212 39.5245 8.13019 39.4762 8.10634 39.4338C8.08289 39.3909 8.05055 39.3572 8.00931 39.3325C7.96807 39.3078 7.92097 39.2953 7.86801 39.2949C7.83001 39.2945 7.791 39.3004 7.75097 39.3125C7.71095 39.3242 7.678 39.3394 7.65213 39.358L7.51144 39.341L7.58663 38.7297H8.23187V38.8631H7.71277L7.66911 39.2294H7.67638C7.70185 39.2092 7.73379 39.1924 7.7722 39.1791C7.8106 39.1657 7.85063 39.1591 7.89227 39.1591C7.96828 39.1591 8.03599 39.1773 8.09542 39.2136C8.15526 39.2496 8.20215 39.299 8.23611 39.3616C8.27048 39.4243 8.28766 39.4958 8.28766 39.5763C8.28766 39.6555 8.26987 39.7263 8.23429 39.7885C8.19912 39.8504 8.15061 39.8993 8.08875 39.9353C8.0269 39.9709 7.95655 39.9887 7.87772 39.9887Z" fill="#4F4F4F"/>
    <path d="M5.45611 36.8119C5.37606 36.8119 5.30471 36.7982 5.24204 36.7707C5.17978 36.7432 5.13026 36.705 5.09347 36.6561C5.05708 36.6067 5.03727 36.5495 5.03404 36.4844H5.18686C5.19009 36.5245 5.20384 36.559 5.22809 36.5881C5.25235 36.6168 5.28409 36.6391 5.3233 36.6548C5.36252 36.6706 5.40598 36.6785 5.45368 36.6785C5.50705 36.6785 5.55435 36.6692 5.59559 36.6506C5.63682 36.632 5.66917 36.6061 5.69262 36.573C5.71606 36.5398 5.72779 36.5014 5.72779 36.4577C5.72779 36.4121 5.71647 36.3718 5.69383 36.3371C5.67119 36.3019 5.63804 36.2744 5.59438 36.2546C5.55071 36.2348 5.49735 36.2249 5.43428 36.2249H5.33483V36.0915H5.43428C5.4836 36.0915 5.52686 36.0826 5.56405 36.0648C5.60165 36.047 5.63096 36.0219 5.65199 35.9896C5.67341 35.9572 5.68413 35.9192 5.68413 35.8756C5.68413 35.8335 5.67483 35.7969 5.65623 35.7658C5.63763 35.7347 5.61136 35.7104 5.5774 35.693C5.54384 35.6757 5.50422 35.667 5.45854 35.667C5.41568 35.667 5.37525 35.6749 5.33725 35.6906C5.29965 35.706 5.26893 35.7284 5.24507 35.7579C5.22122 35.787 5.20828 35.8222 5.20626 35.8635H5.06072C5.06315 35.7984 5.08275 35.7414 5.11954 35.6924C5.15633 35.6431 5.20444 35.6047 5.26387 35.5772C5.32371 35.5497 5.3894 35.536 5.46096 35.536C5.53778 35.536 5.60367 35.5515 5.65866 35.5827C5.71364 35.6134 5.75589 35.654 5.7854 35.7046C5.81491 35.7551 5.82967 35.8097 5.82967 35.8683C5.82967 35.9382 5.81127 35.9979 5.77448 36.0472C5.7381 36.0965 5.68857 36.1307 5.62591 36.1497V36.1594C5.70434 36.1723 5.76559 36.2057 5.80966 36.2594C5.85372 36.3128 5.87576 36.3789 5.87576 36.4577C5.87576 36.5253 5.85736 36.5859 5.82057 36.6397C5.78419 36.693 5.73446 36.7351 5.67139 36.7658C5.60832 36.7965 5.53656 36.8119 5.45611 36.8119ZM6.19216 36.8046C6.16224 36.8046 6.13657 36.7939 6.11514 36.7725C6.09372 36.7511 6.083 36.7254 6.083 36.6955C6.083 36.6656 6.09372 36.6399 6.11514 36.6185C6.13657 36.597 6.16224 36.5863 6.19216 36.5863C6.22208 36.5863 6.24775 36.597 6.26917 36.6185C6.2906 36.6399 6.30132 36.6656 6.30132 36.6955C6.30132 36.7153 6.29626 36.7335 6.28615 36.75C6.27645 36.7666 6.26331 36.78 6.24674 36.7901C6.23057 36.7998 6.21237 36.8046 6.19216 36.8046ZM6.56951 36.7949L7.12499 35.6961V35.6864H6.48461V35.553H7.28024V35.6937L6.72718 36.7949H6.56951ZM7.87772 36.8119C7.80656 36.8119 7.74248 36.7978 7.68548 36.7695C7.62848 36.7412 7.58279 36.7023 7.54843 36.653C7.51406 36.6037 7.49526 36.5475 7.49203 36.4844H7.63757C7.64323 36.5406 7.6687 36.5871 7.71398 36.6239C7.75967 36.6603 7.81424 36.6785 7.87772 36.6785C7.92866 36.6785 7.97394 36.6666 8.01356 36.6427C8.05358 36.6189 8.08491 36.5861 8.10755 36.5445C8.1306 36.5024 8.14212 36.4549 8.14212 36.402C8.14212 36.3478 8.13019 36.2995 8.10634 36.257C8.08289 36.2142 8.05055 36.1804 8.00931 36.1558C7.96807 36.1311 7.92097 36.1186 7.86801 36.1182C7.83001 36.1177 7.791 36.1236 7.75097 36.1357C7.71095 36.1475 7.678 36.1626 7.65213 36.1812L7.51144 36.1642L7.58663 35.553H8.23187V35.6864H7.71277L7.66911 36.0527H7.67638C7.70185 36.0324 7.73379 36.0157 7.7722 36.0023C7.81061 35.989 7.85063 35.9823 7.89227 35.9823C7.96828 35.9823 8.03599 36.0005 8.09542 36.0369C8.15526 36.0729 8.20215 36.1222 8.23611 36.1849C8.27048 36.2475 8.28766 36.3191 8.28766 36.3995C8.28766 36.4788 8.26987 36.5495 8.23429 36.6118C8.19912 36.6736 8.15061 36.7226 8.08875 36.7585C8.0269 36.7941 7.95655 36.8119 7.87772 36.8119Z" fill="#4F4F4F"/>
    <path d="M7.87772 33.6351C7.80656 33.6351 7.74248 33.621 7.68548 33.5927C7.62848 33.5644 7.58279 33.5256 7.54843 33.4763C7.51406 33.4269 7.49526 33.3707 7.49203 33.3077H7.63757C7.64323 33.3639 7.6687 33.4104 7.71398 33.4472C7.75967 33.4835 7.81424 33.5017 7.87772 33.5017C7.92866 33.5017 7.97394 33.4898 8.01356 33.466C8.05358 33.4421 8.08491 33.4094 8.10755 33.3677C8.1306 33.3257 8.14212 33.2782 8.14212 33.2252C8.14212 33.171 8.13019 33.1227 8.10634 33.0803C8.08289 33.0374 8.05055 33.0037 8.00931 32.979C7.96807 32.9543 7.92097 32.9418 7.86801 32.9414C7.83001 32.941 7.791 32.9469 7.75097 32.959C7.71095 32.9707 7.678 32.9859 7.65213 33.0045L7.51144 32.9875L7.58663 32.3762H8.23187V32.5096H7.71277L7.66911 32.8759H7.67638C7.70185 32.8557 7.73379 32.8389 7.7722 32.8256C7.8106 32.8122 7.85063 32.8056 7.89227 32.8056C7.96828 32.8056 8.03599 32.8237 8.09542 32.8601C8.15526 32.8961 8.20215 32.9454 8.23611 33.0081C8.27048 33.0708 8.28766 33.1423 8.28766 33.2228C8.28766 33.302 8.26987 33.3728 8.23429 33.435C8.19912 33.4969 8.15061 33.5458 8.08875 33.5818C8.0269 33.6174 7.95655 33.6351 7.87772 33.6351Z" fill="#4F4F4F"/>
    <path d="M5.39046 30.4584C5.33953 30.4576 5.28859 30.4479 5.23765 30.4293C5.18671 30.4107 5.14021 30.3793 5.09817 30.3353C5.05612 30.2908 5.02236 30.2308 4.9969 30.1552C4.97143 30.0792 4.95869 29.9838 4.95869 29.8689C4.95869 29.759 4.969 29.6615 4.98962 29.5766C5.01024 29.4913 5.04015 29.4196 5.07937 29.3614C5.11858 29.3027 5.16589 29.2583 5.22127 29.228C5.27706 29.1976 5.33993 29.1825 5.40987 29.1825C5.47941 29.1825 5.54126 29.1964 5.59544 29.2243C5.65001 29.2518 5.69449 29.2902 5.72885 29.3395C5.76321 29.3889 5.78545 29.4457 5.79556 29.5099H5.64759C5.63384 29.4541 5.60716 29.4079 5.56754 29.3711C5.52792 29.3343 5.47536 29.3159 5.40987 29.3159C5.31365 29.3159 5.23785 29.3577 5.18246 29.4414C5.12748 29.5251 5.09979 29.6425 5.09938 29.7937H5.10908C5.13172 29.7594 5.15861 29.7301 5.18974 29.7058C5.22127 29.6812 5.25604 29.6622 5.29404 29.6488C5.33205 29.6355 5.37227 29.6288 5.41472 29.6288C5.48588 29.6288 5.55097 29.6466 5.60999 29.6822C5.66902 29.7173 5.71632 29.7661 5.75189 29.8283C5.78747 29.8902 5.80526 29.9611 5.80526 30.0412C5.80526 30.118 5.78808 30.1883 5.75371 30.2522C5.71935 30.3157 5.67104 30.3662 5.60878 30.4038C5.54692 30.441 5.47415 30.4592 5.39046 30.4584ZM5.39046 30.325C5.4414 30.325 5.48709 30.3122 5.52752 30.2868C5.56835 30.2613 5.60049 30.2271 5.62394 30.1843C5.64779 30.1414 5.65972 30.0937 5.65972 30.0412C5.65972 29.9898 5.6482 29.9431 5.62515 29.9011C5.60251 29.8586 5.57118 29.8249 5.53116 29.7998C5.49154 29.7747 5.44626 29.7622 5.39532 29.7622C5.35691 29.7622 5.32113 29.7699 5.28798 29.7853C5.25483 29.8002 5.22572 29.8208 5.20065 29.8471C5.17599 29.8734 5.15659 29.9035 5.14244 29.9375C5.12829 29.971 5.12121 30.0064 5.12121 30.0436C5.12121 30.0929 5.13273 30.139 5.15578 30.1819C5.17923 30.2247 5.21117 30.2593 5.25159 30.2856C5.29243 30.3118 5.33872 30.325 5.39046 30.325ZM6.0921 30.4511C6.06218 30.4511 6.03651 30.4404 6.01508 30.419C5.99366 30.3975 5.98294 30.3719 5.98294 30.342C5.98294 30.312 5.99366 30.2864 6.01508 30.2649C6.03651 30.2435 6.06218 30.2328 6.0921 30.2328C6.12202 30.2328 6.14769 30.2435 6.16911 30.2649C6.19054 30.2864 6.20125 30.312 6.20125 30.342C6.20125 30.3618 6.1962 30.38 6.18609 30.3965C6.17639 30.4131 6.16325 30.4264 6.14668 30.4366C6.13051 30.4463 6.11231 30.4511 6.0921 30.4511ZM6.45565 30.4414V30.3322L6.86559 29.8835C6.9137 29.8309 6.95332 29.7853 6.98445 29.7464C7.01558 29.7072 7.03863 29.6704 7.05358 29.6361C7.06895 29.6013 7.07663 29.5649 7.07663 29.5269C7.07663 29.4833 7.06612 29.4455 7.04509 29.4135C7.02448 29.3816 6.99618 29.3569 6.9602 29.3395C6.92421 29.3221 6.88379 29.3135 6.83891 29.3135C6.79121 29.3135 6.74956 29.3234 6.71399 29.3432C6.67881 29.3626 6.65153 29.3899 6.63212 29.425C6.61312 29.4602 6.60362 29.5014 6.60362 29.5487H6.4605C6.4605 29.476 6.47728 29.4121 6.51083 29.3571C6.54439 29.3021 6.59007 29.2593 6.64789 29.2286C6.7061 29.1978 6.7714 29.1825 6.84376 29.1825C6.91653 29.1825 6.98102 29.1978 7.03721 29.2286C7.09341 29.2593 7.13747 29.3007 7.16941 29.3529C7.20135 29.405 7.21732 29.463 7.21732 29.5269C7.21732 29.5726 7.20903 29.6173 7.19246 29.6609C7.17628 29.7042 7.14799 29.7525 7.10756 29.8059C7.06753 29.8588 7.01194 29.9235 6.94079 29.9999L6.66183 30.2983V30.308H7.23915V30.4414H6.45565ZM7.87772 30.4584C7.80656 30.4584 7.74248 30.4442 7.68548 30.4159C7.62848 30.3876 7.58279 30.3488 7.54843 30.2995C7.51406 30.2502 7.49526 30.194 7.49203 30.1309H7.63757C7.64323 30.1871 7.6687 30.2336 7.71398 30.2704C7.75967 30.3068 7.81424 30.325 7.87772 30.325C7.92866 30.325 7.97394 30.313 8.01356 30.2892C8.05358 30.2653 8.08491 30.2326 8.10755 30.191C8.1306 30.1489 8.14212 30.1014 8.14212 30.0484C8.14212 29.9943 8.13019 29.946 8.10634 29.9035C8.08289 29.8607 8.05055 29.8269 8.00931 29.8022C7.96807 29.7776 7.92097 29.765 7.86801 29.7646C7.83001 29.7642 7.791 29.7701 7.75097 29.7822C7.71095 29.7939 7.678 29.8091 7.65213 29.8277L7.51144 29.8107L7.58663 29.1994H8.23187V29.3329H7.71277L7.66911 29.6991H7.67638C7.70185 29.6789 7.73379 29.6622 7.7722 29.6488C7.8106 29.6355 7.85063 29.6288 7.89227 29.6288C7.96828 29.6288 8.03599 29.647 8.09542 29.6834C8.15526 29.7194 8.20215 29.7687 8.23611 29.8313C8.27048 29.894 8.28766 29.9656 8.28766 30.046C8.28766 30.1253 8.26987 30.196 8.23429 30.2583C8.19912 30.3201 8.15061 30.369 8.08875 30.405C8.0269 30.4406 7.95655 30.4584 7.87772 30.4584Z" fill="#4F4F4F"/>
    <path d="M6.32102 27.415L6.87651 26.3162V26.3065H6.23612V26.1731H7.03175V26.3138L6.47869 27.415H6.32102ZM7.15107 27.4247C7.12115 27.4247 7.09548 27.414 7.07405 27.3926C7.05262 27.3712 7.04191 27.3455 7.04191 27.3156C7.04191 27.2857 7.05262 27.26 7.07405 27.2386C7.09548 27.2171 7.12115 27.2064 7.15107 27.2064C7.18098 27.2064 7.20666 27.2171 7.22808 27.2386C7.24951 27.26 7.26022 27.2857 7.26022 27.3156C7.26022 27.3354 7.25517 27.3536 7.24506 27.3702C7.23536 27.3867 7.22222 27.4001 7.20565 27.4102C7.18947 27.4199 7.17128 27.4247 7.15107 27.4247ZM7.87772 27.432C7.80656 27.432 7.74248 27.4179 7.68548 27.3896C7.62848 27.3613 7.58279 27.3225 7.54843 27.2731C7.51406 27.2238 7.49526 27.1676 7.49203 27.1045H7.63757C7.64323 27.1607 7.6687 27.2072 7.71398 27.244C7.75967 27.2804 7.81424 27.2986 7.87772 27.2986C7.92866 27.2986 7.97394 27.2867 8.01356 27.2628C8.05358 27.239 8.08491 27.2062 8.10755 27.1646C8.1306 27.1225 8.14212 27.075 8.14212 27.0221C8.14212 26.9679 8.13019 26.9196 8.10634 26.8771C8.08289 26.8343 8.05055 26.8005 8.00931 26.7759C7.96807 26.7512 7.92097 26.7387 7.86801 26.7383C7.83001 26.7379 7.791 26.7437 7.75097 26.7559C7.71095 26.7676 7.678 26.7827 7.65213 26.8013L7.51144 26.7844L7.58663 26.1731H8.23187V26.3065H7.71277L7.66911 26.6728H7.67638C7.70185 26.6526 7.73379 26.6358 7.7722 26.6224C7.8106 26.6091 7.85063 26.6024 7.89227 26.6024C7.96828 26.6024 8.03599 26.6206 8.09542 26.657C8.15526 26.693 8.20215 26.7423 8.23611 26.805C8.27048 26.8676 8.28766 26.9392 8.28766 27.0197C8.28766 27.0989 8.26987 27.1696 8.23429 27.2319C8.19912 27.2938 8.15061 27.3427 8.08875 27.3787C8.0269 27.4142 7.95655 27.432 7.87772 27.432Z" fill="#4F4F4F"/>
    <path d="M5.4693 24.2553C5.38602 24.2553 5.31244 24.2405 5.24856 24.211C5.18509 24.1811 5.13556 24.14 5.09999 24.0879C5.06441 24.0353 5.04682 23.9755 5.04723 23.9084C5.04682 23.8558 5.05713 23.8073 5.07816 23.7628C5.09918 23.718 5.12788 23.6806 5.16427 23.6507C5.20106 23.6203 5.24209 23.6011 5.28737 23.593V23.5858C5.22794 23.5704 5.18064 23.5371 5.14547 23.4857C5.1103 23.434 5.09291 23.3751 5.09332 23.3092C5.09291 23.2462 5.10888 23.1898 5.14122 23.14C5.17357 23.0903 5.21804 23.0511 5.27464 23.0224C5.33164 22.9937 5.39653 22.9793 5.4693 22.9793C5.54126 22.9793 5.60554 22.9937 5.66214 23.0224C5.71874 23.0511 5.76321 23.0903 5.79556 23.14C5.8283 23.1898 5.84488 23.2462 5.84528 23.3092C5.84488 23.3751 5.82689 23.434 5.79131 23.4857C5.75614 23.5371 5.70944 23.5704 5.65123 23.5858V23.593C5.6961 23.6011 5.73653 23.6203 5.77251 23.6507C5.80849 23.6806 5.8372 23.718 5.85862 23.7628C5.88005 23.8073 5.89097 23.8558 5.89137 23.9084C5.89097 23.9755 5.87277 24.0353 5.83679 24.0879C5.80122 24.14 5.75169 24.1811 5.68822 24.211C5.62515 24.2405 5.55218 24.2553 5.4693 24.2553ZM5.4693 24.1218C5.5255 24.1218 5.57401 24.1128 5.61484 24.0946C5.65567 24.0764 5.68721 24.0507 5.70944 24.0175C5.73168 23.9844 5.743 23.9456 5.7434 23.9011C5.743 23.8542 5.73087 23.8128 5.70702 23.7768C5.68317 23.7408 5.65062 23.7125 5.60938 23.6919C5.56855 23.6713 5.52186 23.661 5.4693 23.661C5.41634 23.661 5.36904 23.6713 5.3274 23.6919C5.28616 23.7125 5.25361 23.7408 5.22976 23.7768C5.20631 23.8128 5.19479 23.8542 5.1952 23.9011C5.19479 23.9456 5.20551 23.9844 5.22734 24.0175C5.24957 24.0507 5.28131 24.0764 5.32255 24.0946C5.36378 24.1128 5.4127 24.1218 5.4693 24.1218ZM5.4693 23.5324C5.51377 23.5324 5.55319 23.5235 5.58755 23.5057C5.62232 23.4879 5.64961 23.4631 5.66942 23.4311C5.68923 23.3992 5.69934 23.3618 5.69974 23.3189C5.69934 23.2769 5.68943 23.2403 5.67003 23.2092C5.65062 23.1776 5.62374 23.1534 5.58937 23.1364C5.55501 23.119 5.51498 23.1103 5.4693 23.1103C5.42281 23.1103 5.38218 23.119 5.34741 23.1364C5.31264 23.1534 5.28576 23.1776 5.26675 23.2092C5.24775 23.2403 5.23845 23.2769 5.23886 23.3189C5.23845 23.3618 5.24795 23.3992 5.26736 23.4311C5.28717 23.4631 5.31446 23.4879 5.34923 23.5057C5.384 23.5235 5.42402 23.5324 5.4693 23.5324ZM6.19216 24.248C6.16224 24.248 6.13657 24.2373 6.11514 24.2158C6.09372 24.1944 6.083 24.1687 6.083 24.1388C6.083 24.1089 6.09372 24.0832 6.11514 24.0618C6.13657 24.0404 6.16224 24.0297 6.19216 24.0297C6.22208 24.0297 6.24775 24.0404 6.26917 24.0618C6.2906 24.0832 6.30131 24.1089 6.30131 24.1388C6.30131 24.1586 6.29626 24.1768 6.28615 24.1934C6.27645 24.21 6.26331 24.2233 6.24674 24.2334C6.23057 24.2431 6.21237 24.248 6.19216 24.248ZM6.56951 24.2383L7.12499 23.1394V23.1297H6.48461V22.9963H7.28024V23.137L6.72718 24.2383H6.56951ZM7.87772 24.2553C7.80656 24.2553 7.74248 24.2411 7.68548 24.2128C7.62848 24.1845 7.58279 24.1457 7.54843 24.0964C7.51406 24.0471 7.49526 23.9909 7.49203 23.9278H7.63757C7.64323 23.984 7.6687 24.0305 7.71398 24.0673C7.75967 24.1037 7.81424 24.1218 7.87772 24.1218C7.92866 24.1218 7.97394 24.1099 8.01356 24.0861C8.05358 24.0622 8.08491 24.0295 8.10755 23.9878C8.1306 23.9458 8.14212 23.8983 8.14212 23.8453C8.14212 23.7911 8.13019 23.7428 8.10634 23.7004C8.08289 23.6575 8.05055 23.6238 8.00931 23.5991C7.96807 23.5744 7.92097 23.5619 7.86801 23.5615C7.83001 23.5611 7.791 23.567 7.75097 23.5791C7.71095 23.5908 7.678 23.606 7.65213 23.6246L7.51144 23.6076L7.58663 22.9963H8.23187V23.1297H7.71277L7.66911 23.496H7.67638C7.70185 23.4758 7.73379 23.459 7.7722 23.4457C7.8106 23.4323 7.85063 23.4257 7.89227 23.4257C7.96828 23.4257 8.03599 23.4439 8.09542 23.4803C8.15526 23.5162 8.20215 23.5656 8.23611 23.6282C8.27048 23.6909 8.28766 23.7624 8.28766 23.8429C8.28766 23.9221 8.26987 23.9929 8.23429 24.0551C8.19912 24.117 8.15061 24.1659 8.08875 24.2019C8.0269 24.2375 7.95655 24.2553 7.87772 24.2553Z" fill="#4F4F4F"/>
    <path d="M7.10407 19.8196V21.0615H6.95368V19.9772H6.9464L6.64319 20.1786V20.0257L6.95368 19.8196H7.10407ZM7.86635 21.0785C7.77498 21.0785 7.69715 21.0536 7.63287 21.0039C7.56859 20.9538 7.51947 20.8812 7.48551 20.7862C7.45155 20.6908 7.43457 20.5756 7.43457 20.4405C7.43457 20.3063 7.45155 20.1917 7.48551 20.0967C7.51988 20.0013 7.5692 19.9285 7.63348 19.8784C7.69816 19.8279 7.77579 19.8026 7.86635 19.8026C7.95691 19.8026 8.03433 19.8279 8.09861 19.8784C8.16329 19.9285 8.21261 20.0013 8.24657 20.0967C8.28094 20.1917 8.29812 20.3063 8.29812 20.4405C8.29812 20.5756 8.28114 20.6908 8.24718 20.7862C8.21322 20.8812 8.1641 20.9538 8.09982 21.0039C8.03554 21.0536 7.95771 21.0785 7.86635 21.0785ZM7.86635 20.9451C7.95691 20.9451 8.02725 20.9014 8.07738 20.8141C8.12751 20.7268 8.15258 20.6023 8.15258 20.4405C8.15258 20.333 8.14106 20.2414 8.11801 20.1658C8.09537 20.0902 8.06263 20.0326 8.01977 19.993C7.97732 19.9534 7.92618 19.9336 7.86635 19.9336C7.7766 19.9336 7.70645 19.9778 7.65592 20.0664C7.60538 20.1545 7.58011 20.2792 7.58011 20.4405C7.58011 20.5481 7.59143 20.6395 7.61407 20.7146C7.63671 20.7898 7.66926 20.8471 7.71171 20.8863C7.75456 20.9255 7.80611 20.9451 7.86635 20.9451Z" fill="#4F4F4F"/>
    <path d="M9.80038 53.2842V51.6282H10.3599C10.4898 51.6282 10.596 51.6517 10.6785 51.6986C10.7615 51.7449 10.8229 51.8077 10.8628 51.887C10.9027 51.9662 10.9227 52.0546 10.9227 52.1522C10.9227 52.2498 10.9027 52.3384 10.8628 52.4182C10.8235 52.498 10.7626 52.5616 10.6801 52.609C10.5976 52.6559 10.492 52.6794 10.3631 52.6794H9.96209V52.5015H10.3567C10.4456 52.5015 10.517 52.4861 10.5709 52.4554C10.6248 52.4247 10.6639 52.3832 10.6882 52.3309C10.713 52.2781 10.7254 52.2185 10.7254 52.1522C10.7254 52.0859 10.713 52.0266 10.6882 51.9743C10.6639 51.922 10.6246 51.881 10.5701 51.8514C10.5157 51.8212 10.4435 51.8061 10.3534 51.8061H10.0009V53.2842H9.80038ZM11.2198 53.2842V52.0422H11.4042V52.2298H11.4171C11.4397 52.1684 11.4807 52.1185 11.54 52.0802C11.5993 52.042 11.6661 52.0228 11.7405 52.0228C11.7545 52.0228 11.7721 52.0231 11.7931 52.0236C11.8141 52.0242 11.83 52.025 11.8408 52.0261V52.2201C11.8343 52.2185 11.8195 52.2161 11.7963 52.2128C11.7737 52.2091 11.7497 52.2072 11.7244 52.2072C11.664 52.2072 11.6101 52.2198 11.5626 52.2452C11.5158 52.27 11.4786 52.3045 11.4511 52.3487C11.4241 52.3923 11.4106 52.4422 11.4106 52.4983V53.2842H11.2198ZM12.5337 53.3101C12.4216 53.3101 12.3232 53.2834 12.2386 53.23C12.1545 53.1766 12.0888 53.102 12.0413 53.006C11.9944 52.9101 11.971 52.798 11.971 52.6697C11.971 52.5403 11.9944 52.4274 12.0413 52.3309C12.0888 52.2344 12.1545 52.1595 12.2386 52.1061C12.3232 52.0527 12.4216 52.0261 12.5337 52.0261C12.6459 52.0261 12.744 52.0527 12.8281 52.1061C12.9127 52.1595 12.9784 52.2344 13.0253 52.3309C13.0728 52.4274 13.0965 52.5403 13.0965 52.6697C13.0965 52.798 13.0728 52.9101 13.0253 53.006C12.9784 53.102 12.9127 53.1766 12.8281 53.23C12.744 53.2834 12.6459 53.3101 12.5337 53.3101ZM12.5337 53.1386C12.6189 53.1386 12.689 53.1168 12.744 53.0731C12.7989 53.0295 12.8396 52.9721 12.8661 52.9009C12.8925 52.8298 12.9057 52.7527 12.9057 52.6697C12.9057 52.5867 12.8925 52.5093 12.8661 52.4376C12.8396 52.3659 12.7989 52.308 12.744 52.2638C12.689 52.2196 12.6189 52.1975 12.5337 52.1975C12.4486 52.1975 12.3785 52.2196 12.3235 52.2638C12.2685 52.308 12.2278 52.3659 12.2014 52.4376C12.175 52.5093 12.1618 52.5867 12.1618 52.6697C12.1618 52.7527 12.175 52.8298 12.2014 52.9009C12.2278 52.9721 12.2685 53.0295 12.3235 53.0731C12.3785 53.1168 12.4486 53.1386 12.5337 53.1386ZM13.8568 53.3101C13.7533 53.3101 13.6619 53.2839 13.5826 53.2316C13.5034 53.1788 13.4414 53.1044 13.3967 53.0085C13.3519 52.912 13.3296 52.798 13.3296 52.6664C13.3296 52.536 13.3519 52.4228 13.3967 52.3268C13.4414 52.2309 13.5037 52.1568 13.5835 52.1045C13.6632 52.0522 13.7554 52.0261 13.86 52.0261C13.9408 52.0261 14.0047 52.0395 14.0516 52.0665C14.0991 52.0929 14.1352 52.1231 14.16 52.157C14.1853 52.1905 14.205 52.218 14.219 52.2395H14.2352V51.6282H14.426V53.2842H14.2416V53.0934H14.219C14.205 53.116 14.185 53.1446 14.1592 53.1791C14.1333 53.213 14.0964 53.2435 14.0484 53.2704C14.0004 53.2968 13.9365 53.3101 13.8568 53.3101ZM13.8826 53.1386C13.9592 53.1386 14.0239 53.1187 14.0767 53.0788C14.1295 53.0384 14.1697 52.9826 14.1972 52.9114C14.2247 52.8397 14.2384 52.757 14.2384 52.6632C14.2384 52.5705 14.2249 52.4894 14.198 52.4198C14.171 52.3497 14.1311 52.2953 14.0783 52.2565C14.0255 52.2171 13.9603 52.1975 13.8826 52.1975C13.8018 52.1975 13.7344 52.2182 13.6805 52.2597C13.6271 52.3007 13.587 52.3565 13.56 52.4271C13.5336 52.4972 13.5204 52.5759 13.5204 52.6632C13.5204 52.7516 13.5339 52.8319 13.5608 52.9042C13.5883 52.9758 13.6287 53.033 13.6821 53.0756C13.736 53.1176 13.8028 53.1386 13.8826 53.1386ZM15.5847 52.7764V52.0422H15.7755V53.2842H15.5847V53.074H15.5717C15.5426 53.137 15.4973 53.1907 15.4359 53.2349C15.3744 53.2785 15.2968 53.3004 15.203 53.3004C15.1254 53.3004 15.0564 53.2834 14.996 53.2494C14.9357 53.2149 14.8882 53.1632 14.8537 53.0942C14.8192 53.0246 14.802 52.937 14.802 52.8314V52.0422H14.9928V52.8184C14.9928 52.909 15.0181 52.9812 15.0688 53.0351C15.12 53.089 15.1852 53.116 15.2645 53.116C15.3119 53.116 15.3601 53.1039 15.4092 53.0796C15.4588 53.0554 15.5003 53.0182 15.5337 52.968C15.5677 52.9179 15.5847 52.854 15.5847 52.7764ZM16.6295 53.3101C16.5131 53.3101 16.4128 53.2826 16.3287 53.2276C16.2447 53.1726 16.18 53.0969 16.1347 53.0004C16.0894 52.9039 16.0668 52.7936 16.0668 52.6697C16.0668 52.5435 16.0899 52.4322 16.1363 52.3357C16.1832 52.2387 16.2484 52.163 16.332 52.1085C16.4161 52.0535 16.5142 52.0261 16.6263 52.0261C16.7136 52.0261 16.7923 52.0422 16.8624 52.0746C16.9325 52.1069 16.9899 52.1522 17.0346 52.2104C17.0794 52.2686 17.1071 52.3365 17.1179 52.4142H16.9271C16.9125 52.3576 16.8802 52.3074 16.8301 52.2638C16.7805 52.2196 16.7136 52.1975 16.6295 52.1975C16.5551 52.1975 16.4899 52.2169 16.4339 52.2557C16.3783 52.294 16.3349 52.3481 16.3037 52.4182C16.273 52.4877 16.2576 52.5694 16.2576 52.6632C16.2576 52.7592 16.2727 52.8427 16.3029 52.9139C16.3336 52.985 16.3767 53.0403 16.4322 53.0796C16.4883 53.119 16.5541 53.1386 16.6295 53.1386C16.6791 53.1386 16.7241 53.13 16.7646 53.1128C16.805 53.0955 16.8392 53.0707 16.8672 53.0384C16.8953 53.006 16.9152 52.9672 16.9271 52.9219H17.1179C17.1071 52.9953 17.0804 53.0613 17.0379 53.12C16.9958 53.1783 16.94 53.2246 16.8705 53.2591C16.8015 53.2931 16.7212 53.3101 16.6295 53.3101ZM17.937 52.0422V52.2039H17.2934V52.0422H17.937ZM17.481 51.7447H17.6718V52.9284C17.6718 52.9823 17.6796 53.0227 17.6952 53.0497C17.7114 53.0761 17.7319 53.0939 17.7567 53.1031C17.782 53.1117 17.8087 53.116 17.8367 53.116C17.8577 53.116 17.875 53.1149 17.8885 53.1128C17.9019 53.1101 17.9127 53.1079 17.9208 53.1063L17.9596 53.2777C17.9467 53.2826 17.9286 53.2874 17.9054 53.2923C17.8823 53.2977 17.8529 53.3004 17.8173 53.3004C17.7634 53.3004 17.7106 53.2888 17.6588 53.2656C17.6076 53.2424 17.565 53.2071 17.5311 53.1597C17.4977 53.1122 17.481 53.0524 17.481 52.9802V51.7447ZM19.4433 51.6282V53.2842H19.2428V51.8385H19.2331L18.8288 52.1069V51.9031L19.2428 51.6282H19.4433Z" fill="black"/>
    <ellipse cx="7.09995" cy="52.5704" rx="0.9" ry="0.680769" fill="#F94144"/>
    <path d="M27.0003 53.2842V51.6282H27.5599C27.6898 51.6282 27.796 51.6517 27.8784 51.6986C27.9614 51.7449 28.0229 51.8077 28.0628 51.887C28.1027 51.9662 28.1226 52.0546 28.1226 52.1522C28.1226 52.2498 28.1027 52.3384 28.0628 52.4182C28.0234 52.498 27.9625 52.5616 27.88 52.609C27.7976 52.6559 27.6919 52.6794 27.5631 52.6794H27.162V52.5015H27.5566C27.6456 52.5015 27.717 52.4861 27.7709 52.4554C27.8248 52.4247 27.8639 52.3832 27.8881 52.3309C27.9129 52.2781 27.9253 52.2185 27.9253 52.1522C27.9253 52.0859 27.9129 52.0266 27.8881 51.9743C27.8639 51.922 27.8245 51.881 27.7701 51.8514C27.7156 51.8212 27.6434 51.8061 27.5534 51.8061H27.2009V53.2842H27.0003ZM28.4198 53.2842V52.0422H28.6041V52.2298H28.6171C28.6397 52.1684 28.6807 52.1185 28.74 52.0802C28.7993 52.042 28.8661 52.0228 28.9405 52.0228C28.9545 52.0228 28.972 52.0231 28.993 52.0236C29.0141 52.0242 29.03 52.025 29.0407 52.0261V52.2201C29.0343 52.2185 29.0195 52.2161 28.9963 52.2128C28.9736 52.2091 28.9496 52.2072 28.9243 52.2072C28.8639 52.2072 28.81 52.2198 28.7626 52.2452C28.7157 52.27 28.6785 52.3045 28.651 52.3487C28.6241 52.3923 28.6106 52.4422 28.6106 52.4983V53.2842H28.4198ZM29.7337 53.3101C29.6216 53.3101 29.5232 53.2834 29.4386 53.23C29.3545 53.1766 29.2887 53.102 29.2413 53.006C29.1944 52.9101 29.1709 52.798 29.1709 52.6697C29.1709 52.5403 29.1944 52.4274 29.2413 52.3309C29.2887 52.2344 29.3545 52.1595 29.4386 52.1061C29.5232 52.0527 29.6216 52.0261 29.7337 52.0261C29.8458 52.0261 29.9439 52.0527 30.028 52.1061C30.1126 52.1595 30.1784 52.2344 30.2253 52.3309C30.2727 52.4274 30.2965 52.5403 30.2965 52.6697C30.2965 52.798 30.2727 52.9101 30.2253 53.006C30.1784 53.102 30.1126 53.1766 30.028 53.23C29.9439 53.2834 29.8458 53.3101 29.7337 53.3101ZM29.7337 53.1386C29.8189 53.1386 29.8889 53.1168 29.9439 53.0731C29.9989 53.0295 30.0396 52.9721 30.066 52.9009C30.0924 52.8298 30.1056 52.7527 30.1056 52.6697C30.1056 52.5867 30.0924 52.5093 30.066 52.4376C30.0396 52.3659 29.9989 52.308 29.9439 52.2638C29.8889 52.2196 29.8189 52.1975 29.7337 52.1975C29.6485 52.1975 29.5784 52.2196 29.5235 52.2638C29.4685 52.308 29.4278 52.3659 29.4014 52.4376C29.375 52.5093 29.3617 52.5867 29.3617 52.6697C29.3617 52.7527 29.375 52.8298 29.4014 52.9009C29.4278 52.9721 29.4685 53.0295 29.5235 53.0731C29.5784 53.1168 29.6485 53.1386 29.7337 53.1386ZM31.0567 53.3101C30.9532 53.3101 30.8618 53.2839 30.7826 53.2316C30.7034 53.1788 30.6414 53.1044 30.5966 53.0085C30.5519 52.912 30.5295 52.798 30.5295 52.6664C30.5295 52.536 30.5519 52.4228 30.5966 52.3268C30.6414 52.2309 30.7036 52.1568 30.7834 52.1045C30.8632 52.0522 30.9554 52.0261 31.0599 52.0261C31.1408 52.0261 31.2047 52.0395 31.2516 52.0665C31.299 52.0929 31.3351 52.1231 31.3599 52.157C31.3853 52.1905 31.4049 52.218 31.4189 52.2395H31.4351V51.6282H31.6259V53.2842H31.4416V53.0934H31.4189C31.4049 53.116 31.385 53.1446 31.3591 53.1791C31.3332 53.213 31.2963 53.2435 31.2483 53.2704C31.2004 53.2968 31.1365 53.3101 31.0567 53.3101ZM31.0826 53.1386C31.1591 53.1386 31.2238 53.1187 31.2766 53.0788C31.3295 53.0384 31.3696 52.9826 31.3971 52.9114C31.4246 52.8397 31.4383 52.757 31.4383 52.6632C31.4383 52.5705 31.4249 52.4894 31.3979 52.4198C31.371 52.3497 31.3311 52.2953 31.2783 52.2565C31.2254 52.2171 31.1602 52.1975 31.0826 52.1975C31.0017 52.1975 30.9343 52.2182 30.8804 52.2597C30.8271 52.3007 30.7869 52.3565 30.76 52.4271C30.7335 52.4972 30.7203 52.5759 30.7203 52.6632C30.7203 52.7516 30.7338 52.8319 30.7608 52.9042C30.7883 52.9758 30.8287 53.033 30.8821 53.0756C30.936 53.1176 31.0028 53.1386 31.0826 53.1386ZM32.7846 52.7764V52.0422H32.9754V53.2842H32.7846V53.074H32.7717C32.7426 53.137 32.6973 53.1907 32.6358 53.2349C32.5744 53.2785 32.4968 53.3004 32.403 53.3004C32.3253 53.3004 32.2563 53.2834 32.196 53.2494C32.1356 53.2149 32.0882 53.1632 32.0537 53.0942C32.0192 53.0246 32.0019 52.937 32.0019 52.8314V52.0422H32.1927V52.8184C32.1927 52.909 32.2181 52.9812 32.2687 53.0351C32.32 53.089 32.3852 53.116 32.4644 53.116C32.5119 53.116 32.5601 53.1039 32.6092 53.0796C32.6587 53.0554 32.7003 53.0182 32.7337 52.968C32.7676 52.9179 32.7846 52.854 32.7846 52.7764ZM33.8295 53.3101C33.713 53.3101 33.6128 53.2826 33.5287 53.2276C33.4446 53.1726 33.3799 53.0969 33.3346 53.0004C33.2894 52.9039 33.2667 52.7936 33.2667 52.6697C33.2667 52.5435 33.2899 52.4322 33.3363 52.3357C33.3832 52.2387 33.4484 52.163 33.5319 52.1085C33.616 52.0535 33.7141 52.0261 33.8262 52.0261C33.9136 52.0261 33.9923 52.0422 34.0623 52.0746C34.1324 52.1069 34.1898 52.1522 34.2346 52.2104C34.2793 52.2686 34.3071 52.3365 34.3179 52.4142H34.127C34.1125 52.3576 34.0801 52.3074 34.03 52.2638C33.9804 52.2196 33.9136 52.1975 33.8295 52.1975C33.7551 52.1975 33.6899 52.2169 33.6338 52.2557C33.5783 52.294 33.5349 52.3481 33.5036 52.4182C33.4729 52.4877 33.4575 52.5694 33.4575 52.6632C33.4575 52.7592 33.4726 52.8427 33.5028 52.9139C33.5335 52.985 33.5767 53.0403 33.6322 53.0796C33.6883 53.119 33.754 53.1386 33.8295 53.1386C33.8791 53.1386 33.9241 53.13 33.9645 53.1128C34.0049 53.0955 34.0392 53.0707 34.0672 53.0384C34.0952 53.006 34.1152 52.9672 34.127 52.9219H34.3179C34.3071 52.9953 34.2804 53.0613 34.2378 53.12C34.1958 53.1783 34.14 53.2246 34.0704 53.2591C34.0014 53.2931 33.9211 53.3101 33.8295 53.3101ZM35.1369 52.0422V52.2039H34.4933V52.0422H35.1369ZM34.6809 51.7447H34.8717V52.9284C34.8717 52.9823 34.8795 53.0227 34.8952 53.0497C34.9113 53.0761 34.9318 53.0939 34.9566 53.1031C34.982 53.1117 35.0086 53.116 35.0367 53.116C35.0577 53.116 35.0749 53.1149 35.0884 53.1128C35.1019 53.1101 35.1127 53.1079 35.1208 53.1063L35.1596 53.2777C35.1466 53.2826 35.1286 53.2874 35.1054 53.2923C35.0822 53.2977 35.0528 53.3004 35.0173 53.3004C34.9634 53.3004 34.9105 53.2888 34.8588 53.2656C34.8076 53.2424 34.765 53.2071 34.731 53.1597C34.6976 53.1122 34.6809 53.0524 34.6809 52.9802V51.7447ZM36.0611 53.2842V53.1386L36.6077 52.5403C36.6719 52.4702 36.7247 52.4093 36.7662 52.3576C36.8077 52.3053 36.8384 52.2562 36.8584 52.2104C36.8789 52.164 36.8891 52.1155 36.8891 52.0649C36.8891 52.0066 36.8751 51.9562 36.8471 51.9137C36.8196 51.8711 36.7818 51.8382 36.7339 51.815C36.6859 51.7918 36.632 51.7802 36.5721 51.7802C36.5085 51.7802 36.453 51.7935 36.4056 51.8199C36.3587 51.8457 36.3223 51.8821 36.2964 51.929C36.2711 51.9759 36.2584 52.0309 36.2584 52.094H36.0676C36.0676 51.9969 36.09 51.9118 36.1347 51.8385C36.1794 51.7652 36.2404 51.708 36.3174 51.667C36.3951 51.6261 36.4821 51.6056 36.5786 51.6056C36.6756 51.6056 36.7616 51.6261 36.8365 51.667C36.9115 51.708 36.9702 51.7633 37.0128 51.8328C37.0554 51.9023 37.0767 51.9797 37.0767 52.0649C37.0767 52.1258 37.0656 52.1853 37.0435 52.2436C37.022 52.3012 36.9842 52.3656 36.9303 52.4368C36.877 52.5074 36.8029 52.5937 36.708 52.6955L36.336 53.0934V53.1063H37.1058V53.2842H36.0611Z" fill="black"/>
    <ellipse cx="24.2999" cy="52.5704" rx="0.9" ry="0.680769" fill="#90BE6D"/>
    <rect x="10.3999" y="33.1309" width="1.4" height="12.5564" fill="#F94144"/>
    <rect x="12" y="37.5176" width="1.4" height="8.16923" fill="#90BE6D"/>
    <rect x="14.8" y="35.7021" width="1.4" height="9.98462" fill="#F94144"/>
    <rect x="16.3999" y="34.7949" width="1.4" height="10.8923" fill="#90BE6D"/>
    <rect x="19.6001" y="38.123" width="1.2" height="7.5641" fill="#F94144"/>
    <rect x="21" y="36.9131" width="1.2" height="8.77436" fill="#90BE6D"/>
    <rect x="24" y="28.29" width="1.4" height="17.3974" fill="#F94144"/>
    <rect x="25.6001" y="33.1309" width="1.4" height="12.5564" fill="#90BE6D"/>
    <rect x="28.6001" y="33.2822" width="1.4" height="12.4051" fill="#F94144"/>
    <rect x="30.2" y="26.7773" width="1.4" height="18.9103" fill="#90BE6D"/>
    <rect x="33.3999" y="20.7256" width="1.2" height="24.9615" fill="#F94144"/>
    <rect x="34.8" y="34.4922" width="1.2" height="11.1949" fill="#90BE6D"/>
    <rect x="38" y="38.123" width="1.2" height="7.5641" fill="#F94144"/>
    <rect x="39.3999" y="31.1641" width="1.2" height="14.5231" fill="#90BE6D"/>
    <rect x="42.3999" y="35.7021" width="1.4" height="9.98462" fill="#F94144"/>
    <rect x="44" y="29.3486" width="1.4" height="16.3385" fill="#90BE6D"/>
    <rect x="47" y="25.7178" width="1.4" height="19.9692" fill="#F94144"/>
    <rect x="48.6001" y="28.7432" width="1.4" height="16.9436" fill="#90BE6D"/>
    <rect x="51.8" y="20.7256" width="1.2" height="24.9615" fill="#F94144"/>
    <rect x="53.2" y="36.3076" width="1.2" height="9.37949" fill="#90BE6D"/>
    <rect x="56.2" y="30.71" width="1.4" height="14.9769" fill="#F94144"/>
    <rect x="57.8" y="37.8203" width="1.4" height="7.86667" fill="#90BE6D"/>
    <rect x="60.3999" y="25.7178" width="1.4" height="19.9692" fill="#F94144"/>
    <rect x="62" y="39.4844" width="1.4" height="6.20256" fill="#90BE6D"/>
</svg>
