<svg xmlns="http://www.w3.org/2000/svg" width="20" height="20" viewBox="0 0 20 20" fill="none">
    <g clip-path="url(#clip0_434_12227)">
        <path fill-rule="evenodd" clip-rule="evenodd" d="M9.10714 0H4.98461C3.86603 0.0287511 2.80526 0.70545 2.30769 1.70769L0 6.15384V6.17776H9.10714V0ZM0 18.4616V7.96347H20V18.4616C20 18.8696 19.8379 19.2609 19.5494 19.5494C19.2609 19.8379 18.8696 20 18.4616 20H1.53846C1.13044 20 0.739123 19.8379 0.450604 19.5494C0.162087 19.2609 0 18.8696 0 18.4616ZM20 6.15384V6.17776H10.8929V0H15.0154C16.1603 0.000607514 17.2597 0.682423 17.7693 1.70769L20 6.15384ZM13.4821 12.3374C13.7778 11.9427 13.6975 11.3831 13.3028 11.0875C12.9082 10.7918 12.3486 10.8721 12.0529 11.2668L9.26864 14.9837L7.7675 13.8592C7.37283 13.5635 6.81324 13.6438 6.5176 14.0385C6.22196 14.4331 6.30224 14.9927 6.6969 15.2884L8.91264 16.9481C9.10216 17.0901 9.34031 17.151 9.57473 17.1174C9.80913 17.0837 10.0206 16.9584 10.1625 16.7689L13.4821 12.3374Z" fill="#D7D7D7"/>
    </g>
    <defs>
        <clipPath id="clip0_434_12227">
            <rect width="20" height="20" fill="white"/>
        </clipPath>
    </defs>
</svg>