<svg width="138" height="27" viewBox="0 0 138 27" fill="none" xmlns="http://www.w3.org/2000/svg">
    <path d="M0.667234 10.044C0.763234 9.66 0.883234 9.232 1.02723 8.76C1.17123 8.288 1.34323 7.728 1.54323 7.08C1.75123 6.424 1.99123 5.648 2.26323 4.752C2.53523 3.856 2.85123 2.796 3.21123 1.572C3.22723 1.532 3.24323 1.464 3.25923 1.368C3.28323 1.264 3.29523 1.168 3.29523 1.08C3.29523 1 3.27923 0.936 3.24723 0.887999C3.22323 0.832 3.17923 0.804 3.11523 0.804C2.92323 0.804 2.73923 0.88 2.56323 1.032C2.39523 1.176 2.24723 1.36 2.11923 1.584C1.99923 1.808 1.90323 2.044 1.83123 2.292C1.75923 2.532 1.72323 2.748 1.72323 2.94C1.72323 3.1 1.74323 3.24 1.78323 3.36C1.51923 3.36 1.33123 3.296 1.21923 3.168C1.11523 3.032 1.06323 2.868 1.06323 2.676C1.06323 2.404 1.14323 2.132 1.30323 1.86C1.46323 1.588 1.66723 1.34 1.91523 1.116C2.16323 0.884 2.42323 0.7 2.69523 0.564C2.97523 0.428 3.23123 0.36 3.46323 0.36C3.70323 0.36 3.89923 0.464 4.05123 0.672C4.21123 0.872 4.33923 1.152 4.43523 1.512C4.53123 1.864 4.61123 2.264 4.67523 2.712C4.73923 3.16 4.79923 3.624 4.85523 4.104C4.90323 4.504 4.95123 4.904 4.99923 5.304C5.04723 5.696 5.09523 6.072 5.14323 6.432C5.19123 6.784 5.23523 7.108 5.27523 7.404C5.31523 7.7 5.35123 7.944 5.38323 8.136C5.43923 7.76 5.51923 7.336 5.62323 6.864C5.73523 6.384 5.85523 5.888 5.98323 5.376C6.11923 4.856 6.25923 4.352 6.40323 3.864C6.54724 3.368 6.67923 2.916 6.79923 2.508C6.92723 2.092 7.03523 1.748 7.12323 1.476C7.21923 1.196 7.28323 1.02 7.31523 0.948C7.35523 0.844 7.44723 0.72 7.59123 0.576C7.73523 0.432 7.89523 0.36 8.07123 0.36C7.93523 0.728 7.77923 1.18 7.60323 1.716C7.43523 2.244 7.26323 2.82 7.08723 3.444C6.91123 4.06 6.73923 4.692 6.57123 5.34C6.40323 5.98 6.25123 6.6 6.11523 7.2C5.98723 7.8 5.88323 8.348 5.80323 8.844C5.73123 9.332 5.69123 9.732 5.68323 10.044C5.43523 10.044 5.23123 9.972 5.07123 9.828C4.91923 9.684 4.81123 9.432 4.74723 9.072C4.70723 8.864 4.65523 8.58 4.59123 8.22C4.53523 7.852 4.47123 7.444 4.39923 6.996C4.33523 6.548 4.26723 6.084 4.19523 5.604C4.12323 5.116 4.05123 4.64 3.97923 4.176C3.91523 3.712 3.85523 3.288 3.79923 2.904C3.74323 2.512 3.69523 2.188 3.65523 1.932C3.27123 3.316 2.94323 4.488 2.67123 5.448C2.39923 6.4 2.16723 7.18 1.97523 7.788C1.79123 8.388 1.62723 8.852 1.48323 9.18C1.33923 9.508 1.20323 9.732 1.07523 9.852C0.947234 9.98 0.811234 10.044 0.667234 10.044ZM8.36205 9.312C8.05005 9.312 7.81805 9.212 7.66605 9.012C7.51405 8.82 7.43805 8.584 7.43805 8.304C7.43805 8.12 7.47005 7.888 7.53405 7.608C7.60605 7.328 7.69805 7.036 7.81005 6.732C7.92205 6.42 8.05005 6.128 8.19405 5.856C8.34605 5.584 8.50605 5.364 8.67405 5.196C8.84205 5.02 9.00605 4.932 9.16605 4.932C9.23805 4.932 9.29805 4.956 9.34605 5.004C9.40205 5.044 9.43005 5.108 9.43005 5.196C9.43005 5.292 9.36605 5.448 9.23805 5.664C9.11805 5.88 8.97405 6.128 8.80605 6.408C8.63805 6.688 8.49005 6.984 8.36205 7.296C8.24205 7.6 8.18205 7.892 8.18205 8.172C8.18205 8.46 8.23005 8.652 8.32605 8.748C8.42205 8.844 8.57005 8.892 8.77005 8.892C9.04205 8.892 9.33005 8.756 9.63405 8.484C9.94605 8.212 10.274 7.736 10.618 7.056L10.726 7.176C10.494 7.864 10.158 8.392 9.71805 8.76C9.28605 9.128 8.83405 9.312 8.36205 9.312ZM9.80205 3.816C9.67405 3.816 9.55805 3.784 9.45405 3.72C9.35805 3.656 9.31005 3.556 9.31005 3.42C9.31005 3.252 9.40605 3.108 9.59805 2.988C9.79805 2.86 9.99405 2.796 10.186 2.796C10.306 2.796 10.402 2.824 10.474 2.88C10.546 2.936 10.582 3.032 10.582 3.168C10.582 3.32 10.498 3.468 10.33 3.612C10.17 3.748 9.99405 3.816 9.80205 3.816ZM11.6886 9.528C11.2006 9.528 10.8326 9.392 10.5846 9.12C10.3446 8.856 10.2246 8.528 10.2246 8.136C10.2246 7.776 10.3126 7.396 10.4886 6.996C10.6726 6.596 10.9126 6.22 11.2086 5.868C11.5126 5.516 11.8446 5.232 12.2046 5.016C12.5646 4.792 12.9206 4.68 13.2726 4.68C13.4566 4.68 13.6246 4.728 13.7766 4.824C13.9366 4.92 14.0166 5.116 14.0166 5.412C14.0166 5.716 13.9246 6.004 13.7406 6.276C13.5646 6.54 13.3286 6.776 13.0326 6.984C12.7446 7.192 12.4246 7.364 12.0726 7.5C11.7286 7.628 11.3846 7.708 11.0406 7.74C11.0246 7.82 11.0126 7.896 11.0046 7.968C10.9966 8.04 10.9926 8.108 10.9926 8.172C10.9926 8.292 11.0046 8.412 11.0286 8.532C11.0606 8.652 11.1126 8.764 11.1846 8.868C11.2566 8.964 11.3526 9.04 11.4726 9.096C11.6006 9.152 11.7566 9.18 11.9406 9.18C12.2846 9.18 12.6246 9.084 12.9606 8.892C13.2966 8.692 13.6086 8.432 13.8966 8.112C14.1846 7.792 14.4286 7.44 14.6286 7.056L14.7726 7.164C14.5566 7.644 14.2806 8.06 13.9446 8.412C13.6166 8.764 13.2566 9.036 12.8646 9.228C12.4806 9.428 12.0886 9.528 11.6886 9.528ZM11.1006 7.512C11.3166 7.44 11.5606 7.336 11.8326 7.2C12.1046 7.056 12.3646 6.888 12.6126 6.696C12.8686 6.504 13.0766 6.292 13.2366 6.06C13.4046 5.828 13.4886 5.584 13.4886 5.328C13.4886 5.24 13.4726 5.172 13.4406 5.124C13.4086 5.076 13.3406 5.052 13.2366 5.052C13.0446 5.052 12.8406 5.128 12.6246 5.28C12.4086 5.424 12.2006 5.616 12.0006 5.856C11.8006 6.096 11.6206 6.36 11.4606 6.648C11.3006 6.936 11.1806 7.224 11.1006 7.512ZM15.1446 3.444C15.0726 3.308 14.9886 3.172 14.8926 3.036C14.7966 2.9 14.6886 2.76 14.5686 2.616C14.4566 2.472 14.3326 2.324 14.1966 2.172C14.2126 2.036 14.2486 1.948 14.3046 1.908C14.3606 1.86 14.4246 1.836 14.4966 1.836C14.5926 1.836 14.6926 1.884 14.7966 1.98C14.9086 2.076 15.0086 2.196 15.0966 2.34C15.1846 2.476 15.2566 2.612 15.3126 2.748C15.3686 2.884 15.3966 2.996 15.3966 3.084C15.3966 3.26 15.3126 3.38 15.1446 3.444ZM14.5326 4.56C14.4206 4.328 14.2926 4.132 14.1486 3.972C14.0046 3.804 13.8366 3.632 13.6446 3.456C13.3966 3.544 13.1726 3.64 12.9726 3.744C12.7806 3.848 12.5926 3.98 12.4086 4.14C12.3606 4.108 12.3286 4.072 12.3126 4.032C12.2966 3.984 12.2886 3.944 12.2886 3.912C12.2886 3.792 12.3406 3.672 12.4446 3.552C12.5566 3.432 12.6886 3.32 12.8406 3.216C13.0006 3.104 13.1566 3.016 13.3086 2.952C13.4606 2.888 13.5766 2.856 13.6566 2.856C13.7526 2.856 13.8606 2.9 13.9806 2.988C14.1086 3.076 14.2286 3.192 14.3406 3.336C14.4526 3.472 14.5446 3.616 14.6166 3.768C14.6966 3.92 14.7366 4.06 14.7366 4.188C14.7366 4.268 14.7206 4.34 14.6886 4.404C14.6566 4.468 14.6046 4.52 14.5326 4.56ZM20.4367 9.372C20.1567 9.372 19.9527 9.284 19.8247 9.108C19.6967 8.94 19.6327 8.736 19.6327 8.496C19.6327 8.296 19.6607 8.096 19.7167 7.896C19.7807 7.696 19.8407 7.5 19.8967 7.308C19.9607 7.116 19.9927 6.944 19.9927 6.792C19.9927 6.632 19.9567 6.52 19.8847 6.456C19.8127 6.392 19.7327 6.36 19.6447 6.36C19.4447 6.36 19.2247 6.516 18.9847 6.828C18.7527 7.14 18.4487 7.58 18.0727 8.148C17.9447 8.34 17.8367 8.536 17.7487 8.736C17.6607 8.928 17.5767 9.104 17.4967 9.264C17.4327 9.264 17.3527 9.256 17.2567 9.24C17.1607 9.224 17.0727 9.196 16.9927 9.156C16.9207 9.124 16.8847 9.08 16.8847 9.024C16.8847 8.968 16.9207 8.836 16.9927 8.628C17.0727 8.412 17.1607 8.164 17.2567 7.884C17.3607 7.596 17.4487 7.308 17.5207 7.02C17.6007 6.724 17.6407 6.472 17.6407 6.264C17.6407 6.128 17.6167 6.02 17.5687 5.94C17.5287 5.852 17.4527 5.808 17.3407 5.808C17.1647 5.808 16.9527 5.916 16.7047 6.132C16.4567 6.34 16.2007 6.616 15.9367 6.96C15.6727 7.304 15.4207 7.684 15.1807 8.1C14.9487 8.508 14.7607 8.916 14.6167 9.324C14.5447 9.324 14.4567 9.312 14.3527 9.288C14.2487 9.264 14.1607 9.232 14.0887 9.192C14.0087 9.152 13.9687 9.112 13.9687 9.072C13.9687 9.024 14.0127 8.884 14.1007 8.652C14.1807 8.412 14.2767 8.128 14.3887 7.8C14.4927 7.464 14.5847 7.124 14.6647 6.78C14.7527 6.436 14.7967 6.132 14.7967 5.868C14.8447 5.812 14.9207 5.756 15.0247 5.7C15.1287 5.644 15.2367 5.616 15.3487 5.616C15.4607 5.616 15.5407 5.644 15.5887 5.7C15.6447 5.756 15.6727 5.832 15.6727 5.928C15.6727 6.032 15.6407 6.212 15.5767 6.468C15.5207 6.716 15.4487 6.992 15.3607 7.296C15.5207 7.04 15.7007 6.78 15.9007 6.516C16.1087 6.244 16.3247 5.996 16.5487 5.772C16.7727 5.548 16.9967 5.368 17.2207 5.232C17.4527 5.088 17.6767 5.016 17.8927 5.016C18.1407 5.016 18.3087 5.108 18.3967 5.292C18.4927 5.468 18.5407 5.68 18.5407 5.928C18.5407 6.128 18.5167 6.34 18.4687 6.564C18.4287 6.78 18.3807 6.984 18.3247 7.176C18.2687 7.36 18.2167 7.508 18.1687 7.62C18.3367 7.316 18.5207 7.024 18.7207 6.744C18.9287 6.456 19.1527 6.224 19.3927 6.048C19.6327 5.864 19.8887 5.772 20.1607 5.772C20.4167 5.772 20.5927 5.848 20.6887 6C20.7927 6.152 20.8447 6.332 20.8447 6.54C20.8447 6.748 20.8087 6.976 20.7367 7.224C20.6647 7.472 20.5887 7.712 20.5087 7.944C20.4367 8.176 20.4007 8.376 20.4007 8.544C20.4007 8.648 20.4247 8.744 20.4727 8.832C20.5287 8.912 20.6247 8.952 20.7607 8.952C20.9847 8.952 21.1927 8.852 21.3847 8.652C21.5847 8.444 21.7687 8.196 21.9367 7.908C22.1047 7.612 22.2487 7.328 22.3687 7.056L22.5127 7.224C22.3847 7.56 22.2207 7.896 22.0207 8.232C21.8207 8.56 21.5847 8.832 21.3127 9.048C21.0487 9.264 20.7567 9.372 20.4367 9.372ZM26.2837 9.552C25.9397 9.552 25.6757 9.452 25.4917 9.252C25.3077 9.052 25.2157 8.756 25.2157 8.364C25.2157 8.012 25.2797 7.58 25.4077 7.068C25.5437 6.548 25.7117 6.016 25.9117 5.472C25.8317 5.456 25.7557 5.444 25.6837 5.436C25.6117 5.42 25.5437 5.4 25.4797 5.376V5.16C25.5437 5.168 25.6197 5.176 25.7077 5.184C25.7957 5.192 25.8957 5.2 26.0077 5.208C26.1757 4.776 26.3557 4.36 26.5477 3.96C26.7397 3.552 26.9277 3.192 27.1117 2.88C27.3037 2.56 27.4837 2.308 27.6517 2.124C27.8277 1.932 27.9757 1.836 28.0957 1.836C28.1597 1.836 28.2157 1.86 28.2637 1.908C28.3197 1.948 28.3477 2.012 28.3477 2.1C28.3477 2.236 28.2637 2.46 28.0957 2.772C27.9277 3.076 27.7197 3.44 27.4717 3.864C27.2237 4.288 26.9837 4.748 26.7517 5.244C26.8237 5.244 26.8957 5.244 26.9677 5.244C27.0477 5.244 27.1237 5.244 27.1957 5.244C27.4597 5.244 27.7357 5.24 28.0237 5.232C28.3197 5.224 28.6157 5.204 28.9117 5.172V5.388C28.4717 5.436 28.0757 5.472 27.7237 5.496C27.3797 5.52 27.0717 5.532 26.7997 5.532C26.7677 5.532 26.7357 5.532 26.7037 5.532C26.6797 5.532 26.6517 5.532 26.6197 5.532C26.4357 5.956 26.2797 6.392 26.1517 6.84C26.0237 7.288 25.9597 7.724 25.9597 8.148C25.9597 8.492 26.0117 8.74 26.1157 8.892C26.2197 9.036 26.3917 9.108 26.6317 9.108C27.0477 9.108 27.4557 8.924 27.8557 8.556C28.2557 8.188 28.6077 7.688 28.9117 7.056L29.0677 7.176C28.8757 7.624 28.6317 8.028 28.3357 8.388C28.0477 8.748 27.7277 9.032 27.3757 9.24C27.0237 9.448 26.6597 9.552 26.2837 9.552ZM29.5495 9.312C29.2375 9.312 29.0055 9.212 28.8535 9.012C28.7015 8.82 28.6255 8.584 28.6255 8.304C28.6255 8.12 28.6575 7.888 28.7215 7.608C28.7935 7.328 28.8855 7.036 28.9975 6.732C29.1095 6.42 29.2375 6.128 29.3815 5.856C29.5335 5.584 29.6935 5.364 29.8615 5.196C30.0295 5.02 30.1935 4.932 30.3535 4.932C30.4255 4.932 30.4855 4.956 30.5335 5.004C30.5895 5.044 30.6175 5.108 30.6175 5.196C30.6175 5.292 30.5535 5.448 30.4255 5.664C30.3055 5.88 30.1615 6.128 29.9935 6.408C29.8255 6.688 29.6775 6.984 29.5495 7.296C29.4295 7.6 29.3695 7.892 29.3695 8.172C29.3695 8.46 29.4175 8.652 29.5135 8.748C29.6095 8.844 29.7575 8.892 29.9575 8.892C30.2295 8.892 30.5175 8.756 30.8215 8.484C31.1335 8.212 31.4615 7.736 31.8055 7.056L31.9135 7.176C31.6815 7.864 31.3455 8.392 30.9055 8.76C30.4735 9.128 30.0215 9.312 29.5495 9.312ZM30.9895 3.816C30.8615 3.816 30.7455 3.784 30.6415 3.72C30.5455 3.656 30.4975 3.556 30.4975 3.42C30.4975 3.252 30.5935 3.108 30.7855 2.988C30.9855 2.86 31.1815 2.796 31.3735 2.796C31.4935 2.796 31.5895 2.824 31.6615 2.88C31.7335 2.936 31.7695 3.032 31.7695 3.168C31.7695 3.32 31.6855 3.468 31.5175 3.612C31.3575 3.748 31.1815 3.816 30.9895 3.816ZM35.4561 9.24C35.1761 9.24 34.9641 9.168 34.8201 9.024C34.6841 8.88 34.6161 8.696 34.6161 8.472C34.6161 8.304 34.6441 8.128 34.7001 7.944C34.7641 7.76 34.8241 7.572 34.8801 7.38C34.9361 7.18 34.9641 6.988 34.9641 6.804C34.9641 6.58 34.9161 6.428 34.8201 6.348C34.7321 6.26 34.6201 6.216 34.4841 6.216C34.2361 6.216 33.9841 6.32 33.7281 6.528C33.4721 6.728 33.2241 6.988 32.9841 7.308C32.7441 7.62 32.5201 7.944 32.3121 8.28C32.1041 8.616 31.9201 8.916 31.7601 9.18C31.6321 9.18 31.5121 9.156 31.4001 9.108C31.2801 9.068 31.1881 9.004 31.1241 8.916C31.1241 8.876 31.1681 8.752 31.2561 8.544C31.3361 8.336 31.4321 8.08 31.5441 7.776C31.6561 7.472 31.7561 7.16 31.8441 6.84C31.9321 6.52 31.9761 6.228 31.9761 5.964C32.0241 5.908 32.1001 5.852 32.2041 5.796C32.3081 5.74 32.4161 5.712 32.5281 5.712C32.7441 5.712 32.8521 5.816 32.8521 6.024C32.8521 6.152 32.8161 6.368 32.7441 6.672C32.6721 6.968 32.5801 7.28 32.4681 7.608C32.6841 7.28 32.9241 6.956 33.1881 6.636C33.4601 6.308 33.7481 6.036 34.0521 5.82C34.3561 5.604 34.6601 5.496 34.9641 5.496C35.2761 5.496 35.5001 5.608 35.6361 5.832C35.7801 6.056 35.8521 6.304 35.8521 6.576C35.8521 6.824 35.8121 7.056 35.7321 7.272C35.6521 7.48 35.5681 7.684 35.4801 7.884C35.4001 8.076 35.3601 8.272 35.3601 8.472C35.3601 8.64 35.3921 8.76 35.4561 8.832C35.5281 8.896 35.6161 8.928 35.7201 8.928C35.9201 8.928 36.1201 8.836 36.3201 8.652C36.5201 8.46 36.7121 8.22 36.8961 7.932C37.0881 7.644 37.2561 7.352 37.4001 7.056L37.5321 7.212C37.3641 7.604 37.1761 7.952 36.9681 8.256C36.7601 8.56 36.5321 8.8 36.2841 8.976C36.0361 9.152 35.7601 9.24 35.4561 9.24ZM40.7191 7.272C40.7671 7.152 40.8551 7.056 40.9831 6.984C41.1191 6.904 41.2871 6.844 41.4871 6.804C41.6871 6.756 41.9151 6.724 42.1711 6.708C42.4271 6.692 42.6991 6.684 42.9871 6.684C43.2031 6.684 43.4111 6.688 43.6111 6.696C43.8111 6.704 43.9991 6.716 44.1751 6.732C44.3591 6.74 44.5191 6.752 44.6551 6.768C44.7991 6.776 44.9151 6.784 45.0031 6.792C44.6911 6.992 44.3951 7.1 44.1151 7.116C43.8431 7.132 43.5671 7.14 43.2871 7.14C43.0711 7.14 42.8551 7.14 42.6391 7.14C42.4311 7.14 42.2431 7.14 42.0751 7.14C41.9391 7.14 41.7991 7.148 41.6551 7.164C41.5111 7.172 41.3631 7.184 41.2111 7.2C41.0591 7.216 40.8951 7.24 40.7191 7.272ZM49.4208 10.044C49.2448 9.94 49.1328 9.828 49.0848 9.708C49.0368 9.596 49.0128 9.5 49.0128 9.42C49.0128 9.196 49.0928 8.892 49.2528 8.508C49.4208 8.124 49.6408 7.688 49.9128 7.2C50.1928 6.704 50.5008 6.192 50.8368 5.664C50.5408 5.64 50.2888 5.624 50.0808 5.616C49.8728 5.608 49.6928 5.604 49.5408 5.604H49.1208C49.2088 5.372 49.3608 5.212 49.5768 5.124C49.8008 5.028 50.0648 4.98 50.3688 4.98C50.5048 4.98 50.6448 4.988 50.7888 5.004C50.9328 5.02 51.0808 5.04 51.2328 5.064C51.6408 4.448 52.0568 3.852 52.4808 3.276C52.9128 2.692 53.3128 2.176 53.6808 1.728C54.0568 1.272 54.3688 0.927999 54.6168 0.696C54.8488 0.472 55.0408 0.36 55.1928 0.36C55.2808 0.36 55.3768 0.396 55.4808 0.468C55.5928 0.532 55.7088 0.624 55.8288 0.744C55.7488 0.808 55.6448 0.98 55.5168 1.26C55.3968 1.532 55.2648 1.876 55.1208 2.292C54.9848 2.708 54.8488 3.164 54.7128 3.66C54.5768 4.156 54.4488 4.664 54.3288 5.184C54.2168 5.696 54.1248 6.184 54.0528 6.648C53.9888 7.112 53.9568 7.52 53.9568 7.872C53.9568 8.176 53.9888 8.412 54.0528 8.58C54.1248 8.748 54.2408 8.832 54.4008 8.832C54.6088 8.832 54.8448 8.688 55.1088 8.4C55.3728 8.112 55.6608 7.664 55.9728 7.056L56.0928 7.176C55.8528 7.816 55.5448 8.34 55.1688 8.748C54.8008 9.156 54.4168 9.36 54.0168 9.36C53.6888 9.36 53.4488 9.216 53.2968 8.928C53.1528 8.632 53.0808 8.24 53.0808 7.752C53.0808 7.496 53.0968 7.216 53.1288 6.912C53.1688 6.608 53.2208 6.292 53.2848 5.964C52.9328 5.908 52.6088 5.864 52.3128 5.832C52.0248 5.792 51.7568 5.756 51.5088 5.724C51.1328 6.42 50.7648 7.136 50.4048 7.872C50.0528 8.608 49.7248 9.332 49.4208 10.044ZM53.3688 5.544C53.4888 5.016 53.6288 4.484 53.7888 3.948C53.9488 3.404 54.1168 2.888 54.2928 2.4C54.4768 1.912 54.6488 1.484 54.8088 1.116C54.5608 1.268 54.2728 1.54 53.9448 1.932C53.6248 2.316 53.2848 2.788 52.9248 3.348C52.5648 3.9 52.1968 4.508 51.8208 5.172C52.0928 5.228 52.3608 5.292 52.6248 5.364C52.8968 5.428 53.1448 5.488 53.3688 5.544ZM59.6084 9.24C59.3284 9.24 59.1164 9.168 58.9724 9.024C58.8364 8.88 58.7684 8.696 58.7684 8.472C58.7684 8.304 58.7964 8.128 58.8524 7.944C58.9164 7.76 58.9764 7.572 59.0324 7.38C59.0884 7.18 59.1164 6.988 59.1164 6.804C59.1164 6.58 59.0684 6.428 58.9724 6.348C58.8844 6.26 58.7724 6.216 58.6364 6.216C58.3884 6.216 58.1364 6.32 57.8804 6.528C57.6244 6.728 57.3764 6.988 57.1364 7.308C56.8964 7.62 56.6724 7.944 56.4644 8.28C56.2564 8.616 56.0724 8.916 55.9124 9.18C55.7844 9.18 55.6644 9.156 55.5524 9.108C55.4324 9.068 55.3404 9.004 55.2764 8.916C55.2764 8.876 55.3204 8.752 55.4084 8.544C55.4884 8.336 55.5844 8.08 55.6964 7.776C55.8084 7.472 55.9084 7.16 55.9964 6.84C56.0844 6.52 56.1284 6.228 56.1284 5.964C56.1764 5.908 56.2524 5.852 56.3564 5.796C56.4604 5.74 56.5684 5.712 56.6804 5.712C56.8964 5.712 57.0044 5.816 57.0044 6.024C57.0044 6.152 56.9684 6.368 56.8964 6.672C56.8244 6.968 56.7324 7.28 56.6204 7.608C56.8364 7.28 57.0764 6.956 57.3404 6.636C57.6124 6.308 57.9004 6.036 58.2044 5.82C58.5084 5.604 58.8124 5.496 59.1164 5.496C59.4284 5.496 59.6524 5.608 59.7884 5.832C59.9324 6.056 60.0044 6.304 60.0044 6.576C60.0044 6.824 59.9644 7.056 59.8844 7.272C59.8044 7.48 59.7204 7.684 59.6324 7.884C59.5524 8.076 59.5124 8.272 59.5124 8.472C59.5124 8.64 59.5444 8.76 59.6084 8.832C59.6804 8.896 59.7684 8.928 59.8724 8.928C60.0724 8.928 60.2724 8.836 60.4724 8.652C60.6724 8.46 60.8644 8.22 61.0484 7.932C61.2404 7.644 61.4084 7.352 61.5524 7.056L61.6844 7.212C61.5164 7.604 61.3284 7.952 61.1204 8.256C60.9124 8.56 60.6844 8.8 60.4364 8.976C60.1884 9.152 59.9124 9.24 59.6084 9.24ZM65.4595 9.552C65.1155 9.552 64.8515 9.452 64.6675 9.252C64.4835 9.052 64.3915 8.756 64.3915 8.364C64.3915 8.012 64.4555 7.58 64.5835 7.068C64.7195 6.548 64.8875 6.016 65.0875 5.472C65.0075 5.456 64.9315 5.444 64.8595 5.436C64.7875 5.42 64.7195 5.4 64.6555 5.376V5.16C64.7195 5.168 64.7955 5.176 64.8835 5.184C64.9715 5.192 65.0715 5.2 65.1835 5.208C65.3515 4.776 65.5315 4.36 65.7235 3.96C65.9155 3.552 66.1035 3.192 66.2875 2.88C66.4795 2.56 66.6595 2.308 66.8275 2.124C67.0035 1.932 67.1515 1.836 67.2715 1.836C67.3355 1.836 67.3915 1.86 67.4395 1.908C67.4955 1.948 67.5235 2.012 67.5235 2.1C67.5235 2.236 67.4395 2.46 67.2715 2.772C67.1035 3.076 66.8955 3.44 66.6475 3.864C66.3995 4.288 66.1595 4.748 65.9275 5.244C65.9995 5.244 66.0715 5.244 66.1435 5.244C66.2235 5.244 66.2995 5.244 66.3715 5.244C66.6355 5.244 66.9115 5.24 67.1995 5.232C67.4955 5.224 67.7915 5.204 68.0875 5.172V5.388C67.6475 5.436 67.2515 5.472 66.8995 5.496C66.5555 5.52 66.2475 5.532 65.9755 5.532C65.9435 5.532 65.9115 5.532 65.8795 5.532C65.8555 5.532 65.8275 5.532 65.7955 5.532C65.6115 5.956 65.4555 6.392 65.3275 6.84C65.1995 7.288 65.1355 7.724 65.1355 8.148C65.1355 8.492 65.1875 8.74 65.2915 8.892C65.3955 9.036 65.5675 9.108 65.8075 9.108C66.2235 9.108 66.6315 8.924 67.0315 8.556C67.4315 8.188 67.7835 7.688 68.0875 7.056L68.2435 7.176C68.0515 7.624 67.8075 8.028 67.5115 8.388C67.2235 8.748 66.9035 9.032 66.5515 9.24C66.1995 9.448 65.8355 9.552 65.4595 9.552ZM68.6893 9.384C68.3453 9.384 68.1013 9.276 67.9573 9.06C67.8133 8.852 67.7413 8.596 67.7413 8.292C67.7413 8.044 67.7813 7.788 67.8613 7.524C67.9413 7.26 68.0453 7.012 68.1733 6.78C68.3093 6.548 68.4573 6.36 68.6173 6.216C68.7853 6.072 68.9533 6 69.1213 6C69.1613 6 69.2013 6.008 69.2413 6.024C69.2893 6.032 69.3333 6.044 69.3733 6.06C69.3013 6.124 69.2133 6.244 69.1093 6.42C69.0133 6.588 68.9213 6.784 68.8333 7.008C68.7453 7.224 68.6693 7.44 68.6053 7.656C68.5493 7.872 68.5213 8.056 68.5213 8.208C68.5213 8.448 68.5613 8.624 68.6413 8.736C68.7213 8.84 68.8253 8.892 68.9533 8.892C69.1213 8.892 69.3213 8.804 69.5533 8.628C69.7853 8.444 70.0133 8.212 70.2373 7.932C70.0133 7.748 69.8373 7.508 69.7093 7.212C69.5893 6.908 69.5293 6.6 69.5293 6.288C69.5293 6.024 69.5733 5.776 69.6613 5.544C69.7573 5.312 69.8933 5.128 70.0693 4.992C70.2453 4.848 70.4573 4.776 70.7053 4.776C71.0333 4.776 71.2533 4.864 71.3653 5.04C71.4773 5.216 71.5333 5.436 71.5333 5.7C71.5333 6.012 71.4573 6.36 71.3053 6.744C71.1533 7.12 70.9613 7.484 70.7293 7.836C70.8733 7.916 71.0253 7.956 71.1853 7.956C71.3133 7.956 71.4573 7.932 71.6173 7.884C71.7773 7.828 71.9333 7.736 72.0853 7.608C72.2453 7.48 72.3733 7.308 72.4693 7.092L72.6133 7.212C72.4533 7.588 72.2253 7.856 71.9293 8.016C71.6413 8.168 71.3653 8.244 71.1013 8.244C70.9973 8.244 70.8973 8.236 70.8013 8.22C70.7053 8.196 70.6133 8.164 70.5253 8.124C70.2533 8.484 69.9533 8.784 69.6253 9.024C69.3053 9.264 68.9933 9.384 68.6893 9.384ZM70.4533 7.62C70.6533 7.324 70.8173 7.016 70.9453 6.696C71.0813 6.368 71.1493 6.06 71.1493 5.772C71.1493 5.54 71.1133 5.372 71.0413 5.268C70.9773 5.156 70.8933 5.1 70.7893 5.1C70.6293 5.1 70.4653 5.216 70.2973 5.448C70.1293 5.68 70.0453 5.972 70.0453 6.324C70.0453 6.556 70.0773 6.792 70.1413 7.032C70.2133 7.264 70.3173 7.46 70.4533 7.62ZM72.8201 9.564C72.5721 9.564 72.3641 9.48 72.1961 9.312C72.0201 9.152 71.9321 8.904 71.9321 8.568C71.9321 8.28 71.9961 7.972 72.1241 7.644C72.2521 7.308 72.4281 6.98 72.6521 6.66C72.8761 6.332 73.1281 6.036 73.4081 5.772C73.6961 5.5 73.9961 5.284 74.3081 5.124C74.6281 4.964 74.9441 4.884 75.2561 4.884C75.5681 4.884 75.8281 4.968 76.0361 5.136C76.2441 5.296 76.3481 5.512 76.3481 5.784C76.3481 5.984 76.2921 6.12 76.1801 6.192C76.0761 6.264 75.9361 6.3 75.7601 6.3C75.7761 6.236 75.7881 6.168 75.7961 6.096C75.8121 6.016 75.8201 5.944 75.8201 5.88C75.8201 5.696 75.7761 5.54 75.6881 5.412C75.6001 5.276 75.4481 5.208 75.2321 5.208C75.0081 5.208 74.7801 5.288 74.5481 5.448C74.3161 5.6 74.0921 5.808 73.8761 6.072C73.6601 6.328 73.4681 6.608 73.3001 6.912C73.1321 7.216 73.0001 7.516 72.9041 7.812C72.8081 8.108 72.7601 8.372 72.7601 8.604C72.7601 8.916 72.8681 9.072 73.0841 9.072C73.2681 9.072 73.4681 8.988 73.6841 8.82C73.9001 8.644 74.1201 8.424 74.3441 8.16C74.5761 7.888 74.7961 7.608 75.0041 7.32C75.2121 7.032 75.3961 6.768 75.5561 6.528C75.5881 6.48 75.6081 6.456 75.6161 6.456C75.6641 6.464 75.7241 6.48 75.7961 6.504C75.8761 6.528 75.9441 6.56 76.0001 6.6C76.0561 6.64 76.0841 6.692 76.0841 6.756C76.0841 6.828 76.0481 6.928 75.9761 7.056C75.9041 7.176 75.8241 7.316 75.7361 7.476C75.6481 7.636 75.5681 7.8 75.4961 7.968C75.4241 8.128 75.3881 8.28 75.3881 8.424C75.3881 8.544 75.4201 8.664 75.4841 8.784C75.5481 8.896 75.6521 8.952 75.7961 8.952C76.0121 8.952 76.2961 8.796 76.6481 8.484C77.0001 8.164 77.3561 7.688 77.7161 7.056L77.8361 7.176C77.6681 7.608 77.4521 7.988 77.1881 8.316C76.9241 8.644 76.6401 8.9 76.3361 9.084C76.0401 9.268 75.7481 9.36 75.4601 9.36C75.1641 9.36 74.9441 9.272 74.8001 9.096C74.6641 8.92 74.5961 8.728 74.5961 8.52C74.5961 8.472 74.6001 8.42 74.6081 8.364C74.6161 8.3 74.6241 8.236 74.6321 8.172C74.2881 8.636 73.9721 8.984 73.6841 9.216C73.4041 9.448 73.1161 9.564 72.8201 9.564ZM76.1441 4.08C75.9681 3.848 75.7721 3.62 75.5561 3.396C75.3401 3.172 75.0881 2.936 74.8001 2.688C74.8161 2.544 74.8481 2.448 74.8961 2.4C74.9441 2.344 75.0001 2.316 75.0641 2.316C75.1841 2.316 75.3161 2.376 75.4601 2.496C75.6041 2.616 75.7401 2.764 75.8681 2.94C75.9961 3.108 76.1001 3.272 76.1801 3.432C76.2681 3.584 76.3121 3.696 76.3121 3.768C76.3121 3.8 76.3001 3.852 76.2761 3.924C76.2521 3.996 76.2081 4.048 76.1441 4.08ZM81.3467 9.24C81.0667 9.24 80.8547 9.168 80.7107 9.024C80.5747 8.88 80.5067 8.696 80.5067 8.472C80.5067 8.304 80.5347 8.128 80.5907 7.944C80.6547 7.76 80.7147 7.572 80.7707 7.38C80.8267 7.18 80.8547 6.988 80.8547 6.804C80.8547 6.58 80.8067 6.428 80.7107 6.348C80.6227 6.26 80.5107 6.216 80.3747 6.216C80.1267 6.216 79.8747 6.32 79.6187 6.528C79.3627 6.728 79.1147 6.988 78.8747 7.308C78.6347 7.62 78.4107 7.944 78.2027 8.28C77.9947 8.616 77.8107 8.916 77.6507 9.18C77.5227 9.18 77.4027 9.156 77.2907 9.108C77.1707 9.068 77.0787 9.004 77.0147 8.916C77.0147 8.876 77.0587 8.752 77.1467 8.544C77.2267 8.336 77.3227 8.08 77.4347 7.776C77.5467 7.472 77.6467 7.16 77.7347 6.84C77.8227 6.52 77.8667 6.228 77.8667 5.964C77.9147 5.908 77.9907 5.852 78.0947 5.796C78.1987 5.74 78.3067 5.712 78.4187 5.712C78.6347 5.712 78.7427 5.816 78.7427 6.024C78.7427 6.152 78.7067 6.368 78.6347 6.672C78.5627 6.968 78.4707 7.28 78.3587 7.608C78.5747 7.28 78.8147 6.956 79.0787 6.636C79.3507 6.308 79.6387 6.036 79.9427 5.82C80.2467 5.604 80.5507 5.496 80.8547 5.496C81.1667 5.496 81.3907 5.608 81.5267 5.832C81.6707 6.056 81.7427 6.304 81.7427 6.576C81.7427 6.824 81.7027 7.056 81.6227 7.272C81.5427 7.48 81.4587 7.684 81.3707 7.884C81.2907 8.076 81.2507 8.272 81.2507 8.472C81.2507 8.64 81.2827 8.76 81.3467 8.832C81.4187 8.896 81.5067 8.928 81.6107 8.928C81.8107 8.928 82.0107 8.836 82.2107 8.652C82.4107 8.46 82.6027 8.22 82.7867 7.932C82.9787 7.644 83.1467 7.352 83.2907 7.056L83.4227 7.212C83.2547 7.604 83.0667 7.952 82.8587 8.256C82.6507 8.56 82.4227 8.8 82.1747 8.976C81.9267 9.152 81.6507 9.24 81.3467 9.24ZM86.6097 7.272C86.6577 7.152 86.7457 7.056 86.8737 6.984C87.0097 6.904 87.1777 6.844 87.3777 6.804C87.5777 6.756 87.8057 6.724 88.0617 6.708C88.3177 6.692 88.5897 6.684 88.8777 6.684C89.0937 6.684 89.3017 6.688 89.5017 6.696C89.7017 6.704 89.8897 6.716 90.0657 6.732C90.2497 6.74 90.4097 6.752 90.5457 6.768C90.6897 6.776 90.8057 6.784 90.8937 6.792C90.5817 6.992 90.2857 7.1 90.0057 7.116C89.7337 7.132 89.4577 7.14 89.1777 7.14C88.9617 7.14 88.7457 7.14 88.5297 7.14C88.3217 7.14 88.1337 7.14 87.9657 7.14C87.8297 7.14 87.6897 7.148 87.5457 7.164C87.4017 7.172 87.2537 7.184 87.1017 7.2C86.9497 7.216 86.7857 7.24 86.6097 7.272ZM97.0754 10.044C96.8274 10.044 96.5914 10.008 96.3674 9.936C96.1434 9.872 95.9514 9.728 95.7914 9.504C95.9034 8.944 96.0554 8.316 96.2474 7.62C96.4474 6.924 96.6474 6.248 96.8474 5.592C96.6234 5.592 96.4114 5.604 96.2114 5.628C96.0114 5.644 95.7714 5.672 95.4914 5.712C95.5554 5.528 95.7234 5.396 95.9954 5.316C96.2674 5.228 96.5994 5.172 96.9914 5.148C97.1754 4.556 97.3474 4.028 97.5074 3.564C97.6674 3.092 97.7874 2.752 97.8674 2.544C97.8914 2.48 97.9314 2.388 97.9874 2.268C98.0434 2.14 98.1114 2.012 98.1914 1.884C98.2714 1.756 98.3634 1.648 98.4674 1.56C98.5714 1.464 98.6834 1.416 98.8034 1.416C98.9154 1.416 99.0274 1.456 99.1394 1.536C98.9154 2.048 98.6874 2.612 98.4554 3.228C98.2314 3.844 98.0154 4.476 97.8074 5.124C98.2234 5.124 98.6114 5.14 98.9714 5.172C99.3314 5.196 99.5994 5.216 99.7754 5.232C99.5754 5.376 99.3594 5.472 99.1274 5.52C98.9034 5.56 98.7074 5.58 98.5394 5.58H97.6634C97.4314 6.316 97.2194 7.04 97.0274 7.752C96.8354 8.456 96.6754 9.1 96.5474 9.684C96.6594 9.7 96.7514 9.712 96.8234 9.72C96.9034 9.728 96.9834 9.732 97.0634 9.732C97.5754 9.732 98.0674 9.612 98.5394 9.372C99.0194 9.14 99.4634 8.82 99.8714 8.412C100.287 7.996 100.651 7.524 100.963 6.996C101.275 6.46 101.515 5.896 101.683 5.304C101.859 4.704 101.947 4.108 101.947 3.516C101.947 2.54 101.719 1.824 101.263 1.368C100.807 0.912 100.215 0.684 99.4874 0.684C98.9674 0.684 98.4994 0.788 98.0834 0.995999C97.6674 1.204 97.3394 1.484 97.0994 1.836C96.8594 2.188 96.7394 2.584 96.7394 3.024C96.7394 3.12 96.7434 3.204 96.7514 3.276C96.7674 3.348 96.7834 3.412 96.7994 3.468C96.5354 3.468 96.3474 3.404 96.2354 3.276C96.1314 3.14 96.0794 2.98 96.0794 2.796C96.0794 2.516 96.1754 2.236 96.3674 1.956C96.5674 1.668 96.8394 1.404 97.1834 1.164C97.5354 0.924 97.9394 0.732 98.3954 0.588C98.8514 0.436 99.3354 0.36 99.8474 0.36C100.567 0.36 101.143 0.508 101.575 0.804C102.015 1.092 102.335 1.484 102.535 1.98C102.735 2.476 102.835 3.032 102.835 3.648C102.835 4.344 102.727 5.012 102.511 5.652C102.295 6.284 101.995 6.868 101.611 7.404C101.235 7.932 100.803 8.396 100.315 8.796C99.8274 9.188 99.3034 9.492 98.7434 9.708C98.1914 9.932 97.6354 10.044 97.0754 10.044ZM103.859 9.36C103.587 9.36 103.367 9.24 103.199 9C103.039 8.752 102.959 8.468 102.959 8.148C102.959 7.916 102.995 7.648 103.067 7.344C103.147 7.04 103.243 6.74 103.355 6.444C103.467 6.148 103.583 5.904 103.703 5.712C103.823 5.52 103.927 5.424 104.015 5.424C104.055 5.424 104.123 5.448 104.219 5.496C104.315 5.536 104.395 5.592 104.459 5.664C104.371 5.8 104.263 6.008 104.135 6.288C104.007 6.568 103.895 6.868 103.799 7.188C103.703 7.508 103.655 7.804 103.655 8.076C103.655 8.14 103.663 8.24 103.679 8.376C103.695 8.504 103.735 8.62 103.799 8.724C103.863 8.828 103.959 8.88 104.087 8.88C104.239 8.88 104.395 8.804 104.555 8.652C104.715 8.492 104.875 8.288 105.035 8.04C105.203 7.792 105.363 7.524 105.515 7.236C105.667 6.948 105.807 6.672 105.935 6.408C106.071 6.144 106.183 5.924 106.271 5.748C106.319 5.756 106.387 5.772 106.475 5.796C106.571 5.82 106.655 5.852 106.727 5.892C106.807 5.932 106.847 5.988 106.847 6.06C106.847 6.092 106.807 6.2 106.727 6.384C106.647 6.56 106.551 6.78 106.439 7.044C106.335 7.3 106.243 7.56 106.163 7.824C106.083 8.088 106.043 8.32 106.043 8.52C106.043 8.664 106.071 8.78 106.127 8.868C106.191 8.956 106.295 9 106.439 9C106.607 9 106.811 8.924 107.051 8.772C107.291 8.62 107.535 8.4 107.783 8.112C108.031 7.816 108.251 7.464 108.443 7.056L108.599 7.164C108.431 7.596 108.211 7.98 107.939 8.316C107.667 8.644 107.379 8.9 107.075 9.084C106.771 9.268 106.475 9.36 106.187 9.36C105.979 9.36 105.811 9.32 105.683 9.24C105.563 9.16 105.475 9.052 105.419 8.916C105.371 8.78 105.347 8.632 105.347 8.472C105.347 8.376 105.355 8.28 105.371 8.184C105.387 8.08 105.407 7.976 105.431 7.872C105.287 8.136 105.131 8.384 104.963 8.616C104.795 8.84 104.619 9.02 104.435 9.156C104.251 9.292 104.059 9.36 103.859 9.36ZM105.647 4.56C105.591 4.528 105.547 4.476 105.515 4.404C105.491 4.332 105.479 4.28 105.479 4.248C105.479 4.176 105.519 4.064 105.599 3.912C105.687 3.752 105.795 3.588 105.923 3.42C106.051 3.244 106.187 3.096 106.331 2.976C106.475 2.856 106.607 2.796 106.727 2.796C106.791 2.796 106.847 2.824 106.895 2.88C106.951 2.928 106.983 3.024 106.991 3.168C106.703 3.416 106.451 3.652 106.235 3.876C106.019 4.1 105.823 4.328 105.647 4.56ZM112.097 9.24C111.817 9.24 111.605 9.168 111.461 9.024C111.325 8.88 111.257 8.696 111.257 8.472C111.257 8.304 111.285 8.128 111.341 7.944C111.405 7.76 111.465 7.572 111.521 7.38C111.577 7.18 111.605 6.988 111.605 6.804C111.605 6.58 111.557 6.428 111.461 6.348C111.373 6.26 111.261 6.216 111.125 6.216C110.877 6.216 110.625 6.32 110.369 6.528C110.113 6.728 109.865 6.988 109.625 7.308C109.385 7.62 109.161 7.944 108.953 8.28C108.745 8.616 108.561 8.916 108.401 9.18C108.273 9.18 108.153 9.156 108.041 9.108C107.921 9.068 107.829 9.004 107.765 8.916C107.765 8.876 107.809 8.752 107.897 8.544C107.977 8.336 108.073 8.08 108.185 7.776C108.297 7.472 108.397 7.16 108.485 6.84C108.573 6.52 108.617 6.228 108.617 5.964C108.665 5.908 108.741 5.852 108.845 5.796C108.949 5.74 109.057 5.712 109.169 5.712C109.385 5.712 109.493 5.816 109.493 6.024C109.493 6.152 109.457 6.368 109.385 6.672C109.313 6.968 109.221 7.28 109.109 7.608C109.325 7.28 109.565 6.956 109.829 6.636C110.101 6.308 110.389 6.036 110.693 5.82C110.997 5.604 111.301 5.496 111.605 5.496C111.917 5.496 112.141 5.608 112.277 5.832C112.421 6.056 112.493 6.304 112.493 6.576C112.493 6.824 112.453 7.056 112.373 7.272C112.293 7.48 112.209 7.684 112.121 7.884C112.041 8.076 112.001 8.272 112.001 8.472C112.001 8.64 112.033 8.76 112.097 8.832C112.169 8.896 112.257 8.928 112.361 8.928C112.561 8.928 112.761 8.836 112.961 8.652C113.161 8.46 113.353 8.22 113.537 7.932C113.729 7.644 113.897 7.352 114.041 7.056L114.173 7.212C114.005 7.604 113.817 7.952 113.609 8.256C113.401 8.56 113.173 8.8 112.925 8.976C112.677 9.152 112.401 9.24 112.097 9.24ZM114.267 12.36C114.091 12.36 113.931 12.304 113.787 12.192C113.643 12.088 113.571 11.912 113.571 11.664C113.571 11.424 113.647 11.2 113.799 10.992C113.943 10.792 114.131 10.604 114.363 10.428C114.595 10.26 114.847 10.104 115.119 9.96C115.399 9.816 115.663 9.68 115.911 9.552C116.023 9.272 116.127 8.972 116.223 8.652C116.327 8.324 116.427 7.964 116.523 7.572C116.219 8.012 115.899 8.38 115.563 8.676C115.235 8.964 114.903 9.108 114.567 9.108C114.279 9.108 114.055 9 113.895 8.784C113.743 8.568 113.667 8.288 113.667 7.944C113.667 7.528 113.767 7.132 113.967 6.756C114.175 6.38 114.443 6.048 114.771 5.76C115.099 5.472 115.447 5.248 115.815 5.088C116.183 4.92 116.527 4.836 116.847 4.836C117.079 4.836 117.243 4.876 117.339 4.956C117.443 5.028 117.495 5.116 117.495 5.22C117.495 5.292 117.475 5.348 117.435 5.388C117.395 5.428 117.367 5.452 117.351 5.46C117.311 5.396 117.251 5.352 117.171 5.328C117.091 5.296 116.991 5.28 116.871 5.28C116.559 5.28 116.255 5.372 115.959 5.556C115.671 5.74 115.415 5.976 115.191 6.264C114.967 6.552 114.787 6.852 114.651 7.164C114.523 7.468 114.459 7.748 114.459 8.004C114.459 8.196 114.495 8.344 114.567 8.448C114.647 8.544 114.751 8.592 114.879 8.592C115.111 8.592 115.387 8.44 115.707 8.136C116.035 7.824 116.351 7.448 116.655 7.008C116.679 6.896 116.699 6.796 116.715 6.708C116.739 6.62 116.767 6.508 116.799 6.372C116.823 6.26 116.879 6.132 116.967 5.988C117.063 5.836 117.211 5.76 117.411 5.76C117.451 5.76 117.491 5.764 117.531 5.772C117.571 5.772 117.615 5.78 117.663 5.796C117.663 5.924 117.623 6.16 117.543 6.504C117.471 6.84 117.363 7.236 117.219 7.692C117.083 8.14 116.923 8.604 116.739 9.084C117.003 8.956 117.259 8.792 117.507 8.592C117.763 8.392 117.995 8.164 118.203 7.908C118.411 7.644 118.575 7.36 118.695 7.056L118.851 7.176C118.731 7.536 118.539 7.864 118.275 8.16C118.011 8.456 117.727 8.712 117.423 8.928C117.127 9.144 116.855 9.312 116.607 9.432C116.383 9.968 116.147 10.456 115.899 10.896C115.651 11.344 115.391 11.7 115.119 11.964C114.855 12.228 114.571 12.36 114.267 12.36ZM114.231 11.976C114.391 11.976 114.607 11.816 114.879 11.496C115.159 11.184 115.459 10.644 115.779 9.876C115.459 10.036 115.159 10.2 114.879 10.368C114.607 10.544 114.383 10.728 114.207 10.92C114.031 11.112 113.943 11.324 113.943 11.556C113.943 11.684 113.971 11.784 114.027 11.856C114.083 11.936 114.151 11.976 114.231 11.976ZM122.156 9.456C122.004 9.456 121.884 9.328 121.796 9.072C121.708 8.816 121.664 8.528 121.664 8.208C121.664 7.824 121.728 7.368 121.856 6.84C121.984 6.312 122.152 5.756 122.36 5.172C122.568 4.588 122.8 4.016 123.056 3.456C123.32 2.896 123.588 2.388 123.86 1.932C124.132 1.476 124.388 1.112 124.628 0.84C124.868 0.568 125.076 0.431999 125.252 0.431999C125.396 0.431999 125.496 0.52 125.552 0.696C125.616 0.864 125.648 1.028 125.648 1.188C125.648 1.412 125.596 1.684 125.492 2.004C125.396 2.324 125.26 2.668 125.084 3.036C124.908 3.396 124.704 3.752 124.472 4.104C124.24 4.456 123.988 4.78 123.716 5.076C123.444 5.364 123.168 5.592 122.888 5.76C122.792 5.992 122.708 6.252 122.636 6.54C122.572 6.828 122.524 7.112 122.492 7.392C122.46 7.664 122.444 7.908 122.444 8.124C122.444 8.212 122.444 8.288 122.444 8.352C122.452 8.416 122.46 8.476 122.468 8.532C122.58 8.204 122.7 7.888 122.828 7.584C122.964 7.272 123.108 6.988 123.26 6.732C123.412 6.468 123.572 6.24 123.74 6.048C123.916 5.848 124.1 5.696 124.292 5.592C124.484 5.48 124.688 5.424 124.904 5.424C125.128 5.424 125.304 5.48 125.432 5.592C125.568 5.696 125.664 5.832 125.72 6C125.784 6.16 125.816 6.328 125.816 6.504C125.816 6.752 125.772 6.992 125.684 7.224C125.604 7.456 125.52 7.68 125.432 7.896C125.344 8.112 125.3 8.32 125.3 8.52C125.3 8.68 125.332 8.796 125.396 8.868C125.468 8.94 125.556 8.976 125.66 8.976C125.844 8.976 126.048 8.888 126.272 8.712C126.504 8.536 126.732 8.304 126.956 8.016C127.18 7.72 127.372 7.4 127.532 7.056L127.688 7.2C127.52 7.592 127.316 7.948 127.076 8.268C126.836 8.58 126.572 8.828 126.284 9.012C125.996 9.196 125.696 9.288 125.384 9.288C125.112 9.288 124.904 9.216 124.76 9.072C124.624 8.928 124.556 8.748 124.556 8.532C124.556 8.364 124.588 8.176 124.652 7.968C124.716 7.76 124.776 7.548 124.832 7.332C124.896 7.116 124.928 6.912 124.928 6.72C124.928 6.512 124.884 6.364 124.796 6.276C124.708 6.188 124.6 6.144 124.472 6.144C124.272 6.144 124.092 6.224 123.932 6.384C123.772 6.544 123.624 6.752 123.488 7.008C123.36 7.256 123.236 7.52 123.116 7.8C123.004 8.08 122.896 8.348 122.792 8.604C122.688 8.852 122.584 9.056 122.48 9.216C122.376 9.376 122.268 9.456 122.156 9.456ZM123.044 5.292C123.268 5.116 123.484 4.892 123.692 4.62C123.908 4.348 124.108 4.06 124.292 3.756C124.476 3.444 124.64 3.14 124.784 2.844C124.928 2.548 125.04 2.28 125.12 2.04C125.2 1.8 125.24 1.62 125.24 1.5C125.24 1.46 125.236 1.436 125.228 1.428C125.22 1.412 125.208 1.404 125.192 1.404C125.136 1.404 125.02 1.516 124.844 1.74C124.676 1.956 124.48 2.248 124.256 2.616C124.032 2.984 123.812 3.4 123.596 3.864C123.38 4.328 123.196 4.804 123.044 5.292ZM128.595 9.528C128.107 9.528 127.739 9.392 127.491 9.12C127.251 8.856 127.131 8.528 127.131 8.136C127.131 7.776 127.219 7.396 127.395 6.996C127.579 6.596 127.819 6.22 128.115 5.868C128.419 5.516 128.751 5.232 129.111 5.016C129.471 4.792 129.827 4.68 130.179 4.68C130.363 4.68 130.531 4.728 130.683 4.824C130.843 4.92 130.923 5.116 130.923 5.412C130.923 5.716 130.831 6.004 130.647 6.276C130.471 6.54 130.235 6.776 129.939 6.984C129.651 7.192 129.331 7.364 128.979 7.5C128.635 7.628 128.291 7.708 127.947 7.74C127.931 7.82 127.919 7.896 127.911 7.968C127.903 8.04 127.899 8.108 127.899 8.172C127.899 8.292 127.911 8.412 127.935 8.532C127.967 8.652 128.019 8.764 128.091 8.868C128.163 8.964 128.259 9.04 128.379 9.096C128.507 9.152 128.663 9.18 128.847 9.18C129.191 9.18 129.531 9.084 129.867 8.892C130.203 8.692 130.515 8.432 130.803 8.112C131.091 7.792 131.335 7.44 131.535 7.056L131.679 7.164C131.463 7.644 131.187 8.06 130.851 8.412C130.523 8.764 130.163 9.036 129.771 9.228C129.387 9.428 128.995 9.528 128.595 9.528ZM128.007 7.512C128.223 7.44 128.467 7.336 128.739 7.2C129.011 7.056 129.271 6.888 129.519 6.696C129.775 6.504 129.983 6.292 130.143 6.06C130.311 5.828 130.395 5.584 130.395 5.328C130.395 5.24 130.379 5.172 130.347 5.124C130.315 5.076 130.247 5.052 130.143 5.052C129.951 5.052 129.747 5.128 129.531 5.28C129.315 5.424 129.107 5.616 128.907 5.856C128.707 6.096 128.527 6.36 128.367 6.648C128.207 6.936 128.087 7.224 128.007 7.512ZM128.319 11.604C128.175 11.604 128.059 11.568 127.971 11.496C127.883 11.432 127.839 11.336 127.839 11.208C127.839 11.032 127.923 10.888 128.091 10.776C128.267 10.672 128.443 10.62 128.619 10.62C128.755 10.62 128.859 10.652 128.931 10.716C129.003 10.788 129.039 10.888 129.039 11.016C129.039 11.168 128.963 11.304 128.811 11.424C128.659 11.544 128.495 11.604 128.319 11.604ZM135.171 9.24C134.891 9.24 134.679 9.168 134.535 9.024C134.399 8.88 134.331 8.696 134.331 8.472C134.331 8.304 134.359 8.128 134.415 7.944C134.479 7.76 134.539 7.572 134.595 7.38C134.651 7.18 134.679 6.988 134.679 6.804C134.679 6.58 134.631 6.428 134.535 6.348C134.447 6.26 134.335 6.216 134.199 6.216C133.951 6.216 133.699 6.32 133.443 6.528C133.187 6.728 132.939 6.988 132.699 7.308C132.459 7.62 132.235 7.944 132.027 8.28C131.819 8.616 131.635 8.916 131.475 9.18C131.347 9.18 131.227 9.156 131.115 9.108C130.995 9.068 130.903 9.004 130.839 8.916C130.839 8.876 130.883 8.752 130.971 8.544C131.051 8.336 131.147 8.08 131.259 7.776C131.371 7.472 131.471 7.16 131.559 6.84C131.647 6.52 131.691 6.228 131.691 5.964C131.739 5.908 131.815 5.852 131.919 5.796C132.023 5.74 132.131 5.712 132.243 5.712C132.459 5.712 132.567 5.816 132.567 6.024C132.567 6.152 132.531 6.368 132.459 6.672C132.387 6.968 132.295 7.28 132.183 7.608C132.399 7.28 132.639 6.956 132.903 6.636C133.175 6.308 133.463 6.036 133.767 5.82C134.071 5.604 134.375 5.496 134.679 5.496C134.991 5.496 135.215 5.608 135.351 5.832C135.495 6.056 135.567 6.304 135.567 6.576C135.567 6.824 135.527 7.056 135.447 7.272C135.367 7.48 135.283 7.684 135.195 7.884C135.115 8.076 135.075 8.272 135.075 8.472C135.075 8.64 135.107 8.76 135.171 8.832C135.243 8.896 135.331 8.928 135.435 8.928C135.635 8.928 135.835 8.836 136.035 8.652C136.235 8.46 136.427 8.22 136.611 7.932C136.803 7.644 136.971 7.352 137.115 7.056L137.247 7.212C137.079 7.604 136.891 7.952 136.683 8.256C136.475 8.56 136.247 8.8 135.999 8.976C135.751 9.152 135.475 9.24 135.171 9.24ZM31.0526 24.044C30.6926 24.044 30.4446 23.964 30.3086 23.804C30.1726 23.644 30.1046 23.44 30.1046 23.192C30.1046 22.96 30.1526 22.684 30.2486 22.364C30.3446 22.044 30.4446 21.736 30.5486 21.44C30.6846 21.048 30.8486 20.588 31.0406 20.06C31.2326 19.532 31.4366 18.98 31.6526 18.404C31.8766 17.828 32.1006 17.26 32.3246 16.7C32.5566 16.14 32.7806 15.632 32.9966 15.176C32.4446 15.184 31.9806 15.196 31.6046 15.212C31.2366 15.228 30.9046 15.252 30.6086 15.284C30.3126 15.308 29.9886 15.352 29.6366 15.416C29.6606 15.144 29.8006 14.932 30.0566 14.78C30.3126 14.628 30.6566 14.52 31.0886 14.456C31.5206 14.392 32.0126 14.36 32.5646 14.36C33.1166 14.36 33.6086 14.384 34.0406 14.432C34.4806 14.472 34.8926 14.512 35.2766 14.552C35.6606 14.592 36.0446 14.616 36.4286 14.624C36.1566 14.872 35.8446 15.028 35.4926 15.092C35.1406 15.156 34.7686 15.188 34.3766 15.188C34.2886 15.188 34.1966 15.188 34.1006 15.188C34.0046 15.18 33.9086 15.176 33.8126 15.176C33.7166 15.176 33.6206 15.176 33.5246 15.176C33.2686 15.816 32.9726 16.624 32.6366 17.6C32.3086 18.576 31.9766 19.676 31.6406 20.9C31.5286 21.324 31.4246 21.704 31.3286 22.04C31.2406 22.376 31.1686 22.684 31.1126 22.964C31.0646 23.244 31.0406 23.516 31.0406 23.78C31.0406 23.82 31.0406 23.864 31.0406 23.912C31.0406 23.96 31.0446 24.004 31.0526 24.044ZM34.5945 23.312C34.2825 23.312 34.0505 23.212 33.8985 23.012C33.7465 22.82 33.6705 22.584 33.6705 22.304C33.6705 22.12 33.7025 21.888 33.7665 21.608C33.8385 21.328 33.9305 21.036 34.0425 20.732C34.1545 20.42 34.2825 20.128 34.4265 19.856C34.5785 19.584 34.7385 19.364 34.9065 19.196C35.0745 19.02 35.2385 18.932 35.3985 18.932C35.4705 18.932 35.5305 18.956 35.5785 19.004C35.6345 19.044 35.6625 19.108 35.6625 19.196C35.6625 19.292 35.5985 19.448 35.4705 19.664C35.3505 19.88 35.2065 20.128 35.0385 20.408C34.8705 20.688 34.7225 20.984 34.5945 21.296C34.4745 21.6 34.4145 21.892 34.4145 22.172C34.4145 22.46 34.4625 22.652 34.5585 22.748C34.6545 22.844 34.8025 22.892 35.0025 22.892C35.2745 22.892 35.5625 22.756 35.8665 22.484C36.1785 22.212 36.5065 21.736 36.8505 21.056L36.9585 21.176C36.7265 21.864 36.3905 22.392 35.9505 22.76C35.5185 23.128 35.0665 23.312 34.5945 23.312ZM36.0345 17.816C35.9065 17.816 35.7905 17.784 35.6865 17.72C35.5905 17.656 35.5425 17.556 35.5425 17.42C35.5425 17.252 35.6385 17.108 35.8305 16.988C36.0305 16.86 36.2265 16.796 36.4185 16.796C36.5385 16.796 36.6345 16.824 36.7065 16.88C36.7785 16.936 36.8145 17.032 36.8145 17.168C36.8145 17.32 36.7305 17.468 36.5625 17.612C36.4025 17.748 36.2265 17.816 36.0345 17.816ZM37.921 23.528C37.433 23.528 37.065 23.392 36.817 23.12C36.577 22.856 36.457 22.528 36.457 22.136C36.457 21.776 36.545 21.396 36.721 20.996C36.905 20.596 37.145 20.22 37.441 19.868C37.745 19.516 38.077 19.232 38.437 19.016C38.797 18.792 39.153 18.68 39.505 18.68C39.689 18.68 39.857 18.728 40.009 18.824C40.169 18.92 40.249 19.116 40.249 19.412C40.249 19.716 40.157 20.004 39.973 20.276C39.797 20.54 39.561 20.776 39.265 20.984C38.977 21.192 38.657 21.364 38.305 21.5C37.961 21.628 37.617 21.708 37.273 21.74C37.257 21.82 37.245 21.896 37.237 21.968C37.229 22.04 37.225 22.108 37.225 22.172C37.225 22.292 37.237 22.412 37.261 22.532C37.293 22.652 37.345 22.764 37.417 22.868C37.489 22.964 37.585 23.04 37.705 23.096C37.833 23.152 37.989 23.18 38.173 23.18C38.517 23.18 38.857 23.084 39.193 22.892C39.529 22.692 39.841 22.432 40.129 22.112C40.417 21.792 40.661 21.44 40.861 21.056L41.005 21.164C40.789 21.644 40.513 22.06 40.177 22.412C39.849 22.764 39.489 23.036 39.097 23.228C38.713 23.428 38.321 23.528 37.921 23.528ZM37.333 21.512C37.549 21.44 37.793 21.336 38.065 21.2C38.337 21.056 38.597 20.888 38.845 20.696C39.101 20.504 39.309 20.292 39.469 20.06C39.637 19.828 39.721 19.584 39.721 19.328C39.721 19.24 39.705 19.172 39.673 19.124C39.641 19.076 39.573 19.052 39.469 19.052C39.277 19.052 39.073 19.128 38.857 19.28C38.641 19.424 38.433 19.616 38.233 19.856C38.033 20.096 37.853 20.36 37.693 20.648C37.533 20.936 37.413 21.224 37.333 21.512ZM41.173 17.42C41.093 17.38 41.033 17.328 40.993 17.264C40.953 17.2 40.933 17.136 40.933 17.072C40.933 16.992 40.969 16.888 41.041 16.76C41.113 16.624 41.205 16.492 41.317 16.364C41.429 16.228 41.545 16.116 41.665 16.028C41.793 15.94 41.909 15.896 42.013 15.896C42.077 15.896 42.133 15.924 42.181 15.98C42.237 16.028 42.269 16.124 42.277 16.268C42.125 16.404 41.981 16.536 41.845 16.664C41.717 16.792 41.597 16.92 41.485 17.048C41.373 17.168 41.269 17.292 41.173 17.42ZM40.765 18.56C40.653 18.328 40.525 18.132 40.381 17.972C40.237 17.804 40.069 17.632 39.877 17.456C39.629 17.544 39.405 17.64 39.205 17.744C39.013 17.848 38.825 17.98 38.641 18.14C38.593 18.108 38.561 18.072 38.545 18.032C38.529 17.984 38.521 17.944 38.521 17.912C38.521 17.792 38.573 17.672 38.677 17.552C38.789 17.432 38.921 17.32 39.073 17.216C39.233 17.104 39.389 17.016 39.541 16.952C39.693 16.888 39.809 16.856 39.889 16.856C39.985 16.856 40.093 16.9 40.213 16.988C40.341 17.076 40.461 17.192 40.573 17.336C40.685 17.472 40.777 17.616 40.849 17.768C40.929 17.92 40.969 18.06 40.969 18.188C40.969 18.268 40.953 18.34 40.921 18.404C40.889 18.468 40.837 18.52 40.765 18.56ZM41.6411 23.552C41.2971 23.552 41.0331 23.452 40.8491 23.252C40.6651 23.052 40.5731 22.756 40.5731 22.364C40.5731 22.012 40.6371 21.58 40.7651 21.068C40.9011 20.548 41.0691 20.016 41.2691 19.472C41.1891 19.456 41.1131 19.444 41.0411 19.436C40.9691 19.42 40.9011 19.4 40.8371 19.376V19.16C40.9011 19.168 40.9771 19.176 41.0651 19.184C41.1531 19.192 41.2531 19.2 41.3651 19.208C41.5331 18.776 41.7131 18.36 41.9051 17.96C42.0971 17.552 42.2851 17.192 42.4691 16.88C42.6611 16.56 42.8411 16.308 43.0091 16.124C43.1851 15.932 43.3331 15.836 43.4531 15.836C43.5171 15.836 43.5731 15.86 43.6211 15.908C43.6771 15.948 43.7051 16.012 43.7051 16.1C43.7051 16.236 43.6211 16.46 43.4531 16.772C43.2851 17.076 43.0771 17.44 42.8291 17.864C42.5811 18.288 42.3411 18.748 42.1091 19.244C42.1811 19.244 42.2531 19.244 42.3251 19.244C42.4051 19.244 42.4811 19.244 42.5531 19.244C42.8171 19.244 43.0931 19.24 43.3811 19.232C43.6771 19.224 43.9731 19.204 44.2691 19.172V19.388C43.8291 19.436 43.4331 19.472 43.0811 19.496C42.7371 19.52 42.4291 19.532 42.1571 19.532C42.1251 19.532 42.0931 19.532 42.0611 19.532C42.0371 19.532 42.0091 19.532 41.9771 19.532C41.7931 19.956 41.6371 20.392 41.5091 20.84C41.3811 21.288 41.3171 21.724 41.3171 22.148C41.3171 22.492 41.3691 22.74 41.4731 22.892C41.5771 23.036 41.7491 23.108 41.9891 23.108C42.4051 23.108 42.8131 22.924 43.2131 22.556C43.6131 22.188 43.9651 21.688 44.2691 21.056L44.4251 21.176C44.2331 21.624 43.9891 22.028 43.6931 22.388C43.4051 22.748 43.0851 23.032 42.7331 23.24C42.3811 23.448 42.0171 23.552 41.6411 23.552ZM50.7242 23.456C50.5002 23.456 50.3082 23.38 50.1482 23.228C49.9882 23.076 49.8602 22.884 49.7642 22.652C49.6762 22.42 49.6082 22.184 49.5602 21.944C49.5202 21.696 49.5002 21.48 49.5002 21.296C49.5882 21.296 49.7162 21.276 49.8842 21.236C50.0522 21.188 50.2242 21.12 50.4002 21.032C50.5762 20.936 50.7242 20.816 50.8442 20.672C50.9722 20.52 51.0362 20.344 51.0362 20.144C51.0362 19.976 50.9762 19.844 50.8562 19.748C50.7362 19.652 50.5962 19.604 50.4362 19.604C50.1882 19.604 49.9562 19.692 49.7402 19.868C49.5242 20.036 49.3282 20.26 49.1522 20.54C48.9842 20.812 48.8322 21.104 48.6962 21.416C48.5602 21.728 48.4442 22.024 48.3482 22.304C48.2522 22.584 48.1722 22.816 48.1082 23C48.0602 23.144 47.9922 23.24 47.9042 23.288C47.8162 23.344 47.7242 23.372 47.6282 23.372C47.4922 23.372 47.3922 23.316 47.3282 23.204C47.2722 23.092 47.2362 22.952 47.2202 22.784C47.2122 22.608 47.2082 22.428 47.2082 22.244C47.2082 21.828 47.2762 21.348 47.4122 20.804C47.5482 20.26 47.7282 19.696 47.9522 19.112C48.1842 18.52 48.4362 17.948 48.7082 17.396C48.9802 16.844 49.2522 16.344 49.5242 15.896C49.7962 15.448 50.0482 15.092 50.2802 14.828C50.5122 14.564 50.7002 14.432 50.8442 14.432C50.9562 14.432 51.0442 14.508 51.1082 14.66C51.1802 14.812 51.2162 14.996 51.2162 15.212C51.2162 15.484 51.1562 15.792 51.0362 16.136C50.9162 16.472 50.7442 16.812 50.5202 17.156C50.3042 17.5 50.0442 17.824 49.7402 18.128C49.4442 18.432 49.1202 18.692 48.7682 18.908C48.5042 19.556 48.3042 20.188 48.1682 20.804C48.0402 21.412 47.9762 21.924 47.9762 22.34C48.1042 22.02 48.2562 21.668 48.4322 21.284C48.6162 20.9 48.8242 20.532 49.0562 20.18C49.2882 19.828 49.5402 19.54 49.8122 19.316C50.0842 19.092 50.3682 18.98 50.6642 18.98C50.9602 18.98 51.2122 19.084 51.4202 19.292C51.6282 19.5 51.7322 19.752 51.7322 20.048C51.7322 20.304 51.6642 20.524 51.5282 20.708C51.4002 20.884 51.2402 21.028 51.0482 21.14C50.8642 21.244 50.6762 21.324 50.4842 21.38C50.3002 21.428 50.1482 21.452 50.0282 21.452C50.0362 21.516 50.0602 21.632 50.1002 21.8C50.1402 21.968 50.1962 22.144 50.2682 22.328C50.3482 22.512 50.4442 22.672 50.5562 22.808C50.6682 22.936 50.8042 23 50.9642 23C51.1962 23 51.4162 22.912 51.6242 22.736C51.8322 22.56 52.0282 22.328 52.2122 22.04C52.4042 21.744 52.5802 21.412 52.7402 21.044L52.8602 21.164C52.7482 21.556 52.5762 21.928 52.3442 22.28C52.1122 22.624 51.8522 22.904 51.5642 23.12C51.2842 23.344 51.0042 23.456 50.7242 23.456ZM48.9722 18.428C49.3402 18.132 49.6602 17.796 49.9322 17.42C50.2122 17.044 50.4282 16.684 50.5802 16.34C50.7322 15.988 50.8082 15.712 50.8082 15.512C50.8082 15.472 50.8042 15.444 50.7962 15.428C50.7962 15.412 50.7882 15.404 50.7722 15.404C50.6922 15.404 50.5522 15.544 50.3522 15.824C50.1602 16.104 49.9402 16.476 49.6922 16.94C49.4442 17.396 49.2042 17.892 48.9722 18.428ZM53.3796 23.312C53.0676 23.312 52.8356 23.212 52.6836 23.012C52.5316 22.82 52.4556 22.584 52.4556 22.304C52.4556 22.12 52.4876 21.888 52.5516 21.608C52.6236 21.328 52.7156 21.036 52.8276 20.732C52.9396 20.42 53.0676 20.128 53.2116 19.856C53.3636 19.584 53.5236 19.364 53.6916 19.196C53.8596 19.02 54.0236 18.932 54.1836 18.932C54.2556 18.932 54.3156 18.956 54.3636 19.004C54.4196 19.044 54.4476 19.108 54.4476 19.196C54.4476 19.292 54.3836 19.448 54.2556 19.664C54.1356 19.88 53.9916 20.128 53.8236 20.408C53.6556 20.688 53.5076 20.984 53.3796 21.296C53.2596 21.6 53.1996 21.892 53.1996 22.172C53.1996 22.46 53.2476 22.652 53.3436 22.748C53.4396 22.844 53.5876 22.892 53.7876 22.892C54.0596 22.892 54.3476 22.756 54.6516 22.484C54.9636 22.212 55.2916 21.736 55.6356 21.056L55.7436 21.176C55.5116 21.864 55.1756 22.392 54.7356 22.76C54.3036 23.128 53.8516 23.312 53.3796 23.312ZM54.8196 17.816C54.6916 17.816 54.5756 17.784 54.4716 17.72C54.3756 17.656 54.3276 17.556 54.3276 17.42C54.3276 17.252 54.4236 17.108 54.6156 16.988C54.8156 16.86 55.0116 16.796 55.2036 16.796C55.3236 16.796 55.4196 16.824 55.4916 16.88C55.5636 16.936 55.5996 17.032 55.5996 17.168C55.5996 17.32 55.5156 17.468 55.3476 17.612C55.1876 17.748 55.0116 17.816 54.8196 17.816ZM56.7062 23.528C56.2182 23.528 55.8502 23.392 55.6022 23.12C55.3622 22.856 55.2422 22.528 55.2422 22.136C55.2422 21.776 55.3302 21.396 55.5062 20.996C55.6902 20.596 55.9302 20.22 56.2262 19.868C56.5302 19.516 56.8622 19.232 57.2222 19.016C57.5822 18.792 57.9382 18.68 58.2902 18.68C58.4742 18.68 58.6422 18.728 58.7942 18.824C58.9542 18.92 59.0342 19.116 59.0342 19.412C59.0342 19.716 58.9422 20.004 58.7582 20.276C58.5822 20.54 58.3462 20.776 58.0502 20.984C57.7622 21.192 57.4422 21.364 57.0902 21.5C56.7462 21.628 56.4022 21.708 56.0582 21.74C56.0422 21.82 56.0302 21.896 56.0222 21.968C56.0142 22.04 56.0102 22.108 56.0102 22.172C56.0102 22.292 56.0222 22.412 56.0462 22.532C56.0782 22.652 56.1302 22.764 56.2022 22.868C56.2742 22.964 56.3702 23.04 56.4902 23.096C56.6182 23.152 56.7742 23.18 56.9582 23.18C57.3022 23.18 57.6422 23.084 57.9782 22.892C58.3142 22.692 58.6262 22.432 58.9142 22.112C59.2022 21.792 59.4462 21.44 59.6462 21.056L59.7902 21.164C59.5742 21.644 59.2982 22.06 58.9622 22.412C58.6342 22.764 58.2742 23.036 57.8822 23.228C57.4982 23.428 57.1062 23.528 56.7062 23.528ZM56.1182 21.512C56.3342 21.44 56.5782 21.336 56.8502 21.2C57.1222 21.056 57.3822 20.888 57.6302 20.696C57.8862 20.504 58.0942 20.292 58.2542 20.06C58.4222 19.828 58.5062 19.584 58.5062 19.328C58.5062 19.24 58.4902 19.172 58.4582 19.124C58.4262 19.076 58.3582 19.052 58.2542 19.052C58.0622 19.052 57.8582 19.128 57.6422 19.28C57.4262 19.424 57.2182 19.616 57.0182 19.856C56.8182 20.096 56.6382 20.36 56.4782 20.648C56.3182 20.936 56.1982 21.224 56.1182 21.512ZM59.7302 18.08C59.6182 17.848 59.4902 17.652 59.3462 17.492C59.2022 17.324 59.0342 17.152 58.8422 16.976C58.5942 17.064 58.3702 17.16 58.1702 17.264C57.9782 17.368 57.7902 17.5 57.6062 17.66C57.5582 17.628 57.5262 17.592 57.5102 17.552C57.4942 17.504 57.4862 17.464 57.4862 17.432C57.4862 17.312 57.5382 17.192 57.6422 17.072C57.7542 16.952 57.8862 16.84 58.0382 16.736C58.1982 16.624 58.3542 16.536 58.5062 16.472C58.6582 16.408 58.7742 16.376 58.8542 16.376C58.9502 16.376 59.0582 16.42 59.1782 16.508C59.3062 16.596 59.4262 16.712 59.5382 16.856C59.6502 16.992 59.7422 17.136 59.8142 17.288C59.8942 17.44 59.9342 17.58 59.9342 17.708C59.9342 17.788 59.9182 17.86 59.8862 17.924C59.8542 17.988 59.8022 18.04 59.7302 18.08ZM56.4302 25.604C56.2862 25.604 56.1702 25.568 56.0822 25.496C55.9942 25.432 55.9502 25.336 55.9502 25.208C55.9502 25.032 56.0342 24.888 56.2022 24.776C56.3782 24.672 56.5542 24.62 56.7302 24.62C56.8662 24.62 56.9702 24.652 57.0422 24.716C57.1142 24.788 57.1502 24.888 57.1502 25.016C57.1502 25.168 57.0742 25.304 56.9222 25.424C56.7702 25.544 56.6062 25.604 56.4302 25.604ZM65.4543 23.372C65.1743 23.372 64.9703 23.284 64.8423 23.108C64.7143 22.94 64.6503 22.736 64.6503 22.496C64.6503 22.296 64.6783 22.096 64.7343 21.896C64.7983 21.696 64.8583 21.5 64.9143 21.308C64.9783 21.116 65.0103 20.944 65.0103 20.792C65.0103 20.632 64.9743 20.52 64.9023 20.456C64.8303 20.392 64.7503 20.36 64.6623 20.36C64.4623 20.36 64.2423 20.516 64.0023 20.828C63.7703 21.14 63.4663 21.58 63.0903 22.148C62.9623 22.34 62.8543 22.536 62.7663 22.736C62.6783 22.928 62.5943 23.104 62.5143 23.264C62.4503 23.264 62.3703 23.256 62.2743 23.24C62.1783 23.224 62.0903 23.196 62.0103 23.156C61.9383 23.124 61.9023 23.08 61.9023 23.024C61.9023 22.968 61.9383 22.836 62.0103 22.628C62.0903 22.412 62.1783 22.164 62.2743 21.884C62.3783 21.596 62.4663 21.308 62.5383 21.02C62.6183 20.724 62.6583 20.472 62.6583 20.264C62.6583 20.128 62.6343 20.02 62.5863 19.94C62.5463 19.852 62.4703 19.808 62.3583 19.808C62.1823 19.808 61.9703 19.916 61.7223 20.132C61.4743 20.34 61.2183 20.616 60.9543 20.96C60.6903 21.304 60.4383 21.684 60.1982 22.1C59.9663 22.508 59.7783 22.916 59.6343 23.324C59.5623 23.324 59.4743 23.312 59.3702 23.288C59.2662 23.264 59.1782 23.232 59.1062 23.192C59.0262 23.152 58.9862 23.112 58.9862 23.072C58.9862 23.024 59.0302 22.884 59.1182 22.652C59.1982 22.412 59.2942 22.128 59.4062 21.8C59.5103 21.464 59.6023 21.124 59.6823 20.78C59.7703 20.436 59.8143 20.132 59.8143 19.868C59.8623 19.812 59.9383 19.756 60.0423 19.7C60.1463 19.644 60.2543 19.616 60.3663 19.616C60.4783 19.616 60.5583 19.644 60.6063 19.7C60.6623 19.756 60.6903 19.832 60.6903 19.928C60.6903 20.032 60.6583 20.212 60.5943 20.468C60.5383 20.716 60.4663 20.992 60.3783 21.296C60.5383 21.04 60.7183 20.78 60.9183 20.516C61.1263 20.244 61.3423 19.996 61.5663 19.772C61.7903 19.548 62.0143 19.368 62.2383 19.232C62.4703 19.088 62.6943 19.016 62.9103 19.016C63.1583 19.016 63.3263 19.108 63.4143 19.292C63.5103 19.468 63.5583 19.68 63.5583 19.928C63.5583 20.128 63.5343 20.34 63.4863 20.564C63.4463 20.78 63.3983 20.984 63.3423 21.176C63.2863 21.36 63.2343 21.508 63.1863 21.62C63.3543 21.316 63.5383 21.024 63.7383 20.744C63.9463 20.456 64.1703 20.224 64.4103 20.048C64.6503 19.864 64.9063 19.772 65.1783 19.772C65.4343 19.772 65.6103 19.848 65.7063 20C65.8103 20.152 65.8623 20.332 65.8623 20.54C65.8623 20.748 65.8263 20.976 65.7543 21.224C65.6823 21.472 65.6063 21.712 65.5263 21.944C65.4543 22.176 65.4183 22.376 65.4183 22.544C65.4183 22.648 65.4423 22.744 65.4903 22.832C65.5463 22.912 65.6423 22.952 65.7783 22.952C66.0023 22.952 66.2103 22.852 66.4023 22.652C66.6023 22.444 66.7863 22.196 66.9543 21.908C67.1223 21.612 67.2663 21.328 67.3863 21.056L67.5303 21.224C67.4023 21.56 67.2383 21.896 67.0383 22.232C66.8383 22.56 66.6023 22.832 66.3303 23.048C66.0663 23.264 65.7743 23.372 65.4543 23.372ZM71.3013 23.552C70.9573 23.552 70.6933 23.452 70.5093 23.252C70.3253 23.052 70.2332 22.756 70.2332 22.364C70.2332 22.124 70.2652 21.836 70.3293 21.5C70.4013 21.164 70.4933 20.808 70.6053 20.432C70.7253 20.048 70.8533 19.676 70.9893 19.316C70.9093 19.3 70.8333 19.276 70.7613 19.244C70.6893 19.204 70.6213 19.172 70.5573 19.148V18.932C70.6213 18.94 70.6973 18.96 70.7853 18.992C70.8733 19.024 70.9733 19.044 71.0853 19.052C71.3093 18.476 71.5453 17.944 71.7933 17.456C72.0493 16.968 72.2933 16.576 72.5253 16.28C72.7573 15.984 72.9533 15.836 73.1133 15.836C73.1773 15.836 73.2333 15.86 73.2812 15.908C73.3372 15.948 73.3652 16.012 73.3652 16.1C73.3652 16.18 73.3333 16.296 73.2693 16.448C73.2053 16.592 73.1173 16.764 73.0053 16.964C72.8933 17.164 72.7693 17.384 72.6333 17.624C72.4973 17.864 72.3533 18.12 72.2013 18.392C72.0493 18.664 71.9053 18.948 71.7693 19.244C71.9693 19.276 72.1613 19.304 72.3453 19.328C72.5373 19.352 72.7333 19.364 72.9333 19.364C73.1493 19.364 73.3813 19.348 73.6293 19.316C73.8773 19.284 74.1613 19.236 74.4813 19.172C74.6893 18.604 74.9213 18.04 75.1773 17.48C75.4413 16.92 75.7053 16.412 75.9693 15.956C76.2413 15.492 76.4973 15.124 76.7373 14.852C76.9853 14.572 77.1973 14.432 77.3733 14.432C77.5173 14.432 77.6173 14.52 77.6733 14.696C77.7373 14.864 77.7693 15.028 77.7693 15.188C77.7693 15.468 77.6973 15.8 77.5533 16.184C77.4173 16.56 77.2293 16.952 76.9893 17.36C76.7493 17.76 76.4693 18.136 76.1493 18.488C75.8373 18.832 75.5053 19.112 75.1533 19.328C75.0253 19.632 74.9093 19.984 74.8053 20.384C74.7093 20.784 74.6413 21.18 74.6013 21.572C74.5613 21.956 74.5573 22.276 74.5893 22.532C74.7813 21.98 74.9973 21.468 75.2373 20.996C75.4773 20.524 75.7453 20.144 76.0413 19.856C76.3453 19.568 76.6733 19.424 77.0253 19.424C77.3533 19.424 77.5853 19.54 77.7213 19.772C77.8653 19.996 77.9373 20.24 77.9373 20.504C77.9373 20.752 77.8933 20.992 77.8053 21.224C77.7253 21.456 77.6413 21.68 77.5533 21.896C77.4653 22.112 77.4213 22.32 77.4213 22.52C77.4213 22.68 77.4533 22.796 77.5173 22.868C77.5893 22.94 77.6773 22.976 77.7812 22.976C77.9653 22.976 78.1693 22.888 78.3933 22.712C78.6253 22.536 78.8533 22.304 79.0773 22.016C79.3013 21.72 79.4933 21.4 79.6533 21.056L79.8093 21.2C79.6413 21.592 79.4373 21.948 79.1973 22.268C78.9573 22.58 78.6933 22.828 78.4053 23.012C78.1173 23.196 77.8173 23.288 77.5053 23.288C77.2333 23.288 77.0253 23.216 76.8813 23.072C76.7453 22.928 76.6773 22.748 76.6773 22.532C76.6773 22.364 76.7093 22.176 76.7733 21.968C76.8373 21.76 76.8973 21.548 76.9533 21.332C77.0173 21.116 77.0493 20.912 77.0493 20.72C77.0493 20.512 77.0053 20.364 76.9173 20.276C76.8293 20.188 76.7213 20.144 76.5933 20.144C76.3933 20.144 76.2133 20.224 76.0533 20.384C75.8933 20.544 75.7453 20.752 75.6093 21.008C75.4813 21.256 75.3573 21.52 75.2373 21.8C75.1253 22.08 75.0173 22.348 74.9133 22.604C74.8093 22.852 74.7053 23.056 74.6013 23.216C74.4973 23.376 74.3893 23.456 74.2773 23.456C74.1893 23.456 74.1093 23.412 74.0373 23.324C73.9653 23.236 73.9053 23.112 73.8573 22.952C73.8173 22.792 73.7933 22.608 73.7853 22.4C73.7773 22.184 73.7893 21.956 73.8213 21.716C73.5173 22.252 73.1413 22.692 72.6933 23.036C72.2533 23.38 71.7893 23.552 71.3013 23.552ZM71.6493 23.108C72.0653 23.108 72.4733 22.924 72.8733 22.556C73.2733 22.188 73.6253 21.688 73.9293 21.056C73.9853 20.792 74.0413 20.54 74.0973 20.3C74.1613 20.06 74.2453 19.792 74.3493 19.496C74.0773 19.56 73.8173 19.604 73.5693 19.628C73.3293 19.652 73.0973 19.664 72.8733 19.664C72.6493 19.664 72.4373 19.652 72.2373 19.628C72.0373 19.596 71.8373 19.564 71.6373 19.532C71.4533 19.956 71.2973 20.392 71.1693 20.84C71.0413 21.288 70.9773 21.724 70.9773 22.148C70.9773 22.492 71.0293 22.74 71.1333 22.892C71.2373 23.036 71.4093 23.108 71.6493 23.108ZM75.3093 18.86C75.5893 18.636 75.8493 18.368 76.0893 18.056C76.3373 17.736 76.5573 17.412 76.7493 17.084C76.9413 16.748 77.0893 16.44 77.1933 16.16C77.3053 15.872 77.3613 15.652 77.3613 15.5C77.3613 15.436 77.3453 15.404 77.3133 15.404C77.2573 15.404 77.1493 15.492 76.9893 15.668C76.8293 15.844 76.6453 16.088 76.4373 16.4C76.2373 16.712 76.0373 17.08 75.8373 17.504C75.6373 17.92 75.4613 18.372 75.3093 18.86ZM80.2499 23.384C79.9059 23.384 79.6619 23.276 79.5179 23.06C79.3739 22.852 79.3019 22.596 79.3019 22.292C79.3019 22.044 79.3419 21.788 79.4219 21.524C79.5019 21.26 79.6059 21.012 79.7339 20.78C79.8699 20.548 80.0179 20.36 80.1779 20.216C80.3459 20.072 80.5139 20 80.6819 20C80.7219 20 80.7619 20.008 80.8019 20.024C80.8499 20.032 80.8939 20.044 80.9339 20.06C80.8619 20.124 80.7739 20.244 80.6699 20.42C80.5739 20.588 80.4819 20.784 80.3939 21.008C80.3059 21.224 80.2299 21.44 80.1659 21.656C80.1099 21.872 80.0819 22.056 80.0819 22.208C80.0819 22.448 80.1219 22.624 80.2019 22.736C80.2819 22.84 80.3859 22.892 80.5139 22.892C80.6819 22.892 80.8819 22.804 81.1139 22.628C81.3459 22.444 81.5739 22.212 81.7979 21.932C81.5739 21.748 81.3979 21.508 81.2699 21.212C81.1499 20.908 81.0899 20.6 81.0899 20.288C81.0899 20.024 81.1339 19.776 81.2219 19.544C81.3179 19.312 81.4539 19.128 81.6299 18.992C81.8059 18.848 82.0179 18.776 82.2659 18.776C82.5939 18.776 82.8139 18.864 82.9259 19.04C83.0379 19.216 83.0939 19.436 83.0939 19.7C83.0939 20.012 83.0179 20.36 82.8659 20.744C82.7139 21.12 82.5219 21.484 82.2899 21.836C82.4339 21.916 82.5859 21.956 82.7459 21.956C82.8739 21.956 83.0179 21.932 83.1779 21.884C83.3379 21.828 83.4939 21.736 83.6459 21.608C83.8059 21.48 83.9339 21.308 84.0299 21.092L84.1739 21.212C84.0139 21.588 83.7859 21.856 83.4899 22.016C83.2019 22.168 82.9259 22.244 82.6619 22.244C82.5579 22.244 82.4579 22.236 82.3619 22.22C82.2659 22.196 82.1739 22.164 82.0859 22.124C81.8139 22.484 81.5139 22.784 81.1859 23.024C80.8659 23.264 80.5539 23.384 80.2499 23.384ZM82.0139 21.62C82.2139 21.324 82.3779 21.016 82.5059 20.696C82.6419 20.368 82.7099 20.06 82.7099 19.772C82.7099 19.54 82.6739 19.372 82.6019 19.268C82.5379 19.156 82.4539 19.1 82.3499 19.1C82.1899 19.1 82.0259 19.216 81.8579 19.448C81.6899 19.68 81.6059 19.972 81.6059 20.324C81.6059 20.556 81.6379 20.792 81.7019 21.032C81.7739 21.264 81.8779 21.46 82.0139 21.62ZM83.5259 19.448C83.3419 19.448 83.1779 19.408 83.0339 19.328C82.8979 19.24 82.7659 19.156 82.6379 19.076C82.5099 18.996 82.3699 18.956 82.2179 18.956L82.2659 18.776C82.4579 18.776 82.5979 18.8 82.6859 18.848C82.7819 18.896 82.8699 18.944 82.9499 18.992C83.0299 19.04 83.1499 19.064 83.3099 19.064C83.5579 19.064 83.6819 18.956 83.6819 18.74C83.6819 18.58 83.6339 18.452 83.5379 18.356C83.4419 18.252 83.3419 18.164 83.2379 18.092C83.3019 18.02 83.3739 17.964 83.4539 17.924C83.5339 17.876 83.6299 17.852 83.7419 17.852C83.9019 17.852 84.0339 17.924 84.1379 18.068C84.2499 18.212 84.3059 18.396 84.3059 18.62C84.3059 18.844 84.2339 19.04 84.0899 19.208C83.9539 19.368 83.7659 19.448 83.5259 19.448ZM82.4459 17.912C82.2699 17.68 82.0739 17.452 81.8579 17.228C81.6419 17.004 81.3899 16.768 81.1019 16.52C81.1179 16.376 81.1499 16.28 81.1979 16.232C81.2459 16.176 81.3019 16.148 81.3659 16.148C81.4859 16.148 81.6179 16.208 81.7619 16.328C81.9059 16.448 82.0419 16.596 82.1699 16.772C82.2979 16.94 82.4019 17.104 82.4819 17.264C82.5699 17.416 82.6139 17.528 82.6139 17.6C82.6139 17.632 82.6019 17.684 82.5779 17.756C82.5539 17.828 82.5099 17.88 82.4459 17.912ZM84.6687 23.312C84.3567 23.312 84.1247 23.212 83.9727 23.012C83.8207 22.82 83.7447 22.584 83.7447 22.304C83.7447 22.12 83.7767 21.888 83.8407 21.608C83.9127 21.328 84.0047 21.036 84.1167 20.732C84.2287 20.42 84.3567 20.128 84.5007 19.856C84.6527 19.584 84.8127 19.364 84.9807 19.196C85.1487 19.02 85.3127 18.932 85.4727 18.932C85.5447 18.932 85.6047 18.956 85.6527 19.004C85.7087 19.044 85.7367 19.108 85.7367 19.196C85.7367 19.292 85.6727 19.448 85.5447 19.664C85.4247 19.88 85.2807 20.128 85.1127 20.408C84.9447 20.688 84.7967 20.984 84.6687 21.296C84.5487 21.6 84.4887 21.892 84.4887 22.172C84.4887 22.46 84.5367 22.652 84.6327 22.748C84.7287 22.844 84.8767 22.892 85.0767 22.892C85.3487 22.892 85.6367 22.756 85.9407 22.484C86.2527 22.212 86.5807 21.736 86.9247 21.056L87.0327 21.176C86.8007 21.864 86.4647 22.392 86.0247 22.76C85.5927 23.128 85.1407 23.312 84.6687 23.312ZM86.1087 17.816C85.9807 17.816 85.8647 17.784 85.7607 17.72C85.6647 17.656 85.6167 17.556 85.6167 17.42C85.6167 17.252 85.7127 17.108 85.9047 16.988C86.1047 16.86 86.3007 16.796 86.4927 16.796C86.6127 16.796 86.7087 16.824 86.7807 16.88C86.8527 16.936 86.8887 17.032 86.8887 17.168C86.8887 17.32 86.8047 17.468 86.6367 17.612C86.4767 17.748 86.3007 17.816 86.1087 17.816ZM90.2724 26.36C90.0964 26.36 89.9364 26.304 89.7924 26.192C89.6484 26.088 89.5764 25.912 89.5764 25.664C89.5764 25.424 89.6524 25.2 89.8044 24.992C89.9484 24.792 90.1364 24.604 90.3684 24.428C90.6004 24.26 90.8524 24.104 91.1244 23.96C91.4044 23.816 91.6684 23.68 91.9164 23.552C92.0284 23.272 92.1324 22.972 92.2284 22.652C92.3324 22.324 92.4324 21.964 92.5284 21.572C92.2244 22.012 91.9044 22.38 91.5684 22.676C91.2404 22.964 90.9084 23.108 90.5724 23.108C90.2844 23.108 90.0604 23 89.9004 22.784C89.7484 22.568 89.6724 22.288 89.6724 21.944C89.6724 21.528 89.7724 21.132 89.9724 20.756C90.1804 20.38 90.4484 20.048 90.7764 19.76C91.1044 19.472 91.4524 19.248 91.8204 19.088C92.1884 18.92 92.5324 18.836 92.8524 18.836C93.0844 18.836 93.2484 18.876 93.3444 18.956C93.4484 19.028 93.5004 19.116 93.5004 19.22C93.5004 19.292 93.4804 19.348 93.4404 19.388C93.4004 19.428 93.3724 19.452 93.3564 19.46C93.3164 19.396 93.2564 19.352 93.1764 19.328C93.0964 19.296 92.9964 19.28 92.8764 19.28C92.5644 19.28 92.2604 19.372 91.9644 19.556C91.6764 19.74 91.4204 19.976 91.1964 20.264C90.9724 20.552 90.7924 20.852 90.6564 21.164C90.5284 21.468 90.4644 21.748 90.4644 22.004C90.4644 22.196 90.5004 22.344 90.5724 22.448C90.6524 22.544 90.7564 22.592 90.8844 22.592C91.1164 22.592 91.3924 22.44 91.7124 22.136C92.0404 21.824 92.3564 21.448 92.6604 21.008C92.6844 20.896 92.7044 20.796 92.7204 20.708C92.7444 20.62 92.7724 20.508 92.8044 20.372C92.8284 20.26 92.8844 20.132 92.9724 19.988C93.0684 19.836 93.2164 19.76 93.4164 19.76C93.4564 19.76 93.4964 19.764 93.5364 19.772C93.5764 19.772 93.6204 19.78 93.6684 19.796C93.6684 19.924 93.6284 20.16 93.5484 20.504C93.4764 20.84 93.3684 21.236 93.2244 21.692C93.0884 22.14 92.9284 22.604 92.7444 23.084C93.0084 22.956 93.2644 22.792 93.5124 22.592C93.7684 22.392 94.0004 22.164 94.2084 21.908C94.4164 21.644 94.5804 21.36 94.7004 21.056L94.8564 21.176C94.7364 21.536 94.5444 21.864 94.2804 22.16C94.0164 22.456 93.7324 22.712 93.4284 22.928C93.1324 23.144 92.8604 23.312 92.6124 23.432C92.3884 23.968 92.1524 24.456 91.9044 24.896C91.6564 25.344 91.3964 25.7 91.1244 25.964C90.8604 26.228 90.5764 26.36 90.2724 26.36ZM90.2364 25.976C90.3964 25.976 90.6124 25.816 90.8844 25.496C91.1644 25.184 91.4644 24.644 91.7844 23.876C91.4644 24.036 91.1644 24.2 90.8844 24.368C90.6124 24.544 90.3884 24.728 90.2124 24.92C90.0364 25.112 89.9484 25.324 89.9484 25.556C89.9484 25.684 89.9764 25.784 90.0324 25.856C90.0884 25.936 90.1564 25.976 90.2364 25.976ZM95.3445 23.312C95.0325 23.312 94.8005 23.212 94.6485 23.012C94.4965 22.82 94.4205 22.584 94.4205 22.304C94.4205 22.12 94.4525 21.888 94.5165 21.608C94.5885 21.328 94.6805 21.036 94.7925 20.732C94.9045 20.42 95.0325 20.128 95.1765 19.856C95.3285 19.584 95.4885 19.364 95.6565 19.196C95.8245 19.02 95.9885 18.932 96.1485 18.932C96.2205 18.932 96.2805 18.956 96.3285 19.004C96.3845 19.044 96.4125 19.108 96.4125 19.196C96.4125 19.292 96.3485 19.448 96.2205 19.664C96.1005 19.88 95.9565 20.128 95.7885 20.408C95.6205 20.688 95.4725 20.984 95.3445 21.296C95.2245 21.6 95.1645 21.892 95.1645 22.172C95.1645 22.46 95.2125 22.652 95.3085 22.748C95.4045 22.844 95.5525 22.892 95.7525 22.892C96.0245 22.892 96.3125 22.756 96.6165 22.484C96.9285 22.212 97.2565 21.736 97.6005 21.056L97.7085 21.176C97.4765 21.864 97.1405 22.392 96.7005 22.76C96.2685 23.128 95.8165 23.312 95.3445 23.312ZM96.7845 17.816C96.6565 17.816 96.5405 17.784 96.4365 17.72C96.3405 17.656 96.2925 17.556 96.2925 17.42C96.2925 17.252 96.3885 17.108 96.5805 16.988C96.7805 16.86 96.9765 16.796 97.1685 16.796C97.2885 16.796 97.3845 16.824 97.4565 16.88C97.5285 16.936 97.5645 17.032 97.5645 17.168C97.5645 17.32 97.4805 17.468 97.3125 17.612C97.1525 17.748 96.9765 17.816 96.7845 17.816ZM97.951 23.564C97.703 23.564 97.495 23.48 97.327 23.312C97.151 23.152 97.063 22.904 97.063 22.568C97.063 22.28 97.127 21.972 97.255 21.644C97.383 21.308 97.559 20.98 97.783 20.66C98.007 20.332 98.259 20.036 98.539 19.772C98.827 19.5 99.127 19.284 99.439 19.124C99.759 18.964 100.075 18.884 100.387 18.884C100.699 18.884 100.959 18.968 101.167 19.136C101.375 19.296 101.479 19.512 101.479 19.784C101.479 19.984 101.423 20.12 101.311 20.192C101.207 20.264 101.067 20.3 100.891 20.3C100.907 20.236 100.919 20.168 100.927 20.096C100.943 20.016 100.951 19.944 100.951 19.88C100.951 19.696 100.907 19.54 100.819 19.412C100.731 19.276 100.579 19.208 100.363 19.208C100.139 19.208 99.911 19.288 99.679 19.448C99.447 19.6 99.223 19.808 99.007 20.072C98.791 20.328 98.599 20.608 98.431 20.912C98.263 21.216 98.131 21.516 98.035 21.812C97.939 22.108 97.891 22.372 97.891 22.604C97.891 22.916 97.999 23.072 98.215 23.072C98.399 23.072 98.599 22.988 98.815 22.82C99.031 22.644 99.251 22.424 99.475 22.16C99.707 21.888 99.927 21.608 100.135 21.32C100.343 21.032 100.527 20.768 100.687 20.528C100.719 20.48 100.739 20.456 100.747 20.456C100.795 20.464 100.855 20.48 100.927 20.504C101.007 20.528 101.075 20.56 101.131 20.6C101.187 20.64 101.215 20.692 101.215 20.756C101.215 20.828 101.179 20.928 101.107 21.056C101.035 21.176 100.955 21.316 100.867 21.476C100.779 21.636 100.699 21.8 100.627 21.968C100.555 22.128 100.519 22.28 100.519 22.424C100.519 22.544 100.551 22.664 100.615 22.784C100.679 22.896 100.783 22.952 100.927 22.952C101.143 22.952 101.427 22.796 101.779 22.484C102.131 22.164 102.487 21.688 102.847 21.056L102.967 21.176C102.799 21.608 102.583 21.988 102.319 22.316C102.055 22.644 101.771 22.9 101.467 23.084C101.171 23.268 100.879 23.36 100.591 23.36C100.295 23.36 100.075 23.272 99.931 23.096C99.795 22.92 99.727 22.728 99.727 22.52C99.727 22.472 99.731 22.42 99.739 22.364C99.747 22.3 99.755 22.236 99.763 22.172C99.419 22.636 99.103 22.984 98.815 23.216C98.535 23.448 98.247 23.564 97.951 23.564ZM106.478 23.24C106.198 23.24 105.986 23.168 105.842 23.024C105.706 22.88 105.638 22.696 105.638 22.472C105.638 22.304 105.666 22.128 105.722 21.944C105.786 21.76 105.846 21.572 105.902 21.38C105.958 21.18 105.986 20.988 105.986 20.804C105.986 20.58 105.938 20.428 105.842 20.348C105.754 20.26 105.642 20.216 105.506 20.216C105.258 20.216 105.006 20.32 104.75 20.528C104.494 20.728 104.246 20.988 104.006 21.308C103.766 21.62 103.542 21.944 103.334 22.28C103.126 22.616 102.942 22.916 102.782 23.18C102.654 23.18 102.534 23.156 102.422 23.108C102.302 23.068 102.21 23.004 102.146 22.916C102.146 22.876 102.19 22.752 102.278 22.544C102.358 22.336 102.454 22.08 102.566 21.776C102.678 21.472 102.778 21.16 102.866 20.84C102.954 20.52 102.998 20.228 102.998 19.964C103.046 19.908 103.122 19.852 103.226 19.796C103.33 19.74 103.438 19.712 103.55 19.712C103.766 19.712 103.874 19.816 103.874 20.024C103.874 20.152 103.838 20.368 103.766 20.672C103.694 20.968 103.602 21.28 103.49 21.608C103.706 21.28 103.946 20.956 104.21 20.636C104.482 20.308 104.77 20.036 105.074 19.82C105.378 19.604 105.682 19.496 105.986 19.496C106.298 19.496 106.522 19.608 106.658 19.832C106.802 20.056 106.874 20.304 106.874 20.576C106.874 20.824 106.834 21.056 106.754 21.272C106.674 21.48 106.59 21.684 106.502 21.884C106.422 22.076 106.382 22.272 106.382 22.472C106.382 22.64 106.414 22.76 106.478 22.832C106.55 22.896 106.638 22.928 106.742 22.928C106.942 22.928 107.142 22.836 107.342 22.652C107.542 22.46 107.734 22.22 107.918 21.932C108.11 21.644 108.278 21.352 108.422 21.056L108.554 21.212C108.386 21.604 108.198 21.952 107.99 22.256C107.782 22.56 107.554 22.8 107.306 22.976C107.058 23.152 106.782 23.24 106.478 23.24Z" fill="#902524"/>
</svg>
