<svg xmlns="http://www.w3.org/2000/svg" width="24" height="24" viewBox="0 0 24 24" fill="none">
    <path d="M9.24009 4.13135C7.74866 4.19992 6.28809 4.36106 4.86352 4.52563C4.06057 4.62033 3.31311 4.98331 2.74218 5.55579C2.17126 6.12827 1.81031 6.87672 1.7178 7.67992C1.51209 9.52792 1.31323 11.4393 1.31323 13.3936C1.31323 15.3496 1.51209 17.2611 1.7178 19.1108C1.90295 20.7565 3.2178 22.0713 4.86352 22.2616C6.7218 22.4759 8.6418 22.6902 10.6064 22.6902C12.5727 22.6902 14.4927 22.4759 16.3509 22.2616C17.1531 22.1667 17.8997 21.8041 18.4703 21.2323C19.0408 20.6606 19.4018 19.9131 19.4949 19.1108C19.6578 17.7548 19.779 16.3942 19.8584 15.0308" stroke="#B92F2E" stroke-width="2" stroke-linecap="round" stroke-linejoin="round"/>
    <path d="M17.3281 2.23364L11.011 9.39935L10.147 13.4708C10.0064 14.1256 10.6904 14.7462 11.3298 14.5439L15.379 13.2719L21.9035 6.40621C22.9887 5.26621 22.7984 3.35821 21.487 2.19764C20.2064 1.06621 18.3447 1.08164 17.3281 2.23364Z" stroke="#B92F2E" stroke-width="2" stroke-linecap="round" stroke-linejoin="round"/>
</svg>