<svg xmlns="http://www.w3.org/2000/svg" width="36" height="36" viewBox="0 0 36 36" fill="none">
    <path d="M31.5 9H28.5M31.5 18H24M31.5 27H24M10.5 30V20.3419C10.5 20.0298 10.5 19.8738 10.4694 19.7246C10.4422 19.5922 10.3973 19.4641 10.3358 19.3437C10.2665 19.2081 10.169 19.0863 9.97409 18.8426L5.02592 12.6574C4.83099 12.4137 4.73353 12.2919 4.66423 12.1563C4.60274 12.0359 4.5578 11.9078 4.53063 11.7754C4.5 11.6262 4.5 11.4702 4.5 11.1581V8.4C4.5 7.55992 4.5 7.13988 4.66349 6.81901C4.8073 6.53677 5.03677 6.3073 5.31901 6.16349C5.63988 6 6.05992 6 6.9 6H20.1C20.9401 6 21.3601 6 21.681 6.16349C21.9632 6.3073 22.1927 6.53677 22.3365 6.81901C22.5 7.13988 22.5 7.55992 22.5 8.4V11.1581C22.5 11.4702 22.5 11.6262 22.4694 11.7754C22.4422 11.9078 22.3973 12.0359 22.3358 12.1563C22.2665 12.2919 22.169 12.4137 21.9741 12.6574L17.0259 18.8426C16.831 19.0863 16.7335 19.2081 16.6642 19.3437C16.6027 19.4641 16.5578 19.5922 16.5306 19.7246C16.5 19.8738 16.5 20.0298 16.5 20.3419V25.5L10.5 30Z" stroke="#353535" stroke-width="2" stroke-linecap="round" stroke-linejoin="round"/>
</svg>