<svg width="25" height="24" viewBox="0 0 25 24" fill="none" xmlns="http://www.w3.org/2000/svg">
<g id="Handshake" clip-path="url(#clip0_115_6399)">
<path id="Vector" d="M10.7075 4.82255L8.79125 6.7388C8.2175 6.8963 7.685 7.18505 7.235 7.58255L6.2375 8.4713C5.855 8.81255 5.35625 9.00005 4.8425 9.00005H4.1V13.8C4.865 13.8225 5.5925 14.1338 6.13625 14.6775L7.47125 16.0125L7.73375 16.275L8.74625 17.2875C8.97875 17.52 9.36125 17.52 9.59375 17.2875C9.6575 17.2238 9.70625 17.1488 9.7325 17.0701C9.8375 16.7813 10.0813 16.5638 10.3813 16.4963C10.6813 16.4288 10.9963 16.5188 11.2138 16.74L11.6188 17.1375C12.0538 17.5725 12.7587 17.5725 13.19 17.1375C13.3925 16.935 13.5013 16.6763 13.5125 16.41C13.5275 16.08 13.7225 15.7875 14.0225 15.6451C14.3225 15.5026 14.6713 15.5325 14.9375 15.7238C15.29 15.975 15.7812 15.9413 16.0963 15.6263C16.4488 15.2738 16.4488 14.7038 16.0963 14.355L13.2538 11.5125L11.9113 12.75C10.8875 13.695 9.31625 13.71 8.27375 12.7838C7.085 11.7263 7.05875 9.8813 8.21375 8.79005L10.8425 6.30755C11.87 5.34005 13.2275 4.80005 14.6413 4.80005C15.995 4.80005 17.3038 5.2988 18.3125 6.19505L19.4413 7.20005H23.9C24.23 7.20005 24.5 7.47005 24.5 7.80005V15.6C24.5 16.2638 23.9638 16.8 23.3 16.8H22.1C21.6575 16.8 21.2675 16.56 21.0613 16.2H17.8775C17.75 16.4513 17.5813 16.6913 17.3713 16.9013C16.73 17.5426 15.8413 17.7938 15.0087 17.655C14.8738 17.9288 14.69 18.1838 14.4613 18.4125C13.4375 19.4363 11.8363 19.5375 10.6962 18.7163C9.755 19.4963 8.3525 19.4475 7.47125 18.5625L6.4625 17.55L6.2 17.2875L4.865 15.9525C4.65875 15.7463 4.38875 15.6263 4.1 15.6038C4.1 16.2638 3.56 16.8 2.9 16.8H1.7C1.03625 16.8 0.5 16.2638 0.5 15.6V7.80005C0.5 7.47005 0.77 7.20005 1.1 7.20005H4.8425C4.9175 7.20005 4.98875 7.1738 5.04125 7.12505L6.035 6.24005C7.08125 5.3138 8.4275 4.80005 9.82625 4.80005H10.2125C10.3775 4.80005 10.5463 4.80755 10.7075 4.82255ZM20.9 14.4V9.00005H19.1C18.8787 9.00005 18.665 8.91755 18.5038 8.7713L17.12 7.5413C16.4375 6.9338 15.5563 6.60005 14.6413 6.60005C13.6888 6.60005 12.7738 6.9638 12.08 7.6163L9.45125 10.0988C9.065 10.4663 9.0725 11.085 9.47 11.4375C9.81875 11.7488 10.3475 11.7413 10.6888 11.4263L13.385 8.9363C13.7488 8.5988 14.3188 8.6213 14.6563 8.9888C14.9938 9.3563 14.9713 9.92255 14.6038 10.26L14.5738 10.29L17.3638 13.08C17.7388 13.455 17.9825 13.9163 18.0913 14.3963H20.9V14.4ZM2.9 15C2.9 14.8409 2.83679 14.6883 2.72426 14.5758C2.61174 14.4633 2.45913 14.4 2.3 14.4C2.14087 14.4 1.98826 14.4633 1.87574 14.5758C1.76321 14.6883 1.7 14.8409 1.7 15C1.7 15.1592 1.76321 15.3118 1.87574 15.4243C1.98826 15.5368 2.14087 15.6 2.3 15.6C2.45913 15.6 2.61174 15.5368 2.72426 15.4243C2.83679 15.3118 2.9 15.1592 2.9 15ZM22.7 15.6C22.8591 15.6 23.0117 15.5368 23.1243 15.4243C23.2368 15.3118 23.3 15.1592 23.3 15C23.3 14.8409 23.2368 14.6883 23.1243 14.5758C23.0117 14.4633 22.8591 14.4 22.7 14.4C22.5409 14.4 22.3883 14.4633 22.2757 14.5758C22.1632 14.6883 22.1 14.8409 22.1 15C22.1 15.1592 22.1632 15.3118 22.2757 15.4243C22.3883 15.5368 22.5409 15.6 22.7 15.6Z" fill="#353535"/>
</g>
<defs>
<clipPath id="clip0_115_6399">
<rect width="24" height="24" fill="white" transform="translate(0.5)"/>
</clipPath>
</defs>
</svg>
