<svg xmlns="http://www.w3.org/2000/svg" width="15" height="14" viewBox="0 0 15 14" fill="none">
    <g clip-path="url(#clip0_1555_17726)">
        <path d="M1.5 3C1.77614 3 2 2.77614 2 2.5C2 2.22386 1.77614 2 1.5 2C1.22386 2 1 2.22386 1 2.5C1 2.77614 1.22386 3 1.5 3Z" stroke="#5A5A5A" stroke-linecap="round" stroke-linejoin="round"/>
        <path d="M5 2.5H14" stroke="#5A5A5A" stroke-linecap="round" stroke-linejoin="round"/>
        <path d="M1.5 7.5C1.77614 7.5 2 7.27614 2 7C2 6.72386 1.77614 6.5 1.5 6.5C1.22386 6.5 1 6.72386 1 7C1 7.27614 1.22386 7.5 1.5 7.5Z" stroke="#5A5A5A" stroke-linecap="round" stroke-linejoin="round"/>
        <path d="M5 7H14" stroke="#5A5A5A" stroke-linecap="round" stroke-linejoin="round"/>
        <path d="M1.5 12C1.77614 12 2 11.7761 2 11.5C2 11.2239 1.77614 11 1.5 11C1.22386 11 1 11.2239 1 11.5C1 11.7761 1.22386 12 1.5 12Z" stroke="#5A5A5A" stroke-linecap="round" stroke-linejoin="round"/>
        <path d="M5 11.5H14" stroke="#5A5A5A" stroke-linecap="round" stroke-linejoin="round"/>
    </g>
    <defs>
        <clipPath id="clip0_1555_17726">
            <rect width="14" height="14" fill="white" transform="translate(0.5)"/>
        </clipPath>
    </defs>
</svg>