<svg width="32" height="32" viewBox="0 0 32 32" fill="none" xmlns="http://www.w3.org/2000/svg">
<path d="M22.6673 13.3333V10.6667C22.6673 6.98477 19.6825 4 16.0007 4C12.3188 4 9.33398 6.98477 9.33398 10.6667V13.3333M11.734 28H20.2673C22.5075 28 23.6276 28 24.4833 27.564C25.2359 27.1805 25.8478 26.5686 26.2313 25.816C26.6673 24.9603 26.6673 23.8402 26.6673 21.6V19.7333C26.6673 17.4931 26.6673 16.373 26.2313 15.5174C25.8478 14.7647 25.2359 14.1528 24.4833 13.7693C23.6276 13.3333 22.5075 13.3333 20.2673 13.3333H11.734C9.49377 13.3333 8.37367 13.3333 7.51802 13.7693C6.76537 14.1528 6.15345 14.7647 5.76996 15.5174C5.33398 16.373 5.33398 17.4931 5.33398 19.7333V21.6C5.33398 23.8402 5.33398 24.9603 5.76996 25.816C6.15345 26.5686 6.76537 27.1805 7.51802 27.564C8.37367 28 9.49377 28 11.734 28Z" stroke="#15181E" stroke-width="2" stroke-linecap="round" stroke-linejoin="round"/>
</svg>
