<svg xmlns="http://www.w3.org/2000/svg" width="20" height="20" viewBox="0 0 20 20" fill="none">
    <g clip-path="url(#clip0_434_12233)">
        <path d="M12.6142 18.9144C13.5291 19.5053 14.6197 19.7629 15.7023 19.644C16.7849 19.5251 17.7936 19.0369 18.5585 18.2615L19.227 17.6072C19.52 17.3075 19.6841 16.905 19.6841 16.4858C19.6841 16.0666 19.52 15.6641 19.227 15.3644L16.3899 12.5558C16.0925 12.2637 15.6924 12.1 15.2756 12.1C14.8588 12.1 14.4586 12.2637 14.1613 12.5558C13.8615 12.8492 13.4587 13.0135 13.0392 13.0135C12.6197 13.0135 12.2168 12.8492 11.917 12.5558L7.45988 8.09865C7.31117 7.95205 7.19308 7.77735 7.11247 7.58471C7.03187 7.39207 6.99036 7.18533 6.99036 6.9765C6.99036 6.76768 7.03187 6.56094 7.11247 6.3683C7.19308 6.17566 7.31117 6.00096 7.45988 5.85436C7.75198 5.55703 7.91566 5.15689 7.91566 4.74008C7.91566 4.32327 7.75198 3.92312 7.45988 3.62579L4.63417 0.800076C4.33442 0.507071 3.9319 0.343018 3.51274 0.343018C3.09357 0.343018 2.69105 0.507071 2.39131 0.800076L1.73702 1.46865C0.962 2.23339 0.473886 3.24164 0.354733 4.32391C0.235579 5.40617 0.492653 6.49647 1.08274 7.4115C4.15871 11.9453 8.07271 15.8496 12.6142 18.9144Z" fill="#D7D7D7"/>
    </g>
    <defs>
        <clipPath id="clip0_434_12233">
            <rect width="20" height="20" fill="white" transform="matrix(-1 0 0 1 20 0)"/>
        </clipPath>
    </defs>
</svg>