<svg xmlns="http://www.w3.org/2000/svg" width="21" height="20" viewBox="0 0 21 20" fill="none">
    <g clip-path="url(#clip0_389_9269)">
        <path fill-rule="evenodd" clip-rule="evenodd" d="M15.046 5.25801H16.7999C17.7281 5.25801 18.6184 5.62686 19.2748 6.28315C19.9312 6.93958 20.2999 7.82986 20.2999 8.75801V14.358C20.2999 14.7446 19.9865 15.058 19.5999 15.058H17.5788C17.5521 16.4344 16.4278 17.542 15.0452 17.542C13.6624 17.542 12.5382 16.4344 12.5115 15.058H7.69952C7.67267 16.4344 6.54867 17.542 5.16581 17.542C3.78309 17.542 2.65895 16.4344 2.63224 15.058H1.39995C1.01338 15.058 0.699951 14.7446 0.699951 14.358V4.55801C0.699951 4.00115 0.921237 3.46701 1.31509 3.07315C1.70881 2.67929 2.24295 2.45801 2.79995 2.45801H11.2C11.757 2.45801 12.2911 2.67929 12.6849 3.07315C13.0477 3.43587 13.2639 3.91772 13.2958 4.42686V9.72244C13.2958 10.2056 13.6877 10.5974 14.1708 10.5974C14.6539 10.5974 15.046 10.2056 15.046 9.72244V5.25801Z" fill="#D7D7D7"/>
    </g>
    <defs>
        <clipPath id="clip0_389_9269">
            <rect width="20" height="20" fill="white" transform="translate(0.5)"/>
        </clipPath>
    </defs>
</svg>