<svg xmlns="http://www.w3.org/2000/svg" width="21" height="20" viewBox="0 0 21 20" fill="none">
    <g clip-path="url(#clip0_851_11057)">
        <path fill-rule="evenodd" clip-rule="evenodd" d="M4.50223 12.6961C4.58434 12.793 4.68692 12.8706 4.80258 12.9232C4.91824 12.9757 5.04411 13.002 5.17115 13.0002L16.0846 13.0002C16.416 13 16.7337 12.8683 16.968 12.634C17.2023 12.3998 17.3339 12.082 17.3341 11.7507L17.3341 6.24941C17.3341 6.08523 17.3018 5.92266 17.239 5.77097C17.1762 5.61928 17.0841 5.48146 16.968 5.36536C16.8519 5.24927 16.7141 5.15719 16.5624 5.09437C16.4107 5.03155 16.2481 4.99923 16.0839 4.99925L5.17115 4.99995C5.0382 4.99806 4.90662 5.02703 4.78675 5.08457C4.66688 5.14211 4.56198 5.22667 4.48031 5.33159L2.2013 8.44074C2.06986 8.5973 1.99775 8.79515 1.99762 8.99958C1.99749 9.204 2.06935 9.40194 2.20059 9.55867L4.4796 12.6678C4.4868 12.6775 4.49434 12.687 4.50223 12.6961ZM7.1659 8.29295C7.35343 8.48049 7.45879 8.73484 7.45879 9.00006C7.45879 9.26527 7.35343 9.51963 7.1659 9.70716C6.97836 9.8947 6.72401 10.0001 6.45879 10.0001C6.19357 10.0001 5.93922 9.8947 5.75168 9.70716C5.56415 9.51963 5.45879 9.26527 5.45879 9.00006C5.45879 8.73484 5.56415 8.48049 5.75168 8.29295C5.93922 8.10541 6.19357 8.00006 6.45879 8.00006C6.72401 8.00006 6.97836 8.10541 7.1659 8.29295Z" fill="#0057E8"/>
    </g>
    <defs>
        <clipPath id="clip0_851_11057">
            <rect width="14" height="14" fill="white" transform="translate(10.701 19.8995) rotate(-135)"/>
        </clipPath>
    </defs>
</svg>