<svg xmlns="http://www.w3.org/2000/svg" width="24" height="24" viewBox="0 0 24 24" fill="none">
    <g clip-path="url(#clip0_1353_21900)">
        <path d="M16.0224 15.7824L17.3059 14.616C18.9711 13.0948 19.9198 10.9434 19.92 8.68797C19.92 4.31227 16.3738 0.719971 12 0.719971C9.02016 0.719971 6.42526 2.38747 5.07256 4.83257M12 23.2032C12.019 21.0548 12.8341 18.9898 14.2877 17.4077M12 23.2032C11.9785 20.7844 10.9485 18.4844 9.15836 16.8576L6.69406 14.617C4.67146 12.769 3.73056 10.0175 4.19806 7.31807M12 23.2032V23.28V23.2253M0.959961 0.719971L23.04 22.8M9.66136 9.42137C9.24486 7.62147 10.9331 6.04557 12.7002 6.58487C14.4672 7.12407 14.9879 9.37407 13.6374 10.6348C13.0535 11.1798 12.2367 11.3986 11.4586 11.2186" stroke="#B92F2E" stroke-width="1.5"/>
    </g>
    <defs>
        <clipPath id="clip0_1353_21900">
            <rect width="24" height="24" fill="white"/>
        </clipPath>
    </defs>
</svg>