<svg width="38" height="37" viewBox="0 0 38 37" fill="none" xmlns="http://www.w3.org/2000/svg">
<path fill-rule="evenodd" clip-rule="evenodd" d="M9.93262 15.5769C9.93262 15.0512 10.3588 14.625 10.8845 14.625H26.1153C26.641 14.625 27.0672 15.0512 27.0672 15.5769C27.0672 16.1027 26.641 16.5288 26.1153 16.5288H10.8845C10.3588 16.5288 9.93262 16.1027 9.93262 15.5769Z" fill="#9CA3AF"/>
<path fill-rule="evenodd" clip-rule="evenodd" d="M9.93262 21.2885C9.93262 20.7627 10.3588 20.3365 10.8845 20.3365H22.3076C22.8334 20.3365 23.2595 20.7627 23.2595 21.2885C23.2595 21.8142 22.8334 22.2404 22.3076 22.2404H10.8845C10.3588 22.2404 9.93262 21.8142 9.93262 21.2885Z" fill="#9CA3AF"/>
<path fill-rule="evenodd" clip-rule="evenodd" d="M9.93262 27C9.93262 26.4743 10.3588 26.0481 10.8845 26.0481H18.4999C19.0257 26.0481 19.4518 26.4743 19.4518 27C19.4518 27.5258 19.0257 27.9519 18.4999 27.9519H10.8845C10.3588 27.9519 9.93262 27.5258 9.93262 27Z" fill="#9CA3AF"/>
<path fill-rule="evenodd" clip-rule="evenodd" d="M15.7341 6.29497C16.0512 5.06305 17.1706 4.15385 18.5 4.15385C19.8294 4.15385 20.9488 5.06305 21.2659 6.29497C21.3741 6.71561 21.7534 7.00962 22.1877 7.00962H24.2115V8.91346V10.8173H12.7885V8.91346V7.00962H14.8123C15.2466 7.00962 15.6259 6.7156 15.7341 6.29497ZM10.8846 7.00962V6.05769C10.8846 5.53196 11.3108 5.10577 11.8365 5.10577H14.1367C14.8711 3.42513 16.5474 2.25 18.5 2.25C20.4526 2.25 22.1289 3.42513 22.8633 5.10577H25.1635C25.6892 5.10577 26.1154 5.53196 26.1154 6.05769V7.00962H28.0192C29.5964 7.00962 30.875 8.28819 30.875 9.86539V28.9038C30.875 30.481 29.5964 31.7596 28.0192 31.7596H8.98077C7.40357 31.7596 6.125 30.481 6.125 28.9038V9.86538C6.125 8.28819 7.40357 7.00962 8.98077 7.00962H10.8846ZM10.8846 8.91346H8.98077C8.45504 8.91346 8.02885 9.33965 8.02885 9.86538V28.9038C8.02885 29.4296 8.45504 29.8558 8.98077 29.8558H28.0192C28.545 29.8558 28.9712 29.4296 28.9712 28.9038V9.86539C28.9712 9.33965 28.545 8.91346 28.0192 8.91346H26.1154V10.8173C26.1154 11.8688 25.263 12.7212 24.2115 12.7212H12.7885C11.737 12.7212 10.8846 11.8688 10.8846 10.8173V8.91346Z" fill="#111827"/>
<circle cx="29.5" cy="29" r="7.5" fill="#056CF2" stroke="white"/>
<path fill-rule="evenodd" clip-rule="evenodd" d="M29 25C29.2761 25 29.5 25.2239 29.5 25.5V29.2929L32.3536 32.1464C32.5488 32.3417 32.5488 32.6583 32.3536 32.8536C32.1583 33.0488 31.8417 33.0488 31.6464 32.8536L28.6464 29.8536C28.5527 29.7598 28.5 29.6326 28.5 29.5V25.5C28.5 25.2239 28.7239 25 29 25Z" fill="white"/>
</svg>
