<svg width="33" height="26" viewBox="0 0 33 26" fill="none" xmlns="http://www.w3.org/2000/svg">
<g clip-path="url(#clip0_4423_7634)">
<path d="M0.5 2.52681C0.621407 2.20725 0.768249 1.89813 0.939087 1.6025C1.12176 1.32445 1.37022 1.09677 1.66199 0.94008C1.95377 0.783389 2.27963 0.70263 2.61011 0.705111C3.87759 0.692548 5.15041 0.692548 6.41967 0.692548C6.54578 0.686993 6.67169 0.707272 6.78982 0.752166C6.90796 0.797059 7.01587 0.865635 7.10705 0.953763C7.19823 1.04189 7.27079 1.14774 7.32036 1.26494C7.36994 1.38214 7.39549 1.50826 7.39549 1.6357C7.39549 1.76314 7.36994 1.88926 7.32036 2.00646C7.27079 2.12366 7.19823 2.22952 7.10705 2.31764C7.01587 2.40577 6.90796 2.47435 6.78982 2.51924C6.67169 2.56414 6.54578 2.58442 6.41967 2.57886C5.23218 2.57886 4.04647 2.57886 2.86431 2.57886C2.45367 2.57886 2.37545 2.65962 2.37367 3.07781C2.37367 4.23365 2.37367 5.38948 2.37367 6.54532C2.37367 7.11606 2.1088 7.48937 1.6306 7.60424C1.18974 7.72269 0.805761 7.49655 0.54622 6.97427C0.54622 6.95812 0.515999 6.94915 0.5 6.93658C0.5 5.46965 0.5 3.99973 0.5 2.52681Z" fill="white"/>
<path d="M0.5 19.0582C0.526665 19.0169 0.556886 18.9757 0.578218 18.9326C0.667487 18.7359 0.820146 18.5756 1.01128 18.4778C1.20241 18.38 1.42073 18.3505 1.6306 18.3942C1.84665 18.4412 2.03936 18.5637 2.17492 18.7399C2.31048 18.9161 2.38021 19.135 2.3719 19.358C2.3719 20.5353 2.3719 21.7127 2.3719 22.8901C2.3719 23.3513 2.43945 23.4285 2.89276 23.4285H6.33079C6.94231 23.4285 7.3654 23.809 7.37251 24.36C7.37962 24.911 6.95297 25.3184 6.32723 25.3202C5.16107 25.3202 3.99492 25.3202 2.82876 25.3202C1.6466 25.3202 0.873313 24.7279 0.549775 23.5667C0.536923 23.5393 0.520153 23.5139 0.5 23.4913L0.5 19.0582Z" fill="white"/>
<path d="M6.12467 12.9956C6.12467 15.4748 6.12467 17.9546 6.12467 20.4349C6.12467 21.1744 5.47226 21.6518 4.83763 21.3808C4.66524 21.3151 4.51692 21.1977 4.41267 21.0443C4.30841 20.8909 4.25323 20.7089 4.25455 20.5229C4.24211 20.1873 4.25455 19.8498 4.25455 19.5142C4.25455 14.9124 4.25455 10.31 4.25455 5.707C4.2483 5.57075 4.25604 5.43421 4.27766 5.29958C4.32676 5.06961 4.45914 4.86643 4.64885 4.72985C4.83857 4.59326 5.07197 4.53312 5.30331 4.56119C5.53466 4.58927 5.74729 4.70354 5.89955 4.88162C6.05181 5.0597 6.13273 5.28876 6.12645 5.52393C6.12645 7.27922 6.12645 9.03272 6.12645 10.788C6.12526 11.5239 6.12467 12.2597 6.12467 12.9956Z" fill="white"/>
<path d="M11.7493 12.9669C11.7493 10.4973 11.7493 8.02829 11.7493 5.55987C11.7493 4.82222 12.4089 4.3466 13.0417 4.623C13.2193 4.69239 13.3708 4.81636 13.4747 4.97739C13.5787 5.13841 13.63 5.32836 13.6212 5.52039C13.6212 6.04626 13.6212 6.57033 13.6212 7.0962C13.6212 11.4982 13.6212 15.9008 13.6212 20.304C13.6275 20.4403 13.6192 20.5769 13.5964 20.7114C13.5499 20.9448 13.4178 21.1518 13.2263 21.2908C13.0349 21.4298 12.7985 21.4906 12.5646 21.4608C12.3307 21.431 12.1165 21.3129 11.9653 21.1303C11.8141 20.9477 11.7369 20.714 11.7493 20.4763C11.7493 18.2902 11.7493 16.1048 11.7493 13.92C11.7493 13.5969 11.7493 13.2792 11.7493 12.9669Z" fill="white"/>
<path d="M26.7474 13.0026C26.7474 10.5234 26.7474 8.04366 26.7474 5.56328C26.7474 4.82383 27.4016 4.34822 28.0362 4.62102C28.2081 4.68721 28.3559 4.80483 28.4598 4.95815C28.5637 5.11147 28.6187 5.29317 28.6175 5.47893C28.6299 5.78404 28.6175 6.08915 28.6175 6.39247C28.6175 11.0266 28.6175 15.6601 28.6175 20.293C28.6241 20.4293 28.6163 20.5658 28.5944 20.7004C28.5503 20.9354 28.4193 21.1447 28.228 21.2858C28.0367 21.4269 27.7994 21.4892 27.5643 21.4603C27.3291 21.4313 27.1137 21.3131 26.9617 21.1297C26.8097 20.9462 26.7324 20.7113 26.7456 20.4725C26.7456 18.4863 26.7456 16.5007 26.7456 14.5156C26.7468 14.0119 26.7474 13.5076 26.7474 13.0026Z" fill="white"/>
<path d="M9.87387 10.4829C9.87387 12.1216 9.87387 13.7602 9.87387 15.3988C9.87387 16.1347 9.20724 16.6085 8.57616 16.3285C8.39975 16.258 8.24958 16.1336 8.14663 15.9727C8.04368 15.8118 7.9931 15.6225 8.00197 15.4311C8.00197 14.6432 8.00197 13.8553 8.00197 13.0674C8.00197 10.5679 8.00197 8.06776 8.00197 5.56703C8.00197 4.79707 8.69527 4.32146 9.34234 4.64272C9.51326 4.72393 9.65575 4.8556 9.75097 5.02032C9.8462 5.18503 9.88967 5.37504 9.87565 5.56524C9.87328 7.20567 9.87268 8.8449 9.87387 10.4829Z" fill="white"/>
<path d="M17.3716 10.4756C17.3716 12.1143 17.3716 13.7529 17.3716 15.3915C17.3716 16.1435 16.6907 16.6209 16.0525 16.3176C15.6508 16.1274 15.4943 15.7792 15.4961 15.3449C15.4961 13.1816 15.4961 11.0176 15.4961 8.85315C15.4961 7.77628 15.4961 6.69462 15.4961 5.60819C15.4961 4.97283 15.8819 4.54209 16.4401 4.54568C16.9982 4.54927 17.3698 4.98001 17.3698 5.62254C17.3722 7.24143 17.3727 8.85913 17.3716 10.4756Z" fill="white"/>
<path d="M19.2473 10.4417C19.2473 8.81383 19.2473 7.18597 19.2473 5.5581C19.2473 4.79173 19.9584 4.3233 20.5966 4.66071C20.9823 4.85814 21.1299 5.19915 21.1299 5.62092C21.1299 7.89431 21.1299 10.1737 21.1299 12.459C21.1299 13.4246 21.1299 14.392 21.1299 15.3576C21.1299 15.9912 20.7388 16.4219 20.1824 16.4165C19.626 16.4111 19.258 15.984 19.2562 15.3684C19.2491 13.7208 19.2461 12.0785 19.2473 10.4417Z" fill="white"/>
<path d="M22.9961 10.4452C22.9961 8.8066 22.9961 7.16796 22.9961 5.52933C22.9886 5.36577 23.0237 5.20308 23.0978 5.05748C23.172 4.91187 23.2827 4.78843 23.4188 4.69946C23.555 4.61049 23.7118 4.55909 23.8738 4.5504C24.0357 4.5417 24.1971 4.576 24.3418 4.64989C24.7276 4.84552 24.8751 5.18832 24.8751 5.6083C24.8751 7.65674 24.8751 9.70518 24.8751 11.7536C24.8751 12.9095 24.8751 14.0647 24.8751 15.2193C24.8751 15.9696 24.5196 16.4111 23.9294 16.4075C23.3392 16.4039 22.9997 15.966 22.9997 15.2355C22.9973 13.6381 22.9961 12.0414 22.9961 10.4452Z" fill="white"/>
<path d="M28.5265 0.692442C29.1203 0.692442 29.714 0.692442 30.3042 0.692442C30.5926 0.690299 30.8785 0.746002 31.1454 0.85632C31.4122 0.966637 31.6548 1.12937 31.8588 1.33508C32.0629 1.54079 32.2245 1.78537 32.3342 2.05463C32.4439 2.32389 32.4995 2.61246 32.4979 2.90361C32.5085 4.1438 32.4979 5.38399 32.4979 6.62419C32.4979 7.21108 32.1014 7.63285 31.5664 7.63644C31.0313 7.64003 30.626 7.21287 30.6242 6.60265C30.6242 5.42527 30.6242 4.2479 30.6242 3.07232C30.6242 2.67747 30.5389 2.59132 30.1496 2.59132H26.6831C26.052 2.59132 25.6165 2.20365 25.6271 1.64188C25.6378 1.08011 26.052 0.692442 26.6849 0.692442H28.5265Z" fill="white"/>
<path d="M32.4978 21.2714C32.4978 21.8816 32.4978 22.49 32.4978 23.1002C32.4981 23.3902 32.4415 23.6773 32.3314 23.9451C32.2213 24.2128 32.0598 24.456 31.8562 24.6605C31.6527 24.865 31.4111 25.0269 31.1453 25.1367C30.8796 25.2466 30.5949 25.3023 30.3077 25.3006C29.0793 25.3114 27.851 25.3006 26.6226 25.3006C26.4937 25.3105 26.3643 25.2933 26.2423 25.2503C26.1203 25.2073 26.0084 25.1393 25.9137 25.0506C25.8189 24.9618 25.7433 24.8543 25.6917 24.7348C25.64 24.6152 25.6133 24.4861 25.6133 24.3557C25.6133 24.2252 25.64 24.0962 25.6917 23.9766C25.7433 23.857 25.8189 23.7495 25.9137 23.6608C26.0084 23.5721 26.1203 23.5041 26.2423 23.4611C26.3643 23.418 26.4937 23.4009 26.6226 23.4107C27.7888 23.4107 28.9549 23.4107 30.1193 23.4107C30.5459 23.4107 30.6224 23.3336 30.6224 22.892C30.6224 21.7362 30.6224 20.5804 30.6224 19.4245C30.6224 18.7892 31.0117 18.3584 31.5681 18.3638C32.1245 18.3692 32.4925 18.7964 32.496 19.412C32.4996 20.0276 32.4978 20.6522 32.4978 21.2714Z" fill="white"/>
<path d="M8.00023 19.9666C8.00023 19.7781 8.00023 19.5897 8.00023 19.4012C8.00023 19.1513 8.09856 18.9117 8.27358 18.735C8.44861 18.5583 8.68599 18.459 8.93351 18.459C9.18103 18.459 9.41842 18.5583 9.59344 18.735C9.76847 18.9117 9.86679 19.1513 9.86679 19.4012C9.88279 19.7889 9.88457 20.1766 9.86679 20.5643C9.86349 20.8142 9.762 21.0525 9.58464 21.2269C9.40729 21.4012 9.16859 21.4973 8.92107 21.494C8.67355 21.4906 8.43747 21.3882 8.26478 21.2091C8.09209 21.03 7.99693 20.789 8.00023 20.5391C7.99312 20.3453 8.00023 20.1568 8.00023 19.9666Z" fill="white"/>
<path d="M15.5 19.9683C15.5 19.7799 15.5 19.5914 15.5 19.403C15.5 19.153 15.5984 18.9134 15.7734 18.7367C15.9484 18.56 16.1858 18.4607 16.4333 18.4607C16.6808 18.4607 16.9182 18.56 17.0933 18.7367C17.2683 18.9134 17.3666 19.153 17.3666 19.403C17.3826 19.7906 17.3844 20.1783 17.3666 20.566C17.3635 20.8159 17.2623 21.0543 17.0851 21.2288C16.9079 21.4033 16.6693 21.4997 16.4218 21.4966C16.1743 21.4935 15.9381 21.3912 15.7652 21.2123C15.5924 21.0334 15.497 20.7925 15.5 20.5426C15.4912 20.347 15.5 20.1568 15.5 19.9683Z" fill="white"/>
<path d="M19.2491 19.9719C19.2491 19.7834 19.2491 19.5949 19.2491 19.4065C19.2472 19.1566 19.3437 18.9162 19.5174 18.7381C19.6911 18.5601 19.9277 18.459 20.1752 18.4571C20.4228 18.4552 20.6609 18.5526 20.8373 18.728C21.0136 18.9033 21.1137 19.1422 21.1156 19.3921C21.1316 19.7798 21.1334 20.1675 21.1156 20.5552C21.1145 20.6789 21.0892 20.8012 21.0412 20.9151C20.9932 21.0289 20.9235 21.1321 20.836 21.2188C20.7485 21.3055 20.645 21.3739 20.5313 21.4201C20.4176 21.4664 20.296 21.4896 20.1735 21.4884C20.0509 21.4873 19.9298 21.4617 19.817 21.4133C19.7042 21.3648 19.602 21.2944 19.5161 21.2061C19.4303 21.1178 19.3625 21.0132 19.3167 20.8985C19.2709 20.7837 19.2479 20.6609 19.2491 20.5372C19.2402 20.3488 19.2491 20.1603 19.2491 19.9719Z" fill="white"/>
<path d="M22.9983 19.97C22.9983 19.7816 22.9983 19.5931 22.9983 19.4047C22.9969 19.1548 23.0938 18.9146 23.2679 18.7368C23.4419 18.5591 23.6787 18.4585 23.9262 18.457C24.1737 18.4556 24.4117 18.5535 24.5877 18.7292C24.7637 18.9049 24.8634 19.144 24.8648 19.3939C24.8808 19.7816 24.8826 20.1693 24.8648 20.5569C24.862 20.8068 24.761 21.0454 24.5839 21.2201C24.4069 21.3947 24.1684 21.4913 23.9209 21.4884C23.6734 21.4856 23.4371 21.3836 23.2641 21.2048C23.0911 21.0261 22.9954 20.7853 22.9983 20.5354C22.9912 20.3469 22.9983 20.1585 22.9983 19.97Z" fill="white"/>
</g>
<defs>
<clipPath id="clip0_4423_7634">
<rect width="32" height="24.6154" fill="white" transform="translate(0.5 0.692383)"/>
</clipPath>
</defs>
</svg>
