<svg width="31" height="30" viewBox="0 0 31 30" fill="none" xmlns="http://www.w3.org/2000/svg">
<path d="M18.9083 26.6007V19.7824C18.9083 19.481 18.7885 19.1919 18.5754 18.9788C18.3623 18.7657 18.0733 18.646 17.7719 18.646H13.2264C12.9251 18.646 12.636 18.7657 12.4229 18.9788C12.2098 19.1919 12.0901 19.481 12.0901 19.7824V26.6007C12.0901 26.902 11.9704 27.1911 11.7573 27.4042C11.5442 27.6173 11.2552 27.737 10.9539 27.7371L4.13651 27.738C3.98726 27.738 3.83948 27.7086 3.70159 27.6515C3.56371 27.5944 3.43842 27.5107 3.33288 27.4052C3.22735 27.2996 3.14363 27.1744 3.08651 27.0365C3.0294 26.8986 3 26.7508 3 26.6016V13.468C3 13.3097 3.03308 13.1531 3.09712 13.0083C3.16116 12.8635 3.25475 12.7337 3.37189 12.6272L14.7347 2.29559C14.9439 2.1054 15.2165 2.00001 15.4992 2C15.7819 1.99999 16.0545 2.10536 16.2636 2.29554L27.6281 12.6272C27.7452 12.7337 27.8388 12.8635 27.9029 13.0083C27.9669 13.1531 28 13.3097 28 13.4681V26.6016C28 26.7508 27.9706 26.8986 27.9135 27.0365C27.8564 27.1744 27.7727 27.2997 27.6671 27.4052C27.5616 27.5107 27.4363 27.5944 27.2984 27.6515C27.1605 27.7086 27.0127 27.738 26.8635 27.738L20.0445 27.7371C19.7431 27.737 19.4541 27.6173 19.241 27.4042C19.028 27.1911 18.9083 26.902 18.9083 26.6007Z" fill="#B62222" stroke="#B62222" stroke-width="1.5" stroke-linecap="round" stroke-linejoin="round"/>
</svg>
