<svg width="32" height="32" viewBox="0 0 32 32" fill="none" xmlns="http://www.w3.org/2000/svg">
<rect width="32" height="32" rx="16" fill="#F8F8FC"/>
<g clip-path="url(#clip0_2475_19574)">
<path d="M19.6726 20.3333C19.4958 20.3333 19.3263 20.4036 19.2012 20.5286C19.0762 20.6536 19.006 20.8232 19.006 21V21.3333C19.006 21.4217 18.9709 21.5065 18.9084 21.569C18.8458 21.6316 18.7611 21.6667 18.6726 21.6667H15.006C14.9176 21.6667 14.8328 21.6316 14.7703 21.569C14.7078 21.5065 14.6726 21.4217 14.6726 21.3333V10.6667C14.6726 10.5783 14.7078 10.4935 14.7703 10.431C14.8328 10.3685 14.9176 10.3333 15.006 10.3333H18.6726C18.7611 10.3333 18.8458 10.3685 18.9084 10.431C18.9709 10.4935 19.006 10.5783 19.006 10.6667V11.3333C19.006 11.5102 19.0762 11.6797 19.2012 11.8047C19.3263 11.9298 19.4958 12 19.6726 12C19.8495 12 20.019 11.9298 20.1441 11.8047C20.2691 11.6797 20.3393 11.5102 20.3393 11.3333V9.66667C20.3393 9.48986 20.2691 9.32029 20.1441 9.19527C20.019 9.07024 19.8495 9.00001 19.6726 9.00001H14.6726V8.33334C14.6726 8.28346 14.6614 8.23422 14.6398 8.18926C14.6183 8.14429 14.5869 8.10474 14.548 8.07352C14.5091 8.04229 14.4637 8.0202 14.4151 8.00886C14.3665 7.99753 14.316 7.99723 14.2673 8.00801L8.26732 9.34134C8.19323 9.35773 8.12696 9.3989 8.07944 9.45805C8.03193 9.51721 8.00601 9.5908 8.00598 9.66667V22.3333C8.00586 22.4093 8.0317 22.4831 8.07923 22.5424C8.12676 22.6017 8.19312 22.6429 8.26732 22.6593L14.2673 23.9927C14.3161 24.003 14.3666 24.0024 14.4151 23.9909C14.4637 23.9793 14.509 23.9572 14.548 23.926C14.5869 23.8948 14.6183 23.8552 14.6399 23.8102C14.6615 23.7652 14.6727 23.7159 14.6726 23.666V22.9993H19.6726C19.8495 22.9993 20.019 22.9291 20.1441 22.8041C20.2691 22.6791 20.3393 22.5095 20.3393 22.3327V20.9993C20.3391 20.8226 20.2688 20.6532 20.1438 20.5284C20.0188 20.4035 19.8493 20.3333 19.6726 20.3333ZM13.006 16.3333C13.006 16.5311 12.9473 16.7245 12.8375 16.8889C12.7276 17.0534 12.5714 17.1815 12.3887 17.2572C12.2059 17.3329 12.0049 17.3527 11.8109 17.3141C11.6169 17.2755 11.4387 17.1803 11.2989 17.0404C11.159 16.9006 11.0638 16.7224 11.0252 16.5284C10.9866 16.3344 11.0064 16.1334 11.0821 15.9507C11.1578 15.7679 11.286 15.6118 11.4504 15.5019C11.6149 15.392 11.8082 15.3333 12.006 15.3333C12.2712 15.3333 12.5256 15.4387 12.7131 15.6262C12.9006 15.8138 13.006 16.0681 13.006 16.3333Z" fill="#BCBFD6"/>
<path d="M23.698 15.7787L20.448 13.612C20.3476 13.5452 20.231 13.5069 20.1105 13.5011C19.9901 13.4953 19.8703 13.5224 19.764 13.5793C19.6577 13.6362 19.5688 13.7209 19.5068 13.8243C19.4448 13.9278 19.412 14.0461 19.412 14.1667V15.3333H16.662C16.3968 15.3333 16.1424 15.4387 15.9549 15.6262C15.7673 15.8138 15.662 16.0681 15.662 16.3333C15.662 16.5986 15.7673 16.8529 15.9549 17.0404C16.1424 17.228 16.3968 17.3333 16.662 17.3333H19.412V18.5C19.412 18.6206 19.4448 18.7389 19.5068 18.8423C19.5688 18.9458 19.6577 19.0305 19.764 19.0874C19.8703 19.1443 19.9901 19.1713 20.1105 19.1656C20.231 19.1598 20.3476 19.1215 20.448 19.0547L23.698 16.888C23.7893 16.8271 23.8642 16.7446 23.9159 16.6479C23.9677 16.5511 23.9948 16.4431 23.9948 16.3333C23.9948 16.2236 23.9677 16.1156 23.9159 16.0188C23.8642 15.922 23.7893 15.8396 23.698 15.7787Z" fill="#BCBFD6"/>
</g>
<defs>
<clipPath id="clip0_2475_19574">
<rect width="16" height="16" fill="white" transform="translate(8 8)"/>
</clipPath>
</defs>
</svg>
