<svg width="20" height="19" viewBox="0 0 20 19" fill="none" xmlns="http://www.w3.org/2000/svg">
<path d="M17 4.5C17 2.84315 15.6569 1 14 1H5.8C4.11984 1 3.27976 1 2.63803 1.32698C2.07354 1.6146 1.6146 2.07354 1.32698 2.63803C1 3.27976 1 4.11984 1 5.8V13.5C1 13.9644 1 14.1966 1.02567 14.3916C1.2029 15.7378 2.26222 16.7971 3.60842 16.9743C3.80337 17 4.53558 17 5 17M4 7.5H9M4 4H11M7 12.5C7 13.3284 6.32843 14 5.5 14C4.67157 14 4 13.3284 4 12.5C4 11.6716 4.67157 11 5.5 11C6.32843 11 7 11.6716 7 12.5ZM8.19544 17.8945L9.51022 17.6347C10.2197 17.4945 10.5744 17.4244 10.9052 17.2952C11.1988 17.1806 11.4778 17.0317 11.7365 16.8516C12.0279 16.6486 12.2836 16.393 12.7949 15.8816L17.9434 10.7332C18.6306 10.0459 18.6306 8.93164 17.9434 8.24438C17.2561 7.55713 16.1418 7.55713 15.4546 8.24439L10.2182 13.4808C9.73899 13.96 9.49941 14.1996 9.30591 14.4712C9.13413 14.7123 8.98965 14.9717 8.87512 15.2447C8.7461 15.5522 8.66856 15.882 8.51348 16.5417L8.19544 17.8945Z" stroke="#EBEBEB" stroke-width="2" stroke-linecap="round" stroke-linejoin="round"/>
</svg>
