<svg width="28" height="27" viewBox="0 0 28 27" fill="none" xmlns="http://www.w3.org/2000/svg">
<path d="M1.3999 8.5C1.3999 5.87475 1.3999 4.56213 1.91081 3.55942C2.36022 2.67741 3.07731 1.96031 3.95932 1.51091C4.96203 1 6.27466 1 8.8999 1H18.8999C21.5251 1 22.8378 1 23.8405 1.51091C24.7225 1.96031 25.4396 2.67741 25.889 3.55942C26.3999 4.56213 26.3999 5.87475 26.3999 8.5V18.5C26.3999 21.1252 26.3999 22.4379 25.889 23.4406C25.4396 24.3226 24.7225 25.0397 23.8405 25.4891C22.8378 26 21.5251 26 18.8999 26H8.8999C6.27466 26 4.96203 26 3.95932 25.4891C3.07731 25.0397 2.36022 24.3226 1.91081 23.4406C1.3999 22.4379 1.3999 21.1252 1.3999 18.5V8.5Z" fill="#B62222"/>
<path d="M1.3999 16.625H5.57883C6.34318 16.625 6.72535 16.625 7.085 16.7113C7.40386 16.7879 7.70869 16.9142 7.98829 17.0855C8.30366 17.2788 8.5739 17.549 9.11437 18.0895L9.31044 18.2855C9.85091 18.826 10.1211 19.0962 10.4365 19.2895C10.7161 19.4608 11.0209 19.5871 11.3398 19.6637C11.6995 19.75 12.0816 19.75 12.846 19.75H14.9538C15.7182 19.75 16.1004 19.75 16.46 19.6637C16.7789 19.5871 17.0837 19.4608 17.3633 19.2895C17.6787 19.0962 17.9489 18.826 18.4894 18.2855L18.6854 18.0895C19.2259 17.549 19.4962 17.2788 19.8115 17.0855C20.0911 16.9142 20.3959 16.7879 20.7148 16.7113C21.0745 16.625 21.4566 16.625 22.221 16.625H26.3999M8.8999 26H18.8999C21.5251 26 22.8378 26 23.8405 25.4891C24.7225 25.0397 25.4396 24.3226 25.889 23.4406C26.3999 22.4379 26.3999 21.1252 26.3999 18.5V8.5C26.3999 5.87475 26.3999 4.56213 25.889 3.55942C25.4396 2.67741 24.7225 1.96031 23.8405 1.51091C22.8378 1 21.5251 1 18.8999 1H8.8999C6.27466 1 4.96203 1 3.95932 1.51091C3.07731 1.96031 2.36022 2.67741 1.91081 3.55942C1.3999 4.56213 1.3999 5.87475 1.3999 8.5V18.5C1.3999 21.1252 1.3999 22.4379 1.91081 23.4406C2.36022 24.3226 3.07731 25.0397 3.95932 25.4891C4.96203 26 6.27466 26 8.8999 26Z" stroke="white" stroke-width="1.5" stroke-linecap="round" stroke-linejoin="round"/>
<path d="M7.59961 10C7.59961 13.3137 10.2859 16 13.5996 16C16.9133 16 19.5996 13.3137 19.5996 10C19.5996 6.68629 16.9133 4 13.5996 4C11.8076 4 10.199 4.78563 9.09961 6.03126C9.03657 6.10268 8.97521 6.17562 8.91558 6.25M13.5996 7V10L15.4746 11.875M8.91504 4.00293V6.25293H11.165" stroke="white" stroke-width="1.5" stroke-linecap="round" stroke-linejoin="round"/>
</svg>
