<svg width="31" height="30" viewBox="0 0 31 30" fill="none" xmlns="http://www.w3.org/2000/svg">
<path d="M27.0498 6.875C27.0498 17.5755 18.3753 26.25 7.6748 26.25C7.19203 26.25 6.71338 26.2323 6.23946 26.1976C5.69558 26.1578 5.42364 26.1379 5.17609 25.9954C4.97107 25.8773 4.77663 25.6681 4.67387 25.455C4.5498 25.1977 4.5498 24.8977 4.5498 24.2975V20.7759C4.5498 20.2712 4.5498 20.0188 4.63287 19.8025C4.70624 19.6114 4.82542 19.4412 4.97993 19.307C5.15485 19.155 5.392 19.0687 5.86632 18.8963L9.87486 17.4386C10.4267 17.2379 10.7026 17.1376 10.9644 17.1546C11.1953 17.1697 11.4174 17.2484 11.6061 17.3822C11.8202 17.5339 11.9712 17.7857 12.2733 18.2892L13.2998 20C16.6121 18.4999 19.2974 15.8111 20.7998 12.5L19.089 11.4735C18.5855 11.1714 18.3337 11.0204 18.182 10.8063C18.0482 10.6176 17.9695 10.3955 17.9544 10.1646C17.9374 9.90284 18.0377 9.62692 18.2384 9.07508L18.2384 9.07506L19.6961 5.06651C19.8685 4.5922 19.9548 4.35504 20.1068 4.18012C20.241 4.02561 20.4112 3.90644 20.6023 3.83306C20.8186 3.75 21.071 3.75 21.5757 3.75H25.0973C25.6975 3.75 25.9975 3.75 26.2548 3.87407C26.4679 3.97682 26.6771 4.17127 26.7952 4.37629C26.9377 4.62383 26.9576 4.89577 26.9974 5.43963V5.43966C27.0321 5.91357 27.0498 6.39222 27.0498 6.875Z" fill="#B62222" stroke="#B62222" stroke-width="1.5" stroke-linecap="round" stroke-linejoin="round"/>
</svg>
