<svg width="22" height="22" viewBox="0 0 22 22" fill="none" xmlns="http://www.w3.org/2000/svg">
<path d="M7.875 11H14.125M11 7.875V14.125M5 21H17C18.4001 21 19.1002 21 19.635 20.7275C20.1054 20.4878 20.4878 20.1054 20.7275 19.635C21 19.1002 21 18.4001 21 17V5C21 3.59987 21 2.8998 20.7275 2.36502C20.4878 1.89462 20.1054 1.51217 19.635 1.27248C19.1002 1 18.4001 1 17 1H5C3.59987 1 2.8998 1 2.36502 1.27248C1.89462 1.51217 1.51217 1.89462 1.27248 2.36502C1 2.8998 1 3.59987 1 5V17C1 18.4001 1 19.1002 1.27248 19.635C1.51217 20.1054 1.89462 20.4878 2.36502 20.7275C2.8998 21 3.59987 21 5 21Z" stroke="white" stroke-width="2" stroke-linecap="round" stroke-linejoin="round"/>
</svg>
