<svg width="37" height="37" viewBox="0 0 37 37" fill="none" xmlns="http://www.w3.org/2000/svg">
<path fill-rule="evenodd" clip-rule="evenodd" d="M9.43262 15.5769C9.43262 15.0512 9.85881 14.625 10.3845 14.625H25.6153C26.141 14.625 26.5672 15.0512 26.5672 15.5769C26.5672 16.1027 26.141 16.5288 25.6153 16.5288H10.3845C9.85881 16.5288 9.43262 16.1027 9.43262 15.5769Z" fill="#9CA3AF"/>
<path fill-rule="evenodd" clip-rule="evenodd" d="M9.43262 21.2885C9.43262 20.7627 9.85881 20.3365 10.3845 20.3365H21.8076C22.3334 20.3365 22.7595 20.7627 22.7595 21.2885C22.7595 21.8142 22.3334 22.2404 21.8076 22.2404H10.3845C9.85881 22.2404 9.43262 21.8142 9.43262 21.2885Z" fill="#9CA3AF"/>
<path fill-rule="evenodd" clip-rule="evenodd" d="M9.43262 27C9.43262 26.4743 9.85881 26.0481 10.3845 26.0481H17.9999C18.5257 26.0481 18.9518 26.4743 18.9518 27C18.9518 27.5258 18.5257 27.9519 17.9999 27.9519H10.3845C9.85881 27.9519 9.43262 27.5258 9.43262 27Z" fill="#9CA3AF"/>
<path fill-rule="evenodd" clip-rule="evenodd" d="M15.2341 6.29497C15.5512 5.06305 16.6706 4.15385 18 4.15385C19.3294 4.15385 20.4488 5.06305 20.7659 6.29497C20.8741 6.71561 21.2534 7.00962 21.6877 7.00962H23.7115V8.91346V10.8173H12.2885V8.91346V7.00962H14.3123C14.7466 7.00962 15.1259 6.7156 15.2341 6.29497ZM10.3846 7.00962V6.05769C10.3846 5.53196 10.8108 5.10577 11.3365 5.10577H13.6367C14.3711 3.42513 16.0474 2.25 18 2.25C19.9526 2.25 21.6289 3.42513 22.3633 5.10577H24.6635C25.1892 5.10577 25.6154 5.53196 25.6154 6.05769V7.00962H27.5192C29.0964 7.00962 30.375 8.28819 30.375 9.86539V28.9038C30.375 30.481 29.0964 31.7596 27.5192 31.7596H8.48077C6.90357 31.7596 5.625 30.481 5.625 28.9038V9.86538C5.625 8.28819 6.90357 7.00962 8.48077 7.00962H10.3846ZM10.3846 8.91346H8.48077C7.95504 8.91346 7.52885 9.33965 7.52885 9.86538V28.9038C7.52885 29.4296 7.95504 29.8558 8.48077 29.8558H27.5192C28.045 29.8558 28.4712 29.4296 28.4712 28.9038V9.86539C28.4712 9.33965 28.045 8.91346 27.5192 8.91346H25.6154V10.8173C25.6154 11.8688 24.763 12.7212 23.7115 12.7212H12.2885C11.237 12.7212 10.3846 11.8688 10.3846 10.8173V8.91346Z" fill="#111827"/>
<circle cx="29" cy="29" r="7.5" fill="#056CF2" stroke="white"/>
<path fill-rule="evenodd" clip-rule="evenodd" d="M28.5 25C28.7761 25 29 25.2239 29 25.5V29.2929L31.8536 32.1464C32.0488 32.3417 32.0488 32.6583 31.8536 32.8536C31.6583 33.0488 31.3417 33.0488 31.1464 32.8536L28.1464 29.8536C28.0527 29.7598 28 29.6326 28 29.5V25.5C28 25.2239 28.2239 25 28.5 25Z" fill="white"/>
</svg>
