<svg width="56" height="57" viewBox="0 0 56 57" fill="none" xmlns="http://www.w3.org/2000/svg">
<rect x="5" y="1.5" width="46" height="46" rx="4" fill="#D1E9FF"/>
<g filter="url(#filter0_d_3051_3495)">
<rect x="22.1741" y="2.63574" width="32" height="32" rx="2" transform="rotate(30.08 22.1741 2.63574)" fill="#E8F4FF"/>
<rect x="16.1785" y="5.20654" width="32" height="32" rx="2" transform="rotate(13.5037 16.1785 5.20654)" fill="#E8F4FF"/>
<rect x="12" y="8.5" width="32" height="32" rx="2" fill="white"/>
<path d="M31.7951 25.8792C32.1741 25.1841 33.1721 25.1841 33.551 25.8792L38.9449 35.7711C39.3082 36.4375 38.8259 37.2498 38.0669 37.2498H27.2793C26.5203 37.2498 26.0379 36.4375 26.4013 35.7711L31.7951 25.8792Z" fill="#D1E9FF"/>
<path d="M23.1449 20.0749C23.5258 19.3887 24.5126 19.3887 24.8935 20.0749L33.6036 35.7646C33.9736 36.4312 33.4916 37.25 32.7293 37.25H15.3092C14.5468 37.25 14.0648 36.4312 14.4349 35.7646L23.1449 20.0749Z" fill="#A3D3FF"/>
<circle cx="37.5" cy="15" r="3.5" fill="#A3D3FF"/>
</g>
<defs>
<filter id="filter0_d_3051_3495" x="0.0681639" y="0.568652" width="55.8637" height="55.8637" filterUnits="userSpaceOnUse" color-interpolation-filters="sRGB">
<feFlood flood-opacity="0" result="BackgroundImageFix"/>
<feColorMatrix in="SourceAlpha" type="matrix" values="0 0 0 0 0 0 0 0 0 0 0 0 0 0 0 0 0 0 127 0" result="hardAlpha"/>
<feOffset dy="4"/>
<feGaussianBlur stdDeviation="3.4"/>
<feComposite in2="hardAlpha" operator="out"/>
<feColorMatrix type="matrix" values="0 0 0 0 0 0 0 0 0 0.470435 0 0 0 0 0.901667 0 0 0 0.1 0"/>
<feBlend mode="normal" in2="BackgroundImageFix" result="effect1_dropShadow_3051_3495"/>
<feBlend mode="normal" in="SourceGraphic" in2="effect1_dropShadow_3051_3495" result="shape"/>
</filter>
</defs>
</svg>
