<svg width="24" height="24" viewBox="0 0 24 24" fill="none" xmlns="http://www.w3.org/2000/svg">
<path fill-rule="evenodd" clip-rule="evenodd" d="M20.4205 3.71282L21.7744 6.8718C21.9282 7.23077 22 7.6 22 7.98974V19.1795C22 19.9282 21.7026 20.6359 21.1692 21.1692C20.6359 21.7026 19.9282 22 19.1795 22H4.82051C4.07179 22 3.3641 21.7026 2.83077 21.1692C2.29744 20.6359 2 19.9282 2 19.1795V7.98974C2 7.97949 2.00256 7.96923 2.00513 7.95897C2.00769 7.94872 2.01026 7.93846 2.01026 7.92821C2.01026 7.92308 2.00769 7.91795 2.00513 7.91282C2.00256 7.90769 2 7.90256 2 7.89744C2 7.86667 2.01026 7.8359 2.02051 7.80513C2.04103 7.48718 2.10256 7.16923 2.22564 6.8718L3.58974 3.70256C3.80513 3.2 4.1641 2.75897 4.62564 2.46154C5.08718 2.1641 5.62051 2 6.17436 2H17.8256C18.3795 2 18.9128 2.1641 19.3846 2.47179C19.8462 2.76923 20.2051 3.2 20.4205 3.71282ZM19.0051 4.31795C18.9026 4.09231 18.7487 3.89744 18.5333 3.75385C18.318 3.61026 18.0821 3.53846 17.8154 3.53846H14.9846L15.7026 7.12821H20.2051L19.0051 4.31795ZM9.80513 11.2308L15.0769 11.2103H14.3077V8.66667H9.69231V11.2103C9.69744 11.2103 9.72308 11.2154 9.74872 11.2205C9.77436 11.2256 9.8 11.2308 9.80513 11.2308ZM10.5744 3.53846L9.85641 7.12821H14.1333L13.4154 3.53846H10.5744ZM5.46667 3.75385C5.26154 3.88718 5.09744 4.08205 4.99487 4.31795L3.79487 7.12821H8.29744L9.01539 3.53846H6.17436C5.91795 3.53846 5.68205 3.61026 5.46667 3.75385ZM19.1795 20.4615C19.518 20.4615 19.8462 20.3282 20.0821 20.0821C20.3282 19.8462 20.4615 19.518 20.4615 19.1795V8.66667H15.8462V11.2103C15.8154 11.6821 15.6308 12.0718 15.3128 12.359C14.9949 12.6462 14.5744 12.7897 14.1538 12.7692H9.80513H9.73333C9.37436 12.7692 8.98462 12.6256 8.68718 12.359C8.36923 12.0718 8.17436 11.6821 8.15385 11.2513V8.66667H3.53846V19.1795C3.53846 19.518 3.68205 19.8359 3.91795 20.0821C4.15385 20.3282 4.48205 20.4615 4.82051 20.4615H19.1795ZM5.84614 17.3845H7.89742C8.31793 17.3845 8.66665 17.7332 8.66665 18.1538C8.66665 18.5743 8.31793 18.923 7.89742 18.923H5.84614C5.42562 18.923 5.0769 18.5743 5.0769 18.1538C5.0769 17.7332 5.42562 17.3845 5.84614 17.3845Z" fill="#B62222"/>
</svg>
