<svg width="48" height="40" viewBox="0 0 48 40" fill="none" xmlns="http://www.w3.org/2000/svg">
<path d="M12.9567 10.5817L12.9513 10.5952H12.9756" fill="#B62222"/>
<path d="M46.1656 8.74057C46.2475 9.23163 46.3413 9.71547 46.3413 10.2643C46.3413 15.7502 42.5525 20.4563 34.9723 24.3848C34.3199 24.7266 33.6098 25.0275 32.9262 25.3452C32.9623 25.285 28.9857 30.2919 25.866 32.2418C22.2961 34.4756 18.6926 35.5925 15.0554 35.5998L15.0409 35.6431C15.0506 35.6431 15.0626 35.6407 15.0722 35.6407L13.5437 40.0001C19.4725 39.8821 25.0451 38.6641 30.2398 36.2714C36.1638 33.532 40.6797 29.6733 43.7897 24.6929C46.1416 20.916 47.3162 17.3342 47.3162 13.9473C47.3138 11.9951 46.8926 10.2812 46.1656 8.74057Z" fill="#B62222"/>
<path d="M43.0449 22.6711C45.3967 18.8943 46.5714 15.3124 46.5714 11.9255C46.5714 10.7917 46.4269 9.7374 46.1645 8.75046C46.244 9.23911 46.3379 9.71814 46.3379 10.2646C46.3379 15.7505 42.549 20.4565 34.9688 24.385C34.3165 24.7268 33.6063 25.0277 32.9227 25.3455C32.9588 25.2853 28.9822 30.2922 25.8625 32.242C22.2927 34.4759 18.6891 35.5928 15.0519 35.6L15.0374 35.6433C15.0471 35.6433 15.0591 35.6409 15.0687 35.6409L14.2672 37.9253C19.6496 37.6485 24.7311 36.4449 29.4925 34.2496C35.4189 31.5102 39.9348 27.6515 43.0449 22.6711Z" fill="#B62222"/>
<path d="M14.4554 34.628C14.4681 34.628 14.4783 34.6254 14.491 34.6254L14.4554 34.628Z" fill="#B62222"/>
<path d="M22.1493 10.5939H12.1451H12.1234L2.0759 39.9108H11.24C11.5481 39.9108 11.8057 39.918 12.1114 39.9108L22.1493 10.5939Z" fill="#B62222"/>
<path d="M10.6236 31.3169H8.77007H8.76525L6.90451 36.7474H8.60157C8.65934 36.7474 8.70748 36.7474 8.76285 36.7474L10.6236 31.3169Z" fill="#B62222"/>
<path d="M13.9726 21.9706H12.1191H12.1143L10.2535 27.4012H11.9506C12.0083 27.4012 12.0565 27.4012 12.1118 27.4012L13.9726 21.9706Z" fill="#B62222"/>
<path d="M16.9277 12.6232H15.0742H15.0694L13.2086 18.0538H14.9057C14.9634 18.0538 15.0116 18.0538 15.067 18.0538L16.9277 12.6232Z" fill="#B62222"/>
<path d="M45.7757 9.27C45.7733 8.35528 45.4965 7.46463 45.0199 6.68471C44.134 5.23559 42.9064 3.97664 41.2791 2.94397C38.1883 0.982124 34.32 0 29.6718 0H11.3339H11.2786C9.10009 0 6.9216 0 4.74552 0C4.68293 0 4.61794 7.3443e-07 4.55535 0.0120366C4.24242 0.0674014 4.07633 0.267194 3.99207 0.698077C3.50101 0.698077 3.01717 0.69567 2.53574 0.698077C2.27576 0.698077 2.10004 0.859358 2.10486 1.08563C2.10967 1.29746 2.24688 1.40097 2.53092 1.40097C4.15817 1.40097 5.78301 1.40097 7.41025 1.40097C7.4584 1.40097 7.50654 1.39857 7.55468 1.40338C7.77855 1.42986 7.90372 1.64169 7.81466 1.85111C7.73522 2.03646 7.58598 2.09905 7.391 2.09905C5.33287 2.09664 3.27714 2.09664 1.21902 2.09905C1.16124 2.09905 1.10107 2.09664 1.04329 2.10387C0.845905 2.12553 0.691846 2.30847 0.703881 2.50105C0.715917 2.68399 0.853124 2.79954 1.06736 2.80435C1.11069 2.80435 1.15161 2.80435 1.19494 2.80435C2.9594 2.80435 4.72385 2.80435 6.48831 2.80435C6.64237 2.80435 6.76032 2.8525 6.8229 2.99933C6.88068 3.13654 6.84216 3.25931 6.74828 3.36763C6.64718 3.48317 6.51478 3.49762 6.37035 3.49762C4.86106 3.49521 3.35177 3.49521 1.84247 3.49762C1.58009 3.49762 1.40196 3.65408 1.40437 3.87795C1.40437 4.08978 1.54639 4.1957 1.82803 4.1957C3.76339 4.1957 5.69876 4.1957 7.63171 4.1957C7.68467 4.1957 7.73763 4.19329 7.79059 4.1981C7.97353 4.21014 8.08185 4.29439 8.11796 4.44845C8.15166 4.58565 8.08426 4.75657 7.94464 4.82637C7.85317 4.8697 7.74244 4.88896 7.63893 4.88896C5.26787 4.89137 2.89681 4.89137 0.52575 4.89137C0.251332 4.89137 0.068389 5.04302 0.068389 5.2717C0.0659818 5.48834 0.210411 5.59185 0.504086 5.59185C2.15781 5.59185 3.81154 5.59185 5.46285 5.59185C5.52544 5.59185 5.59043 5.58945 5.65302 5.60148C5.82152 5.63518 5.9154 5.76758 5.90577 5.93608C5.89133 6.14309 5.72523 6.28512 5.48692 6.28512C4.89235 6.28752 4.29538 6.28512 3.70081 6.28512C3.65266 6.28512 3.60452 6.28512 3.55638 6.28512C3.54675 6.28512 3.53953 6.28271 3.5299 6.28271C3.3301 6.28271 3.16882 6.44399 3.16882 6.64379C3.16882 6.81951 3.29399 6.96394 3.46009 6.99764C3.46009 7.00005 3.46009 7.00245 3.46009 7.00486H7.00344H12.1163H25.3701C27.0239 7.00486 28.4633 7.15892 29.6886 7.46704C30.9211 7.77275 31.9393 8.23252 32.7385 8.84634C33.0538 9.09188 33.3066 9.39999 33.5641 9.70329C33.581 9.72255 33.5858 9.75385 33.6027 9.7731C34.1226 10.4038 34.5246 11.15 34.8111 12.0166C34.8905 12.2453 34.941 12.5004 35.006 12.746C35.1745 13.4464 35.2804 14.2071 35.3166 15.04C35.3286 15.2831 35.3647 15.4396 35.3647 15.6947C35.3647 17.6397 34.6666 20.0854 33.1838 22.9957C32.9455 23.4747 32.6398 23.9176 32.3606 24.375C33.0442 24.0548 33.7567 23.7539 34.4066 23.4145C41.9868 19.486 45.7757 14.7776 45.7757 9.29408C45.7757 9.28204 45.7757 9.27723 45.7757 9.27Z" fill="#B62222"/>
</svg>
