<svg xmlns="http://www.w3.org/2000/svg" width="33" height="32" viewBox="0 0 33 32" fill="none">
    <path fill-rule="evenodd" clip-rule="evenodd" d="M7.01984 2.6703H24.6465C26.7277 2.63302 28.4489 4.28266 28.4998 6.36363V14.3637C27.8941 13.7643 27.2074 13.2526 26.4598 12.8436C22.9716 10.9857 18.7037 11.4384 15.6828 13.9866C12.6618 16.5349 11.4964 20.6655 12.7398 24.417C12.9978 25.2153 13.3658 25.9737 13.8332 26.6703H7.01984C4.93349 26.7075 3.21025 25.0498 3.1665 22.9637V6.37696C3.21025 4.29075 4.93349 2.6331 7.01984 2.6703ZM9.83317 10.6703H21.8332C22.5696 10.6703 23.1665 10.0733 23.1665 9.33696C23.1665 8.60058 22.5696 8.00363 21.8332 8.00363H9.83317C9.0968 8.00363 8.49984 8.60058 8.49984 9.33696C8.49984 10.0733 9.0968 10.6703 9.83317 10.6703Z" fill="white"/>
    <path fill-rule="evenodd" clip-rule="evenodd" d="M17.8354 14.017C16.794 14.5837 15.8849 15.3654 15.1688 16.3103C14.0725 17.7554 13.4864 19.5233 13.5021 21.337C13.4901 24.8578 15.6921 28.0063 19.0034 29.2029C22.3148 30.3994 26.0208 29.3857 28.2621 26.6703C28.9144 25.8817 29.412 24.9769 29.7288 24.0037C30.5877 21.4606 30.1691 18.6594 28.6041 16.4786C27.0392 14.2978 24.5196 13.0042 21.8354 13.0037C20.4388 13.0053 19.0644 13.3535 17.8354 14.017ZM21.2754 22.6703H19.1688V22.617C18.4324 22.617 17.8354 22.0201 17.8354 21.2837C17.8354 20.5473 18.4324 19.9503 19.1688 19.9503H21.2221L20.8354 19.5637C20.3126 19.0409 20.3126 18.1931 20.8354 17.6703C21.3582 17.1475 22.2058 17.1475 22.7288 17.6703L25.3954 20.337C25.7446 20.6855 25.8729 21.1985 25.7288 21.6703C25.7406 21.7319 25.7406 21.7954 25.7288 21.857C25.6637 22.0159 25.5686 22.1607 25.4488 22.2837L22.7821 24.9503C22.5317 25.2027 22.1909 25.3447 21.8354 25.3447C21.4798 25.3447 21.139 25.2027 20.8888 24.9503C20.6364 24.6999 20.4944 24.3591 20.4944 24.0037C20.4944 23.6482 20.6364 23.3074 20.8888 23.057L21.2754 22.6703Z" fill="white"/>
</svg>