<svg width="32" height="32" viewBox="0 0 32 32" fill="none" xmlns="http://www.w3.org/2000/svg">
<rect width="32" height="32" rx="16" fill="#F8F8FC"/>
<path d="M18.4733 16.4733C19.1269 15.9591 19.604 15.254 19.8382 14.456C20.0723 13.658 20.0519 12.8069 19.7799 12.021C19.5078 11.2351 18.9975 10.5536 18.32 10.0712C17.6426 9.58889 16.8316 9.32968 16 9.32968C15.1684 9.32968 14.3574 9.58889 13.68 10.0712C13.0025 10.5536 12.4922 11.2351 12.2201 12.021C11.9481 12.8069 11.9277 13.658 12.1618 14.456C12.396 15.254 12.8731 15.9591 13.5267 16.4733C12.4067 16.922 11.4295 17.6662 10.6993 18.6266C9.969 19.587 9.51304 20.7275 9.38 21.9267C9.37037 22.0142 9.37808 22.1028 9.40268 22.1874C9.42729 22.272 9.46831 22.3508 9.52341 22.4196C9.63468 22.5583 9.79652 22.6472 9.97333 22.6667C10.1501 22.6861 10.3274 22.6345 10.4662 22.5233C10.605 22.412 10.6939 22.2502 10.7133 22.0733C10.8597 20.7701 11.4811 19.5666 12.4588 18.6925C13.4365 17.8185 14.7019 17.3354 16.0133 17.3354C17.3247 17.3354 18.5902 17.8185 19.5679 18.6925C20.5455 19.5666 21.1669 20.7701 21.3133 22.0733C21.3315 22.2372 21.4096 22.3884 21.5327 22.498C21.6559 22.6076 21.8152 22.6677 21.98 22.6667H22.0533C22.2281 22.6466 22.3878 22.5582 22.4977 22.4208C22.6076 22.2835 22.6587 22.1083 22.64 21.9333C22.5063 20.7308 22.0479 19.5873 21.3139 18.6255C20.5799 17.6636 19.5979 16.9197 18.4733 16.4733ZM16 16C15.4726 16 14.957 15.8436 14.5185 15.5506C14.0799 15.2576 13.7382 14.8411 13.5363 14.3538C13.3345 13.8666 13.2817 13.3304 13.3846 12.8131C13.4875 12.2958 13.7414 11.8207 14.1144 11.4477C14.4873 11.0748 14.9625 10.8208 15.4798 10.7179C15.997 10.615 16.5332 10.6678 17.0205 10.8697C17.5078 11.0715 17.9242 11.4133 18.2173 11.8518C18.5103 12.2904 18.6667 12.8059 18.6667 13.3333C18.6667 14.0406 18.3857 14.7189 17.8856 15.219C17.3855 15.7191 16.7072 16 16 16Z" fill="#BCBFD6"/>
</svg>
