<svg width="36" height="38" viewBox="0 0 36 38" fill="none" xmlns="http://www.w3.org/2000/svg">
<circle cx="18" cy="20" r="17" stroke="#23262F" stroke-width="2"/>
<path d="M13 20L23 20" stroke="#23262F" stroke-width="2" stroke-linecap="round" stroke-linejoin="round"/>
<circle cx="8" cy="8" r="7.5" fill="#056CF2" stroke="white"/>
<path d="M7.89766 12.909H8.48005V12.1171C9.97152 12.0141 10.8096 11.1335 10.8096 10.0255C10.8096 8.66187 9.51698 8.22153 8.76414 8.02266L8.48005 7.94454V5.41968C9.23289 5.49425 9.77976 5.89908 9.85789 6.54539H10.7102C10.6746 5.50846 9.76556 4.7201 8.48005 4.63488V3.81812H7.89766V4.64553C6.67962 4.76982 5.76698 5.54397 5.76698 6.65902C5.76698 7.63914 6.47721 8.22152 7.61357 8.54823L7.89766 8.62991V11.3181C7.15192 11.24 6.54113 10.8565 6.47721 10.1249H5.56812C5.64979 11.2435 6.50206 12.0248 7.89766 12.1171V12.909ZM8.48005 11.3181V8.79681L8.50846 8.80391C9.2755 9.01698 9.95732 9.28687 9.95732 10.0113C9.95732 10.7251 9.33942 11.2222 8.48005 11.3181ZM7.89766 7.78829C7.35789 7.63559 6.61925 7.33729 6.61925 6.61641C6.61925 6.00206 7.11641 5.53331 7.89766 5.43033V7.78829Z" fill="white"/>
</svg>
