<svg xmlns="http://www.w3.org/2000/svg" width="21" height="20" viewBox="0 0 21 20" fill="none">
    <g clip-path="url(#clip0_1098_4719)">
        <path fill-rule="evenodd" clip-rule="evenodd" d="M20.5 10C20.5 12.6812 19.4447 15.116 17.727 16.9117C15.9127 18.8081 13.3596 19.9917 10.5298 20H10.5H10.4702C7.64043 19.9917 5.08723 18.8081 3.27304 16.9117C1.55523 15.116 0.5 12.6812 0.5 10C0.5 4.47716 4.97716 0 10.5 0C16.0229 0 20.5 4.47716 20.5 10ZM16.5611 15C15.1201 13.255 12.9399 12.1428 10.5 12.1428C8.06009 12.1428 5.87991 13.255 4.43879 15C5.87991 16.745 8.06009 17.8571 10.5 17.8571C12.9399 17.8571 15.1201 16.745 16.5611 15ZM10.5002 10.7142C12.4726 10.7142 14.0716 9.11526 14.0716 7.14281C14.0716 5.17037 12.4726 3.57139 10.5002 3.57139C8.52773 3.57139 6.92874 5.17037 6.92874 7.14281C6.92874 9.11526 8.52773 10.7142 10.5002 10.7142Z" fill="#D7D7D7"/>
    </g>
    <defs>
        <clipPath id="clip0_1098_4719">
            <rect width="20" height="20" fill="white" transform="translate(0.5)"/>
        </clipPath>
    </defs>
</svg>