<svg xmlns="http://www.w3.org/2000/svg" width="24" height="24" viewBox="0 0 24 24" fill="none">
    <g clip-path="url(#clip0_1353_20262)">
        <path d="M12 1.65112V8.01969" stroke="#B92F2E" stroke-width="1.71" stroke-linecap="round" stroke-linejoin="round"/>
        <path d="M1.65112 8.01978H22.349V20.7569C22.349 21.1792 22.1812 21.5842 21.8826 21.8827C21.5841 22.1812 21.1791 22.3491 20.7568 22.3491H3.24327C2.821 22.3491 2.41604 22.1812 2.11745 21.8827C1.81887 21.5842 1.65112 21.1792 1.65112 20.7569V8.01978Z" stroke="#B92F2E" stroke-width="1.71" stroke-linecap="round" stroke-linejoin="round"/>
        <path d="M1.65112 8.01969L4.03934 3.4184C4.2968 2.89979 4.69079 2.46121 5.17893 2.14981C5.66706 1.83841 6.23086 1.666 6.80967 1.65112H17.1904C17.7829 1.65144 18.3634 1.81701 18.867 2.12921C19.3704 2.44142 19.7767 2.88788 20.0404 3.4184L22.349 8.01969" stroke="#B92F2E" stroke-width="1.71" stroke-linecap="round" stroke-linejoin="round"/>
        <path d="M15.9805 15.1843H8.01978" stroke="#B92F2E" stroke-width="1.71" stroke-linecap="round" stroke-linejoin="round"/>
        <path d="M12 11.2041V19.1648" stroke="#B92F2E" stroke-width="1.71" stroke-linecap="round" stroke-linejoin="round"/>
    </g>
    <defs>
        <clipPath id="clip0_1353_20262">
            <rect width="24" height="24" fill="white"/>
        </clipPath>
    </defs>
</svg>