<svg width="25" height="25" viewBox="0 0 25 25" fill="none" xmlns="http://www.w3.org/2000/svg">
<g id="Package">
<path id="Vector" d="M17 9.92432L8 4.73432M21.5 16.5243V8.52432C21.4996 8.17359 21.4071 7.82913 21.2315 7.52548C21.056 7.22183 20.8037 6.96968 20.5 6.79432L13.5 2.79432C13.196 2.61878 12.8511 2.52637 12.5 2.52637C12.1489 2.52637 11.804 2.61878 11.5 2.79432L4.5 6.79432C4.19626 6.96968 3.94398 7.22183 3.76846 7.52548C3.59294 7.82913 3.50036 8.17359 3.5 8.52432V16.5243C3.50036 16.875 3.59294 17.2195 3.76846 17.5232C3.94398 17.8268 4.19626 18.079 4.5 18.2543L11.5 22.2543C11.804 22.4299 12.1489 22.5223 12.5 22.5223C12.8511 22.5223 13.196 22.4299 13.5 22.2543L20.5 18.2543C20.8037 18.079 21.056 17.8268 21.2315 17.5232C21.4071 17.2195 21.4996 16.875 21.5 16.5243Z" stroke="#353535" stroke-width="2" stroke-linecap="round" stroke-linejoin="round"/>
<path id="Vector_2" d="M3.77002 7.48438L12.5 12.5344L21.23 7.48438M12.5 22.6044V12.5244" stroke="#353535" stroke-width="2" stroke-linecap="round" stroke-linejoin="round"/>
</g>
</svg>
