<svg xmlns="http://www.w3.org/2000/svg" width="24" height="26" viewBox="0 0 24 26" fill="none">
    <path d="M11.9722 4.37603C16.7271 4.39266 20.5731 8.2608 20.5564 13.0101C20.5398 17.7206 16.6606 21.5499 11.9224 21.5389C7.21742 21.5278 3.37698 17.6375 3.39361 12.9048C3.41023 8.22201 7.28946 4.3594 11.9722 4.37603ZM14.7542 10.9984C14.6766 10.1062 14.1502 9.28049 13.1194 8.80389C12.9587 8.73185 12.8922 8.64872 12.9088 8.47693C12.9199 8.3661 12.9143 8.25526 12.8977 8.14443C12.8035 7.50158 12.1828 7.12474 11.6065 7.3852C11.1742 7.57917 11.0135 7.95046 11.0412 8.39935C11.0523 8.61547 10.9914 8.72631 10.7808 8.8316C9.8165 9.30819 9.27895 10.0951 9.20691 11.1647C9.09053 12.8494 10.4649 14.1295 11.9612 14.1351C12.5153 14.1351 12.9199 14.5673 12.9143 15.0827C12.9143 15.5759 12.5153 15.986 12.0277 16.0026C11.4735 16.0193 11.0745 15.648 11.0357 15.0716C10.9969 14.5119 10.6034 14.1461 10.0603 14.1628C9.54496 14.1794 9.16812 14.5895 9.19029 15.1437C9.24016 16.2686 9.78879 17.0777 10.7919 17.571C10.9747 17.6596 11.0745 17.7483 11.0412 17.9589C11.0246 18.0586 11.0357 18.1639 11.0412 18.2637C11.1022 18.7846 11.4846 19.1226 11.9889 19.1171C12.5209 19.1116 12.9033 18.7015 12.8977 18.1085C12.8977 17.8425 12.9531 17.6929 13.2191 17.5654C14.2665 17.0611 14.8595 15.9417 14.7376 14.7835C14.6157 13.6474 13.801 12.6887 12.6871 12.395C12.4045 12.3229 12.1052 12.3174 11.8171 12.2564C11.3072 12.1567 10.9858 11.7244 11.0357 11.2367C11.0856 10.7435 11.5012 10.3944 12.0055 10.4055C12.4987 10.4165 12.87 10.7934 12.9088 11.3143C12.9476 11.9017 13.3355 12.2786 13.8842 12.2564C14.4272 12.2342 14.7764 11.8186 14.7487 10.9929L14.7542 10.9984Z" fill="#FBC800"/>
    <path d="M18.4836 2.80293C18.3893 2.31526 18.3062 1.883 18.2175 1.45629C18.1067 0.924277 18.3949 0.469853 18.9158 0.353476C19.3813 0.248183 19.8524 0.558521 19.9577 1.06836C20.1849 2.16009 20.3955 3.25181 20.6171 4.34354C20.6448 4.47654 20.6892 4.60955 20.7446 4.73146C20.9219 5.11939 20.8554 5.51839 20.5562 5.79548C20.2514 6.07257 19.8136 6.12245 19.4589 5.87861C19.2594 5.74006 19.0931 5.5461 18.9103 5.37985C17.2588 3.89466 15.3247 3.04123 13.1247 2.80847C8.26455 2.29309 3.79235 5.16372 2.25729 9.78C1.6089 11.7307 1.55903 13.7036 2.09658 15.6931C2.25729 16.286 2.06333 16.7571 1.58673 16.9344C1.12677 17.1007 0.605844 16.8291 0.478384 16.3082C0.317673 15.6653 0.162503 15.017 0.0849189 14.363C-0.153377 12.2683 0.101544 10.2344 0.954975 8.30036C2.60088 4.5375 5.4438 2.15455 9.43386 1.22907C12.5151 0.519729 15.4356 1.04065 18.1732 2.6256C18.2563 2.67547 18.345 2.72535 18.4836 2.80293Z" fill="#FBC800"/>
    <path d="M5.46041 23.0842C5.56016 23.5885 5.64328 24.0318 5.73749 24.4696C5.85387 25.0404 5.58233 25.5447 5.10019 25.6445C4.5571 25.7553 4.11376 25.445 3.9863 24.8409C3.72584 23.5885 3.47646 22.3305 3.23262 21.0725C3.14395 20.6237 3.33237 20.2357 3.70367 20.0418C4.08051 19.8423 4.45735 19.9143 4.80648 20.2634C6.3748 21.8096 8.24791 22.7462 10.4147 23.0897C15.2084 23.8545 20.002 20.995 21.6202 16.4064C22.3406 14.367 22.4237 12.2999 21.8529 10.2052C21.6867 9.60665 21.9139 9.11897 22.4126 8.97489C22.9059 8.8308 23.4323 9.10789 23.5432 9.63436C23.7205 10.51 23.9311 11.3856 23.981 12.2722C24.2802 17.5702 21.0272 22.4524 16.0507 24.2369C14.9257 24.6414 13.762 24.852 12.5705 24.9351C10.0601 25.1125 7.77132 24.4696 5.64328 23.1784C5.60449 23.1562 5.5657 23.1341 5.46595 23.0842H5.46041Z" fill="#FBC800"/>
</svg>