<svg width="60" height="60" viewBox="0 0 60 60" fill="none" xmlns="http://www.w3.org/2000/svg">
<g id="Mail-amico 1">
<g id="freepik--Floor--inject-3">
<path id="freepik--floor--inject-3" d="M10.4856 48.2616C21.3372 53.838 38.9256 53.838 49.7796 48.2616C60.6336 42.6852 60.6312 33.6432 49.7796 28.0656C38.928 22.488 21.3396 22.4892 10.4856 28.0656C-0.368383 33.642 -0.359983 42.6852 10.4856 48.2616Z" fill="#F5F5F5"/>
</g>
<g id="freepik--Plants--inject-3">
<g id="freepik--plants--inject-3">
<path id="Vector" d="M48.9012 33.3228C48.9144 32.5776 49.6944 30.6288 50.4852 29.6736C51.276 28.7184 52.5036 28.0332 53.3652 28.344C54.1656 28.6332 54.06 29.6868 53.0712 30.3696C52.0824 31.0524 50.5992 31.9056 50.1492 33.1068L49.2228 34.5756L48.9012 33.3228Z" fill="#B92F2E"/>
<path id="Vector_2" opacity="0.1" d="M48.9012 33.3228C48.9144 32.5776 49.6944 30.6288 50.4852 29.6736C51.276 28.7184 52.5036 28.0332 53.3652 28.344C54.1656 28.6332 54.06 29.6868 53.0712 30.3696C52.0824 31.0524 50.5992 31.9056 50.1492 33.1068L49.2228 34.5756L48.9012 33.3228Z" fill="black"/>
<path id="Vector_3" d="M49.0428 33.9276C49.0544 33.9268 49.0655 33.9223 49.0743 33.9148C49.0832 33.9072 49.0894 33.897 49.092 33.8856C49.6356 31.3488 51.732 29.316 52.9704 28.8804C52.9772 28.8781 52.9835 28.8745 52.9889 28.8697C52.9943 28.8649 52.9987 28.8592 53.0018 28.8527C53.0049 28.8462 53.0067 28.8391 53.0071 28.8319C53.0075 28.8248 53.0064 28.8176 53.004 28.8108C53.0015 28.8041 52.9978 28.7979 52.993 28.7926C52.9882 28.7873 52.9824 28.7831 52.9759 28.7801C52.9694 28.7771 52.9624 28.7754 52.9553 28.7751C52.9482 28.7748 52.941 28.7759 52.9344 28.7784C51.6708 29.2224 49.5372 31.2876 48.9852 33.8628C48.9826 33.8769 48.9855 33.8915 48.9933 33.9035C49.0011 33.9155 49.0132 33.9242 49.0272 33.9276H49.0428Z" fill="white"/>
<path id="Vector_4" d="M49.3932 35.5631C49.5204 35.1467 50.0448 34.4639 50.8824 33.9071C51.8088 33.2915 52.9728 33.0215 53.2488 32.5331C53.58 31.9487 53.0916 31.3811 52.1496 31.4819C51.2076 31.5827 49.53 32.8367 49.2324 34.7651L49.3932 35.5631Z" fill="#B92F2E"/>
<path id="Vector_5" d="M49.2192 35.1203C49.2296 35.1195 49.2397 35.1159 49.2481 35.1097C49.2566 35.1036 49.2632 35.0952 49.2672 35.0855C50.0856 32.9195 51.762 32.1827 52.5336 32.0963C52.5407 32.0956 52.5476 32.0934 52.5539 32.09C52.5601 32.0866 52.5657 32.0819 52.5701 32.0763C52.5746 32.0708 52.5779 32.0643 52.5799 32.0575C52.5818 32.0506 52.5824 32.0434 52.5816 32.0363C52.581 32.0291 52.579 32.0222 52.5756 32.0158C52.5722 32.0095 52.5676 32.0039 52.562 31.9994C52.5563 31.9949 52.5499 31.9916 52.5429 31.9897C52.536 31.9878 52.5287 31.9873 52.5216 31.9883C51.6684 32.0831 50.0016 32.8355 49.1616 35.0471C49.1565 35.0605 49.157 35.0753 49.1628 35.0884C49.1687 35.1014 49.1794 35.1116 49.1928 35.1167C49.2009 35.121 49.2102 35.1223 49.2192 35.1203Z" fill="white"/>
</g>
<g id="freepik--plants--inject-3_2">
<path id="Vector_6" d="M12.498 40.3715L13.4064 39.8519C13.4064 39.8519 13.842 37.4519 13.5168 35.3879C13.0584 32.4863 11.0832 31.4855 10.3656 31.7747C9.64798 32.0639 9.47878 32.9219 10.7748 34.5983C11.5392 35.5883 12.5232 37.6799 12.498 40.3715Z" fill="#B92F2E"/>
<g id="Group" opacity="0.1">
<path id="Vector_7" d="M12.498 40.3715L13.4064 39.8519C13.4064 39.8519 13.842 37.4519 13.5168 35.3879C13.0584 32.4863 11.0832 31.4855 10.3656 31.7747C9.64798 32.0639 9.47878 32.9219 10.7748 34.5983C11.5392 35.5883 12.5232 37.6799 12.498 40.3715Z" fill="black"/>
</g>
<path id="Vector_8" d="M12.8268 39.2195H12.8184C12.8099 39.2185 12.8017 39.2158 12.7943 39.2115C12.7868 39.2072 12.7804 39.2015 12.7752 39.1947C12.7701 39.1878 12.7663 39.18 12.7643 39.1717C12.7622 39.1634 12.7618 39.1548 12.7632 39.1463C13.1388 36.4307 12.0432 33.4547 10.8192 32.2547C10.8131 32.2488 10.8083 32.2417 10.8049 32.2339C10.8016 32.2261 10.7999 32.2176 10.7999 32.2091C10.7999 32.2006 10.8016 32.1922 10.8049 32.1844C10.8083 32.1766 10.8131 32.1695 10.8192 32.1635C10.8313 32.1515 10.8477 32.1448 10.8648 32.1448C10.8819 32.1448 10.8983 32.1515 10.9104 32.1635C12.1608 33.3851 13.2732 36.4091 12.8928 39.1655C12.89 39.1809 12.8818 39.1947 12.8697 39.2046C12.8576 39.2145 12.8424 39.2198 12.8268 39.2195Z" fill="white"/>
<path id="Vector_9" d="M9.97797 41.8271C9.83517 41.9099 9.53877 41.7299 9.42597 41.6531C9.23164 41.5212 9.07459 41.3414 8.96997 41.1311C8.85091 40.8926 8.80897 40.6229 8.84997 40.3595C8.8727 40.221 8.90518 40.0843 8.94717 39.9503L9.06717 39.5519C9.11348 39.4236 9.13308 39.2872 9.12477 39.1511C9.08997 38.8787 8.84877 38.6879 8.62917 38.5235C8.38917 38.3411 8.13357 38.1011 8.13477 37.7735C8.15269 37.5196 8.25393 37.2788 8.42277 37.0883C8.57997 36.8903 8.76597 36.7151 8.90277 36.5051C9.01546 36.361 9.07558 36.1828 9.07317 35.9999C9.05863 35.8874 9.02105 35.7792 8.96277 35.6819C8.82935 35.4791 8.71296 35.2656 8.61477 35.0435C8.53437 34.8143 8.54637 34.5299 8.72517 34.3655C8.80514 34.3058 8.8962 34.2627 8.99304 34.2386C9.08988 34.2144 9.19055 34.2099 9.28917 34.2251C9.47486 34.2483 9.65334 34.3113 9.81237 34.4099C10.3332 34.6991 10.6296 35.3147 11.1816 35.5379C11.4009 35.6058 11.6241 35.6603 11.85 35.7011C11.9629 35.7221 12.0703 35.7665 12.1651 35.8314C12.26 35.8963 12.3402 35.9802 12.4008 36.0779C12.6036 36.4823 12.2268 36.9815 12.3696 37.4111C12.4896 37.7915 12.8652 37.9367 13.0728 38.2787C13.1569 38.4303 13.1909 38.6046 13.17 38.7767C13.1515 39.0671 13.0803 39.3518 12.96 39.6167C12.8248 39.8801 12.6703 40.1332 12.498 40.3739C12.4896 40.3799 9.99957 41.8151 9.97797 41.8271Z" fill="#B92F2E"/>
<path id="Vector_10" d="M11.4528 41.0399C11.4443 41.0396 11.4359 41.0376 11.4282 41.0341C11.4204 41.0306 11.4135 41.0255 11.4077 41.0193C11.4019 41.013 11.3974 41.0057 11.3944 40.9977C11.3914 40.9897 11.3901 40.9813 11.3904 40.9727C11.4972 38.4023 10.2852 35.5631 9.40439 34.7387C9.39266 34.7265 9.38611 34.7101 9.38611 34.6931C9.38611 34.6762 9.39266 34.6598 9.40439 34.6475C9.41653 34.6355 9.43292 34.6288 9.44999 34.6288C9.46707 34.6288 9.48346 34.6355 9.49559 34.6475C10.3944 35.4875 11.6304 38.3747 11.5224 40.9823C11.5206 40.9991 11.5123 41.0145 11.4993 41.0253C11.4863 41.036 11.4696 41.0413 11.4528 41.0399Z" fill="white"/>
<path id="Vector_11" d="M11.0676 38.0039H11.0484C10.4392 37.8358 9.8135 37.7348 9.18238 37.7027C9.17387 37.7024 9.1655 37.7004 9.15776 37.6969C9.15001 37.6933 9.14304 37.6883 9.13725 37.682C9.13145 37.6758 9.12695 37.6685 9.12398 37.6605C9.12102 37.6525 9.11966 37.644 9.11998 37.6355C9.12013 37.6269 9.122 37.6185 9.12549 37.6107C9.12899 37.6029 9.13402 37.5958 9.14029 37.59C9.14657 37.5842 9.15396 37.5797 9.16201 37.5768C9.17007 37.5739 9.17863 37.5726 9.18718 37.5731C9.8296 37.6067 10.4665 37.7097 11.0868 37.8803C11.1011 37.8853 11.1132 37.8951 11.121 37.908C11.1289 37.921 11.1319 37.9363 11.1296 37.9513C11.1274 37.9663 11.1199 37.98 11.1086 37.99C11.0972 38.0001 11.0827 38.0058 11.0676 38.0063V38.0039Z" fill="white"/>
</g>
</g>
<g id="freepik--Device--inject-3">
<path id="Vector_12" d="M10.2948 40.8733L23.3904 48.4333C23.5514 48.515 23.7295 48.5575 23.91 48.5575C24.0906 48.5575 24.2686 48.515 24.4296 48.4333L49.2252 34.1161C49.512 33.9505 49.512 33.6817 49.2252 33.5161L36.1284 25.9561C35.9674 25.8744 35.7894 25.8318 35.6088 25.8318C35.4282 25.8318 35.2502 25.8744 35.0892 25.9561L10.2948 40.2733C10.008 40.4401 10.008 40.7077 10.2948 40.8733Z" fill="#37474F"/>
<path id="Vector_13" d="M17.3724 44.3857C17.5956 44.4987 17.8422 44.5576 18.0924 44.5576C18.3426 44.5576 18.5892 44.4987 18.8124 44.3857C19.2108 44.1553 19.2108 43.7857 18.8124 43.5529C18.5892 43.4399 18.3426 43.381 18.0924 43.381C17.8422 43.381 17.5956 43.4399 17.3724 43.5529C16.974 43.7833 16.974 44.1601 17.3724 44.3857Z" fill="#263238"/>
<path id="Vector_14" d="M23.3904 48.4344L10.2948 40.8744C10.038 40.7268 10.0116 40.4964 10.2132 40.3308C10.0852 40.4321 9.98006 40.5593 9.90458 40.7041C9.82911 40.8488 9.78502 41.0079 9.77521 41.1708V41.6592C9.78487 41.8395 9.83696 42.015 9.92725 42.1714C10.0175 42.3278 10.1435 42.4607 10.2948 42.5592L23.3904 50.1192C23.5507 50.2026 23.7294 50.2438 23.91 50.2392V48.558C23.7291 48.5616 23.5503 48.5191 23.3904 48.4344Z" fill="#455A64"/>
<path id="Vector_15" d="M49.2252 35.8045C49.3764 35.7058 49.5023 35.5729 49.5925 35.4165C49.6828 35.2602 49.735 35.0847 49.7448 34.9045V34.416C49.7347 34.253 49.6904 34.094 49.6147 33.9493C49.539 33.8045 49.4337 33.6774 49.3056 33.576C49.5084 33.7416 49.482 33.9721 49.2252 34.1209L24.4296 48.4345C24.2695 48.5181 24.0906 48.5594 23.91 48.5545V50.2441C24.0906 50.249 24.2695 50.2077 24.4296 50.1241L49.2252 35.8045Z" fill="#263238"/>
<path id="Vector_16" d="M25.5492 46.8673L13.1892 39.7296C13.0164 39.63 13.0164 39.4692 13.1892 39.3696L33.5196 27.6253C33.6163 27.5761 33.7232 27.5505 33.8316 27.5505C33.9401 27.5505 34.047 27.5761 34.1436 27.6253L46.5096 34.7616C46.6824 34.86 46.6824 35.022 46.5096 35.1216L26.172 46.8673C26.0756 46.9164 25.9689 46.942 25.8606 46.942C25.7524 46.942 25.6457 46.9164 25.5492 46.8673Z" fill="#FAFAFA"/>
<path id="Vector_17" d="M22.3344 37.2637L29.646 41.4841L25.0308 44.1493C24.9501 44.1895 24.8612 44.2105 24.771 44.2105C24.6808 44.2105 24.5919 44.1895 24.5112 44.1493L17.7192 40.2277C17.6879 40.217 17.6606 40.1968 17.6413 40.1699C17.6221 40.143 17.6117 40.1108 17.6117 40.0777C17.6117 40.0446 17.6221 40.0123 17.6413 39.9854C17.6606 39.9585 17.6879 39.9383 17.7192 39.9277L22.3344 37.2637Z" fill="#E6E6E6"/>
<path id="Vector_18" d="M29.64 41.4841L28.7784 38.0593C28.7588 37.9775 28.7134 37.9043 28.6488 37.8505C28.5834 37.795 28.5026 37.7611 28.4172 37.7533L22.3296 37.2637L29.64 41.4841Z" fill="#E0E0E0"/>
<path id="Vector_19" d="M29.64 41.4841L23.0964 41.2141C23.0181 41.2109 22.9434 41.1799 22.8858 41.1267C22.8282 41.0735 22.7914 41.0015 22.782 40.9237L22.3284 37.2625L29.64 41.4841Z" fill="#E0E0E0"/>
<path id="Vector_20" d="M29.64 41.4841L23.0964 41.2141C23.0181 41.2109 22.9434 41.1799 22.8858 41.1267C22.8282 41.0735 22.7914 41.0015 22.782 40.9237L22.3284 37.2625L23.136 40.8625C23.1433 40.8945 23.1606 40.9234 23.1854 40.945C23.2102 40.9666 23.2413 40.9797 23.274 40.9825L29.64 41.4841Z" fill="#FAFAFA"/>
<path id="Vector_21" d="M23.796 41.2032L24.7716 44.2992L25.0308 44.1492L23.796 41.2032Z" fill="#FAFAFA"/>
<path id="Vector_22" d="M17.46 40.0776L17.7192 39.9276L22.8216 40.6404L17.46 40.0776Z" fill="#FAFAFA"/>
<path id="Vector_23" d="M26.4936 35.7241L32.31 39.0841C32.3905 39.1249 32.4795 39.1461 32.5698 39.1461C32.6601 39.1461 32.7491 39.1249 32.8296 39.0841L41.0844 34.3201C41.1158 34.3095 41.143 34.2893 41.1623 34.2624C41.1815 34.2355 41.1919 34.2032 41.1919 34.1701C41.1919 34.137 41.1815 34.1047 41.1623 34.0778C41.143 34.0509 41.1158 34.0307 41.0844 34.0201L35.268 30.6601C35.1875 30.6193 35.0985 30.598 35.0082 30.598C34.9179 30.598 34.8289 30.6193 34.7484 30.6601L26.4936 35.4241C26.4623 35.4347 26.435 35.4549 26.4158 35.4818C26.3965 35.5087 26.3861 35.541 26.3861 35.5741C26.3861 35.6072 26.3965 35.6395 26.4158 35.6664C26.435 35.6933 26.4623 35.7135 26.4936 35.7241Z" fill="#E6E6E6"/>
<path id="Vector_24" d="M31.1184 35.28C31.0491 35.1723 31.008 35.0489 30.999 34.9212C30.99 34.7935 31.0133 34.6655 31.0668 34.5492C31.1748 34.3092 31.41 34.0788 31.7712 33.8712C32.1672 33.6384 32.6044 33.484 33.0588 33.4164C33.5021 33.3525 33.9533 33.3688 34.3908 33.4644C34.8421 33.5626 35.275 33.7315 35.6736 33.9648C36.0592 34.1864 36.3216 34.4152 36.4608 34.6512C36.5288 34.7517 36.5694 34.8682 36.5787 34.9892C36.5879 35.1102 36.5655 35.2315 36.5136 35.3412C36.408 35.5656 36.186 35.7756 35.85 35.97C35.5279 36.1647 35.1654 36.2829 34.7904 36.3156C34.4783 36.346 34.1642 36.2816 33.8892 36.1308C33.8399 36.1094 33.7957 36.0778 33.7595 36.0381C33.7233 35.9984 33.696 35.9515 33.6792 35.9004C33.6712 35.8562 33.6751 35.8107 33.6905 35.7685C33.7059 35.7264 33.7322 35.6891 33.7668 35.6604C33.5735 35.6761 33.379 35.6628 33.1896 35.6208C33.004 35.5808 32.8259 35.512 32.6616 35.4168C32.3848 35.2568 32.24 35.0832 32.2272 34.896C32.2144 34.7088 32.3468 34.5368 32.6244 34.38C32.9594 34.1836 33.3427 34.0851 33.7308 34.0956C34.1272 34.1044 34.5148 34.2147 34.8564 34.416C34.9978 34.4948 35.1238 34.5985 35.2284 34.722C35.3115 34.8135 35.3658 34.9274 35.3844 35.0496L34.3044 35.676C34.2168 35.7264 34.1688 35.7708 34.1616 35.8092C34.1544 35.8476 34.1856 35.8884 34.254 35.9292C34.4034 36.0018 34.5745 36.0163 34.734 35.97C34.969 35.915 35.1938 35.8231 35.4 35.6976C35.6712 35.5416 35.8428 35.3736 35.9148 35.1972C35.9509 35.1116 35.9646 35.0183 35.9548 34.9259C35.9449 34.8336 35.9118 34.7452 35.8584 34.6692C35.7136 34.4624 35.5209 34.2936 35.2968 34.1772C34.8363 33.9048 34.3157 33.7502 33.7812 33.7272C33.239 33.7119 32.7038 33.8527 32.2392 34.1328C31.944 34.3032 31.7544 34.4832 31.6704 34.6728C31.6283 34.7611 31.6097 34.8587 31.6165 34.9563C31.6232 35.0538 31.655 35.148 31.7088 35.2296C31.8542 35.4435 32.0505 35.618 32.28 35.7372C32.4325 35.8245 32.5933 35.8964 32.76 35.952C32.9155 36.0058 33.0765 36.042 33.24 36.06C33.2575 36.0614 33.2745 36.0659 33.2904 36.0732C33.2988 36.0732 33.2988 36.0888 33.2904 36.1044L33.132 36.3264C33.1255 36.335 33.1178 36.3427 33.1092 36.3492C33.0859 36.3572 33.0606 36.3572 33.0372 36.3492C32.8393 36.3242 32.6446 36.2784 32.4564 36.2124C32.2597 36.1471 32.0699 36.0623 31.89 35.9592C31.518 35.76 31.2612 35.526 31.1184 35.28ZM33.6204 35.3844C33.7859 35.4054 33.9538 35.3739 34.1004 35.2944L34.728 34.9344C34.6537 34.8084 34.5439 34.707 34.4124 34.6428C34.2121 34.5253 33.9846 34.462 33.7524 34.4592C33.5211 34.4552 33.2932 34.515 33.0936 34.632C32.9184 34.7328 32.8332 34.8324 32.838 34.9308C32.838 35.0292 32.9364 35.1312 33.12 35.2368C33.274 35.3222 33.4448 35.373 33.6204 35.3856V35.3844Z" fill="#FAFAFA"/>
<path id="Vector_25" d="M41.6712 30.3481C41.7206 30.3736 41.7753 30.3869 41.8308 30.3869C41.8863 30.3869 41.9411 30.3736 41.9904 30.3481C42.0095 30.3415 42.026 30.3291 42.0377 30.3126C42.0494 30.2962 42.0557 30.2765 42.0557 30.2563C42.0557 30.2361 42.0494 30.2164 42.0377 30.2C42.026 30.1835 42.0095 30.1711 41.9904 30.1645C41.9408 30.14 41.8862 30.1272 41.8308 30.1272C41.7754 30.1272 41.7208 30.14 41.6712 30.1645C41.6522 30.1711 41.6356 30.1835 41.6239 30.2C41.6122 30.2164 41.606 30.2361 41.606 30.2563C41.606 30.2765 41.6122 30.2962 41.6239 30.3126C41.6356 30.3291 41.6522 30.3415 41.6712 30.3481Z" fill="#263238"/>
<path id="Vector_26" d="M42.18 31.7929C42.2787 31.8432 42.3878 31.8694 42.4986 31.8694C42.6093 31.8694 42.7185 31.8432 42.8172 31.7929C42.9936 31.6921 42.9936 31.5265 42.8172 31.4257C42.7185 31.3754 42.6093 31.3492 42.4986 31.3492C42.3878 31.3492 42.2787 31.3754 42.18 31.4257C42 31.5265 42 31.6921 42.18 31.7929Z" fill="#263238"/>
<path id="Vector_27" d="M41.7312 31.1533C41.8512 31.0849 41.8428 30.9721 41.7168 30.9001L39.6216 29.6893C39.5543 29.6532 39.4793 29.6338 39.4029 29.6325C39.3265 29.6313 39.2509 29.6483 39.1824 29.6821C39.0624 29.7493 39.072 29.8633 39.1968 29.9353L41.292 31.1449C41.3595 31.1805 41.4343 31.1998 41.5106 31.2013C41.5869 31.2027 41.6624 31.1863 41.7312 31.1533Z" fill="#263238"/>
</g>
<g id="freepik--Letter--inject-3">
<g id="freepik--letter--inject-3">
<path id="Vector_28" d="M14.5656 15.8928C14.5722 15.7639 14.6093 15.6385 14.6738 15.5267C14.7382 15.4149 14.8282 15.3199 14.9364 15.2496L33.924 4.28761C34.0391 4.22903 34.1663 4.19849 34.2954 4.19849C34.4245 4.19849 34.5518 4.22903 34.6668 4.28761L35.0844 4.52761C35.1925 4.59781 35.2824 4.69257 35.3468 4.80414C35.4112 4.91572 35.4484 5.04095 35.4552 5.16961V19.7256C35.4478 19.8543 35.4104 19.9795 35.3461 20.0912C35.2817 20.2029 35.1921 20.2979 35.0844 20.3688L16.0968 31.3308C15.9818 31.3888 15.8548 31.4191 15.726 31.4191C15.5972 31.4191 15.4702 31.3888 15.3552 31.3308L14.9364 31.0908C14.8287 31.0199 14.7391 30.9249 14.6748 30.8132C14.6104 30.7015 14.573 30.5763 14.5656 30.4476V15.8928Z" fill="#B92F2E"/>
<path id="Vector_29" opacity="0.4" d="M14.6736 15.5268L15.7272 16.134L35.3472 4.80602C35.2847 4.69311 35.1947 4.59777 35.0856 4.52882L34.6656 4.28882C34.5508 4.23025 34.4237 4.19971 34.2948 4.19971C34.1659 4.19971 34.0388 4.23025 33.924 4.28882L14.9376 15.2496C14.8269 15.3174 14.7359 15.413 14.6736 15.5268Z" fill="white"/>
<path id="Vector_30" opacity="0.1" d="M14.5656 15.8916V30.4452C14.5725 30.5742 14.6098 30.6997 14.6744 30.8115C14.7391 30.9233 14.8293 31.0182 14.9376 31.0884L15.3552 31.3284C15.3875 31.3472 15.4217 31.3625 15.4572 31.374C15.5068 31.3904 15.5578 31.402 15.6096 31.4088C15.7071 31.4215 15.8061 31.4178 15.9024 31.398C15.9268 31.393 15.9508 31.3866 15.9744 31.3788C15.9897 31.3747 16.0046 31.3691 16.0188 31.362C15.9908 31.374 15.9605 31.3802 15.93 31.3802C15.8995 31.3802 15.8693 31.374 15.8412 31.362C15.8023 31.336 15.7712 31.3 15.7511 31.2577C15.7311 31.2155 15.7228 31.1686 15.7272 31.122V16.56C15.7235 16.494 15.74 16.4284 15.7745 16.3721C15.8091 16.3157 15.8599 16.2711 15.9204 16.2444L15.7272 16.1316L14.6736 15.5244C14.6071 15.6357 14.5699 15.762 14.5656 15.8916Z" fill="black"/>
<path id="Vector_31" opacity="0.2" d="M15.7272 16.134L24.5208 19.4196C24.8249 19.5327 25.1585 19.539 25.4667 19.4373C25.7748 19.3357 26.0392 19.1322 26.2164 18.8604L27.6288 16.7004L35.4168 4.76758L27.9096 16.7784L35.4552 19.7316C35.4475 19.8634 35.4062 19.9911 35.3352 20.1024L27.8892 16.812L26.2476 19.44C26.0655 19.7316 25.7843 19.9478 25.4556 20.0488C25.1269 20.1497 24.7728 20.1287 24.4584 19.9896L23.2908 19.4736L15.84 31.3608C15.8011 31.3348 15.77 31.2987 15.7499 31.2565C15.7299 31.2142 15.7216 31.1673 15.726 31.1208V30.8808L23.2536 19.464L15.7272 16.134Z" fill="black"/>
</g>
<path id="Vector_32" d="M17.9028 12.7356L16.6044 11.988L16.5924 11.9808C16.0164 11.6556 15.2268 11.7048 14.352 12.2088C12.5916 13.2252 11.1648 15.6972 11.1648 17.7288C11.1648 18.7428 11.5248 19.4568 12.0948 19.7904L13.2756 20.4636L13.5576 19.992C13.8788 19.919 14.1872 19.7976 14.472 19.632C16.2324 18.6156 17.6592 16.1436 17.6592 14.112C17.6591 13.8378 17.6256 13.5646 17.5596 13.2984L17.9028 12.7356Z" fill="#37474F"/>
<path id="Vector_33" d="M15.5832 12.918C13.8216 13.9344 12.3948 16.4064 12.3948 18.438C12.3948 20.4696 13.8216 21.2952 15.582 20.2788C17.3424 19.2624 18.7704 16.7892 18.7704 14.7588C18.7704 12.7284 17.3436 11.9004 15.5832 12.918Z" fill="#455A64"/>
<path id="Vector_34" d="M14.592 16.8409C14.5807 16.8291 14.5724 16.8147 14.568 16.799C14.5636 16.7833 14.5632 16.7668 14.5668 16.7509C14.5729 16.7076 14.5893 16.6664 14.6148 16.6309L15.6 15.1681C15.6252 15.1333 15.6492 15.0985 15.6756 15.0649C15.6976 15.0335 15.7258 15.0069 15.7584 14.9869L16.1184 14.7829C16.1303 14.774 16.1446 14.7688 16.1595 14.7681C16.1743 14.7673 16.1891 14.7709 16.2019 14.7784C16.2147 14.786 16.225 14.7972 16.2315 14.8105C16.238 14.8239 16.2404 14.8389 16.2384 14.8537V18.2305C16.2365 18.273 16.2237 18.3143 16.2012 18.3505C16.1813 18.3878 16.1519 18.4193 16.116 18.4417L15.7488 18.6529C15.7366 18.6621 15.722 18.6678 15.7068 18.6693C15.6915 18.6708 15.6762 18.668 15.6624 18.6613C15.6498 18.6525 15.6399 18.6405 15.6335 18.6266C15.6272 18.6127 15.6247 18.5973 15.6264 18.5821V16.0009L14.9844 16.9525C14.9632 16.9873 14.9323 17.0152 14.8956 17.0329C14.8823 17.0395 14.8674 17.0424 14.8526 17.0411C14.8378 17.0399 14.8236 17.0345 14.8116 17.0257L14.592 16.8409Z" fill="#FAFAFA"/>
</g>
<g id="freepik--Mailbox--inject-3">
<g id="freepik--mailbox--inject-3">
<path id="Vector_35" d="M43.9932 28.4796V28.2648H44.046C44.1256 28.1189 44.2467 27.9998 44.394 27.9228C44.6941 27.7708 45.0259 27.6915 45.3624 27.6915C45.6989 27.6915 46.0306 27.7708 46.3308 27.9228C46.4781 27.9998 46.5992 28.1189 46.6788 28.2648H46.7316V28.4724C46.7316 28.6776 46.602 28.884 46.3308 29.0412C46.0313 29.1921 45.7006 29.2705 45.3652 29.2703C45.0299 29.2701 44.6993 29.1912 44.4 29.04C44.1252 28.8864 43.992 28.68 43.9932 28.4796Z" fill="#263238"/>
<path id="Vector_36" d="M46.3308 27.7055C46.0308 27.5529 45.699 27.4734 45.3624 27.4734C45.0258 27.4734 44.694 27.5529 44.394 27.7055C43.8588 28.0139 43.8588 28.5143 44.394 28.8239C44.6942 28.976 45.0259 29.0552 45.3624 29.0552C45.6989 29.0552 46.0306 28.976 46.3308 28.8239C46.866 28.5143 46.866 28.0139 46.3308 27.7055Z" fill="#455A64"/>
<path id="Vector_37" d="M45.72 20.0399V28.1735C45.7172 28.2045 45.7061 28.2342 45.6879 28.2595C45.6698 28.2848 45.6453 28.3049 45.6168 28.3175C45.5396 28.3571 45.454 28.3778 45.3672 28.3778C45.2804 28.3778 45.1949 28.3571 45.1176 28.3175C45.0892 28.3049 45.0646 28.2848 45.0465 28.2595C45.0283 28.2342 45.0173 28.2045 45.0144 28.1735V20.0399H45.72Z" fill="#37474F"/>
<path id="Vector_38" d="M45.0096 20.9255V21.1799L45.7152 21.5867V21.3335L45.0096 20.9255Z" fill="#263238"/>
<path id="Vector_39" d="M49.5108 17.8859L49.4508 18.0059L48.8052 19.2995L48.4992 19.9199L47.4624 21.9995L47.3484 22.2287H47.328C47.2863 22.2301 47.2449 22.2206 47.208 22.2011L42.5868 19.5299C42.5524 19.5081 42.5235 19.4785 42.5027 19.4435C42.4818 19.4085 42.4695 19.369 42.4668 19.3283V17.5427C42.4668 16.6523 43.0536 15.5915 43.7772 15.1739C44.1204 14.9759 44.4312 14.9603 44.6652 15.0911L49.5108 17.8859Z" fill="#455A64"/>
<path id="Vector_40" d="M48.6384 17.9807C48.3456 18.0887 47.2836 18.9659 47.2836 20.3483C47.2836 21.5099 47.2836 22.1123 47.2836 22.2215H47.3268H47.3472L47.4612 21.9923L48.4992 19.9199L48.8052 19.3055L48.876 19.1651L48.6384 17.9807Z" fill="#37474F"/>
<path id="Vector_41" d="M49.8912 20.7599C49.8796 20.7795 49.8631 20.7956 49.8432 20.8067L49.8312 20.8139L47.4444 22.1999C47.4147 22.2157 47.382 22.2247 47.3484 22.2263H47.328V20.3483C47.3339 20.0085 47.4044 19.673 47.5356 19.3595L47.6556 19.4267L48.5016 19.9151L49.8144 20.6747L49.8816 20.7131C49.8889 20.7182 49.8939 20.7259 49.8957 20.7346C49.8975 20.7433 49.8959 20.7523 49.8912 20.7599Z" fill="#37474F"/>
<path id="Vector_42" d="M49.5108 17.886C49.2792 17.766 48.9732 17.7864 48.6384 17.9808C48.2275 18.239 47.8954 18.6051 47.6784 19.0392C47.6234 19.1432 47.5741 19.2502 47.5308 19.3596C47.3996 19.6731 47.3291 20.0086 47.3232 20.3484V22.2252H47.3436C47.3771 22.2236 47.4099 22.2146 47.4396 22.1988L49.8252 20.82L49.8372 20.8128C49.856 20.8004 49.8723 20.7845 49.8852 20.766C49.9188 20.7239 49.9382 20.6722 49.9404 20.6184V18.84C49.9464 18.36 49.7784 18.0276 49.5108 17.886ZM49.7772 20.694L47.4972 22.014C47.478 22.0248 47.4624 22.014 47.4624 21.9936V20.3484C47.4685 20.0321 47.5332 19.7196 47.6532 19.4268C47.6545 19.4204 47.657 19.4143 47.6604 19.4088C47.7063 19.2929 47.7592 19.1799 47.8188 19.0704C48.0209 18.6718 48.3274 18.3354 48.7056 18.0972C48.8521 18.0042 49.0206 17.9517 49.194 17.9448C49.2835 17.9438 49.3717 17.9653 49.4508 18.0072C49.6788 18.1272 49.8108 18.4236 49.8108 18.8352V20.6352C49.8101 20.6469 49.8068 20.6584 49.8009 20.6686C49.7951 20.6788 49.787 20.6875 49.7772 20.694Z" fill="#455A64"/>
<path id="Vector_43" d="M49.812 18.8399V20.6795L47.652 19.4315C47.6533 19.4251 47.6558 19.4191 47.6592 19.4135C47.8908 18.8351 48.2808 18.3443 48.7044 18.1019C48.8509 18.0089 49.0194 17.9564 49.1928 17.9495C49.5756 17.9447 49.812 18.2867 49.812 18.8399Z" fill="#263238"/>
<path id="Vector_44" d="M45.8592 19.752L46.05 19.6416C46.0907 19.6232 46.1355 19.6158 46.18 19.6203C46.2244 19.6247 46.2669 19.6407 46.3032 19.6668C46.408 19.7352 46.4952 19.8274 46.5577 19.9358C46.6203 20.0442 46.6564 20.1658 46.6632 20.2908C46.6676 20.3347 46.6603 20.379 46.6422 20.4192C46.6241 20.4594 46.5957 20.4942 46.56 20.52L46.3836 20.622L46.3512 20.568C46.315 20.56 46.2802 20.5467 46.248 20.5284C46.1432 20.46 46.056 20.3678 45.9934 20.2594C45.9309 20.151 45.8948 20.0294 45.888 19.9044C45.8883 19.8733 45.8919 19.8423 45.8988 19.812L45.8592 19.752Z" fill="#E0E0E0"/>
<path id="Vector_45" d="M46.122 19.7724C46.2267 19.8406 46.3138 19.9325 46.3764 20.0407C46.4389 20.1489 46.4751 20.2704 46.482 20.3952C46.482 20.6256 46.32 20.718 46.122 20.604C46.0172 20.5355 45.9301 20.4433 45.8675 20.3349C45.805 20.2265 45.7688 20.1049 45.762 19.98C45.7608 19.7508 45.9228 19.6572 46.122 19.7724Z" fill="#FAFAFA"/>
<path id="Vector_46" d="M46.122 20.2871C46.0943 20.2871 46.0677 20.2761 46.0482 20.2565C46.0286 20.237 46.0176 20.2104 46.0176 20.1827V17.2295C46.0176 17.2018 46.0286 17.1753 46.0482 17.1557C46.0677 17.1361 46.0943 17.1251 46.122 17.1251C46.1497 17.1251 46.1762 17.1361 46.1958 17.1557C46.2154 17.1753 46.2264 17.2018 46.2264 17.2295V20.1827C46.2264 20.2104 46.2154 20.237 46.1958 20.2565C46.1762 20.2761 46.1497 20.2871 46.122 20.2871Z" fill="#EBEBEB"/>
<path id="Vector_47" d="M46.0176 17.5212L44.9712 16.9176L45.2988 17.5476L44.9712 17.7996L46.0176 18.4044V17.5212Z" fill="#B92F2E"/>
</g>
<g id="Clip path group">
<mask id="mask0_806_2348" style="mask-type:luminance" maskUnits="userSpaceOnUse" x="47" y="17" width="3" height="6">
<g id="freepik--clip-path--inject-3">
<path id="Vector_48" d="M49.812 18.84C49.812 18.2916 49.572 17.9496 49.194 17.9496C49.0206 17.9564 48.8521 18.009 48.7056 18.102C48.282 18.342 47.892 18.8352 47.6604 19.4136C47.657 19.4191 47.6545 19.4252 47.6532 19.4316C47.5332 19.7239 47.4685 20.036 47.4624 20.352V22.3164L49.812 20.9604V18.84Z" fill="white"/>
</g>
</mask>
<g mask="url(#mask0_806_2348)">
<g id="Group_2">
<g id="freepik--letter--inject-3_2">
<path id="Vector_49" d="M49.2672 19.4399C49.2665 19.4239 49.262 19.4082 49.2541 19.3943C49.2461 19.3803 49.235 19.3684 49.2216 19.3595L46.8552 17.9939C46.8409 17.9868 46.8251 17.9832 46.809 17.9832C46.793 17.9832 46.7772 17.9868 46.7628 17.9939L46.71 18.0239C46.6966 18.0328 46.6855 18.0447 46.6776 18.0587C46.6697 18.0726 46.6652 18.0883 46.6644 18.1043V19.9199C46.6654 19.9359 46.6701 19.9515 46.678 19.9654C46.6859 19.9793 46.6968 19.9913 46.71 20.0003L49.08 21.3599C49.0944 21.367 49.1102 21.3707 49.1262 21.3707C49.1423 21.3707 49.1581 21.367 49.1724 21.3599L49.2252 21.3299C49.2386 21.3211 49.2497 21.3092 49.2577 21.2952C49.2656 21.2812 49.2701 21.2656 49.2708 21.2495L49.2672 19.4399Z" fill="#F0F0F0"/>
<path id="Vector_50" d="M49.2541 19.3919L49.1233 19.4675L46.6801 18.0563C46.6879 18.0423 46.699 18.0304 46.7125 18.0215L46.7653 17.9915C46.7794 17.9839 46.7953 17.9799 46.8115 17.9799C46.8276 17.9799 46.8435 17.9839 46.8577 17.9915L49.2241 19.3571C49.2366 19.3663 49.2469 19.3782 49.2541 19.3919Z" fill="#FAFAFA"/>
<path id="Vector_51" d="M49.2672 19.44V21.2532C49.2665 21.2692 49.262 21.2849 49.254 21.2988C49.2461 21.3128 49.235 21.3247 49.2216 21.3336L49.1688 21.3636L49.1568 21.3696H49.1376C49.1253 21.372 49.1127 21.372 49.1004 21.3696H49.092H49.086C49.0895 21.3714 49.0934 21.3723 49.0974 21.3723C49.1014 21.3723 49.1053 21.3714 49.1088 21.3696C49.1137 21.3663 49.1176 21.3618 49.1201 21.3566C49.1227 21.3513 49.1237 21.3454 49.1232 21.3396V19.5204C49.1235 19.5121 49.1213 19.504 49.1167 19.4971C49.1122 19.4903 49.1057 19.485 49.098 19.482L49.1232 19.4676L49.254 19.392C49.2626 19.4065 49.2672 19.4231 49.2672 19.44Z" fill="#E0E0E0"/>
<path id="Vector_52" d="M49.1232 19.4675L48.0264 19.8767C47.9885 19.8906 47.947 19.8914 47.9087 19.8787C47.8703 19.8661 47.8374 19.8408 47.8152 19.8071L47.64 19.5383L46.6692 18.0503L47.604 19.5479L46.6644 19.9199C46.6653 19.9361 46.6703 19.9518 46.6788 19.9655L47.6076 19.5551L47.8116 19.8827C47.8343 19.9191 47.8694 19.9461 47.9104 19.9587C47.9514 19.9713 47.9956 19.9686 48.0348 19.9511L48.18 19.8875L49.1088 21.3599C49.1137 21.3567 49.1176 21.3522 49.1202 21.3469C49.1227 21.3416 49.1238 21.3357 49.1232 21.3299V21.2999L48.1848 19.8767L49.1232 19.4675Z" fill="#E0E0E0"/>
</g>
</g>
</g>
</g>
<path id="Vector_53" d="M51.3876 19.1424L51.1368 19.3512C51.0713 19.4477 50.9995 19.5399 50.922 19.6272L50.202 20.4588L49.9476 20.7528L48.3108 21.6984L47.5284 22.3476H47.52C47.4967 22.3514 47.4727 22.3476 47.4516 22.3368L47.3784 22.2948C47.3723 22.2912 47.367 22.2864 47.363 22.2805C47.359 22.2747 47.3563 22.268 47.3551 22.261C47.354 22.254 47.3544 22.2468 47.3563 22.24C47.3583 22.2332 47.3617 22.2269 47.3664 22.2216L47.9376 21.5616L48.2976 21.1428C48.9662 20.4121 49.7337 19.7784 50.5776 19.26C50.916 19.0656 51.1272 18.9984 51.2028 19.0452L51.3744 19.1448C51.3744 19.1448 51.3864 19.1424 51.3876 19.1424Z" fill="#455A64"/>
<path id="Vector_54" d="M51.0984 19.7303L50.6184 20.2787L50.6088 20.2907L50.16 20.8103C50.1333 20.8397 50.1026 20.8651 50.0688 20.8859L47.5488 22.3379C47.5403 22.3429 47.531 22.3462 47.5212 22.3475H47.52L48.4272 21.2999L48.48 21.2399C49.149 20.5099 49.9164 19.8767 50.76 19.3583C51.09 19.1675 51.3012 19.0991 51.3816 19.1387C51.48 19.1927 51.3888 19.3955 51.0984 19.7303Z" fill="#37474F"/>
</g>
</g>
</svg>
