<svg width="20" height="20" viewBox="0 0 20 20" fill="none" xmlns="http://www.w3.org/2000/svg">
<g id="Graph-Bar-Increase--Streamline-Core 1" clip-path="url(#clip0_445_12077)">
<g id="graph-bar-increase--up-product-performance-increase-arrow-graph-business-chart">
<path id="Union" fill-rule="evenodd" clip-rule="evenodd" d="M14.2817 0.315101C14.5882 0.00760655 15.0499 -0.0845474 15.4509 0.0817439L18.4906 1.34213C19.035 1.56789 19.2949 2.191 19.0722 2.7367L17.832 5.77554C17.6682 6.17704 17.2783 6.44017 16.8447 6.4421C16.411 6.44404 16.019 6.18439 15.8516 5.78436L15.3609 4.61194L3.02122 9.88601C2.47711 10.1186 1.84748 9.86601 1.61492 9.32189C1.38236 8.77777 1.63492 8.14816 2.17905 7.91559L14.5336 2.63517L14.0522 1.48513C13.8846 1.08464 13.9752 0.622597 14.2817 0.315101ZM18.2143 7.8279C18.5932 7.8279 18.9566 7.9784 19.2245 8.24631C19.4923 8.51423 19.6429 8.87759 19.6429 9.25647V19.2564C19.6429 19.651 19.323 19.9707 18.9286 19.9707H15.3572C14.9627 19.9707 14.6429 19.651 14.6429 19.2564V9.25647C14.6429 8.87759 14.7935 8.51423 15.0613 8.24631C15.3292 7.9784 15.6926 7.8279 16.0715 7.8279H18.2143ZM12.0816 10.3892C11.8137 10.1213 11.4503 9.97076 11.0715 9.97076H8.92861C8.54972 9.97076 8.18636 10.1213 7.91845 10.3892C7.65055 10.6571 7.50004 11.0204 7.50004 11.3993V19.2564C7.50004 19.651 7.81984 19.9707 8.21432 19.9707H11.7857C12.1802 19.9707 12.5 19.651 12.5 19.2564V11.3993C12.5 11.0204 12.3495 10.6571 12.0816 10.3892ZM3.92861 12.1136C4.30749 12.1136 4.67085 12.2641 4.93876 12.532C5.20666 12.7999 5.35718 13.1633 5.35718 13.5422V19.2564C5.35718 19.651 5.03738 19.9707 4.64289 19.9707H1.07146C0.676975 19.9707 0.357178 19.651 0.357178 19.2564V13.5422C0.357178 13.1633 0.507686 12.7999 0.775596 12.532C1.04351 12.2641 1.40687 12.1136 1.78575 12.1136H3.92861Z" fill="#D7D7D7"/>
</g>
</g>
<defs>
<clipPath id="clip0_445_12077">
<rect width="20" height="20" fill="white"/>
</clipPath>
</defs>
</svg>
