<svg width="343" height="343" viewBox="0 0 343 343" fill="none" xmlns="http://www.w3.org/2000/svg">
    <path d="M171.5 335.653C246.156 335.653 306.676 301.273 306.676 258.862C306.676 216.452 246.156 182.071 171.5 182.071C96.8442 182.071 36.3237 216.452 36.3237 258.862C36.3237 301.273 96.8442 335.653 171.5 335.653Z" fill="#F5F5F5"/>
    <path d="M227.752 307.28L126.848 249.018C125.961 248.506 125.223 247.77 124.711 246.883C124.198 245.996 123.928 244.99 123.928 243.965C123.928 242.941 124.198 241.935 124.711 241.048C125.223 240.161 125.961 239.424 126.848 238.913L136.802 232.636C138.52 231.646 140.468 231.125 142.451 231.125C144.434 231.125 146.382 231.646 148.1 232.636L249.018 290.905C249.906 291.416 250.643 292.153 251.155 293.04C251.668 293.926 251.938 294.933 251.938 295.957C251.938 296.982 251.668 297.988 251.155 298.875C250.643 299.762 249.906 300.498 249.018 301.01L239.064 307.28C237.345 308.275 235.394 308.798 233.408 308.798C231.422 308.798 229.471 308.275 227.752 307.28Z" fill="#E0E0E0"/>
    <path d="M74.328 254.163C86.4215 254.163 96.2252 248.533 96.2252 241.589C96.2252 234.644 86.4215 229.014 74.328 229.014C62.2346 229.014 52.4309 234.644 52.4309 241.589C52.4309 248.533 62.2346 254.163 74.328 254.163Z" fill="#E6E6E6"/>
    <path d="M263.534 257.044L273.138 262.566C273.138 262.566 268.233 247.152 270.847 231.614C271.834 225.742 273.954 222.826 274.695 221.255C275.436 219.684 281.178 209.978 276.067 205.532C270.956 201.087 259.068 210.026 259.713 233.946C260.006 241.776 261.29 249.537 263.534 257.044Z" fill="#B92F2E"/>
    <path opacity="0.5" d="M263.534 257.044L273.138 262.566C273.138 262.566 268.233 247.152 270.847 231.614C271.834 225.742 273.954 222.826 274.695 221.255C275.436 219.684 281.178 209.978 276.067 205.532C270.956 201.087 259.068 210.026 259.713 233.946C260.006 241.776 261.29 249.537 263.534 257.044Z" fill="black"/>
    <path d="M268 259.953C267.93 259.954 267.861 259.934 267.803 259.895C267.746 259.855 267.701 259.799 267.677 259.733C267.643 259.63 263.973 249.601 264.089 233.48C264.206 217.359 272.678 208.606 272.76 208.523C272.792 208.491 272.83 208.466 272.872 208.448C272.914 208.431 272.959 208.422 273.004 208.422C273.049 208.422 273.094 208.431 273.136 208.448C273.178 208.466 273.216 208.491 273.248 208.523C273.28 208.555 273.305 208.593 273.323 208.635C273.34 208.677 273.349 208.722 273.349 208.767C273.349 208.812 273.34 208.857 273.323 208.899C273.305 208.941 273.28 208.978 273.248 209.01C273.165 209.093 264.892 217.585 264.775 233.487C264.659 249.388 268.281 259.404 268.322 259.5C268.353 259.585 268.349 259.68 268.31 259.762C268.271 259.844 268.202 259.908 268.116 259.939C268.079 259.951 268.039 259.955 268 259.953Z" fill="white"/>
    <path d="M267.54 259.404L280.67 266.95C282.038 267.758 283.661 268.022 285.214 267.688C286.768 267.353 288.139 266.446 289.053 265.146C289.922 263.793 290.289 262.179 290.089 260.584C289.458 253.765 286.494 252.194 290.123 249.155C293.752 246.116 294.699 245.903 294.493 242.981C294.287 240.059 292.291 238.783 291.344 237.63C290.398 236.478 287.777 234.063 289.561 230.496C291.344 226.929 293.779 223.478 290.089 221.9C287.887 220.953 284.217 222.216 281.802 224.836C279.387 227.457 277.398 229.343 275.086 229.974C272.774 230.605 267.958 230.708 268.164 234.694C268.37 238.68 269.426 240.045 268.48 241.822C266.696 245.142 258.938 247.028 267.54 259.404Z" fill="#B92F2E"/>
    <path d="M274.03 263.465C273.944 263.462 273.862 263.429 273.799 263.371C273.736 263.313 273.696 263.234 273.687 263.149C273.687 262.916 271.67 239.373 287.859 223.704C287.926 223.649 288.011 223.622 288.098 223.627C288.184 223.632 288.265 223.669 288.325 223.732C288.385 223.794 288.419 223.877 288.421 223.964C288.422 224.05 288.391 224.134 288.333 224.198C272.376 239.64 274.352 262.854 274.373 263.088C274.38 263.178 274.352 263.267 274.294 263.336C274.237 263.406 274.154 263.449 274.064 263.458L274.03 263.465Z" fill="white"/>
    <path d="M276.629 243.201C276.543 243.201 276.46 243.168 276.396 243.11C276.333 243.051 276.293 242.971 276.286 242.885C276.143 241.06 275.629 239.284 274.776 237.665C273.923 236.046 272.75 234.617 271.327 233.466C271.29 233.44 271.258 233.407 271.234 233.369C271.21 233.331 271.193 233.288 271.185 233.243C271.178 233.199 271.179 233.153 271.189 233.109C271.199 233.065 271.218 233.023 271.244 232.986C271.27 232.949 271.302 232.918 271.34 232.894C271.378 232.869 271.42 232.853 271.464 232.845C271.508 232.838 271.553 232.839 271.597 232.849C271.64 232.859 271.681 232.878 271.718 232.904C273.234 234.106 274.484 235.611 275.389 237.322C276.293 239.033 276.833 240.913 276.972 242.844C276.98 242.936 276.951 243.027 276.892 243.097C276.833 243.168 276.749 243.212 276.657 243.221L276.629 243.201Z" fill="white"/>
    <path d="M275.511 247.241C275.428 247.242 275.348 247.213 275.285 247.159C275.217 247.098 275.175 247.013 275.169 246.922C275.162 246.831 275.192 246.741 275.251 246.672C275.415 246.48 279.47 242.007 288.971 243.194C289.061 243.206 289.142 243.253 289.198 243.325C289.253 243.397 289.277 243.488 289.266 243.578C289.254 243.668 289.207 243.751 289.135 243.807C289.063 243.863 288.972 243.889 288.881 243.88C279.758 242.734 275.799 247.083 275.758 247.124C275.727 247.159 275.689 247.188 275.647 247.208C275.604 247.228 275.558 247.239 275.511 247.241Z" fill="white"/>
    <path d="M224.679 300.317L135.938 249.079C129.674 245.464 124.598 235.764 124.598 227.416V37.3935C124.598 29.0449 129.674 25.2102 135.938 28.8254L224.679 80.0627C230.942 83.678 236.018 93.378 236.018 101.727V291.749C236.018 300.09 230.942 303.932 224.679 300.317Z" fill="#455A64"/>
    <path d="M234.9 74.0878L146.152 22.8505C143.477 21.307 141.021 21.1286 139.08 22.0753C138.842 22.1943 138.613 22.3296 138.394 22.48L128.447 28.263C130.45 27.0625 133.07 27.1517 135.945 28.8118L224.686 80.0492C230.949 83.6644 236.025 93.3644 236.025 101.713V291.735C236.025 296.153 234.605 299.281 232.341 300.763L242.158 295.048C244.662 293.718 246.274 290.459 246.274 285.787V95.7654C246.274 87.4031 241.163 77.703 234.9 74.0878Z" fill="#37474F"/>
    <path d="M236.018 101.713V291.735C236.018 296.153 234.598 299.281 232.334 300.762L242.158 295.048C244.662 293.717 246.274 290.459 246.274 285.787V95.7651L236.053 101.699L236.018 101.713Z" fill="#263238"/>
    <path d="M246.24 110.507L236.018 116.407V121.017L246.24 115.11V110.507Z" fill="#37474F"/>
    <path d="M241.76 141.165C240.848 141.693 240.107 141.13 240.107 139.916V130.003C240.116 129.384 240.27 128.775 240.557 128.226C240.844 127.676 241.256 127.202 241.76 126.841C242.672 126.313 243.413 126.841 243.413 128.089V138.002C243.404 138.622 243.249 139.231 242.962 139.78C242.675 140.329 242.263 140.803 241.76 141.165Z" fill="#37474F"/>
    <path d="M240.1 139.943V130.003C240.109 129.384 240.263 128.775 240.551 128.226C240.838 127.676 241.25 127.202 241.753 126.841C241.904 126.736 242.079 126.671 242.262 126.655C242.445 126.638 242.629 126.669 242.796 126.745L241.554 126.107C241.384 126.025 241.196 125.99 241.008 126.004C240.82 126.019 240.639 126.082 240.484 126.189C239.98 126.55 239.567 127.025 239.279 127.574C238.991 128.123 238.835 128.732 238.824 129.352V139.257C238.798 139.508 238.836 139.76 238.935 139.992C239.033 140.223 239.188 140.426 239.386 140.581L240.683 141.267C240.477 141.119 240.314 140.918 240.211 140.685C240.109 140.452 240.07 140.196 240.1 139.943Z" fill="#455A64"/>
    <path d="M241.76 165.154C240.848 165.682 240.107 165.154 240.107 163.906V153.993C240.116 153.373 240.271 152.765 240.558 152.216C240.845 151.666 241.257 151.192 241.76 150.831C242.672 150.302 243.413 150.831 243.413 152.086V161.992C243.405 162.612 243.251 163.221 242.964 163.77C242.677 164.32 242.264 164.794 241.76 165.154Z" fill="#37474F"/>
    <path d="M240.1 163.906V153.993C240.11 153.374 240.264 152.765 240.551 152.216C240.838 151.667 241.25 151.192 241.753 150.831C241.904 150.727 242.08 150.664 242.262 150.647C242.444 150.631 242.628 150.661 242.796 150.735L241.554 150.09C241.385 150.004 241.196 149.967 241.008 149.982C240.819 149.996 240.638 150.062 240.484 150.172C239.979 150.532 239.565 151.006 239.277 151.555C238.989 152.105 238.833 152.714 238.824 153.335V163.268C238.797 163.518 238.835 163.771 238.934 164.003C239.032 164.234 239.188 164.437 239.386 164.592L240.683 165.278C240.468 165.126 240.3 164.917 240.197 164.675C240.094 164.432 240.06 164.166 240.1 163.906Z" fill="#455A64"/>
    <path d="M221.578 85.3929L134.374 35.0268C134.01 34.8174 133.597 34.7068 133.177 34.7061C132.757 34.7053 132.345 34.8143 131.98 35.0223C131.615 35.2303 131.311 35.5301 131.098 35.8919C130.885 36.2537 130.77 36.6649 130.765 37.0848V227.415C130.765 233.768 135.272 241.568 140.774 244.744L225.838 293.882C226.241 294.114 226.699 294.236 227.164 294.236C227.63 294.235 228.087 294.113 228.49 293.88C228.893 293.647 229.227 293.312 229.46 292.909C229.693 292.506 229.816 292.049 229.817 291.584V99.6823C229.851 94.4412 226.133 88.0134 221.578 85.3929Z" fill="#B92F2E"/>
    <path opacity="0.9" d="M221.578 85.3929L134.374 35.0268C134.01 34.8174 133.597 34.7068 133.177 34.7061C132.757 34.7053 132.345 34.8143 131.98 35.0223C131.615 35.2303 131.311 35.5301 131.098 35.8919C130.885 36.2537 130.77 36.6649 130.765 37.0848V227.415C130.765 233.768 135.272 241.568 140.774 244.744L225.838 293.882C226.241 294.114 226.699 294.236 227.164 294.236C227.63 294.235 228.087 294.113 228.49 293.88C228.893 293.647 229.227 293.312 229.46 292.909C229.693 292.506 229.816 292.049 229.817 291.584V99.6823C229.851 94.4412 226.133 88.0134 221.578 85.3929Z" fill="white"/>
    <path d="M160.455 48.1777L161.807 53.8647L190.715 70.5345L195.709 67.8728L160.455 48.1777Z" fill="#455A64"/>
    <path d="M168.955 53.6722C168.955 54.6189 168.269 54.9962 167.473 54.5297C167.046 54.2461 166.691 53.8663 166.437 53.4207C166.184 52.9751 166.038 52.4762 166.012 51.9641C166.012 51.0243 166.698 50.6401 167.494 51.1135C167.921 51.3956 168.275 51.7742 168.529 52.2187C168.783 52.6631 168.929 53.1611 168.955 53.6722Z" fill="#263238"/>
    <path d="M188.43 65.712C188.272 65.7107 188.117 65.6706 187.978 65.5953L173.215 57.3633C173.006 57.2409 172.854 57.0419 172.79 56.8087C172.727 56.5755 172.757 56.3267 172.874 56.1153C172.991 55.904 173.187 55.7469 173.418 55.6776C173.65 55.6082 173.899 55.6322 174.113 55.7444L188.883 63.9764C189.063 64.0762 189.204 64.2328 189.285 64.4217C189.365 64.6105 189.381 64.8209 189.329 65.0196C189.277 65.2184 189.161 65.3943 188.998 65.5196C188.836 65.6449 188.636 65.7126 188.43 65.712Z" fill="#263238"/>
    <path d="M149.054 74.6367C148.155 74.1153 147.504 74.5681 147.504 75.7137C147.504 76.2866 147.645 76.8506 147.916 77.3557C148.186 77.8607 148.577 78.2911 149.054 78.6086C149.309 78.7636 149.602 78.8456 149.901 78.8456C150.2 78.8456 150.493 78.7636 150.748 78.6086L152.182 81.2017C151.678 81.48 151.106 81.6126 150.53 81.5848C149.955 81.5569 149.399 81.3697 148.924 81.0439C147.759 80.3313 146.788 79.3425 146.096 78.1651C145.404 76.9878 145.014 75.658 144.958 74.2937C144.958 71.7486 146.667 70.8637 149.02 72.2357C150.348 73.0913 151.437 74.2719 152.182 75.6657L150.748 76.8044C150.395 75.9391 149.808 75.1887 149.054 74.6367Z" fill="#B92F2E"/>
    <path d="M160.435 83.2323C160.435 85.7979 158.699 86.6623 156.319 85.2903C155.121 84.5743 154.118 83.5735 153.4 82.3767C152.682 81.1799 152.271 79.8243 152.203 78.4303C152.203 75.8646 153.938 75.0003 156.319 76.3723C157.52 77.085 158.524 78.085 159.243 79.2825C159.961 80.48 160.371 81.8372 160.435 83.2323ZM154.748 79.96C154.76 80.549 154.912 81.1268 155.191 81.6456C155.47 82.1644 155.868 82.6095 156.353 82.9441C157.204 83.4381 157.89 82.9441 157.89 81.7779C157.887 81.2022 157.746 80.6355 157.479 80.1257C157.212 79.6158 156.825 79.1779 156.353 78.8487C155.489 78.3479 154.748 78.7733 154.748 79.96Z" fill="#B92F2E"/>
    <path d="M163.199 80.5086L166.163 86.6826V82.2373L168.406 83.5338V92.1843L166.348 90.9907L163.398 84.8715V89.2894L161.141 87.986V79.3149L163.199 80.5086Z" fill="#B92F2E"/>
    <path d="M175.739 87.7461V90.0099L173.599 88.7751V95.1686L171.123 93.7348V87.3413L168.996 86.1134V83.8564L175.739 87.7461Z" fill="#B92F2E"/>
    <path d="M180.569 97.9673L177.756 96.3415L177.372 97.3431L174.834 95.875L177.996 89.0493L180.541 90.5174L183.587 100.931L180.946 99.4079L180.569 97.9673ZM179.958 95.5663L179.19 92.6097L178.401 94.6677L179.958 95.5663Z" fill="#B92F2E"/>
    <path d="M187.518 96.8422C186.619 96.3277 185.968 96.7736 185.968 97.9261C185.969 98.4988 186.111 99.0624 186.381 99.5672C186.652 100.072 187.042 100.503 187.518 100.821C187.775 100.975 188.069 101.056 188.369 101.056C188.668 101.056 188.962 100.975 189.219 100.821L190.653 103.414C190.146 103.689 189.574 103.82 188.998 103.792C188.422 103.764 187.865 103.579 187.388 103.256C186.222 102.543 185.25 101.553 184.559 100.375C183.867 99.1959 183.477 97.8648 183.423 96.4992C183.423 93.9542 185.138 93.0692 187.484 94.4412C188.811 95.3011 189.901 96.4805 190.653 97.8712L189.219 99.0031C188.858 98.1423 188.27 97.3956 187.518 96.8422Z" fill="#B92F2E"/>
    <path d="M197.417 100.266V102.522L195.277 101.288V107.702L192.8 106.268V99.8745L190.674 98.6466V96.3896L197.417 100.266Z" fill="#B92F2E"/>
    <path d="M204.737 110.885C205.347 111.235 205.814 110.96 205.814 110.103V105.116L208.297 106.542V111.53C208.297 113.828 206.925 114.514 204.73 113.258C203.672 112.671 202.783 111.822 202.148 110.793C201.512 109.763 201.152 108.588 201.101 107.379V102.392L203.584 103.826V108.813C203.594 109.226 203.704 109.63 203.904 109.991C204.105 110.352 204.391 110.659 204.737 110.885Z" fill="#B92F2E"/>
    <path d="M212.296 110.912C212.015 110.754 211.837 110.747 211.837 111.008C211.837 112.092 215.713 113.656 215.713 116.791C215.713 118.712 214.251 118.719 212.564 117.745C211.08 116.836 209.802 115.628 208.811 114.198L209.731 112.579C210.485 113.747 211.453 114.762 212.584 115.57C212.948 115.783 213.181 115.783 213.181 115.474C213.181 114.349 209.298 112.853 209.298 109.814C209.298 108.086 210.561 107.756 212.509 108.854C213.764 109.613 214.869 110.597 215.767 111.756L214.869 113.416C214.126 112.471 213.261 111.628 212.296 110.912Z" fill="#B92F2E"/>
    <path d="M136.576 117.265C139.359 113.847 140.76 109.509 140.503 105.108C140.245 100.707 138.347 96.5626 135.184 93.4922C132.021 90.4217 127.822 88.6484 123.415 88.5219C119.008 88.3955 114.714 89.9251 111.38 92.8091C108.046 95.6931 105.914 99.722 105.404 104.101C104.895 108.48 106.045 112.891 108.628 116.463C111.21 120.036 115.038 122.511 119.356 123.399C123.674 124.288 128.168 123.527 131.952 121.265L140.541 124.996L136.576 117.265Z" fill="#B92F2E"/>
    <path opacity="0.4" d="M136.576 117.265C139.359 113.847 140.76 109.509 140.503 105.108C140.245 100.707 138.347 96.5626 135.184 93.4922C132.021 90.4217 127.822 88.6484 123.415 88.5219C119.008 88.3955 114.714 89.9251 111.38 92.8091C108.046 95.6931 105.914 99.722 105.404 104.101C104.895 108.48 106.045 112.891 108.628 116.463C111.21 120.036 115.038 122.511 119.356 123.399C123.674 124.288 128.168 123.527 131.952 121.265L140.541 124.996L136.576 117.265Z" fill="black"/>
    <path d="M116.38 105.192C116.38 104.924 116.188 104.773 115.838 104.773C115.026 104.879 114.268 105.237 113.67 105.795L112.696 103.902C113.721 103.13 114.96 102.694 116.243 102.653C117.889 102.653 119.138 103.518 119.138 104.807C119.138 105.727 118.452 106.612 117.574 107.496L116.346 108.711H119.247V110.728H113.012V109.074L115.79 106.2C116.089 105.935 116.296 105.582 116.38 105.192Z" fill="#FAFAFA"/>
    <path d="M124.324 102.77L122.43 107.311H123.206V105.782H125.593V107.311H126.498V109.184H125.593V110.728H123.206V109.184H119.81V107.483L121.868 102.77H124.324Z" fill="#FAFAFA"/>
    <path d="M133.866 106.77V110.728H131.314V107.504C131.329 107.399 131.321 107.292 131.291 107.19C131.261 107.088 131.209 106.994 131.139 106.914C131.07 106.834 130.984 106.77 130.887 106.726C130.791 106.682 130.686 106.66 130.58 106.66C130.079 106.66 129.764 107.051 129.764 107.654V110.728H127.212V102.317H129.764V105.411C129.963 105.096 130.242 104.837 130.571 104.662C130.901 104.486 131.27 104.399 131.643 104.41C131.949 104.402 132.253 104.459 132.536 104.576C132.818 104.694 133.073 104.87 133.282 105.093C133.492 105.315 133.653 105.58 133.753 105.869C133.854 106.158 133.892 106.465 133.866 106.77Z" fill="#FAFAFA"/>
    <path d="M217.078 170.512V255.748C217.079 256.712 216.827 257.659 216.346 258.494C215.864 259.33 215.172 260.024 214.337 260.506C213.503 260.989 212.556 261.243 211.592 261.244C210.628 261.244 209.681 260.99 208.846 260.508L162.939 234.001L154.803 229.309C152.001 227.689 149.674 225.362 148.053 222.561C146.433 219.76 145.576 216.582 145.569 213.346V128.104C145.568 127.139 145.82 126.192 146.301 125.357C146.782 124.521 147.475 123.827 148.31 123.345C149.144 122.862 150.091 122.608 151.055 122.607C152.019 122.607 152.966 122.861 153.801 123.343L207.858 154.549C210.661 156.166 212.988 158.493 214.607 161.295C216.225 164.097 217.077 167.276 217.078 170.512Z" fill="#B92F2E"/>
    <path opacity="0.5" d="M217.078 170.512V255.748C217.079 256.712 216.827 257.659 216.346 258.494C215.864 259.33 215.172 260.024 214.337 260.506C213.503 260.989 212.556 261.243 211.592 261.244C210.628 261.244 209.681 260.99 208.846 260.508L162.939 234.001L154.803 229.309C152.001 227.689 149.674 225.362 148.053 222.561C146.433 219.76 145.576 216.582 145.569 213.346V128.104C145.568 127.139 145.82 126.192 146.301 125.357C146.782 124.521 147.475 123.827 148.31 123.345C149.144 122.862 150.091 122.608 151.055 122.607C152.019 122.607 152.966 122.861 153.801 123.343L207.858 154.549C210.661 156.166 212.988 158.493 214.607 161.295C216.225 164.097 217.077 167.276 217.078 170.512Z" fill="white"/>
    <path d="M190.632 220.947C190.632 220.947 199.228 235.202 193.02 251.275L162.918 234.001L190.632 220.947Z" fill="#263238"/>
    <path d="M204.341 156.9C204.991 151.617 201.236 146.806 195.952 146.156C190.669 145.505 185.859 149.261 185.208 154.544C184.558 159.827 188.313 164.637 193.597 165.288C198.88 165.938 203.69 162.183 204.341 156.9Z" fill="#263238"/>
    <path d="M194.824 128.687C194.824 128.687 197.781 123.885 198.686 124.235C199.592 124.584 198.096 129.16 198.096 129.16C198.096 129.16 202.569 130.093 201.739 131.218C200.909 132.343 195.441 132.076 195.441 132.076L194.824 128.687Z" fill="#263238"/>
    <path d="M196.882 141.062C194.824 156.525 181.79 156.525 181.79 156.525L154.487 144.506C154.487 144.506 152.429 142.702 151.798 138.558C151.556 136.861 151.556 135.138 151.798 133.441C151.798 133.441 151.798 133.406 151.798 133.393C152.669 126.889 157.533 119.899 168.125 117.752C170.446 117.283 172.809 117.053 175.177 117.066C176.323 117.062 177.468 117.119 178.607 117.237C186.839 118.047 192.608 121.888 195.359 127.864C195.978 129.212 196.438 130.628 196.731 132.082C197.289 135.046 197.34 138.082 196.882 141.062Z" fill="#263238"/>
    <path d="M131.335 170.972C131.335 170.972 121.642 170.636 117.91 180.082C117.91 180.082 122.026 182.86 127.425 180.082C132.823 177.303 131.335 170.972 131.335 170.972Z" fill="#B92F2E"/>
    <path opacity="0.5" d="M131.335 170.972C131.335 170.972 121.642 170.636 117.91 180.082C117.91 180.082 122.026 182.86 127.425 180.082C132.823 177.303 131.335 170.972 131.335 170.972Z" fill="black"/>
    <path d="M131.06 175.52C131.06 175.52 128.316 163.597 126.869 163.453C125.421 163.309 125.14 167.089 125.257 169.222L121.827 161.841C121.718 161.612 121.563 161.407 121.372 161.24C121.181 161.072 120.958 160.946 120.717 160.868C120.475 160.79 120.22 160.763 119.967 160.788C119.714 160.812 119.469 160.888 119.247 161.011C115.817 162.898 109.801 168.632 122.485 182.812L131.06 175.52Z" fill="#E7A2A1"/>
    <path d="M166.183 167.274L164.125 167.007C162.051 166.732 159.942 167.014 158.013 167.824C156.084 168.634 154.405 169.943 153.149 171.616L140.904 187.916L131.3 170.972C131.3 170.972 130.148 182.496 117.875 180.082L131.053 202.26C131.887 203.664 133.048 204.846 134.437 205.705C135.826 206.564 137.402 207.075 139.03 207.194C140.659 207.313 142.293 207.037 143.792 206.39C145.291 205.742 146.611 204.742 147.641 203.474L158.919 189.61L166.183 167.274Z" fill="#B92F2E"/>
    <path d="M192.32 205.313C189.576 212.269 189.274 213.627 190.948 217.105C192.114 219.674 193.033 222.348 193.692 225.09C193.692 225.09 180.974 239.345 162.87 234.008L154.734 229.316C153.042 228.34 151.518 227.099 150.22 225.639L152.697 207.172C152.821 206.2 152.723 205.212 152.409 204.284L149.809 196.662C148.54 192.94 148.351 188.934 149.264 185.109C150.177 181.284 152.154 177.795 154.967 175.047L163.707 166.506L186.661 169.442L190.091 170.423C192.336 171.072 194.272 172.51 195.542 174.472C196.812 176.435 197.332 178.789 197.005 181.104C195.88 189.199 194.042 200.943 192.32 205.313Z" fill="#B92F2E"/>
    <path opacity="0.5" d="M192.32 205.313C189.576 212.269 189.274 213.627 190.948 217.105C192.114 219.674 193.033 222.348 193.692 225.09C193.692 225.09 180.974 239.345 162.87 234.008L154.734 229.316C153.042 228.34 151.518 227.099 150.22 225.639L152.697 207.172C152.821 206.2 152.723 205.212 152.409 204.284L149.809 196.662C148.54 192.94 148.351 188.934 149.264 185.109C150.177 181.284 152.154 177.795 154.967 175.047L163.707 166.506L186.661 169.442L190.091 170.423C192.336 171.072 194.272 172.51 195.542 174.472C196.812 176.435 197.332 178.789 197.005 181.104C195.88 189.199 194.042 200.943 192.32 205.313Z" fill="black"/>
    <path d="M178.477 184.534L173.88 180.617C173.394 180.201 172.807 179.918 172.178 179.798C171.548 179.678 170.899 179.724 170.293 179.931L164.736 181.845L163.988 178.73C163.872 178.246 163.658 177.79 163.36 177.39C163.063 176.991 162.687 176.655 162.256 176.405C161.826 176.154 161.348 175.993 160.854 175.932C160.359 175.871 159.857 175.91 159.378 176.048L156.971 176.734L161.045 168.928C162.376 166.385 164.425 164.29 166.938 162.904L168.536 162.026L181.742 162.712C181.742 162.712 186.661 164.77 186.661 169.401L178.477 184.493" fill="#B92F2E"/>
    <path d="M181.797 168.564L168.557 178.881V146.029H181.797V168.564Z" fill="#E7A2A1"/>
    <path d="M168.763 165.854L164.736 181.872L181.742 168.564L168.763 165.854Z" fill="#E7A2A1"/>
    <path d="M168.557 163.474C171.501 162.381 174.192 160.7 176.467 158.535C178.742 156.37 180.553 153.765 181.79 150.879V146.029H168.55L168.557 163.474Z" fill="#EFC0C0"/>
    <path d="M171.411 121.683C166.389 121.683 155.715 124.481 154.48 137.625C153.245 150.769 154.439 160.949 161.217 161.937C167.994 162.925 183.745 158.006 185.858 140.994C187.971 123.981 176.302 121.683 171.411 121.683Z" fill="#E7A2A1"/>
    <path d="M163.508 143.189V150.934L158.967 149.541L163.508 143.189Z" fill="#EFC0C0"/>
    <path d="M168.557 146.104C169.429 146.104 170.135 145.398 170.135 144.527C170.135 143.655 169.429 142.949 168.557 142.949C167.686 142.949 166.979 143.655 166.979 144.527C166.979 145.398 167.686 146.104 168.557 146.104Z" fill="#263238"/>
    <path d="M159.749 143.429C159.747 143.741 159.654 144.045 159.48 144.304C159.305 144.562 159.058 144.763 158.77 144.882C158.482 145 158.165 145.03 157.859 144.969C157.553 144.907 157.273 144.756 157.053 144.535C156.833 144.314 156.683 144.033 156.623 143.727C156.563 143.421 156.594 143.105 156.714 142.817C156.834 142.529 157.036 142.283 157.295 142.11C157.554 141.937 157.859 141.844 158.171 141.844C158.379 141.844 158.584 141.885 158.776 141.965C158.968 142.045 159.142 142.162 159.289 142.309C159.436 142.456 159.552 142.631 159.631 142.823C159.71 143.015 159.75 143.221 159.749 143.429Z" fill="#263238"/>
    <path d="M156.243 140.136L159.33 138.305C159.33 138.305 158.15 137.077 156.97 137.811C155.791 138.545 156.243 140.136 156.243 140.136Z" fill="#263238"/>
    <path d="M161.375 154.076C162.878 154.186 164.374 153.784 165.621 152.937C165.621 152.937 165.916 155.18 164.036 155.606C162.157 156.031 161.375 154.076 161.375 154.076Z" fill="#EFC0C0"/>
    <path d="M158.679 126.155C158.679 126.155 160.565 144.3 185.241 144.869C185.241 144.869 192.697 126.834 177.962 120.976C163.227 115.117 158.679 126.155 158.679 126.155Z" fill="#263238"/>
    <path d="M192.505 142.153L189.473 140.397C188.321 139.711 186.729 139.807 184.966 140.822C181.468 142.839 178.628 147.758 178.628 151.798C178.628 153.822 179.314 155.228 180.493 155.914L183.471 157.629L183.642 157.725L183.745 157.787C184.87 158.336 186.372 158.205 188.026 157.252C191.524 155.194 194.364 150.316 194.364 146.276C194.344 144.232 193.637 142.818 192.505 142.153Z" fill="#B92F2E"/>
    <path d="M192.481 152.485C194.955 148.2 194.955 143.569 192.481 142.14C190.007 140.712 185.996 143.028 183.522 147.313C181.048 151.598 181.048 156.23 183.522 157.658C185.996 159.086 190.007 156.77 192.481 152.485Z" fill="#B92F2E"/>
    <path opacity="0.5" d="M192.481 152.485C194.955 148.2 194.955 143.569 192.481 142.14C190.007 140.712 185.996 143.028 183.522 147.313C181.048 151.598 181.048 156.23 183.522 157.658C185.996 159.086 190.007 156.77 192.481 152.485Z" fill="black"/>
    <path d="M193.72 145.96L191.662 144.76C190.88 144.293 189.789 144.355 188.581 145.048C187.32 145.872 186.271 146.981 185.517 148.286C184.764 149.591 184.329 151.055 184.246 152.559C184.246 153.931 184.733 154.912 185.522 155.365L187.58 156.538C187.616 156.565 187.655 156.588 187.696 156.607L187.765 156.648C188.247 156.831 188.767 156.893 189.279 156.828C189.791 156.764 190.279 156.575 190.701 156.278C191.961 155.454 193.011 154.346 193.764 153.042C194.517 151.738 194.953 150.276 195.037 148.773C194.982 147.38 194.502 146.413 193.72 145.96Z" fill="#B92F2E"/>
    <path d="M194.982 148.759C194.898 150.262 194.462 151.725 193.709 153.028C192.956 154.332 191.907 155.44 190.646 156.264C188.245 157.636 186.304 156.525 186.304 153.76C186.385 152.255 186.821 150.791 187.576 149.487C188.33 148.183 189.382 147.076 190.646 146.255C193.04 144.87 194.982 145.988 194.982 148.759Z" fill="#B92F2E"/>
    <path opacity="0.3" d="M194.982 148.759C194.898 150.262 194.462 151.725 193.709 153.028C192.956 154.332 191.907 155.44 190.646 156.264C188.245 157.636 186.304 156.525 186.304 153.76C186.385 152.255 186.821 150.791 187.576 149.487C188.33 148.183 189.382 147.076 190.646 146.255C193.04 144.87 194.982 145.988 194.982 148.759Z" fill="black"/>
    <path d="M183.087 118.143C181.12 116.624 178.711 115.788 176.227 115.762H175.616C173.1 115.735 170.587 115.965 168.118 116.448C168.571 116.448 169.024 116.448 169.49 116.448H168.118V117.724H169.394C173.791 117.874 177.958 119.728 181.014 122.893C184.07 126.059 185.775 130.289 185.769 134.689V140.088C185.769 140.301 185.813 140.512 185.9 140.707C185.987 140.903 186.113 141.077 186.272 141.22C186.43 141.363 186.617 141.471 186.82 141.537C187.023 141.603 187.237 141.626 187.449 141.604H187.607L188.979 141.179C188.888 141.207 188.794 141.226 188.698 141.234C189.107 141.178 189.481 140.974 189.75 140.66C190.018 140.346 190.161 139.945 190.152 139.532V134.525C190.139 125.462 186.222 120.592 183.087 118.143Z" fill="#B92F2E"/>
    <path d="M174.45 161.56C173.884 161.56 173.325 161.438 172.81 161.203L168.523 159.221C168.456 159.197 168.394 159.159 168.343 159.11C168.291 159.061 168.25 159.002 168.222 158.936C168.194 158.871 168.181 158.8 168.182 158.729C168.183 158.658 168.198 158.587 168.228 158.523C168.257 158.458 168.3 158.4 168.353 158.352C168.406 158.305 168.469 158.269 168.536 158.247C168.604 158.225 168.676 158.217 168.747 158.224C168.817 158.231 168.886 158.253 168.948 158.288L173.236 160.27C173.782 160.524 174.395 160.602 174.988 160.491C175.581 160.38 176.124 160.087 176.542 159.653L180.658 155.399C180.755 155.303 180.885 155.249 181.022 155.249C181.158 155.249 181.289 155.303 181.385 155.399C181.48 155.497 181.533 155.627 181.533 155.763C181.533 155.899 181.48 156.029 181.385 156.127L177.269 160.38C176.903 160.756 176.464 161.055 175.98 161.257C175.495 161.46 174.975 161.563 174.45 161.56Z" fill="#B92F2E"/>
    <path opacity="0.5" d="M174.45 161.56C173.884 161.56 173.325 161.438 172.81 161.203L168.523 159.221C168.456 159.197 168.394 159.159 168.343 159.11C168.291 159.061 168.25 159.002 168.222 158.936C168.194 158.871 168.181 158.8 168.182 158.729C168.183 158.658 168.198 158.587 168.228 158.523C168.257 158.458 168.3 158.4 168.353 158.352C168.406 158.305 168.469 158.269 168.536 158.247C168.604 158.225 168.676 158.217 168.747 158.224C168.817 158.231 168.886 158.253 168.948 158.288L173.236 160.27C173.782 160.524 174.395 160.602 174.988 160.491C175.581 160.38 176.124 160.087 176.542 159.653L180.658 155.399C180.755 155.303 180.885 155.249 181.022 155.249C181.158 155.249 181.289 155.303 181.385 155.399C181.48 155.497 181.533 155.627 181.533 155.763C181.533 155.899 181.48 156.029 181.385 156.127L177.269 160.38C176.903 160.756 176.464 161.055 175.98 161.257C175.495 161.46 174.975 161.563 174.45 161.56Z" fill="black"/>
    <path d="M169.648 157.78C169.648 158.176 169.53 158.563 169.31 158.893C169.09 159.222 168.777 159.479 168.411 159.631C168.045 159.782 167.642 159.822 167.254 159.745C166.865 159.667 166.508 159.477 166.228 159.196C165.948 158.916 165.757 158.559 165.68 158.171C165.603 157.782 165.642 157.379 165.794 157.013C165.946 156.647 166.202 156.335 166.532 156.114C166.861 155.894 167.248 155.777 167.645 155.777C168.176 155.777 168.685 155.988 169.061 156.364C169.437 156.739 169.648 157.249 169.648 157.78Z" fill="#B92F2E"/>
    <path opacity="0.5" d="M169.648 157.78C169.648 158.176 169.53 158.563 169.31 158.893C169.09 159.222 168.777 159.479 168.411 159.631C168.045 159.782 167.642 159.822 167.254 159.745C166.865 159.667 166.508 159.477 166.228 159.196C165.948 158.916 165.757 158.559 165.68 158.171C165.603 157.782 165.642 157.379 165.794 157.013C165.946 156.647 166.202 156.335 166.532 156.114C166.861 155.894 167.248 155.777 167.645 155.777C168.176 155.777 168.685 155.988 169.061 156.364C169.437 156.739 169.648 157.249 169.648 157.78Z" fill="black"/>
    <path d="M190.139 134.524V139.532C190.147 139.945 190.004 140.346 189.736 140.66C189.468 140.974 189.093 141.178 188.684 141.233C188.458 141.258 188.23 141.234 188.014 141.164C187.797 141.094 187.598 140.979 187.43 140.827C187.261 140.675 187.126 140.489 187.033 140.281C186.941 140.073 186.894 139.849 186.894 139.621V134.524C186.898 132.092 186.409 129.684 185.458 127.445C184.507 125.206 183.113 123.182 181.36 121.496C179.606 119.81 177.53 118.496 175.255 117.633C172.981 116.77 170.555 116.377 168.125 116.476C170.594 115.992 173.107 115.763 175.623 115.79H176.22C178.704 115.815 181.113 116.651 183.08 118.17C186.222 120.592 190.139 125.462 190.139 134.524Z" fill="#B92F2E"/>
    <path opacity="0.5" d="M190.139 134.524V139.532C190.147 139.945 190.004 140.346 189.736 140.66C189.468 140.974 189.093 141.178 188.684 141.233C188.458 141.258 188.23 141.234 188.014 141.164C187.797 141.094 187.598 140.979 187.43 140.827C187.261 140.675 187.126 140.489 187.033 140.281C186.941 140.073 186.894 139.849 186.894 139.621V134.524C186.898 132.092 186.409 129.684 185.458 127.445C184.507 125.206 183.113 123.182 181.36 121.496C179.606 119.81 177.53 118.496 175.255 117.633C172.981 116.77 170.555 116.377 168.125 116.476C170.594 115.992 173.107 115.763 175.623 115.79H176.22C178.704 115.815 181.113 116.651 183.08 118.17C186.222 120.592 190.139 125.462 190.139 134.524Z" fill="black"/>
    <path d="M182.428 228.898C182.428 228.898 179.108 238.042 190.976 242.158C190.976 242.158 194.851 236.464 190.976 231.806C187.1 227.148 182.428 228.898 182.428 228.898Z" fill="#B92F2E"/>
    <path opacity="0.7" d="M182.428 228.898C182.428 228.898 179.108 238.042 190.976 242.158C190.976 242.158 194.851 236.464 190.976 231.806C187.1 227.148 182.428 228.898 182.428 228.898Z" fill="black"/>
    <path d="M186.592 229.316C186.592 229.316 174.999 233.562 175.06 235.209C175.122 236.855 179.986 235.73 179.986 235.73L178.209 236.896C176.338 238.117 174.889 239.885 174.059 241.959C173.878 242.416 173.872 242.924 174.041 243.386C174.211 243.848 174.544 244.231 174.978 244.463L179.382 246.795C179.631 246.927 179.904 247.008 180.184 247.033C180.464 247.057 180.747 247.026 181.015 246.939C181.283 246.853 181.531 246.714 181.744 246.53C181.957 246.346 182.132 246.121 182.257 245.869C182.502 245.384 182.841 244.952 183.255 244.599C183.668 244.246 184.147 243.978 184.664 243.811C187.059 243.015 191.524 240.724 193.315 234.454L186.592 229.316Z" fill="#E7A2A1"/>
    <path d="M190.07 170.409C190.07 170.409 183.896 173.839 187.175 184.253C190.454 194.666 196.607 210.821 196.607 210.821L182.428 228.898C183.943 229.08 185.402 229.58 186.711 230.365C188.019 231.15 189.147 232.202 190.022 233.453C190.86 234.724 191.383 236.177 191.549 237.69C191.714 239.204 191.518 240.735 190.975 242.158L208.578 219.52C210.206 217.428 211.287 214.963 211.723 212.348C212.159 209.734 211.936 207.052 211.075 204.545L203.529 182.51C202.607 179.819 201.074 177.377 199.051 175.376C197.028 173.376 194.569 171.871 191.867 170.979L190.07 170.409Z" fill="#B92F2E"/>
    <path d="M85.8529 108.896L58.5707 93.1178C58.2567 92.9002 57.8935 92.7643 57.5138 92.7224C57.1341 92.6805 56.7499 92.7338 56.3961 92.8777C56.3215 92.9122 56.2503 92.9535 56.1834 93.0012L50.2495 96.4792H50.2907C49.5429 96.9045 49.0696 97.8924 49.0696 99.3055V129.654C49.0696 132.22 50.6268 135.204 52.5545 136.315L79.8367 152.093C80.1828 152.344 80.5949 152.487 81.0217 152.505C81.4486 152.523 81.8714 152.416 82.2377 152.196C82.2191 152.204 82.2027 152.215 82.1897 152.23L88.0824 148.8C88.8507 148.389 89.3378 147.387 89.3378 145.954V115.557C89.3378 112.991 87.808 110.007 85.8529 108.896Z" fill="#B92F2E"/>
    <path d="M88.3637 111.77C87.8117 110.596 86.9419 109.601 85.8529 108.896L58.5707 93.1178C58.2567 92.9002 57.8935 92.7643 57.5138 92.7224C57.1341 92.6805 56.7499 92.7338 56.3961 92.8777C56.3215 92.9122 56.2503 92.9535 56.1834 93.0012L50.2495 96.4792C50.6125 96.2937 51.0195 96.2115 51.426 96.2418C51.8326 96.272 52.2229 96.4135 52.5545 96.6507L79.8367 112.429C80.9628 113.165 81.8552 114.207 82.4092 115.433L88.3637 111.77Z" fill="#B92F2E"/>
    <path d="M83.3216 149.425C83.3216 150.797 82.8826 151.75 82.1897 152.169L88.0824 148.739C88.8508 148.327 89.3378 147.325 89.3378 145.892V115.557C89.3088 114.236 88.9755 112.94 88.3637 111.77L82.4092 115.433C82.9809 116.569 83.2926 117.818 83.3216 119.09V149.425Z" fill="#B92F2E"/>
    <path opacity="0.3" d="M88.3637 111.77C87.8117 110.596 86.9419 109.601 85.8529 108.896L58.5707 93.1178C58.2567 92.9002 57.8935 92.7643 57.5138 92.7224C57.1341 92.6805 56.7499 92.7338 56.3961 92.8777C56.3215 92.9122 56.2503 92.9535 56.1834 93.0012L50.2495 96.4792C50.6125 96.2937 51.0195 96.2115 51.426 96.2418C51.8326 96.272 52.2229 96.4135 52.5545 96.6507L79.8367 112.429C80.9628 113.165 81.8552 114.207 82.4092 115.433L88.3637 111.77Z" fill="black"/>
    <path opacity="0.6" d="M83.3216 149.425C83.3216 150.797 82.8826 151.75 82.1897 152.169L88.0824 148.739C88.8508 148.327 89.3378 147.325 89.3378 145.892V115.557C89.3088 114.236 88.9755 112.94 88.3637 111.77L82.4092 115.433C82.9809 116.569 83.2926 117.818 83.3216 119.09V149.425Z" fill="black"/>
    <path d="M75.3229 127.781C75.3229 131.712 73.7656 133.05 71.4332 131.698C70.7898 131.332 70.2272 130.839 69.7792 130.25C69.3312 129.66 69.0071 128.986 68.8264 128.268C68.1404 129.112 67.0771 129.167 65.5817 128.303C63.1258 126.883 61.1913 123.501 61.1913 120.215C61.1913 116.929 63.1052 115.797 65.5817 117.224C66.8383 117.964 67.8534 119.053 68.504 120.359V119.062L71.0902 120.558V127.665C71.0517 128.039 71.1164 128.416 71.2772 128.756C71.4381 129.096 71.689 129.385 72.0026 129.592C72.8738 130.1 73.4089 129.242 73.4089 126.697C73.4089 122.245 70.5552 117.526 66.3363 115.09C62.1174 112.655 59.2705 114.349 59.2705 118.932C59.3257 121.363 59.9958 123.742 61.2181 125.844C62.4404 127.947 64.1752 129.706 66.2608 130.957C67.3932 131.655 68.6791 132.065 70.0064 132.151L70.6169 134.518C69.0715 134.393 67.5782 133.902 66.2608 133.084C60.7728 129.908 57.1439 123.514 57.1439 117.725C57.1439 111.935 60.8071 109.836 66.3363 113.032C71.6802 116.112 75.3229 122.28 75.3229 127.781ZM68.5452 124.482C68.5585 123.612 68.3463 122.753 67.9291 121.99C67.5119 121.226 66.904 120.584 66.1648 120.126C64.7928 119.323 63.8118 119.885 63.8118 121.751C63.7941 122.623 64.0014 123.484 64.4136 124.252C64.8257 125.019 65.4289 125.668 66.1648 126.135C67.5368 126.91 68.5452 126.409 68.5452 124.482Z" fill="#B92F2E"/>
    <g opacity="0.9">
        <path d="M75.3229 127.781C75.3229 131.712 73.7656 133.05 71.4332 131.698C70.7898 131.332 70.2272 130.839 69.7792 130.25C69.3312 129.66 69.0071 128.986 68.8264 128.268C68.1404 129.112 67.0771 129.167 65.5817 128.303C63.1258 126.883 61.1913 123.501 61.1913 120.215C61.1913 116.929 63.1052 115.797 65.5817 117.224C66.8383 117.964 67.8534 119.053 68.504 120.359V119.062L71.0902 120.558V127.665C71.0517 128.039 71.1164 128.416 71.2772 128.756C71.4381 129.096 71.689 129.385 72.0026 129.592C72.8738 130.1 73.4089 129.242 73.4089 126.697C73.4089 122.245 70.5552 117.526 66.3363 115.09C62.1174 112.655 59.2705 114.349 59.2705 118.932C59.3257 121.363 59.9958 123.742 61.2181 125.844C62.4404 127.947 64.1752 129.706 66.2608 130.957C67.3932 131.655 68.6791 132.065 70.0064 132.151L70.6169 134.518C69.0715 134.393 67.5782 133.902 66.2608 133.084C60.7728 129.908 57.1439 123.514 57.1439 117.725C57.1439 111.935 60.8071 109.836 66.3363 113.032C71.6802 116.112 75.3229 122.28 75.3229 127.781ZM68.5452 124.482C68.5585 123.612 68.3463 122.753 67.9291 121.99C67.5119 121.226 66.904 120.584 66.1648 120.126C64.7928 119.323 63.8118 119.885 63.8118 121.751C63.7941 122.623 64.0014 123.484 64.4136 124.252C64.8257 125.019 65.4289 125.668 66.1648 126.135C67.5368 126.91 68.5452 126.409 68.5452 124.482Z" fill="#FAFAFA"/>
    </g>
    <path d="M85.8529 162.939L58.5707 147.161C58.2572 146.942 57.8935 146.806 57.5133 146.765C57.1332 146.724 56.7489 146.78 56.3961 146.927C56.3215 146.962 56.2503 147.003 56.1834 147.051L50.2495 150.529H50.2907C49.5429 150.954 49.0696 151.942 49.0696 153.348V183.683C49.0696 186.256 50.6268 189.233 52.5545 190.344L79.8367 206.122C80.1821 206.374 80.5944 206.519 81.0216 206.537C81.4488 206.555 81.8719 206.447 82.2377 206.225L82.1897 206.266L88.0824 202.802C88.8507 202.397 89.3378 201.43 89.3378 199.955V169.593C89.3378 167.027 87.808 164.05 85.8529 162.939Z" fill="#B92F2E"/>
    <path d="M88.3637 165.813C87.8136 164.638 86.9434 163.642 85.8529 162.939L58.5707 147.161C58.2572 146.942 57.8935 146.806 57.5133 146.765C57.1332 146.724 56.7489 146.78 56.3961 146.927C56.3215 146.962 56.2503 147.003 56.1834 147.051L50.2495 150.529C50.6117 150.342 51.0185 150.258 51.4252 150.287C51.8318 150.316 52.2226 150.457 52.5545 150.693L79.8367 166.471C80.9645 167.209 81.8573 168.254 82.4092 169.483L88.3637 165.813Z" fill="#B92F2E"/>
    <path d="M83.3216 203.461C83.3216 204.833 82.8826 205.786 82.1897 206.239L88.0824 202.775C88.8508 202.37 89.3378 201.403 89.3378 199.928V169.593C89.3087 168.275 88.9754 166.981 88.3637 165.813L82.4092 169.476C82.9808 170.61 83.2925 171.857 83.3216 173.126V203.461Z" fill="#B92F2E"/>
    <path opacity="0.3" d="M88.3637 165.813C87.8136 164.638 86.9434 163.642 85.8529 162.939L58.5707 147.161C58.2572 146.942 57.8935 146.806 57.5133 146.765C57.1332 146.724 56.7489 146.78 56.3961 146.927C56.3215 146.962 56.2503 147.003 56.1834 147.051L50.2495 150.529C50.6117 150.342 51.0185 150.258 51.4252 150.287C51.8318 150.316 52.2226 150.457 52.5545 150.693L79.8367 166.471C80.9645 167.209 81.8573 168.254 82.4092 169.483L88.3637 165.813Z" fill="black"/>
    <path opacity="0.6" d="M83.3216 203.461C83.3216 204.833 82.8826 205.786 82.1897 206.239L88.0824 202.775C88.8508 202.37 89.3378 201.403 89.3378 199.928V169.593C89.3087 168.275 88.9754 166.981 88.3637 165.813L82.4092 169.476C82.9808 170.61 83.2925 171.857 83.3216 173.126V203.461Z" fill="black"/>
    <path d="M63.1462 176.501L56.5675 165.813V180.294L63.1462 176.501Z" fill="#B92F2E"/>
    <path d="M69.2585 179.581L75.8236 190.948V176.487L69.2585 179.581Z" fill="#B92F2E"/>
    <path d="M57.5624 165.326L64.3195 176.302C64.3481 176.326 64.3735 176.354 64.3949 176.384C64.4009 176.412 64.4009 176.44 64.3949 176.467L66.4049 179.732L68.1062 178.93C68.1327 178.901 68.1627 178.875 68.1954 178.854C68.2624 178.815 68.3375 178.791 68.4149 178.785L75.2749 175.568L57.5624 165.326Z" fill="#B92F2E"/>
    <path d="M68.2639 180.047L66.4254 180.912C66.3546 180.945 66.2772 180.961 66.199 180.96C66.1043 180.961 66.011 180.937 65.9281 180.892C65.8451 180.846 65.7754 180.78 65.7257 180.699L63.7157 177.434L57.1164 181.248L74.8769 191.497L68.2639 180.047Z" fill="#B92F2E"/>
    <g opacity="0.9">
        <path d="M63.1461 176.501L56.5674 165.813V180.295L63.1461 176.501Z" fill="#FAFAFA"/>
        <path d="M69.2584 179.581L75.8234 190.948V176.487L69.2584 179.581Z" fill="#FAFAFA"/>
        <path d="M57.5621 165.326L64.3192 176.302C64.3478 176.326 64.3731 176.354 64.3946 176.384C64.4006 176.412 64.4006 176.44 64.3946 176.467L66.4046 179.732L68.1059 178.93C68.1324 178.901 68.1623 178.875 68.1951 178.854C68.2621 178.815 68.3372 178.791 68.4146 178.785L75.2746 175.568L57.5621 165.326Z" fill="#FAFAFA"/>
        <path d="M68.2638 180.048L66.4253 180.912C66.3545 180.945 66.277 180.962 66.1989 180.96C66.1042 180.961 66.0109 180.938 65.9279 180.892C65.845 180.846 65.7753 180.78 65.7256 180.699L63.7156 177.434L57.1163 181.248L74.8768 191.497L68.2638 180.048Z" fill="#FAFAFA"/>
    </g>
    <path d="M85.8529 54.88L58.5707 39.102C58.2572 38.8832 57.8935 38.7471 57.5133 38.7063C57.1332 38.6655 56.7489 38.7214 56.3961 38.8688C56.3215 38.9032 56.2503 38.9445 56.1834 38.9922L50.2495 42.4703H50.2907C49.5429 42.8887 49.0696 43.8834 49.0696 45.2897V75.6246C49.0696 78.1903 50.6268 81.1744 52.5545 82.2857L79.8367 98.0637C80.1821 98.3158 80.5944 98.46 81.0216 98.4783C81.4488 98.4966 81.8719 98.3882 82.2377 98.1666L82.1897 98.2009L88.0824 94.7709C88.8507 94.3662 89.3378 93.3989 89.3378 91.924V61.5136C89.3378 58.948 87.808 55.9639 85.8529 54.88Z" fill="#B92F2E"/>
    <path d="M88.3637 57.7338C87.8137 56.5568 86.9436 55.5583 85.8529 54.8526L58.5707 39.102C58.2572 38.8832 57.8935 38.7471 57.5133 38.7063C57.1332 38.6655 56.7489 38.7214 56.3961 38.8688C56.3215 38.9032 56.2503 38.9445 56.1834 38.9922L50.2495 42.4703C50.6117 42.283 51.0185 42.1993 51.4252 42.2283C51.8318 42.2574 52.2226 42.3981 52.5545 42.6349L79.8367 58.4129C80.9645 59.1501 81.8573 60.1953 82.4092 61.4244L88.3637 57.7338Z" fill="#B92F2E"/>
    <path d="M83.3216 95.3541C83.3216 96.7261 82.8826 97.6797 82.1897 98.0981L88.0824 94.6681C88.8508 94.2634 89.3378 93.2961 89.3378 91.8212V61.5137C89.3087 60.1956 88.9754 58.9019 88.3637 57.7339L82.4092 61.3971C82.9808 62.5307 83.2925 63.7774 83.3216 65.0466V95.3541Z" fill="#B92F2E"/>
    <path opacity="0.3" d="M88.3637 57.7338C87.8137 56.5568 86.9436 55.5583 85.8529 54.8526L58.5707 39.102C58.2572 38.8832 57.8935 38.7471 57.5133 38.7063C57.1332 38.6655 56.7489 38.7214 56.3961 38.8688C56.3215 38.9032 56.2503 38.9445 56.1834 38.9922L50.2495 42.4703C50.6117 42.283 51.0185 42.1993 51.4252 42.2283C51.8318 42.2574 52.2226 42.3981 52.5545 42.6349L79.8367 58.4129C80.9645 59.1501 81.8573 60.1953 82.4092 61.4244L88.3637 57.7338Z" fill="black"/>
    <path opacity="0.6" d="M83.3216 95.3541C83.3216 96.7261 82.8826 97.6797 82.1897 98.0981L88.0824 94.6681C88.8508 94.2634 89.3378 93.2961 89.3378 91.8212V61.5137C89.3087 60.1956 88.9754 58.9019 88.3637 57.7339L82.4092 61.3971C82.9808 62.5307 83.2925 63.7774 83.3216 65.0466V95.3541Z" fill="black"/>
    <path d="M74.3967 82.3199C73.3471 80.5912 72.2906 78.8899 71.2411 77.1475C71.0746 76.8174 70.8419 76.5252 70.5574 76.2892C70.2729 76.0531 69.9429 75.8782 69.5878 75.7755C69.0802 75.6726 68.5725 75.5559 68.0512 75.405C67.8655 75.3276 67.7093 75.193 67.6053 75.0209C65.8878 72.0814 64.5224 68.95 63.5373 65.6913C63.5163 65.6216 63.5104 65.5483 63.5198 65.4761C63.5293 65.404 63.5539 65.3347 63.5922 65.2728C63.9146 64.9504 64.2782 64.6554 64.6074 64.3673C64.9367 64.0792 65.1082 63.4137 64.8681 62.5494C64.3605 60.7178 63.8734 58.8861 63.3658 57.0614C63.2676 56.5429 63.0345 56.0594 62.6901 55.6596C62.3457 55.2598 61.902 54.9578 61.4038 54.7839C60.2976 54.4763 59.1231 54.5194 58.0424 54.9073C57.624 55.0651 57.4044 55.4424 57.3976 56.0941C57.5759 57.3495 57.6926 58.5912 57.9327 59.8671C59.6248 69.0687 63.6951 77.5293 70.1435 85.2491C70.3118 85.5051 70.538 85.7179 70.8037 85.8705C71.0694 86.023 71.3673 86.1109 71.6732 86.1272C72.7408 86.1018 73.7665 85.7066 74.575 85.009C75.1856 84.4602 75.1238 83.4861 74.3967 82.3199Z" fill="#B92F2E"/>
    <path d="M74.3144 72.9695C74.1709 70.9963 73.627 69.073 72.716 67.3169C72.0358 65.945 71.1702 64.6731 70.1435 63.537C69.876 63.2352 69.6496 63.1392 69.5124 63.3655C69.3752 63.5919 69.5124 63.9143 69.7731 64.2093L70.0406 64.518C71.9367 66.7067 73.1317 69.4145 73.4706 72.2904C73.4673 72.5002 73.488 72.7096 73.5324 72.9146C73.6185 73.1506 73.7569 73.364 73.9371 73.5389C74.0812 73.6418 74.2458 73.5389 74.3624 73.5389C74.3213 73.2576 74.3281 73.1136 74.3144 72.9695Z" fill="#B92F2E"/>
    <path d="M68.0993 67.3376C68.9607 68.2851 69.4842 69.4912 69.5879 70.7676C69.6331 70.9617 69.7046 71.1486 69.8006 71.3233C70.219 71.6663 70.4248 71.5496 70.4248 71.1175C70.2781 69.4809 69.6013 67.937 68.4972 66.7202C68.2365 66.4527 68.0238 66.3703 67.9003 66.5967C67.8559 66.726 67.8511 66.8656 67.8866 66.9976C67.922 67.1296 67.9961 67.248 68.0993 67.3376Z" fill="#B92F2E"/>
    <g opacity="0.9">
        <path d="M74.3967 82.3199C73.3471 80.5912 72.2906 78.8899 71.2411 77.1475C71.0746 76.8174 70.8419 76.5252 70.5574 76.2892C70.2729 76.0531 69.9429 75.8782 69.5878 75.7755C69.0802 75.6726 68.5725 75.5559 68.0512 75.405C67.8655 75.3276 67.7093 75.193 67.6053 75.0209C65.8878 72.0814 64.5224 68.95 63.5373 65.6913C63.5163 65.6216 63.5104 65.5483 63.5198 65.4761C63.5293 65.404 63.5539 65.3347 63.5922 65.2728C63.9146 64.9504 64.2782 64.6554 64.6074 64.3673C64.9367 64.0792 65.1082 63.4137 64.8681 62.5494C64.3605 60.7178 63.8734 58.8861 63.3658 57.0614C63.2676 56.5429 63.0345 56.0594 62.6901 55.6596C62.3457 55.2598 61.902 54.9578 61.4038 54.7839C60.2976 54.4763 59.1231 54.5194 58.0424 54.9073C57.624 55.0651 57.4044 55.4424 57.3976 56.0941C57.5759 57.3495 57.6926 58.5912 57.9327 59.8671C59.6248 69.0687 63.6951 77.5293 70.1435 85.2491C70.3118 85.5051 70.538 85.7179 70.8037 85.8705C71.0694 86.023 71.3673 86.1109 71.6732 86.1272C72.7408 86.1018 73.7665 85.7066 74.575 85.009C75.1856 84.4602 75.1238 83.4861 74.3967 82.3199Z" fill="#FAFAFA"/>
        <path d="M74.3144 72.9695C74.1709 70.9963 73.627 69.073 72.716 67.3169C72.0358 65.945 71.1702 64.6731 70.1435 63.537C69.876 63.2352 69.6496 63.1392 69.5124 63.3655C69.3752 63.5919 69.5124 63.9143 69.7731 64.2093L70.0406 64.518C71.9367 66.7067 73.1317 69.4145 73.4706 72.2904C73.4673 72.5002 73.488 72.7096 73.5324 72.9146C73.6185 73.1506 73.7569 73.364 73.9371 73.5389C74.0812 73.6418 74.2458 73.5389 74.3624 73.5389C74.3213 73.2576 74.3281 73.1136 74.3144 72.9695Z" fill="white"/>
        <path d="M68.0992 67.3376C68.9607 68.2851 69.4841 69.4912 69.5878 70.7676C69.633 70.9617 69.7046 71.1486 69.8005 71.3233C70.219 71.6663 70.4248 71.5496 70.4248 71.1175C70.2781 69.4809 69.6012 67.937 68.4971 66.7202C68.2364 66.4527 68.0238 66.3703 67.9003 66.5967C67.8559 66.726 67.8511 66.8656 67.8865 66.9976C67.922 67.1296 67.996 67.248 68.0992 67.3376Z" fill="white"/>
    </g>
    <path d="M225.831 36.6873L232.259 40.3437V38.0662C232.259 37.9084 232.259 37.7438 232.259 37.586C232.259 37.4282 232.259 37.2773 232.259 37.1264V37.044C232.492 34.0325 234.777 32.8732 237.562 34.4853C238.823 35.2608 239.903 36.297 240.731 37.5242C241.355 33.4082 244.696 31.9539 248.737 34.2795C253.223 36.8725 256.859 43.1975 256.859 48.3562V53.2268C256.852 53.6164 256.949 54.0008 257.138 54.3416C257.327 54.6823 257.602 54.9674 257.936 55.1682L261.723 57.3839C262.54 57.8685 263.217 58.5569 263.689 59.3818C264.16 60.2067 264.409 61.1398 264.412 62.0899C264.412 62.4841 264.308 62.8713 264.111 63.2126C263.914 63.5539 263.63 63.8373 263.289 64.0341C262.947 64.2309 262.56 64.3343 262.166 64.3338C261.772 64.3333 261.385 64.229 261.044 64.0313L225.927 43.7325C224.996 43.1915 224.222 42.4162 223.683 41.4835C223.144 40.5508 222.858 39.4933 222.854 38.416C222.854 38.0673 222.945 37.7247 223.119 37.4224C223.293 37.1201 223.543 36.8688 223.844 36.6937C224.146 36.5186 224.488 36.4259 224.837 36.4248C225.186 36.4236 225.528 36.5142 225.831 36.6873Z" fill="#E6E6E6"/>
    <path d="M274.832 35.7338L279.504 38.416V36.7422C279.504 36.6256 279.504 36.5089 279.504 36.3923C279.504 36.2757 279.504 36.1659 279.504 36.0562V36.015C279.675 33.8267 281.336 32.9829 283.359 34.156C284.276 34.7175 285.061 35.4682 285.664 36.358C286.124 33.3808 288.552 32.3038 291.488 33.9982C294.754 35.8847 297.395 40.4672 297.395 44.2333V47.7799C297.397 48.0579 297.472 48.3306 297.611 48.5711C297.751 48.8116 297.95 49.0117 298.191 49.1519L300.935 50.764C301.532 51.1151 302.026 51.6166 302.369 52.2184C302.712 52.8202 302.892 53.5013 302.89 54.194C302.889 54.4777 302.815 54.7564 302.674 55.0026C302.533 55.2488 302.33 55.4541 302.086 55.5981C301.841 55.7421 301.564 55.82 301.28 55.824C300.996 55.828 300.716 55.758 300.468 55.6209L274.901 40.8582C274.223 40.4662 273.661 39.9031 273.27 39.2253C272.878 38.5474 272.672 37.7787 272.671 36.996C272.671 36.7427 272.737 36.4937 272.863 36.2738C272.989 36.054 273.17 35.8711 273.389 35.7433C273.608 35.6155 273.856 35.5474 274.109 35.5457C274.363 35.5441 274.612 35.6089 274.832 35.7338Z" fill="#E6E6E6"/>
</svg>
