<svg xmlns="http://www.w3.org/2000/svg" width="20" height="20" viewBox="0 0 20 20" fill="none">
    <path fill-rule="evenodd" clip-rule="evenodd" d="M2.21467 0.815951C2.6081 0.421951 3.14195 0.20038 3.69867 0.199951H11.5205C12.0772 0.20038 12.6111 0.421951 13.0045 0.815951L17.7841 5.59552C18.1781 5.98895 18.3997 6.52281 18.4001 7.07952V17.6999C18.4001 18.8598 17.46 19.7999 16.3001 19.7999H3.7001C2.54024 19.7999 1.6001 18.8598 1.6001 17.6999V2.29995C1.6001 1.74281 1.82124 1.20795 2.2161 0.815951H2.21467ZM8.75553 6.53781C9.22838 6.87467 9.3381 7.53124 9.00053 8.00352L7.04467 10.742C6.66738 11.2691 5.90724 11.3318 5.44867 10.8735L4.27553 9.70038C3.72453 9.10895 4.02024 8.14295 4.80781 7.96138C5.14781 7.88309 5.50438 7.97852 5.75953 8.21638L6.05624 8.51181L7.2911 6.78409C7.62781 6.31224 8.28338 6.20124 8.75553 6.53781ZM10.0855 9.12352C10.0855 8.54366 10.5557 8.07352 11.1355 8.07352H14.6355C15.4438 8.07352 15.949 8.94852 15.5448 9.64852C15.3572 9.97338 15.0107 10.1735 14.6355 10.1735H11.1355C10.5555 10.1735 10.0855 9.70352 10.0855 9.12352ZM10.0855 14.6801C10.0855 14.1002 10.5555 13.6301 11.1355 13.6301H14.6355C15.4438 13.6302 15.949 14.5052 15.5448 15.2052C15.3572 15.5301 15.0107 15.7301 14.6355 15.7301H11.1355C10.5555 15.7302 10.0855 15.2601 10.0855 14.6801ZM9.00053 13.647C9.48567 13.0005 9.0891 12.0712 8.28667 11.9742C7.89681 11.9272 7.51338 12.1015 7.29253 12.4261L6.05624 14.1551L5.75953 13.8584C5.1681 13.3074 4.2021 13.6031 4.02053 14.3907C3.94224 14.7307 4.03767 15.0872 4.27553 15.3424L5.44867 16.5155C5.90724 16.9738 6.66738 16.9111 7.04467 16.3839L9.00053 13.647Z" fill="#D7D7D7"/>
</svg>