<svg xmlns="http://www.w3.org/2000/svg" width="14" height="14" viewBox="0 0 14 14" fill="none">
    <g clip-path="url(#clip0_1748_49719)">
        <path d="M10.5 7.4375H9.625V8.3125H10.5V7.4375Z" fill="#B92F2E"/>
        <path d="M12.25 3.5H1.75V2.1875H11.375V1.3125H1.75C1.51794 1.3125 1.29538 1.40469 1.13128 1.56878C0.967187 1.73288 0.875 1.95544 0.875 2.1875V11.375C0.875 11.6071 0.967187 11.8296 1.13128 11.9937C1.29538 12.1578 1.51794 12.25 1.75 12.25H12.25C12.4821 12.25 12.7046 12.1578 12.8687 11.9937C13.0328 11.8296 13.125 11.6071 13.125 11.375V4.375C13.125 4.14294 13.0328 3.92038 12.8687 3.75628C12.7046 3.59219 12.4821 3.5 12.25 3.5ZM1.75 11.375V4.375H12.25V5.6875H8.75C8.51794 5.6875 8.29538 5.77969 8.13128 5.94378C7.96719 6.10788 7.875 6.33044 7.875 6.5625V9.1875C7.875 9.41956 7.96719 9.64212 8.13128 9.80622C8.29538 9.97031 8.51794 10.0625 8.75 10.0625H12.25V11.375H1.75ZM12.25 6.5625V9.1875H8.75V6.5625H12.25Z" fill="#B92F2E"/>
    </g>
    <defs>
        <clipPath id="clip0_1748_49719">
            <rect width="14" height="14" fill="white"/>
        </clipPath>
    </defs>
</svg>