<svg width="14" height="14" viewBox="0 0 14 14" fill="none" xmlns="http://www.w3.org/2000/svg">
<g id="widget">
<path id="Rectangle 1096" d="M0.967595 1.88333C1.00653 1.38635 1.38635 1.00653 1.88333 0.967595C2.46919 0.921699 3.38115 0.875 4.66667 0.875C5.95219 0.875 6.86414 0.921699 7.45001 0.967595C7.94698 1.00653 8.32679 1.38635 8.36573 1.88333C8.41164 2.46919 8.45833 3.38115 8.45833 4.66667C8.45833 5.95219 8.41164 6.86414 8.36573 7.45001C8.32679 7.94698 7.94698 8.32679 7.45001 8.36573C6.86414 8.41164 5.95219 8.45833 4.66667 8.45833C3.38115 8.45833 2.46919 8.41164 1.88333 8.36573C1.38635 8.32679 1.00653 7.94698 0.967595 7.45001C0.921699 6.86414 0.875 5.95219 0.875 4.66667C0.875 3.38115 0.921699 2.46919 0.967595 1.88333Z" stroke="#353535" stroke-linecap="round" stroke-linejoin="round"/>
<path id="Rectangle 1097" d="M10.2168 6.44186C10.2328 5.94364 10.6102 5.56625 11.1084 5.55021C11.269 5.54504 11.4546 5.54175 11.6666 5.54175C11.8787 5.54175 12.0642 5.54504 12.2249 5.55021C12.7231 5.56625 13.1005 5.94364 13.1165 6.44186C13.1217 6.60248 13.125 6.78807 13.125 7.00008C13.125 7.21209 13.1217 7.39768 13.1165 7.5583C13.1005 8.05653 12.7231 8.43392 12.2249 8.44996C12.0642 8.45512 11.8787 8.45841 11.6666 8.45841C11.4546 8.45841 11.269 8.45512 11.1084 8.44996C10.6102 8.43392 10.2328 8.05653 10.2168 7.5583C10.2116 7.39768 10.2083 7.21209 10.2083 7.00008C10.2083 6.78807 10.2116 6.60248 10.2168 6.44186Z" stroke="#353535" stroke-linecap="round" stroke-linejoin="round"/>
<path id="Rectangle 1098" d="M0.96346 10.8162C1.04563 10.4612 1.37907 10.2696 1.74334 10.2604C2.55358 10.2398 4.24614 10.2083 7 10.2083C9.75386 10.2083 11.4464 10.2398 12.2566 10.2604C12.6209 10.2696 12.9544 10.4612 13.0365 10.8162C13.086 11.0299 13.125 11.3111 13.125 11.6666C13.125 12.0221 13.086 12.3033 13.0365 12.517C12.9544 12.872 12.6209 13.0635 12.2566 13.0728C11.4464 13.0933 9.75386 13.1249 7 13.1249C4.24614 13.1249 2.55358 13.0933 1.74334 13.0728C1.37907 13.0635 1.04563 12.872 0.96346 12.517C0.91399 12.3033 0.875 12.0221 0.875 11.6666C0.875 11.3111 0.91399 11.0299 0.96346 10.8162Z" stroke="#353535" stroke-linecap="round" stroke-linejoin="round"/>
<path id="Rectangle 1099" d="M10.2168 1.77513C10.2328 1.27688 10.6102 0.899488 11.1084 0.883467C11.269 0.878302 11.4546 0.875 11.6666 0.875C11.8787 0.875 12.0642 0.878302 12.2249 0.883467C12.7231 0.899485 13.1005 1.27688 13.1165 1.77512C13.1217 1.93574 13.125 2.12133 13.125 2.33333C13.125 2.54534 13.1217 2.73093 13.1165 2.89154C13.1005 3.38978 12.7231 3.76717 12.2249 3.78321C12.0642 3.78837 11.8787 3.79167 11.6666 3.79167C11.4546 3.79167 11.269 3.78837 11.1084 3.78321C10.6102 3.76717 10.2328 3.38978 10.2168 2.89154C10.2116 2.73093 10.2083 2.54534 10.2083 2.33333C10.2083 2.12133 10.2116 1.93574 10.2168 1.77513Z" stroke="#353535" stroke-linecap="round" stroke-linejoin="round"/>
</g>
</svg>
