<svg xmlns="http://www.w3.org/2000/svg" width="15" height="14" viewBox="0 0 15 14" fill="none">
    <g clip-path="url(#clip0_1805_37827)">
        <path d="M10.2093 13.6666C10.0062 13.6248 9.80008 13.5979 9.60294 13.5352C8.15133 13.0902 7.26424 12.1164 6.99243 10.626C6.65492 8.77714 7.89446 6.96411 9.74631 6.53102C11.7624 6.06208 13.7756 7.40617 14.1161 9.45515C14.131 9.53878 14.1489 9.62242 14.1669 9.70605V10.3841C14.1579 10.4169 14.146 10.4498 14.14 10.4826C13.913 11.9701 13.0916 12.9737 11.6758 13.4814C11.4219 13.574 11.1472 13.6039 10.8843 13.6636H10.2063L10.2093 13.6666ZM11.1083 9.20426C11.1083 9.04297 11.1113 8.88466 11.1083 8.72337C11.1083 8.64571 11.0994 8.56507 11.0785 8.49338C10.9948 8.23353 10.7409 8.0812 10.4661 8.12301C10.2093 8.16184 10.0062 8.39183 10.0032 8.66961C9.99721 9.11465 10.0032 9.56268 10.0032 10.0077C10.0032 10.1899 10.0629 10.3452 10.1943 10.4737C10.4572 10.7335 10.7141 10.9964 10.9769 11.2532C11.2218 11.4952 11.5653 11.5041 11.7863 11.2741C12.0074 11.0501 11.9954 10.7156 11.7595 10.4737C11.5773 10.2885 11.3951 10.1033 11.2069 9.92409C11.1382 9.85838 11.1053 9.79267 11.1113 9.69709C11.1203 9.53281 11.1113 9.36853 11.1113 9.20426H11.1083Z" fill="#FFA940"/>
        <path d="M7.33583 7C6.69664 7.69892 6.30238 8.48447 6.16498 9.39247C6.02758 10.2975 6.16797 11.1607 6.56522 12H6.42484C4.71934 12 3.01384 12 1.31134 12C0.991742 12 0.836426 11.8417 0.836426 11.5191C0.836426 10.8769 0.836426 10.2348 0.836426 9.59259C0.842399 8.30824 1.843 7.1822 3.1154 7.02389C3.21695 7.01195 3.32149 7 3.42603 7C4.68947 7 5.94993 7 7.21337 7C7.24324 7 7.2731 7 7.33881 7H7.33583Z" fill="#FFA940"/>
        <path d="M5.83649 5.88905C4.30722 5.89204 3.05274 4.64353 3.05274 3.11127C3.04975 1.58499 4.29229 0.333496 5.81857 0.333496C7.36576 0.333496 8.61427 1.57006 8.61726 3.10829C8.61726 4.64054 7.37472 5.88606 5.83649 5.89204V5.88905Z" fill="#FFA940"/>
    </g>
    <defs>
        <clipPath id="clip0_1805_37827">
            <rect width="13.3333" height="13.3333" fill="white" transform="translate(0.833496 0.333496)"/>
        </clipPath>
    </defs>
</svg>