<svg width="16" height="16" viewBox="0 0 16 16" fill="none" xmlns="http://www.w3.org/2000/svg">
<g id="Phone">
<rect width="16" height="16" rx="4" fill="#A9A9A9"/>
<path id="Vector" d="M11.938 4.98887L10.8154 3.92938C10.7362 3.85424 10.6421 3.79462 10.5384 3.75395C10.4348 3.71328 10.3236 3.69236 10.2114 3.69238C9.98267 3.69238 9.76764 3.77702 9.60637 3.92938L8.3984 5.07053C8.31886 5.14533 8.25575 5.23425 8.2127 5.33217C8.16965 5.43009 8.1475 5.53507 8.14753 5.6411C8.14753 5.85718 8.23712 6.06032 8.3984 6.21267L9.28171 7.04713C9.07495 7.47766 8.78749 7.86932 8.43318 8.20321C8.07978 8.53873 7.66522 8.81129 7.2094 9.00779L6.32609 8.17334C6.2469 8.0982 6.15277 8.03859 6.04912 7.99792C5.94547 7.95724 5.83434 7.93632 5.7221 7.93635C5.49337 7.93635 5.27833 8.02099 5.11706 8.17334L3.90804 9.31349C3.82841 9.38844 3.76525 9.47753 3.72219 9.57562C3.67914 9.67371 3.65704 9.77887 3.65717 9.88506C3.65717 10.1011 3.74676 10.3043 3.90804 10.4566L5.02852 11.5151C5.28571 11.7591 5.64094 11.8975 6.00565 11.8975C6.08259 11.8975 6.15638 11.8915 6.22911 11.8796C7.65 11.6585 9.0593 10.9446 10.1967 9.87112C11.3329 8.79868 12.0877 7.46834 12.3248 6.12206C12.3965 5.7108 12.2521 5.2876 11.938 4.98887Z" fill="#353535"/>
</g>
</svg>
