<svg xmlns="http://www.w3.org/2000/svg" width="25" height="24" viewBox="0 0 25 24" fill="none">
    <g clip-path="url(#clip0_1128_18329)">
        <path d="M17.5833 18.7129C17.5833 19.1107 17.7413 19.4922 18.0226 19.7736C18.3039 20.0549 18.6855 20.2129 19.0833 20.2129C19.4811 20.2129 19.8627 20.0549 20.144 19.7736C20.4253 19.4922 20.5833 19.1107 20.5833 18.7129C20.5833 18.3151 20.4253 17.9335 20.144 17.6522C19.8627 17.3709 19.4811 17.2129 19.0833 17.2129C18.6855 17.2129 18.3039 17.3709 18.0226 17.6522C17.7413 17.9335 17.5833 18.3151 17.5833 18.7129Z" stroke="#0057E8" stroke-width="1.5" stroke-linecap="round" stroke-linejoin="round"/>
        <path d="M5.58325 18.7129C5.58325 19.1107 5.74129 19.4922 6.02259 19.7736C6.30389 20.0549 6.68543 20.2129 7.08325 20.2129C7.48107 20.2129 7.86261 20.0549 8.14391 19.7736C8.42521 19.4922 8.58325 19.1107 8.58325 18.7129C8.58325 18.3151 8.42521 17.9335 8.14391 17.6522C7.86261 17.3709 7.48107 17.2129 7.08325 17.2129C6.68543 17.2129 6.30389 17.3709 6.02259 17.6522C5.74129 17.9335 5.58325 18.3151 5.58325 18.7129Z" stroke="#0057E8" stroke-width="1.5" stroke-linecap="round" stroke-linejoin="round"/>
        <path d="M17.5833 18.7129H8.58325" stroke="#0057E8" stroke-width="1.5" stroke-linecap="round" stroke-linejoin="round"/>
        <path d="M19.0833 12.7129H16.0833C15.6855 12.7129 15.3039 12.5549 15.0226 12.2736C14.7413 11.9922 14.5833 11.6107 14.5833 11.2129V8.21289" stroke="#0057E8" stroke-width="1.5" stroke-linecap="round" stroke-linejoin="round"/>
        <path d="M20.5833 18.7128H22.0833C22.4811 18.7128 22.8627 18.5547 23.144 18.2734C23.4253 17.9921 23.5833 17.6106 23.5833 17.2128V15.7128C23.5833 15.315 23.4253 14.9334 23.144 14.6521C22.8627 14.3708 22.4811 14.2128 22.0833 14.2128H19.0833V11.2128C19.0833 7.46278 16.3323 5.58578 12.7383 5.26278C12.5917 5.25004 12.444 5.26789 12.3046 5.3152C12.1653 5.3625 12.0372 5.43824 11.9286 5.5376C11.8201 5.63697 11.7333 5.7578 11.6739 5.89244C11.6144 6.02708 11.5836 6.1726 11.5833 6.31978V14.2128H2.58325C2.18543 14.2128 1.80389 14.3708 1.52259 14.6521C1.24129 14.9334 1.08325 15.315 1.08325 15.7128V17.2128C1.08325 17.6106 1.24129 17.9921 1.52259 18.2734C1.80389 18.5547 2.18543 18.7128 2.58325 18.7128H5.58325" stroke="#0057E8" stroke-width="1.5" stroke-linecap="round" stroke-linejoin="round"/>
        <path d="M18.3213 8.21289H11.5833" stroke="#0057E8" stroke-width="1.5" stroke-linecap="round" stroke-linejoin="round"/>
        <path d="M11.5833 14.2129V18.7129" stroke="#0057E8" stroke-width="1.5" stroke-linecap="round" stroke-linejoin="round"/>
        <path d="M8.58325 14.2129V5.21289C8.58325 4.81507 8.42521 4.43354 8.14391 4.15223C7.86261 3.87093 7.48107 3.71289 7.08325 3.71289H5.58325" stroke="#0057E8" stroke-width="1.5" stroke-linecap="round" stroke-linejoin="round"/>
    </g>
    <defs>
        <clipPath id="clip0_1128_18329">
            <rect width="24" height="24" fill="white" transform="translate(0.333252)"/>
        </clipPath>
    </defs>
</svg>