<svg xmlns="http://www.w3.org/2000/svg" width="23" height="24" viewBox="0 0 23 24" fill="none">
    <path d="M8.48255 9.61184C10.6808 9.61184 12.4629 7.82977 12.4629 5.63148C12.4629 3.43319 10.6808 1.65112 8.48255 1.65112C6.28427 1.65112 4.5022 3.43319 4.5022 5.63148C4.5022 7.82977 6.28427 9.61184 8.48255 9.61184Z" stroke="#239546" stroke-width="1.71" stroke-linecap="round" stroke-linejoin="round"/>
    <path d="M10.8707 20.7568H1.31787V19.8937C1.33055 18.6801 1.65059 17.4895 2.24811 16.4333C2.84564 15.377 3.70115 14.4893 4.73472 13.8533C5.76831 13.2172 6.94624 12.8535 8.15848 12.7961C9.37074 12.7387 10.5778 12.9895 11.6668 13.5251" stroke="#239546" stroke-width="1.71" stroke-linecap="round" stroke-linejoin="round"/>
    <path d="M17.2393 12.7961V22.349" stroke="#239546" stroke-width="1.71" stroke-linecap="round" stroke-linejoin="round"/>
    <path d="M12.4629 17.5725H22.0157" stroke="#239546" stroke-width="1.71" stroke-linecap="round" stroke-linejoin="round"/>
</svg>