<svg width="25" height="24" viewBox="0 0 25 24" fill="none" xmlns="http://www.w3.org/2000/svg">
<g id="Airplane--Streamline-Core">
<g id="airplane--travel-plane-adventure-airplane-transportation">
<path id="Vector" d="M2.64279 4.71437H5.40279C5.59352 4.71339 5.77892 4.77735 5.92847 4.89575C6.07803 5.01414 6.18282 5.17991 6.22564 5.36579L7.09993 8.79437L15.6714 7.08008C16.5834 6.90121 17.5237 6.92552 18.4252 7.15127C19.3269 7.37703 20.1676 7.79869 20.8878 8.38626C21.6079 8.97382 22.1898 9.71285 22.5918 10.5508C22.9939 11.3887 23.2063 12.305 23.2142 13.2344C23.2142 13.689 23.0335 14.1251 22.7121 14.4465C22.3907 14.768 21.9546 14.9487 21.4999 14.9487H13.9571L12.2428 17.6572C11.933 18.1401 11.507 18.5375 11.0039 18.813C10.5007 19.0885 9.93646 19.2333 9.36279 19.2343H7.47707C7.3305 19.2331 7.18667 19.1944 7.05934 19.1219C6.932 19.0492 6.8254 18.9453 6.74974 18.8197C6.67408 18.6942 6.63186 18.5514 6.62715 18.4048C6.62243 18.2584 6.65536 18.113 6.72279 17.9829L8.23136 15.0001H3.49993C3.04527 15.0001 2.60924 14.8195 2.28774 14.498C1.96626 14.1765 1.78564 13.7404 1.78564 13.2858V5.57151C1.78564 5.34418 1.87595 5.12616 2.03669 4.96541C2.19744 4.80466 2.41546 4.71437 2.64279 4.71437Z" stroke="#353535" stroke-width="1.5" stroke-linecap="round" stroke-linejoin="round"/>
</g>
</g>
</svg>
