<svg width="14" height="14" viewBox="0 0 14 14" fill="none" xmlns="http://www.w3.org/2000/svg">
<g id="bag-suitcase-4--product-business-briefcase">
<path id="Rectangle 97" d="M1.04592 4.15217C1.10717 3.53004 1.533 3.02983 2.14987 2.92833C3.01962 2.78483 4.54125 2.625 7 2.625C9.45875 2.625 10.9804 2.78483 11.8504 2.92833C12.467 3.02983 12.8931 3.53004 12.9541 4.15217C13.0346 4.96796 13.125 6.24925 13.125 7.875C13.125 9.50075 13.0346 10.782 12.9541 11.5978C12.8928 12.22 12.467 12.7202 11.8501 12.8217C10.9804 12.9652 9.45875 13.125 7 13.125C4.54125 13.125 3.01992 12.9652 2.14958 12.8217C1.533 12.7202 1.10687 12.22 1.04592 11.5978C0.965417 10.782 0.875 9.50075 0.875 7.875C0.875 6.24954 0.965417 4.96796 1.04592 4.15217Z" stroke="#353535" stroke-linecap="round" stroke-linejoin="round"/>
<path id="Intersect" d="M13.1209 7.28345C11.55 7.7787 8.30376 8.74995 7.00001 8.74995C5.69626 8.74995 2.45001 7.7787 0.879089 7.28345" stroke="#353535" stroke-linecap="round" stroke-linejoin="round"/>
<path id="Subtract" d="M4.8819 2.68329C5.01519 2.27263 5.24298 1.79313 5.4139 1.45713C5.55331 1.18354 5.80473 0.986085 6.10923 0.945252C6.40454 0.90639 6.70212 0.887292 6.99998 0.888085C7.3631 0.888085 7.6644 0.914627 7.89044 0.945252C8.19494 0.986085 8.44636 1.18354 8.58577 1.45713C8.75669 1.79313 8.98448 2.27263 9.11777 2.683" stroke="#353535" stroke-linecap="round" stroke-linejoin="round"/>
</g>
</svg>
