<svg xmlns="http://www.w3.org/2000/svg" width="15" height="14" viewBox="0 0 15 14" fill="none">
    <g clip-path="url(#clip0_1555_23654)">
        <path d="M11.8098 10H11.8771C12.2497 10 12.5915 10.2072 12.7638 10.5377L13.9271 12.7688C14.1007 13.1017 13.8592 13.5 13.4838 13.5H1.50897C1.13517 13.5 0.89355 13.1048 1.06392 12.7721L2.20473 10.5442C2.37579 10.2102 2.71951 10 3.09482 10H3.15979" stroke="#5A5A5A" stroke-linecap="round" stroke-linejoin="round"/>
        <path d="M7.55813 0.5H7.44054C4.99449 0.5 2.96431 2.39034 2.79004 4.83018C2.70513 6.01892 2.97339 7.22509 3.69545 8.17323C4.59796 9.35832 5.51431 10.1785 6.96259 11.1488C7.28697 11.3661 7.71171 11.3661 8.03609 11.1488C9.48437 10.1785 10.4007 9.35832 11.3033 8.17323C12.0253 7.22509 12.2936 6.01892 12.2087 4.83018C12.0344 2.39034 10.0042 0.5 7.55813 0.5Z" stroke="#5A5A5A" stroke-linecap="round" stroke-linejoin="round"/>
        <path d="M7.5 6.5C8.46 6.5 9 5.96 9 5C9 4.04 8.46 3.5 7.5 3.5C6.54 3.5 6 4.04 6 5C6 5.96 6.54 6.5 7.5 6.5Z" stroke="#5A5A5A" stroke-linecap="round" stroke-linejoin="round"/>
    </g>
    <defs>
        <clipPath id="clip0_1555_23654">
            <rect width="14" height="14" fill="white" transform="translate(0.5)"/>
        </clipPath>
    </defs>
</svg>