<svg xmlns="http://www.w3.org/2000/svg" width="176" height="31" viewBox="0 0 176 31" fill="none">
    <g clip-path="url(#clip0_5_1000)">
        <mask id="mask0_5_1000" style="mask-type:luminance" maskUnits="userSpaceOnUse" x="0" y="0" width="176" height="31">
            <path d="M175.167 0H0V31H175.167V0Z" fill="white"/>
        </mask>
        <g mask="url(#mask0_5_1000)">
            <path d="M54.3155 0.0795898H23.8774L29.92 9.58096L38.3617 11.277L38.187 12.1222L48.014 9.90433L44.4098 4.82176L44.9955 4.70265L50.8804 9.12716C53.2005 8.72442 55.3405 8.52021 55.4531 9.10447C55.5657 9.68878 53.5385 10.4602 51.2407 10.9821L47.5184 17.4713L46.9327 17.5905L48.3688 11.4075L37.6577 14.6975L34.5209 30.1095H41.1605C42.6753 30.1095 43.9874 29.0375 44.2915 27.5457L45.2208 23.07C45.4291 22.066 46.3076 21.3399 47.3326 21.3399H53.4539C57.4635 21.3399 60.91 18.4753 61.6702 14.5103L62.5149 10.1142C63.5343 4.91253 59.5753 0.0795898 54.3155 0.0795898Z" fill="#6A1212"/>
            <path d="M25.9384 18.2991C24.9698 18.594 24.2434 19.3938 24.0293 20.3865L23.9731 20.6361C23.8886 20.9934 23.5789 21.2431 23.2128 21.2487L17.9193 21.2884L19.6143 13.8462H14.6305C12.0512 13.8462 9.82682 15.6671 9.29747 18.214L6.80273 30.2225H25.9216C29.0808 30.2225 31.8009 27.9876 32.4316 24.8734L34.2505 15.7464L25.9384 18.2991Z" fill="#B92F2E"/>
            <path d="M22.0132 10.3634H25.9214L25.5104 12.5303C25.2794 13.7442 26.3607 14.7936 27.5546 14.5213L48.0812 9.88688L37.4378 10.2897C36.3002 10.335 35.4218 9.28563 35.6527 8.16248L35.6752 8.04903C36.5311 3.89112 33.3776 -0.00585938 29.1652 -0.00585938H24.0969L22.0076 10.3577L22.0132 10.3634Z" fill="#B92F2E"/>
            <path d="M1.0193 0.0229492C0.456149 0.0229492 0 0.482418 0 1.04399C0 1.60557 0.456149 2.07071 1.0193 2.07071H22.2668C22.7793 2.07071 23.2467 2.43942 23.303 2.95561C23.3649 3.54555 22.9032 4.05039 22.3287 4.05039H15.7231C15.1599 4.05039 14.7038 4.50986 14.7038 5.07711C14.7038 5.64436 15.1599 6.10382 15.7231 6.10382H18.0376C18.6401 6.10382 19.13 6.59734 19.13 7.20429C19.13 7.81124 18.6401 8.30475 18.0376 8.30475H10.9251C10.3563 8.30475 9.88889 8.76988 9.88889 9.34848C9.88889 9.92703 10.3506 10.3922 10.9251 10.3922H24.5251V0.0229492H1.0193Z" fill="#B92F2E"/>
            <path d="M13.5829 5.07652C13.5829 4.50927 13.1267 4.0498 12.5636 4.0498H4.38111C3.81796 4.0498 3.36182 4.50927 3.36182 5.07652C3.36182 5.64377 3.81796 6.10324 4.38111 6.10324H12.5636C13.1267 6.10324 13.5829 5.64377 13.5829 5.07652Z" fill="#B92F2E"/>
            <path d="M74.6731 21.6068C72.781 21.6068 71.0634 21.2324 69.526 20.4836C67.9886 19.7348 66.8285 18.555 66.0513 16.9554C65.2685 15.3557 65.094 13.3477 65.5164 10.9426C65.9387 8.50907 66.8228 6.48968 68.1688 4.87303C69.5091 3.26204 71.0803 2.0765 72.8823 1.32774C74.6844 0.578972 76.5315 0.20459 78.4237 0.20459C79.3923 0.20459 80.2934 0.295349 81.1156 0.476868C81.9377 0.658386 82.8669 0.907975 83.8974 1.22563C84.2804 1.36177 84.6634 1.48657 85.0519 1.60002C85.4405 1.71347 85.7727 1.79288 86.0599 1.83826L83.5708 7.35756C83.3738 7.31218 83.1316 7.23277 82.8332 7.11932C82.5346 7.00587 82.2362 6.86973 81.9208 6.7109C81.1831 6.41594 80.5129 6.18337 79.9104 6.01319C79.3079 5.84302 78.6377 5.75793 77.8943 5.75793C76.9482 5.75793 76.0247 5.94512 75.1237 6.31951C74.2226 6.69389 73.4454 7.27247 72.7866 8.06095C72.1277 8.84375 71.7053 9.80235 71.5026 10.9426C71.3055 12.0771 71.3957 13.0357 71.7785 13.8072C72.1615 14.5786 72.7415 15.1459 73.513 15.5089C74.2846 15.872 75.1405 16.0534 76.0923 16.0534C76.9707 16.0534 77.8493 15.9513 78.7165 15.7472C79.5838 15.543 80.3553 15.3047 81.0255 15.0324C81.6956 14.7601 82.1798 14.5219 82.4896 14.3177L83.216 19.2584C82.0053 19.9845 80.7551 20.5574 79.4655 20.9772C78.1759 21.3969 76.5822 21.6068 74.6844 21.6068H74.6731ZM83.7905 21.1303C85.204 18.6061 86.3246 16.5073 87.1637 14.8225L91.1227 7.08528C91.7365 5.76928 92.2095 4.5497 92.5418 3.43789C92.874 2.32609 93.0655 1.40715 93.1274 0.675403H103.788C103.591 1.42417 103.455 2.37714 103.388 3.52298C103.321 4.66881 103.376 5.90541 103.551 7.22142L104.784 14.8565C105.033 16.5413 105.421 18.6287 105.956 21.1303H98.2407C98.432 20.0412 98.5561 18.9067 98.6129 17.7382C98.6686 16.5696 98.6523 15.5372 98.5619 14.6524L97.5934 4.90139H97.4578L93.0036 14.6864C92.6093 15.5259 92.2433 16.5299 91.8998 17.7041C91.5619 18.8727 91.269 20.0185 91.0269 21.1303H83.7848H83.7905ZM89.9851 12.9847H102.571L101.946 16.5639H89.36L89.9851 12.9847ZM107.409 21.1303C107.685 20.5857 108 19.6838 108.355 18.4189C108.709 17.1596 109.054 15.5826 109.385 13.6993L110.484 7.42563C110.793 5.65583 110.979 4.198 111.046 3.06351C111.109 1.92902 111.092 1.13487 110.991 0.675403H117.185L114.904 13.6937C114.572 15.5826 114.375 17.1539 114.313 18.4132C114.251 19.6725 114.285 20.5801 114.414 21.1246H107.409V21.1303ZM115.292 9.71167H120.029C121.065 9.71167 121.848 9.54146 122.372 9.20111C122.895 8.86076 123.222 8.30486 123.357 7.52774C123.498 6.73359 123.317 6.12664 122.828 5.70688C122.338 5.28712 121.482 5.07723 120.266 5.07723H116.07L116.842 0.681076H122.901C124.297 0.681076 125.474 0.947682 126.432 1.48089C127.389 2.0141 128.06 2.75152 128.448 3.69882C128.837 4.64045 128.921 5.71822 128.713 6.92078C128.324 9.12737 127.429 10.7894 126.009 11.9126C124.596 13.0357 122.828 13.5972 120.705 13.5972H114.612L115.292 9.71167ZM120.198 21.1303C120.147 20.9034 120.108 20.6878 120.074 20.4836C120.012 19.9391 119.888 19.2584 119.702 18.4358C119.516 17.6134 119.24 16.6547 118.875 15.5372L117.225 11.4474H122.737L124.168 14.8906C124.646 16.2804 125.182 17.4545 125.768 18.4189C126.354 19.3832 126.905 20.1376 127.417 20.6878C127.547 20.8467 127.677 20.9941 127.812 21.1303H120.198ZM139.672 21.6068C137.779 21.6068 136.061 21.2324 134.525 20.4836C132.987 19.7348 131.827 18.555 131.05 16.9554C130.267 15.3557 130.093 13.3477 130.515 10.9426C130.943 8.50907 131.838 6.49534 133.212 4.89004C134.586 3.29041 136.197 2.10486 138.044 1.34475C139.891 0.584644 141.761 0.20459 143.658 0.20459C144.695 0.20459 145.64 0.284004 146.492 0.442833C147.342 0.601662 148.299 0.817215 149.358 1.0895C149.786 1.22563 150.214 1.33909 150.636 1.42984C151.058 1.5206 151.442 1.57732 151.774 1.60002L149.318 6.91511C148.811 6.57476 148.001 6.22307 146.88 5.86003C145.759 5.497 144.532 5.31547 143.202 5.31547C142.189 5.31547 141.209 5.52535 140.268 5.94512C139.328 6.36488 138.511 6.98885 137.824 7.81703C137.138 8.64521 136.692 9.65491 136.484 10.8347C136.27 12.06 136.355 13.1037 136.732 13.9546C137.109 14.8055 137.684 15.4409 138.444 15.8606C139.204 16.2804 140.06 16.4902 141.006 16.4902C141.862 16.4902 142.713 16.3768 143.552 16.1499C144.391 15.923 145.123 15.662 145.737 15.367C145.985 15.2536 146.187 15.1628 146.362 15.0948L144.672 16.8305L145.742 10.727L147.364 12.4684H144.047C142.875 12.4684 141.761 12.6273 140.713 12.945L141.305 9.56982H150.979C150.529 10.8405 150.191 12.1395 149.961 13.4555L148.991 18.9805C148.873 19.0258 148.721 19.0882 148.535 19.1676C148.35 19.2471 148.147 19.3548 147.922 19.4909C146.902 20.0128 146.131 20.3191 145.596 20.4099C144.863 20.7275 143.985 21.0055 142.96 21.2438C141.936 21.482 140.837 21.6011 139.666 21.6011L139.672 21.6068ZM161.938 21.6068C160.018 21.6068 158.295 21.2324 156.757 20.4836C155.22 19.7348 154.065 18.555 153.3 16.9554C152.534 15.3557 152.359 13.3477 152.781 10.9426C153.209 8.50907 154.088 6.48968 155.417 4.87303C156.746 3.26204 158.317 2.0765 160.114 1.32774C161.916 0.578972 163.774 0.20459 165.689 0.20459C167.604 0.20459 169.377 0.578972 170.937 1.32774C172.497 2.0765 173.663 3.26204 174.428 4.87303C175.195 6.48968 175.363 8.50907 174.941 10.9426C174.519 13.3761 173.641 15.3841 172.312 16.9781C170.983 18.5721 169.411 19.7406 167.587 20.4893C165.762 21.2381 163.881 21.6125 161.944 21.6125L161.938 21.6068ZM162.946 16.0534C163.825 16.0534 164.658 15.906 165.441 15.611C166.224 15.316 166.916 14.7941 167.508 14.0454C168.099 13.2966 168.51 12.2756 168.741 10.9766C168.967 9.68327 168.916 8.64521 168.589 7.87376C168.263 7.1023 167.762 6.55774 167.08 6.24009C166.404 5.92243 165.622 5.7636 164.743 5.7636C163.865 5.7636 163.037 5.92243 162.259 6.24009C161.482 6.55774 160.795 7.1023 160.198 7.87376C159.601 8.64521 159.191 9.6776 158.96 10.9766C158.734 12.2699 158.779 13.2909 159.1 14.0454C159.421 14.7941 159.922 15.316 160.603 15.611C161.285 15.906 162.068 16.0534 162.946 16.0534Z" fill="url(#paint0_linear_5_1000)"/>
            <path d="M52.1136 27.1081C52.0067 27.0741 51.8602 27.0457 51.68 27.0231C51.4998 27.0003 51.2971 26.989 51.0718 26.989H50.1201C49.8892 26.989 49.6752 27.0003 49.4837 27.0231C49.2922 27.0457 49.1402 27.0741 49.022 27.1081L49.2472 26.0928H52.2432L52.1136 27.1081ZM50.2102 26.0928H51.2746L50.8747 28.3958C50.8184 28.7077 50.7846 28.98 50.7733 29.2013C50.7621 29.4225 50.7677 29.5927 50.7846 29.7061H49.4387C49.495 29.5927 49.5569 29.4225 49.6245 29.2013C49.6921 28.9743 49.7541 28.7077 49.8103 28.3958L50.2102 26.0928Z" fill="#6A1212"/>
            <path d="M51.9504 29.707C52.0011 29.6106 52.0518 29.4517 52.1137 29.2305C52.1757 29.0093 52.232 28.7313 52.294 28.3966L52.4855 27.3019C52.5474 26.9615 52.5868 26.6723 52.6037 26.434C52.6206 26.1957 52.6263 26.0256 52.6149 25.9178C52.767 25.9178 52.9134 25.9121 53.0598 25.8894C53.2063 25.8725 53.3583 25.8441 53.5216 25.8157C53.6004 25.7987 53.6793 25.7817 53.7581 25.7646C53.6962 25.9235 53.6286 26.156 53.5554 26.451C53.4822 26.746 53.409 27.0976 53.3414 27.4947L53.1837 28.3966C53.1274 28.7313 53.088 29.0093 53.0711 29.2305C53.0542 29.4517 53.0542 29.6106 53.0711 29.707H51.9504ZM54.0171 29.707C54.0678 29.5935 54.1242 29.4177 54.1918 29.1851C54.2537 28.9469 54.3157 28.6632 54.3776 28.3229L54.4283 28.0393C54.4565 27.8805 54.4283 27.7557 54.3438 27.6649C54.2593 27.5742 54.1411 27.5287 53.9778 27.5287C53.8258 27.5287 53.6962 27.5685 53.5836 27.6536C53.471 27.7387 53.3864 27.8408 53.3245 27.9599C53.2626 28.079 53.2231 28.1924 53.2063 28.3059H53.1612L53.2738 27.6649H53.3808C53.4653 27.3302 53.6004 27.0694 53.7976 26.8821C53.9946 26.6949 54.2425 26.6042 54.5409 26.6042C54.8619 26.6042 55.1041 26.6949 55.2561 26.8821C55.4081 27.0694 55.4588 27.3189 55.4025 27.6423L55.2842 28.3229C55.228 28.6576 55.1885 28.9413 55.166 29.1795C55.1434 29.4177 55.1379 29.5935 55.1491 29.7127H54.0285L54.0171 29.707Z" fill="#6A1212"/>
            <path d="M57.137 26.6945C57.0976 26.7683 57.0469 26.9157 56.9906 27.1312C56.9343 27.3468 56.8723 27.6247 56.816 27.9651L56.7766 28.175C56.7484 28.3395 56.7484 28.4757 56.7766 28.5778C56.7991 28.6799 56.8554 28.7592 56.9286 28.8047C57.0075 28.85 57.1088 28.8784 57.2327 28.8784C57.3848 28.8784 57.5086 28.8444 57.61 28.7706C57.7114 28.7026 57.7902 28.6118 57.8465 28.504C57.9029 28.3962 57.9423 28.2771 57.9648 28.141L57.993 27.9651C58.0549 27.6247 58.0944 27.3468 58.1112 27.1256C58.1281 26.9101 58.1338 26.7625 58.1225 26.6831H59.215C59.17 26.7909 59.1136 26.9668 59.0517 27.205C58.9897 27.4433 58.9278 27.7326 58.8714 28.0786L58.8152 28.3849C58.7588 28.6968 58.7251 28.9634 58.7026 29.1904C58.6856 29.4116 58.68 29.5818 58.6913 29.6952H57.779C57.7958 29.4797 57.8353 29.1904 57.9029 28.816H57.8634C57.8184 29.0032 57.7508 29.1734 57.6607 29.3152C57.5706 29.457 57.441 29.5761 57.2777 29.6669C57.1144 29.7576 56.9061 29.7973 56.6527 29.7973C56.3204 29.7973 56.0782 29.7066 55.9262 29.5194C55.7741 29.3322 55.7291 29.0656 55.7911 28.7082L55.9037 28.0842C55.9656 27.7439 56.005 27.4546 56.0276 27.2107C56.0502 26.9725 56.0557 26.7966 56.0445 26.6888H57.1426L57.137 26.6945Z" fill="#6A1212"/>
            <path d="M60.4146 29.707C60.4652 29.6106 60.5159 29.4517 60.5779 29.2305C60.6398 29.0093 60.6961 28.7313 60.7581 28.3966L60.9496 27.3019C61.0115 26.9615 61.0508 26.6723 61.0678 26.434C61.0847 26.1957 61.0903 26.0256 61.079 25.9178C61.2311 25.9178 61.3775 25.9121 61.5239 25.8894C61.6703 25.8725 61.8224 25.8441 61.9857 25.8157C62.0645 25.7987 62.1434 25.7817 62.2223 25.7646C62.1603 25.9235 62.0927 26.156 62.0195 26.451C61.9463 26.746 61.873 27.0976 61.8055 27.4947L61.6478 28.3966C61.5915 28.7313 61.5521 29.0093 61.5352 29.2305C61.5183 29.4517 61.5183 29.6106 61.5352 29.707H60.4146ZM62.4813 29.707C62.5319 29.5935 62.5883 29.4177 62.6558 29.1851C62.7178 28.9469 62.7798 28.6632 62.8417 28.3229L62.8924 28.0393C62.9206 27.8805 62.8924 27.7557 62.8079 27.6649C62.7234 27.5742 62.6051 27.5287 62.4418 27.5287C62.2898 27.5287 62.1603 27.5685 62.0477 27.6536C61.9351 27.7387 61.8505 27.8408 61.7886 27.9599C61.7267 28.079 61.6872 28.1924 61.6703 28.3059H61.6253L61.7379 27.6649H61.845C61.9294 27.3302 62.0645 27.0694 62.2617 26.8821C62.4587 26.6949 62.7065 26.6042 63.005 26.6042C63.326 26.6042 63.5681 26.6949 63.7202 26.8821C63.8722 27.0694 63.9229 27.3189 63.8666 27.6423L63.7484 28.3229C63.692 28.6576 63.6527 28.9413 63.6301 29.1795C63.6076 29.4177 63.602 29.5935 63.6132 29.7127H62.4925L62.4813 29.707Z" fill="#6A1212"/>
            <path d="M64.3285 28.3284L64.3961 27.937H66.6373L66.5079 28.0618H66.4853C66.5022 27.9653 66.4966 27.8632 66.474 27.7611C66.4515 27.659 66.3953 27.5682 66.3164 27.4889C66.2375 27.4151 66.1192 27.3754 65.9672 27.3754C65.8377 27.3754 65.7082 27.4037 65.5899 27.4661C65.4717 27.5286 65.3647 27.6192 65.2745 27.7384C65.1844 27.8576 65.1225 28.0163 65.0943 28.1979C65.0605 28.385 65.0718 28.5439 65.1225 28.663C65.1732 28.7821 65.252 28.8729 65.3647 28.9297C65.4717 28.9863 65.6068 29.0147 65.7645 29.0147C65.9785 29.0147 66.1756 28.9921 66.3502 28.9466C66.5247 28.9013 66.6937 28.8389 66.857 28.7708C66.8795 28.7595 66.8964 28.7481 66.9189 28.7424L66.9696 29.5139C66.9134 29.5253 66.812 29.5479 66.6768 29.5876C66.4853 29.65 66.2939 29.6954 66.108 29.7351C65.9222 29.7748 65.7307 29.7919 65.5336 29.7919C65.2183 29.7919 64.9479 29.7351 64.7283 29.6217C64.503 29.5082 64.3454 29.3324 64.2496 29.0942C64.1539 28.8559 64.1314 28.561 64.1933 28.2036C64.2553 27.8518 64.3735 27.5569 64.5537 27.3186C64.7339 27.0804 64.9536 26.9046 65.2126 26.7912C65.4717 26.672 65.7589 26.6152 66.0742 26.6152C66.3558 26.6152 66.5923 26.672 66.7951 26.7797C66.9978 26.8875 67.1386 27.0578 67.223 27.2789C67.3075 27.5002 67.3244 27.7781 67.268 28.1015C67.2568 28.1752 67.24 28.2432 67.223 28.3057L67.2118 28.3284H64.3454H64.3285ZM65.2295 30.9661C65.055 30.9661 64.9254 30.9206 64.8353 30.8356C64.7509 30.7505 64.717 30.637 64.7452 30.4953C64.7677 30.3534 64.841 30.24 64.9592 30.1492C65.0775 30.0585 65.2239 30.0187 65.3984 30.0187C65.5731 30.0187 65.7025 30.0641 65.7926 30.1492C65.8772 30.24 65.9109 30.3534 65.8827 30.4953C65.8602 30.637 65.7871 30.7505 65.6688 30.8356C65.5505 30.9206 65.4041 30.9661 65.2295 30.9661Z" fill="#6A1212"/>
            <path d="M67.0876 30.9089C67.1496 30.7274 67.2171 30.5005 67.2847 30.2339C67.3523 29.9616 67.4143 29.6723 67.4705 29.3604L67.6958 28.0897C67.7521 27.7664 67.7916 27.4885 67.8085 27.2445C67.831 27.0062 67.831 26.8191 67.8253 26.6943H68.7826L68.6532 27.7777H68.6475L68.3716 29.3547C68.3152 29.6667 68.2759 29.9616 68.2533 30.2282C68.2252 30.5005 68.2139 30.7274 68.2139 30.9032H67.0876V30.9089ZM68.5236 28.447C68.5236 28.5094 68.5461 28.5719 68.5968 28.6343C68.6419 28.7023 68.7151 28.7591 68.8221 28.8044C68.9234 28.8499 69.0587 28.8781 69.222 28.8781C69.4641 28.8781 69.6443 28.8271 69.7626 28.7194C69.8809 28.6115 69.9596 28.4698 70.0047 28.2883L70.0216 28.1975C70.0216 28.1635 70.0329 28.1407 70.0329 28.1181C70.061 27.8969 70.0329 27.738 69.9371 27.6472C69.847 27.5509 69.7006 27.5054 69.4979 27.5054C69.3121 27.5054 69.16 27.5338 69.0305 27.5906C68.9009 27.6472 68.8052 27.721 68.732 27.8004C68.6644 27.8798 68.6193 27.9536 68.6081 28.0217H68.518C68.5293 27.9479 68.5406 27.8798 68.5574 27.8117C68.5686 27.7494 68.58 27.687 68.5912 27.6246H68.732C68.8333 27.2899 68.991 27.0403 69.1938 26.8645C69.3965 26.6886 69.6555 26.6035 69.9709 26.6035C70.3708 26.6035 70.6524 26.7453 70.8269 27.0233C70.9958 27.3012 71.0409 27.6927 70.9508 28.1975C70.8889 28.5378 70.7875 28.8271 70.6354 29.0654C70.4834 29.3036 70.2919 29.4794 70.0667 29.6042C69.8358 29.7291 69.5711 29.7858 69.2726 29.7858C69.0361 29.7858 68.8447 29.7404 68.7094 29.6553C68.5743 29.5702 68.4842 29.4284 68.4392 29.2412C68.3941 29.0541 68.3941 28.7875 68.4392 28.4528L68.5406 28.4188V28.4414L68.5236 28.447Z" fill="#6A1212"/>
            <path d="M72.3252 29.707C72.3702 29.6106 72.4209 29.4517 72.4828 29.2305C72.5448 29.0093 72.6011 28.7313 72.6631 28.3966L72.8545 27.3019C72.9165 26.9615 72.9559 26.6723 72.9727 26.434C72.9897 26.1957 72.9953 26.0256 72.9897 25.9178C73.136 25.9178 73.2825 25.9121 73.4346 25.8894C73.581 25.8725 73.7387 25.8441 73.902 25.8157C73.9808 25.7987 74.0596 25.7817 74.1329 25.7646C74.0765 25.9235 74.0089 26.156 73.9357 26.451C73.8625 26.746 73.7894 27.0976 73.7218 27.4947L73.5641 28.3966C73.5078 28.7313 73.4683 29.0093 73.4514 29.2305C73.4346 29.4517 73.4289 29.6106 73.4402 29.707H72.3252ZM74.8875 29.7921C74.7185 29.7921 74.5665 29.7524 74.4426 29.6787C74.3187 29.6049 74.2117 29.5142 74.1272 29.4064C74.0428 29.2986 73.9639 29.1682 73.8907 29.0206C73.8626 28.9639 73.84 28.9072 73.8119 28.8561C73.7837 28.8051 73.7612 28.754 73.7387 28.7087V27.9769L74.1385 27.9882C74.3863 27.9996 74.5609 27.9713 74.6678 27.9089C74.7749 27.8465 74.8424 27.7613 74.865 27.6649V27.6479C74.8818 27.5628 74.8593 27.5005 74.7917 27.4607C74.7298 27.421 74.6397 27.3983 74.5327 27.3983C74.3863 27.3983 74.2455 27.4381 74.116 27.5118C73.9864 27.5855 73.8795 27.6819 73.7894 27.8011C73.6992 27.9202 73.6429 28.0393 73.6204 28.1641H73.5303L73.6148 27.6706H73.7218C73.7837 27.455 73.8851 27.2679 74.0203 27.109C74.1554 26.9502 74.313 26.831 74.4989 26.746C74.6791 26.6609 74.8706 26.6212 75.0733 26.6212C75.276 26.6212 75.4393 26.6552 75.552 26.7289C75.6703 26.797 75.7491 26.8878 75.7829 26.9899C75.8223 27.092 75.8279 27.2055 75.8111 27.3132C75.7716 27.5345 75.6759 27.716 75.5239 27.8634C75.3718 28.0053 75.1803 28.1131 74.9494 28.1811C74.7185 28.2492 74.4651 28.2776 74.1892 28.2663L74.3525 28.096C74.3694 28.1698 74.3919 28.2435 74.4144 28.3059C74.4538 28.4194 74.5045 28.5214 74.5609 28.6066C74.6171 28.6973 74.6903 28.7654 74.7749 28.8164C74.8593 28.8675 74.9607 28.8902 75.079 28.8902C75.124 28.8902 75.1691 28.8845 75.2141 28.8675C75.2591 28.8505 75.2985 28.8335 75.338 28.8221C75.3718 28.8108 75.4056 28.7995 75.4393 28.7937C75.4732 28.7881 75.5069 28.7824 75.5407 28.7767L75.4393 29.6616C75.3774 29.707 75.2985 29.7467 75.2141 29.7751C75.1297 29.8035 75.0226 29.8148 74.8987 29.8148L74.8875 29.7921Z" fill="#6A1212"/>
            <path d="M75.7378 29.707C75.7885 29.6106 75.8392 29.4517 75.9011 29.2305C75.963 29.0093 76.0194 28.7313 76.0813 28.3966L76.2728 27.3019C76.3347 26.9615 76.3742 26.6723 76.391 26.434C76.4079 26.1957 76.4135 26.0256 76.4023 25.9178C76.5543 25.9178 76.7008 25.9121 76.8472 25.8894C76.9936 25.8725 77.1457 25.8441 77.309 25.8157C77.3878 25.7987 77.4666 25.7817 77.5455 25.7646C77.4836 25.9235 77.4159 26.156 77.3428 26.451C77.2696 26.746 77.1964 27.0976 77.1288 27.4947L76.971 28.3966C76.9148 28.7313 76.8753 29.0093 76.8584 29.2305C76.8416 29.4517 76.8416 29.6106 76.8584 29.707H75.7378ZM77.8045 29.707C77.8552 29.5935 77.9115 29.4177 77.9791 29.1851C78.0411 28.9469 78.103 28.6632 78.165 28.3229L78.2156 28.0393C78.2438 27.8805 78.2156 27.7557 78.1312 27.6649C78.0467 27.5742 77.9285 27.5287 77.7652 27.5287C77.6131 27.5287 77.4836 27.5685 77.3709 27.6536C77.2583 27.7387 77.1738 27.8408 77.1118 27.9599C77.0499 28.079 77.0105 28.1924 76.9936 28.3059H76.9485L77.0612 27.6649H77.1682C77.2526 27.3302 77.3878 27.0694 77.5849 26.8821C77.782 26.6949 78.0298 26.6042 78.3283 26.6042C78.6493 26.6042 78.8914 26.6949 79.0434 26.8821C79.1955 27.0694 79.2462 27.3189 79.1899 27.6423L79.0716 28.3229C79.0153 28.6576 78.9759 28.9413 78.9534 29.1795C78.9308 29.4177 78.9252 29.5935 78.9365 29.7127H77.8158L77.8045 29.707Z" fill="#6A1212"/>
            <path d="M80.8566 29.7919C80.5357 29.7919 80.2598 29.7295 80.0344 29.6103C79.8092 29.4912 79.6459 29.3097 79.5502 29.0771C79.4544 28.8445 79.4376 28.5495 79.4938 28.2036C79.5502 27.8576 79.674 27.5682 79.8543 27.33C80.0344 27.0918 80.2541 26.9159 80.5244 26.7968C80.7947 26.6776 81.0875 26.6152 81.4141 26.6152C81.7408 26.6152 82.0168 26.6776 82.242 26.7968C82.4673 26.9159 82.6249 27.0974 82.7263 27.33C82.8221 27.5682 82.8446 27.8576 82.7826 28.2036C82.7207 28.5495 82.6024 28.8389 82.4223 29.0771C82.242 29.3153 82.0168 29.4912 81.7521 29.6103C81.4874 29.7295 81.1889 29.7919 80.8623 29.7919H80.8566ZM80.4174 28.2036C80.3949 28.3453 80.4006 28.4645 80.4456 28.5666C80.4906 28.6687 80.5582 28.7481 80.6539 28.7992C80.7553 28.8502 80.8735 28.8786 81.0143 28.8786C81.1551 28.8786 81.2903 28.8502 81.4086 28.7992C81.5268 28.7481 81.6226 28.6687 81.7014 28.5666C81.7746 28.4645 81.8253 28.3453 81.8535 28.2036C81.876 28.0618 81.8703 27.9426 81.8309 27.8405C81.7914 27.7384 81.7182 27.659 81.6226 27.6079C81.5212 27.5569 81.3973 27.5286 81.2565 27.5286C81.1157 27.5286 80.9806 27.5569 80.868 27.6079C80.7497 27.659 80.6539 27.7384 80.5751 27.8405C80.4963 27.9426 80.4456 28.0618 80.4231 28.2036H80.4174Z" fill="#6A1212"/>
            <path d="M83.6839 29.8031C83.3967 29.8031 83.1884 29.7236 83.0531 29.5648C82.918 29.406 82.873 29.1904 82.918 28.9181C82.9744 28.6062 83.1095 28.3849 83.3347 28.2545C83.56 28.124 83.8078 28.0616 84.0893 28.0616C84.3427 28.0616 84.675 28.09 85.0862 28.1467L85.0298 28.4587C84.9622 28.453 84.8665 28.436 84.7539 28.4246C84.6413 28.4077 84.5117 28.3962 84.3709 28.3849C84.2301 28.3736 84.1062 28.368 83.9936 28.368C83.9204 28.368 83.8472 28.3793 83.7909 28.3962C83.7289 28.4133 83.6783 28.4473 83.6388 28.4927C83.5994 28.5381 83.5712 28.5891 83.56 28.6572C83.5431 28.7593 83.5769 28.8388 83.667 28.8841C83.7571 28.9295 83.8866 28.9578 84.0556 28.9578C84.2245 28.9578 84.3878 28.9238 84.523 28.8557C84.6525 28.7877 84.7595 28.714 84.8383 28.6288C84.9172 28.5438 84.9735 28.4701 85.0016 28.4077H85.0805L85.0186 28.7707H84.9622C84.8778 28.9806 84.7821 29.162 84.675 29.3096C84.5681 29.4627 84.4329 29.5818 84.2695 29.6783C84.1062 29.7747 83.9092 29.8201 83.6839 29.8201V29.8031ZM84.8665 29.7067C84.9003 29.6102 84.9284 29.4854 84.9509 29.3322C84.9735 29.1791 84.9904 29.0089 84.9961 28.8161L85.0073 28.402V28.3169C85.0073 28.1637 84.9961 28.0333 84.9622 27.9141C84.9284 27.8007 84.8553 27.6985 84.7539 27.6192C84.6525 27.5341 84.5005 27.4943 84.309 27.4943C84.1569 27.4943 84.0105 27.5171 83.8697 27.5567C83.7289 27.5964 83.5994 27.6475 83.4755 27.6985L83.3854 27.7383V26.8987C83.4586 26.8817 83.5431 26.8534 83.6501 26.8137C83.8303 26.7513 83.9936 26.7002 84.1513 26.6605C84.3033 26.6208 84.478 26.6038 84.675 26.6038C85.0917 26.6038 85.3959 26.7116 85.593 26.9271C85.7901 27.1427 85.8858 27.466 85.8689 27.8971L85.8463 28.8274C85.8408 29.0656 85.8463 29.2585 85.8633 29.406C85.8802 29.5535 85.9027 29.6556 85.9309 29.701H84.8665V29.7067ZM84.202 26.4279L84.264 26.0592C84.264 26.0592 84.2977 26.0479 84.3147 26.0366C84.3822 26.0082 84.4498 25.9742 84.5174 25.9287C84.5849 25.889 84.6525 25.8437 84.7145 25.7983C84.7482 25.821 84.7821 25.838 84.8214 25.855C84.8608 25.8721 84.9003 25.8834 84.9454 25.8834C85.0073 25.8834 85.0523 25.8721 85.0862 25.8494C85.1199 25.8266 85.1424 25.7869 85.1481 25.7416C85.1594 25.6792 85.1481 25.6224 85.1142 25.5827C85.0805 25.5431 85.0073 25.5203 84.889 25.5203C84.7876 25.5203 84.6807 25.5487 84.5681 25.5998C84.4554 25.6508 84.3484 25.7132 84.2526 25.7756C84.2414 25.7756 84.2358 25.7813 84.2358 25.7869C84.2358 25.7869 84.2301 25.7869 84.2189 25.7983L84.1062 25.2821C84.1062 25.2821 84.14 25.2821 84.1626 25.2708C84.1851 25.2594 84.2133 25.2537 84.247 25.2424C84.3597 25.197 84.4723 25.1573 84.5962 25.1233C84.7201 25.0892 84.8553 25.0723 85.0073 25.0723C85.2551 25.0723 85.4353 25.1347 85.5536 25.2594C85.6718 25.3842 85.7112 25.5487 85.6775 25.7586C85.6493 25.9287 85.5761 26.0479 85.4578 26.116C85.3396 26.184 85.2213 26.2181 85.0862 26.2181C85.0129 26.2181 84.9454 26.2067 84.8834 26.1897C84.8271 26.1727 84.7764 26.15 84.7426 26.133H84.7257H84.7201L84.675 26.4337H84.1964L84.202 26.4279Z" fill="#6A1212"/>
            <path d="M86.1389 29.7063C86.1896 29.6042 86.2459 29.4341 86.3135 29.2015C86.381 28.9689 86.443 28.6796 86.4993 28.3336L86.5782 27.8855C86.6232 27.6302 86.6514 27.3977 86.6626 27.1878C86.6739 26.9779 86.6739 26.8134 86.6626 26.6943H87.575C87.575 26.7793 87.5637 26.8645 87.5525 26.9609C87.5411 27.0517 87.5355 27.1424 87.5243 27.2332C87.5074 27.4317 87.4904 27.6132 87.4792 27.772L87.3835 28.3336C87.3215 28.6796 87.2821 28.9689 87.2652 29.2015C87.2484 29.4341 87.2427 29.6042 87.2596 29.7063H86.1333H86.1389ZM88.2226 29.7063C88.2676 29.5929 88.324 29.4171 88.3915 29.1845C88.4591 28.9462 88.521 28.6626 88.5773 28.3223L88.628 28.0386C88.6562 27.8798 88.628 27.7551 88.5435 27.6643C88.4591 27.5735 88.3352 27.5281 88.1719 27.5281C88.0199 27.5281 87.8903 27.5678 87.7777 27.653C87.6651 27.738 87.5805 27.8401 87.5186 27.9593C87.4567 28.0783 87.4172 28.1918 87.3947 28.3052H87.3497L87.4623 27.6643H87.575C87.6537 27.3296 87.789 27.0687 87.986 26.8814C88.1832 26.6943 88.4309 26.6035 88.7294 26.6035C89.0504 26.6035 89.2926 26.6943 89.4446 26.8814C89.5967 27.0687 89.6473 27.3183 89.591 27.6416L89.4728 28.3223C89.4164 28.657 89.377 28.9406 89.3545 29.1788C89.332 29.4171 89.332 29.5929 89.3432 29.712H88.2226V29.7063Z" fill="#6A1212"/>
            <path d="M93.5443 26.6947C93.488 26.8194 93.4317 27.001 93.3641 27.2392C93.2966 27.4775 93.2402 27.7611 93.1783 28.0787L92.9193 29.5479C92.8573 29.9109 92.7221 30.2003 92.5251 30.4101C92.3223 30.6257 92.0914 30.7788 91.8267 30.864C91.562 30.9547 91.2918 30.9944 91.0045 30.9944C90.8075 30.9944 90.6272 30.983 90.4809 30.9661C90.3288 30.949 90.1767 30.9264 90.0247 30.898C89.9402 30.8809 89.8614 30.8696 89.7881 30.864C89.7149 30.8583 89.653 30.8526 89.6023 30.8583L89.9796 29.9677H89.9908C90.0754 30.0301 90.2105 30.0868 90.3907 30.1435C90.5709 30.2003 90.785 30.2287 91.027 30.2287C91.2974 30.2287 91.5058 30.1776 91.6577 30.0755C91.8098 29.9734 91.9056 29.8542 91.9563 29.7238C92.007 29.5933 92.0464 29.4401 92.0801 29.27V29.236L92.3673 27.6307L92.6207 26.6833H93.55L93.5443 26.6947ZM92.3279 28.4134C92.2772 28.6857 92.1928 28.9182 92.0689 29.1168C91.9506 29.3097 91.7985 29.4629 91.6127 29.565C91.4269 29.6671 91.2073 29.7181 90.9483 29.7181C90.4921 29.7181 90.1823 29.599 90.0134 29.3551C89.8445 29.1168 89.805 28.7368 89.8951 28.2149C89.9571 27.8802 90.0584 27.591 90.1992 27.3526C90.3456 27.1144 90.5259 26.9329 90.7455 26.8025C90.9651 26.6776 91.2073 26.6152 91.4719 26.6152C91.793 26.6152 92.0182 26.7004 92.159 26.8762C92.2998 27.052 92.3561 27.2903 92.3279 27.591H92.4574L92.3786 28.0277H92.2886C92.2998 27.9597 92.2886 27.8859 92.2379 27.8008C92.1928 27.7157 92.1139 27.6476 92.0125 27.591C91.9056 27.5342 91.7705 27.5058 91.5958 27.5058C91.3987 27.5058 91.2242 27.5569 91.0721 27.6703C90.9257 27.7781 90.83 27.9597 90.785 28.2149C90.785 28.2432 90.7736 28.266 90.7736 28.2887C90.7511 28.5042 90.7962 28.6574 90.8976 28.7481C90.9989 28.8389 91.1566 28.8842 91.3537 28.8842C91.5114 28.8842 91.6522 28.8559 91.776 28.8048C91.9056 28.7481 92.007 28.6857 92.0858 28.6063C92.1646 28.5269 92.2097 28.4531 92.2209 28.385L92.3166 28.4134H92.3279Z" fill="#6A1212"/>
            <path d="M95.7855 28.1979C95.7574 28.3568 95.7687 28.4815 95.8137 28.5836C95.8588 28.6857 95.932 28.7595 96.0334 28.8048C96.1347 28.8502 96.2528 28.8729 96.3884 28.8729C96.5741 28.8729 96.7481 28.8559 96.9232 28.8332C97.0973 28.8048 97.2607 28.7651 97.4185 28.714L97.4358 29.6274C97.3396 29.6387 97.2155 29.6614 97.0578 29.6954C96.9232 29.7295 96.7933 29.7521 96.6587 29.7692C96.5231 29.7861 96.3827 29.7919 96.2249 29.7919C95.9095 29.7919 95.6391 29.7351 95.4139 29.616C95.1887 29.4969 95.0253 29.321 94.924 29.0885C94.8226 28.8502 94.8 28.5553 94.862 28.2036C94.924 27.8518 95.0479 27.5569 95.2337 27.3186C95.4195 27.0804 95.6447 26.9046 95.9095 26.7912C96.1742 26.672 96.4673 26.6152 96.7828 26.6152C96.9116 26.6152 97.0415 26.6266 97.1598 26.6493C97.2838 26.672 97.4069 26.7004 97.5368 26.7401C97.6041 26.7628 97.6724 26.7797 97.7339 26.7968C97.7964 26.8138 97.858 26.8252 97.909 26.8308L97.582 27.7044C97.4185 27.6476 97.2607 27.6023 97.1146 27.5739C96.9684 27.5399 96.8049 27.5286 96.6298 27.5286C96.4952 27.5286 96.3654 27.5512 96.2528 27.5966C96.1347 27.642 96.0334 27.7157 95.9488 27.8178C95.8644 27.9199 95.8081 28.0504 95.7799 28.2092L95.7855 28.1979Z" fill="#6A1212"/>
            <path d="M98.5735 29.8032C98.2859 29.8032 98.0772 29.7239 97.9426 29.565C97.807 29.4062 97.7618 29.1907 97.807 28.9184C97.8637 28.6063 97.9984 28.3852 98.2244 28.2547C98.4494 28.1242 98.6966 28.0618 98.9784 28.0618C99.2323 28.0618 99.5641 28.0902 99.9757 28.1468L99.919 28.4589C99.8517 28.4532 99.7555 28.4362 99.643 28.4249C99.5304 28.4078 99.4006 28.3965 99.2602 28.3852C99.1198 28.3738 98.9957 28.3681 98.8832 28.3681C98.8101 28.3681 98.736 28.3794 98.6803 28.3965C98.6177 28.4135 98.5677 28.4475 98.5283 28.4929C98.4889 28.5383 98.46 28.5894 98.4494 28.6574C98.4321 28.7595 98.4658 28.8389 98.5562 28.8844C98.6466 28.9297 98.7755 28.9581 98.9447 28.9581C99.114 28.9581 99.2775 28.924 99.4121 28.856C99.542 28.7879 99.6487 28.7141 99.7276 28.6291C99.8065 28.5439 99.8622 28.4702 99.8911 28.4078H99.97L99.9074 28.7708H99.8517C99.767 28.9807 99.6709 29.1623 99.5641 29.3097C99.4574 29.4629 99.3217 29.582 99.1592 29.6784C98.9957 29.7749 98.7986 29.8203 98.5735 29.8203V29.8032ZM99.7555 29.7068C99.7892 29.6104 99.818 29.4856 99.8401 29.3324C99.8622 29.1792 99.8796 29.0091 99.8853 28.8163L99.8969 28.4021V28.3171C99.8969 28.1639 99.8853 28.0334 99.8517 27.9143C99.818 27.8009 99.7449 27.6988 99.643 27.6194C99.542 27.5343 99.39 27.4946 99.1986 27.4946C99.0457 27.4946 98.8995 27.5173 98.7591 27.557C98.6177 27.5967 98.4889 27.6477 98.3648 27.6988L98.2744 27.7385L98.2859 26.899C98.3475 26.8819 98.4321 26.8536 98.5389 26.8138C98.7197 26.7515 98.8832 26.7004 99.0409 26.6607C99.1929 26.621 99.3669 26.604 99.5641 26.604C99.9805 26.604 100.285 26.7117 100.483 26.9273C100.68 27.1428 100.775 27.4662 100.759 27.8973L100.736 28.8276C100.736 29.0658 100.736 29.2587 100.753 29.4062C100.769 29.5537 100.792 29.6558 100.82 29.7011H99.7555V29.7068ZM99.2265 26.0651C99.3948 26.0027 99.5978 25.9006 99.8238 25.7758C100.049 25.6511 100.24 25.5262 100.392 25.4185L100.55 25.8836C100.483 25.9119 100.414 25.9403 100.347 25.9743C100.178 26.0538 100.004 26.1388 99.8286 26.224C99.6545 26.309 99.491 26.3885 99.3448 26.4565L99.2208 26.0708L99.2265 26.0651Z" fill="#6A1212"/>
            <path d="M102.138 28.1979C102.11 28.3568 102.121 28.4815 102.165 28.5836C102.211 28.6857 102.284 28.7595 102.386 28.8048C102.487 28.8502 102.605 28.8729 102.741 28.8729C102.92 28.8729 103.1 28.8559 103.275 28.8332C103.449 28.8048 103.613 28.7651 103.771 28.714L103.788 29.6274C103.692 29.6387 103.568 29.6614 103.41 29.6954C103.275 29.7295 103.146 29.7521 103.011 29.7692C102.875 29.7861 102.735 29.7919 102.577 29.7919C102.262 29.7919 101.991 29.7351 101.766 29.616C101.54 29.4969 101.378 29.321 101.276 29.0885C101.175 28.8502 101.152 28.5553 101.214 28.2036C101.276 27.8518 101.4 27.5569 101.586 27.3186C101.772 27.0804 101.997 26.9046 102.262 26.7912C102.526 26.672 102.819 26.6152 103.135 26.6152C103.264 26.6152 103.394 26.6266 103.512 26.6493C103.636 26.672 103.759 26.7004 103.889 26.7401C103.956 26.7628 104.025 26.7797 104.086 26.7968C104.149 26.8138 104.21 26.8252 104.261 26.8308L103.934 27.7044C103.771 27.6476 103.613 27.6023 103.467 27.5739C103.321 27.5399 103.157 27.5286 102.982 27.5286C102.847 27.5286 102.718 27.5512 102.605 27.5966C102.487 27.642 102.386 27.7157 102.301 27.8178C102.216 27.9199 102.161 28.0504 102.132 28.2092L102.138 28.1979Z" fill="#6A1212"/>
            <path d="M104.075 29.707C104.126 29.6106 104.177 29.4517 104.238 29.2305C104.301 29.0093 104.357 28.7313 104.419 28.3966L104.61 27.3019C104.672 26.9615 104.711 26.6723 104.729 26.434C104.745 26.1957 104.751 26.0256 104.739 25.9178C104.891 25.9178 105.038 25.9121 105.185 25.8894C105.331 25.8725 105.483 25.8441 105.646 25.8157C105.725 25.7987 105.804 25.7817 105.883 25.7646C105.821 25.9235 105.753 26.156 105.68 26.451C105.607 26.746 105.534 27.0976 105.466 27.4947L105.309 28.3966C105.252 28.7313 105.212 29.0093 105.196 29.2305C105.179 29.4517 105.179 29.6106 105.196 29.707H104.075ZM106.142 29.707C106.192 29.5935 106.249 29.4177 106.317 29.1851C106.378 28.9469 106.441 28.6632 106.502 28.3229L106.553 28.0393C106.581 27.8805 106.553 27.7557 106.469 27.6649C106.384 27.5742 106.266 27.5287 106.102 27.5287C105.95 27.5287 105.821 27.5685 105.708 27.6536C105.595 27.7387 105.511 27.8408 105.449 27.9599C105.387 28.079 105.348 28.1924 105.331 28.3059H105.286L105.398 27.6649H105.506C105.589 27.3302 105.725 27.0694 105.922 26.8821C106.119 26.6949 106.368 26.6042 106.666 26.6042C106.987 26.6042 107.228 26.6949 107.381 26.8821C107.533 27.0694 107.583 27.3189 107.527 27.6423L107.409 28.3229C107.352 28.6576 107.313 28.9413 107.291 29.1795C107.268 29.4177 107.263 29.5935 107.273 29.7127H106.153L106.142 29.707Z" fill="#6A1212"/>
            <path d="M109.391 28.3965C109.216 28.3965 109.076 28.3341 108.98 28.2093C108.879 28.0845 108.845 27.937 108.879 27.7612C108.912 27.5854 108.997 27.4435 109.137 27.3188C109.279 27.1939 109.442 27.1372 109.616 27.1372C109.791 27.1372 109.92 27.1996 110.022 27.3188C110.123 27.4435 110.163 27.591 110.129 27.7612C110.095 27.9314 110.011 28.0845 109.864 28.2093C109.717 28.3341 109.56 28.3965 109.397 28.3965H109.391Z" fill="#6A1212"/>
            <path d="M111.075 29.7065C111.216 29.332 111.317 28.9633 111.385 28.5946L111.627 27.2106C111.671 26.9609 111.7 26.7398 111.711 26.5469C111.722 26.354 111.722 26.2008 111.711 26.0931H112.951C112.905 26.2008 112.854 26.354 112.798 26.5469C112.742 26.7398 112.691 26.9609 112.652 27.2106L112.409 28.5946C112.342 28.9633 112.314 29.3378 112.32 29.7065H111.081H111.075ZM113.26 29.7065C113.226 29.4058 113.164 29.0995 113.074 28.7875L112.736 27.8572L113.04 28.0444L112.32 28.606L112.472 27.7608L113.423 26.734C113.502 26.6319 113.575 26.5242 113.643 26.4108C113.71 26.2973 113.772 26.1895 113.823 26.0874H115.191C114.882 26.3427 114.617 26.5979 114.397 26.8419L113.491 27.8119L113.592 27.4148L114.099 28.5833C114.285 29.0314 114.46 29.4058 114.634 29.7065H113.265H113.26Z" fill="#6A1212"/>
            <path d="M114.854 29.707C114.905 29.6106 114.955 29.4517 115.018 29.2305C115.079 29.0093 115.136 28.7313 115.197 28.3966L115.389 27.3019C115.451 26.9615 115.491 26.6723 115.507 26.434C115.524 26.1957 115.53 26.0256 115.519 25.9178C115.671 25.9178 115.817 25.9121 115.963 25.8894C116.11 25.8725 116.262 25.8441 116.426 25.8157C116.504 25.7987 116.582 25.7817 116.661 25.7646C116.6 25.9235 116.532 26.156 116.459 26.451C116.386 26.746 116.312 27.0976 116.245 27.4947L116.087 28.3966C116.031 28.7313 115.992 29.0093 115.974 29.2305C115.958 29.4517 115.958 29.6106 115.974 29.707H114.854ZM116.921 29.707C116.972 29.5935 117.028 29.4177 117.095 29.1851C117.157 28.9469 117.219 28.6632 117.281 28.3229L117.331 28.0393C117.36 27.8805 117.331 27.7557 117.247 27.6649C117.163 27.5742 117.045 27.5287 116.881 27.5287C116.729 27.5287 116.6 27.5685 116.487 27.6536C116.375 27.7387 116.29 27.8408 116.228 27.9599C116.166 28.079 116.126 28.1924 116.11 28.3059H116.065L116.177 27.6649H116.284C116.369 27.3302 116.504 27.0694 116.701 26.8821C116.898 26.6949 117.146 26.6042 117.444 26.6042C117.765 26.6042 118.008 26.6949 118.16 26.8821C118.311 27.0694 118.362 27.3189 118.306 27.6423L118.187 28.3229C118.132 28.6576 118.092 28.9413 118.069 29.1795C118.047 29.4177 118.041 29.5935 118.053 29.7127H116.932L116.921 29.707Z" fill="#6A1212"/>
            <path d="M119.269 29.8029C118.982 29.8029 118.773 29.7234 118.638 29.5647C118.503 29.4058 118.458 29.1902 118.503 28.9179C118.56 28.606 118.694 28.3847 118.92 28.2543C119.145 28.1238 119.392 28.0615 119.674 28.0615C119.928 28.0615 120.26 28.0897 120.672 28.1465L120.615 28.4584C120.547 28.4528 120.451 28.4358 120.339 28.4244C120.226 28.4074 120.096 28.3961 119.956 28.3847C119.816 28.3734 119.692 28.3678 119.579 28.3678C119.506 28.3678 119.432 28.3791 119.376 28.3961C119.314 28.4131 119.264 28.4471 119.224 28.4925C119.185 28.5379 119.157 28.5889 119.145 28.657C119.128 28.7591 119.162 28.8386 119.252 28.8839C119.342 28.9293 119.471 28.9576 119.641 28.9576C119.81 28.9576 119.973 28.9236 120.108 28.8555C120.238 28.7875 120.345 28.7137 120.423 28.6287C120.502 28.5436 120.559 28.4699 120.587 28.4074H120.666L120.603 28.7705H120.547C120.463 28.9803 120.367 29.1619 120.26 29.3094C120.153 29.4626 120.018 29.5816 119.855 29.6781C119.692 29.7745 119.494 29.8199 119.269 29.8199V29.8029ZM120.451 29.7064C120.485 29.61 120.514 29.4852 120.536 29.3321C120.559 29.1789 120.575 29.0087 120.581 28.8158L120.593 28.4018V28.3167C120.593 28.1636 120.581 28.0331 120.547 27.9139C120.514 27.8005 120.441 27.6984 120.339 27.6189C120.238 27.5339 120.086 27.4942 119.894 27.4942C119.742 27.4942 119.595 27.5168 119.455 27.5565C119.314 27.5963 119.185 27.6473 119.061 27.6984L118.97 27.7381V26.8986C119.043 26.8815 119.128 26.8532 119.236 26.8135C119.415 26.7511 119.579 26.7001 119.737 26.6603C119.889 26.6206 120.063 26.6036 120.26 26.6036C120.677 26.6036 120.981 26.7114 121.178 26.9269C121.376 27.1425 121.471 27.4658 121.454 27.897L121.431 28.8272C121.426 29.0655 121.431 29.2583 121.449 29.4058C121.465 29.5532 121.488 29.6553 121.516 29.7008H120.451V29.7064ZM121.679 25.2762C121.64 25.4918 121.567 25.6846 121.459 25.8605C121.347 26.0364 121.206 26.1725 121.031 26.2803C120.857 26.3824 120.66 26.4391 120.441 26.4391C120.22 26.4391 120.029 26.388 119.889 26.2803C119.747 26.1782 119.658 26.0364 119.607 25.8605C119.562 25.6846 119.556 25.4918 119.59 25.2762H120.114C120.102 25.333 120.096 25.4011 120.096 25.4748C120.096 25.6053 120.131 25.713 120.198 25.7811C120.266 25.8548 120.372 25.8888 120.524 25.8888C120.666 25.8888 120.784 25.8548 120.879 25.7811C120.97 25.7074 121.043 25.6109 121.088 25.4804C121.11 25.4067 121.133 25.3387 121.145 25.2762H121.679ZM120.119 25.1571L120.187 24.7827C120.187 24.7827 120.226 24.7714 120.238 24.76C120.305 24.7317 120.372 24.6977 120.441 24.6579C120.508 24.6182 120.575 24.5729 120.638 24.5275C120.672 24.5501 120.705 24.5729 120.745 24.5898C120.784 24.6069 120.823 24.6126 120.869 24.6126C120.93 24.6126 120.975 24.6012 121.009 24.5785C121.043 24.5558 121.066 24.5218 121.071 24.4651C121.082 24.4027 121.071 24.3516 121.037 24.3063C121.003 24.2609 120.93 24.2382 120.818 24.2382C120.716 24.2382 120.603 24.2666 120.491 24.3176C120.378 24.3687 120.277 24.4253 120.181 24.4934C120.17 24.4934 120.165 24.4991 120.165 24.5048C120.165 24.5048 120.159 24.5048 120.147 24.5161L120.029 24.0056C120.029 24.0056 120.074 23.9943 120.096 23.9886C120.119 23.9829 120.147 23.9772 120.175 23.9659C120.288 23.9205 120.406 23.8751 120.524 23.8411C120.643 23.8071 120.784 23.79 120.942 23.79C121.183 23.79 121.364 23.8524 121.482 23.9772C121.601 24.1021 121.64 24.2722 121.606 24.4764C121.577 24.6466 121.504 24.7658 121.386 24.8338C121.268 24.9019 121.145 24.9359 121.015 24.9359C120.942 24.9359 120.873 24.9245 120.818 24.9075C120.755 24.8905 120.711 24.8735 120.672 24.8564L120.66 24.8451H120.654L120.609 25.1571H120.125H120.119Z" fill="#6A1212"/>
            <path d="M121.719 29.7063C121.769 29.6042 121.826 29.4341 121.893 29.2015C121.96 28.9689 122.023 28.6796 122.079 28.3336L122.157 27.8855C122.203 27.6302 122.231 27.3977 122.242 27.1878C122.254 26.9779 122.254 26.8134 122.242 26.6943H123.155C123.155 26.7793 123.143 26.8645 123.132 26.9609C123.121 27.0517 123.115 27.1424 123.104 27.2332C123.087 27.4317 123.07 27.6132 123.059 27.772L122.963 28.3336C122.901 28.6796 122.861 28.9689 122.845 29.2015C122.828 29.4341 122.822 29.6042 122.839 29.7063H121.713H121.719ZM123.802 29.7063C123.847 29.5929 123.903 29.4171 123.971 29.1845C124.039 28.9462 124.1 28.6626 124.157 28.3223L124.208 28.0386C124.236 27.8798 124.208 27.7551 124.123 27.6643C124.039 27.5735 123.915 27.5281 123.751 27.5281C123.599 27.5281 123.47 27.5678 123.358 27.653C123.244 27.738 123.161 27.8401 123.098 27.9593C123.037 28.0783 122.997 28.1918 122.974 28.3052H122.929L123.042 27.6643H123.155C123.234 27.3296 123.368 27.0687 123.565 26.8814C123.763 26.6943 124.011 26.6035 124.309 26.6035C124.63 26.6035 124.872 26.6943 125.024 26.8814C125.176 27.0687 125.227 27.3183 125.171 27.6416L125.052 28.3223C124.996 28.657 124.956 28.9406 124.934 29.1788C124.912 29.4171 124.912 29.5929 124.922 29.712H123.802V29.7063Z" fill="#6A1212"/>
            <path d="M129.129 26.6947C129.073 26.8194 129.017 27.001 128.949 27.2392C128.882 27.4775 128.825 27.7611 128.769 28.0787L128.51 29.5479C128.448 29.9109 128.313 30.2003 128.115 30.4101C127.913 30.6257 127.682 30.7788 127.417 30.864C127.153 30.9547 126.882 30.9944 126.595 30.9944C126.398 30.9944 126.218 30.983 126.072 30.9661C125.92 30.949 125.768 30.9264 125.616 30.898C125.531 30.8809 125.452 30.8696 125.379 30.864C125.305 30.8583 125.244 30.8526 125.193 30.8583L125.571 29.9677H125.581C125.666 30.0301 125.801 30.0868 125.981 30.1435C126.162 30.2003 126.376 30.2287 126.618 30.2287C126.888 30.2287 127.097 30.1776 127.249 30.0755C127.401 29.9734 127.496 29.8542 127.547 29.7238C127.598 29.5933 127.637 29.4401 127.671 29.27V29.236L127.958 27.6307L128.212 26.6833H129.141L129.129 26.6947ZM127.913 28.4134C127.862 28.6857 127.778 28.9182 127.654 29.1168C127.535 29.3097 127.383 29.4629 127.198 29.565C127.012 29.6671 126.792 29.7181 126.533 29.7181C126.077 29.7181 125.768 29.599 125.598 29.3551C125.429 29.1168 125.39 28.7368 125.48 28.2149C125.542 27.8802 125.644 27.591 125.79 27.3526C125.936 27.1144 126.117 26.9329 126.336 26.8025C126.555 26.6776 126.798 26.6152 127.062 26.6152C127.383 26.6152 127.609 26.7004 127.75 26.8762C127.89 27.052 127.947 27.2903 127.918 27.591H128.048L127.969 28.0277H127.879C127.89 27.9597 127.879 27.8859 127.829 27.8008C127.784 27.7157 127.705 27.6476 127.603 27.591C127.496 27.5342 127.361 27.5058 127.186 27.5058C126.989 27.5058 126.815 27.5569 126.663 27.6703C126.516 27.7781 126.421 27.9597 126.376 28.2149C126.376 28.2432 126.364 28.266 126.364 28.2887C126.342 28.5042 126.387 28.6574 126.488 28.7481C126.595 28.8389 126.747 28.8842 126.944 28.8842C127.102 28.8842 127.243 28.8559 127.367 28.8048C127.496 28.7481 127.598 28.6857 127.677 28.6063C127.756 28.5269 127.8 28.4531 127.811 28.385L127.908 28.4134H127.913Z" fill="#6A1212"/>
            <path d="M132.886 28.4138C132.835 28.6917 132.745 28.9299 132.627 29.1399C132.509 29.3497 132.351 29.5086 132.16 29.622C131.967 29.7355 131.748 29.7922 131.495 29.7922C131.044 29.7922 130.734 29.6617 130.565 29.3951C130.397 29.1342 130.363 28.7371 130.452 28.2096C130.515 27.8749 130.616 27.5856 130.757 27.3474C130.904 27.1091 131.083 26.9276 131.304 26.7971C131.523 26.6724 131.765 26.61 132.03 26.61C132.243 26.61 132.418 26.6496 132.553 26.729C132.689 26.8085 132.779 26.9219 132.835 27.0694C132.891 27.2169 132.908 27.3871 132.886 27.5856H133.016L132.937 28.0224H132.846C132.858 27.9543 132.846 27.8806 132.795 27.7954C132.75 27.7104 132.671 27.6423 132.57 27.5856C132.464 27.5288 132.328 27.5006 132.154 27.5006C131.957 27.5006 131.782 27.5516 131.63 27.6651C131.483 27.7728 131.387 27.9543 131.343 28.2096C131.304 28.4478 131.332 28.6236 131.438 28.7257C131.545 28.8278 131.703 28.8789 131.911 28.8789C132.058 28.8789 132.193 28.8562 132.317 28.8052C132.44 28.7541 132.542 28.6974 132.621 28.6236C132.7 28.5499 132.756 28.4819 132.779 28.4081C132.779 28.4025 132.779 28.3911 132.779 28.3798L132.874 28.4081L132.886 28.4138ZM132.57 29.7071C132.592 29.571 132.627 29.3894 132.661 29.1683C132.694 28.947 132.74 28.7031 132.785 28.4308L132.981 27.2906C133.043 26.9503 133.083 26.661 133.099 26.4227C133.117 26.1845 133.122 26.0143 133.111 25.9066C133.296 25.9066 133.477 25.8952 133.657 25.8669C133.837 25.8385 134.034 25.8045 134.26 25.7534C134.198 25.9122 134.13 26.1448 134.057 26.4398C133.984 26.7348 133.911 27.0864 133.843 27.4835L133.685 28.3854C133.629 28.7201 133.59 28.9981 133.572 29.2193C133.556 29.4405 133.556 29.5994 133.572 29.6957H132.576L132.57 29.7071ZM134.344 26.61C134.046 26.5929 133.759 26.5872 133.477 26.5872C133.195 26.5872 132.914 26.5929 132.632 26.61L132.722 26.0995C133.004 26.1164 133.292 26.1221 133.578 26.1221C133.866 26.1221 134.152 26.1164 134.44 26.0995L134.349 26.61H134.344Z" fill="#6A1212"/>
            <path d="M134.31 30.966C134.136 30.966 134.006 30.9206 133.916 30.8356C133.832 30.7504 133.798 30.637 133.826 30.4951C133.848 30.3533 133.921 30.2399 134.04 30.1492C134.158 30.0584 134.305 30.0187 134.479 30.0187C134.654 30.0187 134.783 30.064 134.874 30.1492C134.958 30.2399 134.992 30.3533 134.964 30.4951C134.941 30.637 134.868 30.7504 134.75 30.8356C134.631 30.9206 134.485 30.966 134.31 30.966ZM133.961 29.7067C134.006 29.6159 134.057 29.4571 134.119 29.2359C134.181 29.0147 134.237 28.7367 134.299 28.3907L134.355 28.0844C134.418 27.744 134.457 27.4547 134.474 27.2108C134.491 26.9669 134.497 26.7967 134.491 26.6889H135.594C135.55 26.7967 135.493 26.9726 135.431 27.2108C135.369 27.4491 135.307 27.7384 135.245 28.0844L135.189 28.3907C135.127 28.731 135.093 29.0147 135.077 29.2359C135.059 29.4571 135.059 29.6159 135.071 29.7067H133.967H133.961ZM135.059 26.5471C134.885 26.5471 134.755 26.5018 134.665 26.4167C134.58 26.3315 134.547 26.2181 134.57 26.0763C134.592 25.9346 134.665 25.821 134.783 25.736C134.901 25.6509 135.048 25.6055 135.223 25.6055C135.397 25.6055 135.532 25.6509 135.617 25.736C135.702 25.821 135.73 25.9346 135.706 26.0763C135.684 26.2181 135.611 26.3315 135.499 26.4167C135.38 26.5018 135.24 26.5471 135.059 26.5471Z" fill="#6A1212"/>
            <path d="M135.487 29.7063C135.538 29.6042 135.594 29.4341 135.661 29.2015C135.73 28.9689 135.791 28.6796 135.848 28.3336L135.927 27.8855C135.972 27.6302 136 27.3977 136.011 27.1878C136.022 26.9779 136.022 26.8134 136.011 26.6943H136.923C136.923 26.7793 136.912 26.8645 136.901 26.9609C136.889 27.0517 136.884 27.1424 136.872 27.2332C136.856 27.4317 136.838 27.6132 136.828 27.772L136.732 28.3336C136.67 28.6796 136.631 28.9689 136.613 29.2015C136.596 29.4341 136.591 29.6042 136.608 29.7063H135.481H135.487ZM137.57 29.7063C137.616 29.5929 137.672 29.4171 137.74 29.1845C137.807 28.9462 137.869 28.6626 137.925 28.3223L137.976 28.0386C138.004 27.8798 137.976 27.7551 137.892 27.6643C137.807 27.5735 137.684 27.5281 137.52 27.5281C137.368 27.5281 137.239 27.5678 137.126 27.653C137.014 27.738 136.929 27.8401 136.867 27.9593C136.805 28.0783 136.765 28.1918 136.743 28.3052H136.698L136.811 27.6643H136.923C137.002 27.3296 137.138 27.0687 137.335 26.8814C137.531 26.6943 137.779 26.6035 138.077 26.6035C138.398 26.6035 138.641 26.6943 138.793 26.8814C138.945 27.0687 138.996 27.3183 138.939 27.6416L138.821 28.3223C138.765 28.657 138.725 28.9406 138.702 29.1788C138.68 29.4171 138.68 29.5929 138.692 29.712H137.57V29.7063Z" fill="#6A1212"/>
            <path d="M139.057 29.707C139.108 29.6106 139.159 29.4517 139.221 29.2305C139.283 29.0093 139.339 28.7313 139.402 28.3966L139.593 27.3019C139.655 26.9615 139.694 26.6723 139.711 26.434C139.728 26.1957 139.733 26.0256 139.722 25.9178C139.874 25.9178 140.021 25.9121 140.167 25.8894C140.313 25.8725 140.465 25.8441 140.629 25.8157C140.708 25.7987 140.787 25.7817 140.865 25.7646C140.804 25.9235 140.736 26.156 140.663 26.451C140.589 26.746 140.516 27.0976 140.449 27.4947L140.291 28.3966C140.235 28.7313 140.195 29.0093 140.179 29.2305C140.161 29.4517 140.161 29.6106 140.179 29.707H139.057ZM141.124 29.707C141.175 29.5935 141.232 29.4177 141.299 29.1851C141.361 28.9469 141.423 28.6632 141.485 28.3229L141.536 28.0393C141.564 27.8805 141.536 27.7557 141.451 27.6649C141.367 27.5742 141.248 27.5287 141.085 27.5287C140.933 27.5287 140.804 27.5685 140.69 27.6536C140.578 27.7387 140.494 27.8408 140.432 27.9599C140.37 28.079 140.331 28.1924 140.313 28.3059H140.268L140.381 27.6649H140.488C140.572 27.3302 140.708 27.0694 140.905 26.8821C141.102 26.6949 141.35 26.6042 141.648 26.6042C141.97 26.6042 142.211 26.6949 142.364 26.8821C142.516 27.0694 142.566 27.3189 142.51 27.6423L142.392 28.3229C142.335 28.6576 142.296 28.9413 142.273 29.1795C142.25 29.4177 142.246 29.5935 142.256 29.7127H141.136L141.124 29.707Z" fill="#6A1212"/>
            <path d="M145.066 28.1979C145.038 28.3568 145.05 28.4815 145.095 28.5836C145.139 28.6857 145.214 28.7595 145.314 28.8048C145.415 28.8502 145.534 28.8729 145.669 28.8729C145.855 28.8729 146.03 28.8559 146.204 28.8332C146.379 28.8048 146.542 28.7651 146.699 28.714L146.717 29.6274C146.621 29.6387 146.497 29.6614 146.34 29.6954C146.204 29.7295 146.074 29.7521 145.94 29.7692C145.804 29.7861 145.664 29.7919 145.506 29.7919C145.19 29.7919 144.92 29.7351 144.695 29.616C144.47 29.4969 144.307 29.321 144.205 29.0885C144.104 28.8502 144.082 28.5553 144.143 28.2036C144.205 27.8518 144.329 27.5569 144.515 27.3186C144.701 27.0804 144.926 26.9046 145.19 26.7912C145.455 26.672 145.748 26.6152 146.064 26.6152C146.193 26.6152 146.322 26.6266 146.441 26.6493C146.565 26.672 146.689 26.7004 146.818 26.7401C146.886 26.7628 146.953 26.7797 147.015 26.7968C147.077 26.8138 147.139 26.8252 147.19 26.8308L146.863 27.7044C146.699 27.6476 146.542 27.6023 146.396 27.5739C146.249 27.5399 146.086 27.5286 145.912 27.5286C145.776 27.5286 145.646 27.5512 145.534 27.5966C145.415 27.642 145.314 27.7157 145.23 27.8178C145.145 27.9199 145.089 28.0504 145.061 28.2092L145.066 28.1979Z" fill="#6A1212"/>
            <path d="M147.004 29.707C147.054 29.6106 147.105 29.4517 147.167 29.2305C147.229 29.0093 147.285 28.7313 147.347 28.3966L147.539 27.3019C147.6 26.9615 147.64 26.6723 147.657 26.434C147.674 26.1957 147.679 26.0256 147.669 25.9178C147.821 25.9178 147.967 25.9121 148.113 25.8894C148.259 25.8725 148.411 25.8441 148.575 25.8157C148.654 25.7987 148.732 25.7817 148.811 25.7646C148.75 25.9235 148.682 26.156 148.608 26.451C148.535 26.746 148.462 27.0976 148.395 27.4947L148.237 28.3966C148.18 28.7313 148.141 29.0093 148.125 29.2305C148.107 29.4517 148.107 29.6106 148.125 29.707H147.004ZM149.071 29.707C149.121 29.5935 149.178 29.4177 149.245 29.1851C149.307 28.9469 149.369 28.6632 149.431 28.3229L149.482 28.0393C149.51 27.8805 149.482 27.7557 149.397 27.6649C149.312 27.5742 149.194 27.5287 149.032 27.5287C148.879 27.5287 148.75 27.5685 148.637 27.6536C148.525 27.7387 148.44 27.8408 148.378 27.9599C148.316 28.079 148.277 28.1924 148.259 28.3059H148.215L148.328 27.6649H148.434C148.519 27.3302 148.654 27.0694 148.851 26.8821C149.048 26.6949 149.296 26.6042 149.594 26.6042C149.915 26.6042 150.158 26.6949 150.31 26.8821C150.462 27.0694 150.513 27.3189 150.456 27.6423L150.338 28.3229C150.281 28.6576 150.241 28.9413 150.219 29.1795C150.197 29.4177 150.191 29.5935 150.202 29.7127H149.082L149.071 29.707Z" fill="#6A1212"/>
            <path d="M151.419 29.8034C151.132 29.8034 150.923 29.7241 150.789 29.5652C150.653 29.4063 150.608 29.1908 150.653 28.9186C150.71 28.6065 150.845 28.3854 151.07 28.2549C151.296 28.1244 151.543 28.062 151.825 28.062C152.078 28.062 152.41 28.0904 152.821 28.1471L152.765 28.4591C152.698 28.4534 152.602 28.4364 152.489 28.4251C152.377 28.4081 152.247 28.3967 152.106 28.3854C151.965 28.374 151.842 28.3683 151.728 28.3683C151.655 28.3683 151.582 28.3797 151.526 28.3967C151.464 28.4137 151.413 28.4478 151.374 28.4931C151.335 28.5385 151.306 28.5896 151.296 28.6576C151.278 28.7597 151.312 28.8391 151.402 28.8845C151.492 28.9299 151.622 28.9583 151.791 28.9583C151.959 28.9583 152.123 28.9242 152.258 28.8562C152.387 28.7881 152.495 28.7144 152.574 28.6293C152.653 28.5442 152.708 28.4704 152.737 28.4081H152.815L152.754 28.771H152.698C152.613 28.981 152.517 29.1625 152.41 29.31C152.304 29.4631 152.168 29.5823 152.004 29.6787C151.842 29.7752 151.645 29.8205 151.419 29.8205V29.8034ZM152.602 29.707C152.635 29.6106 152.663 29.4858 152.686 29.3326C152.708 29.1795 152.726 29.0094 152.732 28.8165L152.742 28.4023V28.3173C152.742 28.1641 152.732 28.0336 152.698 27.9146C152.663 27.8011 152.59 27.699 152.489 27.6196C152.387 27.5345 152.235 27.4948 152.044 27.4948C151.892 27.4948 151.746 27.5175 151.605 27.5572C151.464 27.5969 151.335 27.648 151.211 27.699L151.121 27.7386V26.8991C151.194 26.8822 151.278 26.8538 151.385 26.8141C151.566 26.7517 151.728 26.7006 151.886 26.6609C152.038 26.6212 152.213 26.6042 152.41 26.6042C152.827 26.6042 153.131 26.712 153.328 26.9275C153.525 27.1431 153.621 27.4664 153.604 27.8975L153.582 28.8278C153.576 29.066 153.582 29.2589 153.598 29.4063C153.615 29.5539 153.637 29.656 153.666 29.7013H152.602V29.707ZM151.746 26.2071C151.83 26.1448 151.903 26.088 151.971 26.0369C152.038 25.9859 152.112 25.9292 152.179 25.8611C152.359 25.6853 152.495 25.5435 152.596 25.4414H152.917C152.929 25.4754 152.945 25.5095 152.968 25.5491C152.99 25.5888 153.012 25.6285 153.041 25.6739C153.126 25.7817 153.205 25.8782 153.278 25.9632C153.351 26.0483 153.424 26.1334 153.503 26.2071L153.103 26.5135C153.052 26.4397 152.99 26.3603 152.923 26.2809C152.855 26.2014 152.771 26.1164 152.681 26.0313C152.663 26.0086 152.653 25.9972 152.647 25.9859C152.647 25.9746 152.63 25.9575 152.613 25.9348H152.732C152.619 26.0143 152.506 26.105 152.387 26.2071C152.326 26.2582 152.264 26.3149 152.202 26.3659C152.14 26.417 152.083 26.4737 152.038 26.5191L151.746 26.2128V26.2071ZM152.202 24.9422C152.377 24.8798 152.58 24.7777 152.805 24.6472C153.03 24.5168 153.221 24.3976 153.367 24.2842L153.525 24.755C153.458 24.7834 153.396 24.8117 153.322 24.84C153.154 24.9195 152.979 25.0045 152.805 25.0897C152.63 25.1748 152.466 25.2542 152.32 25.3222L152.196 24.9422H152.202Z" fill="#6A1212"/>
            <path d="M156.459 27.568C156.363 27.5624 156.251 27.551 156.11 27.5397C155.964 27.5227 155.817 27.5057 155.66 27.4886C155.502 27.4716 155.378 27.4603 155.288 27.4489L155.468 27.2561L155.27 28.3849C155.243 28.5494 155.243 28.6685 155.27 28.7423C155.299 28.816 155.378 28.8557 155.507 28.8557C155.609 28.8557 155.71 28.833 155.8 28.7876C155.891 28.7423 155.992 28.6912 156.088 28.6231C156.116 28.6062 156.138 28.5947 156.161 28.5834C156.183 28.5721 156.205 28.5607 156.223 28.5607L156.166 29.44C156.025 29.5421 155.846 29.6271 155.625 29.6952C155.406 29.7633 155.193 29.7973 154.995 29.7973C154.719 29.7973 154.522 29.7236 154.398 29.5818C154.274 29.44 154.24 29.2074 154.296 28.8954L154.578 27.2674L154.719 27.4603C154.719 27.4603 154.674 27.4603 154.646 27.4603C154.623 27.4603 154.59 27.4603 154.55 27.4716C154.365 27.4943 154.229 27.5057 154.144 27.5057L154.286 26.7115L154.893 26.7682L154.646 26.9441L154.905 26.269H155.648C155.575 26.4959 155.519 26.7342 155.473 26.9838L155.406 26.808C155.901 26.7399 156.307 26.7059 156.617 26.7059L156.465 27.5738L156.459 27.568Z" fill="#6A1212"/>
            <path d="M157.732 29.707C157.783 29.6106 157.834 29.4517 157.895 29.2305C157.958 29.0093 158.013 28.7313 158.076 28.3966L158.267 27.3019C158.329 26.9615 158.368 26.6723 158.386 26.434C158.402 26.1957 158.408 26.0256 158.396 25.9178C158.548 25.9178 158.695 25.9121 158.842 25.8894C158.988 25.8725 159.14 25.8441 159.303 25.8157C159.382 25.7987 159.461 25.7817 159.54 25.7646C159.478 25.9235 159.41 26.156 159.337 26.451C159.264 26.746 159.191 27.0976 159.123 27.4947L158.966 28.3966C158.909 28.7313 158.869 29.0093 158.853 29.2305C158.836 29.4517 158.836 29.6106 158.853 29.707H157.732Z" fill="#6A1212"/>
            <path d="M160.863 26.6942C160.824 26.768 160.773 26.9154 160.717 27.131C160.66 27.3465 160.599 27.6244 160.542 27.9649L160.502 28.1747C160.475 28.3392 160.475 28.4754 160.502 28.5775C160.525 28.6796 160.581 28.7589 160.654 28.8044C160.733 28.8497 160.835 28.8781 160.958 28.8781C161.111 28.8781 161.234 28.8441 161.336 28.7703C161.437 28.7023 161.516 28.6115 161.573 28.5037C161.629 28.3959 161.668 28.2768 161.691 28.1407L161.719 27.9649C161.781 27.6244 161.82 27.3465 161.837 27.1253C161.854 26.9098 161.859 26.7622 161.849 26.6828H162.941C162.896 26.7906 162.839 26.9665 162.778 27.2047C162.715 27.443 162.654 27.7323 162.597 28.0783L162.541 28.3846C162.485 28.6965 162.451 28.9631 162.429 29.19C162.411 29.4113 162.406 29.5815 162.417 29.6949H161.505C161.522 29.4794 161.561 29.19 161.629 28.8157H161.589C161.544 29.0029 161.477 29.1731 161.386 29.3149C161.297 29.4567 161.167 29.5758 161.003 29.6666C160.84 29.7573 160.632 29.797 160.378 29.797C160.047 29.797 159.804 29.7063 159.652 29.5191C159.5 29.3319 159.455 29.0653 159.517 28.7079L159.63 28.0839C159.692 27.7436 159.731 27.4543 159.753 27.2104C159.776 26.9722 159.782 26.7963 159.771 26.6885H160.869L160.863 26.6942ZM162.457 27.114L162.53 26.7056C162.671 26.7056 162.788 26.6772 162.879 26.6261C162.969 26.5751 163.031 26.4956 163.076 26.3993C163.099 26.3369 163.115 26.2858 163.121 26.2461H163.656C163.628 26.4049 163.567 26.5467 163.459 26.6772C163.358 26.8077 163.216 26.9154 163.048 26.9948C162.879 27.0743 162.682 27.114 162.462 27.114H162.457Z" fill="#6A1212"/>
            <path d="M164.36 29.7916C164.039 29.7916 163.764 29.7292 163.538 29.6101C163.313 29.491 163.149 29.3094 163.054 29.0768C162.958 28.8443 162.941 28.5493 162.997 28.2033C163.054 27.8573 163.178 27.568 163.358 27.3298C163.538 27.0915 163.758 26.9156 164.028 26.7966C164.299 26.6774 164.591 26.615 164.918 26.615C165.245 26.615 165.52 26.6774 165.746 26.7966C165.971 26.9156 166.129 27.0972 166.23 27.3298C166.326 27.568 166.348 27.8573 166.286 28.2033C166.224 28.5493 166.106 28.8386 165.926 29.0768C165.746 29.3151 165.52 29.491 165.255 29.6101C164.991 29.7292 164.693 29.7916 164.366 29.7916H164.36ZM164.163 30.9658C163.989 30.9658 163.859 30.9205 163.769 30.8353C163.685 30.7502 163.65 30.6368 163.679 30.495C163.701 30.3532 163.774 30.2397 163.893 30.1489C164.011 30.0582 164.157 30.0185 164.332 30.0185C164.506 30.0185 164.636 30.0639 164.726 30.1489C164.811 30.2397 164.845 30.3532 164.817 30.495C164.794 30.6368 164.721 30.7502 164.602 30.8353C164.484 30.9205 164.338 30.9658 164.163 30.9658ZM163.921 28.1977C163.898 28.3394 163.904 28.4586 163.949 28.5607C163.995 28.6628 164.062 28.7422 164.157 28.7933C164.259 28.8443 164.377 28.8726 164.518 28.8726C164.659 28.8726 164.794 28.8443 164.912 28.7933C165.03 28.7422 165.127 28.6628 165.205 28.5607C165.279 28.4586 165.329 28.3394 165.357 28.1977C165.38 28.0559 165.374 27.9367 165.334 27.8346C165.295 27.7325 165.222 27.6531 165.127 27.602C165.025 27.551 164.901 27.5227 164.76 27.5227C164.62 27.5227 164.484 27.551 164.372 27.602C164.253 27.6531 164.157 27.7325 164.078 27.8346C163.999 27.9367 163.949 28.0559 163.926 28.1977H163.921ZM165.413 27.1199L165.486 26.7114C165.628 26.7114 165.746 26.683 165.835 26.632C165.926 26.5809 165.987 26.5016 166.033 26.4051C166.056 26.3484 166.066 26.2974 166.078 26.252H166.612C166.585 26.4108 166.517 26.5583 166.415 26.6888C166.314 26.8193 166.18 26.9214 166.005 27.0008C165.835 27.0801 165.638 27.1199 165.419 27.1199H165.413Z" fill="#6A1212"/>
            <path d="M166.336 29.7063C166.387 29.6042 166.443 29.4341 166.511 29.2015C166.579 28.9689 166.64 28.6796 166.697 28.3336L166.776 27.8855C166.821 27.6302 166.849 27.3977 166.86 27.1878C166.871 26.9779 166.871 26.8134 166.86 26.6943H167.772C167.772 26.7793 167.762 26.8645 167.75 26.9609C167.739 27.0517 167.733 27.1424 167.722 27.2332C167.705 27.4317 167.688 27.6132 167.677 27.772L167.581 28.3336C167.519 28.6796 167.48 28.9689 167.463 29.2015C167.446 29.4341 167.44 29.6042 167.457 29.7063H166.331H166.336ZM168.42 29.7063C168.466 29.5929 168.521 29.4171 168.589 29.1845C168.657 28.9462 168.719 28.6626 168.775 28.3223L168.825 28.0386C168.854 27.8798 168.825 27.7551 168.741 27.6643C168.657 27.5735 168.533 27.5281 168.369 27.5281C168.218 27.5281 168.088 27.5678 167.975 27.653C167.863 27.738 167.778 27.8401 167.716 27.9593C167.654 28.0783 167.614 28.1918 167.592 28.3052H167.547L167.66 27.6643H167.772C167.851 27.3296 167.987 27.0687 168.184 26.8814C168.381 26.6943 168.628 26.6035 168.927 26.6035C169.248 26.6035 169.49 26.6943 169.642 26.8814C169.794 27.0687 169.845 27.3183 169.789 27.6416L169.671 28.3223C169.614 28.657 169.575 28.9406 169.552 29.1788C169.529 29.4171 169.529 29.5929 169.541 29.712H168.42V29.7063Z" fill="#6A1212"/>
            <path d="M173.747 26.6947C173.691 26.8194 173.635 27.001 173.568 27.2392C173.499 27.4775 173.444 27.7611 173.387 28.0787L173.128 29.5479C173.066 29.9109 172.931 30.2003 172.734 30.4101C172.531 30.6257 172.3 30.7788 172.036 30.864C171.771 30.9547 171.501 30.9944 171.213 30.9944C171.016 30.9944 170.836 30.983 170.689 30.9661C170.537 30.949 170.385 30.9264 170.233 30.898C170.149 30.8809 170.07 30.8696 169.997 30.864C169.924 30.8583 169.862 30.8526 169.811 30.8583L170.188 29.9677H170.2C170.284 30.0301 170.419 30.0868 170.6 30.1435C170.78 30.2003 170.994 30.2287 171.235 30.2287C171.506 30.2287 171.714 30.1776 171.866 30.0755C172.018 29.9734 172.114 29.8542 172.165 29.7238C172.215 29.5933 172.255 29.4401 172.289 29.27V29.236L172.576 27.6307L172.829 26.6833H173.759L173.747 26.6947ZM172.531 28.4134C172.48 28.6857 172.396 28.9182 172.272 29.1168C172.154 29.3097 172.002 29.4629 171.815 29.565C171.63 29.6671 171.41 29.7181 171.152 29.7181C170.695 29.7181 170.385 29.599 170.217 29.3551C170.048 29.1168 170.008 28.7368 170.099 28.2149C170.16 27.8802 170.261 27.591 170.408 27.3526C170.554 27.1144 170.734 26.9329 170.955 26.8025C171.174 26.6776 171.416 26.6152 171.681 26.6152C172.002 26.6152 172.227 26.7004 172.367 26.8762C172.509 27.052 172.565 27.2903 172.537 27.591H172.666L172.588 28.0277H172.497C172.509 27.9597 172.497 27.8859 172.446 27.8008C172.401 27.7157 172.322 27.6476 172.221 27.591C172.114 27.5342 171.979 27.5058 171.805 27.5058C171.608 27.5058 171.433 27.5569 171.281 27.6703C171.134 27.7781 171.038 27.9597 170.994 28.2149C170.994 28.2432 170.982 28.266 170.982 28.2887C170.959 28.5042 171.005 28.6574 171.107 28.7481C171.213 28.8389 171.365 28.8842 171.562 28.8842C171.72 28.8842 171.861 28.8559 171.985 28.8048C172.114 28.7481 172.215 28.6857 172.294 28.6063C172.373 28.5269 172.418 28.4531 172.43 28.385L172.525 28.4134H172.531Z" fill="#6A1212"/>
        </g>
    </g>
    <defs>
        <linearGradient id="paint0_linear_5_1000" x1="120.226" y1="21.6068" x2="120.226" y2="0.198918" gradientUnits="userSpaceOnUse">
            <stop stop-color="#CB3433"/>
            <stop offset="1" stop-color="#751414"/>
        </linearGradient>
        <clipPath id="clip0_5_1000">
            <rect width="176" height="31" fill="white"/>
        </clipPath>
    </defs>
</svg>