<svg xmlns="http://www.w3.org/2000/svg" width="20" height="20" viewBox="0 0 20 20" fill="none">
    <path d="M1.35498 18.6637H8.65519C8.79846 18.6578 8.93965 18.6994 9.05686 18.782C9.17407 18.8646 9.26074 18.9836 9.30342 19.1205C9.35126 19.2523 9.35386 19.3962 9.31079 19.5296C9.26772 19.663 9.18145 19.7783 9.06559 19.8572C8.95265 19.9356 8.82003 19.9808 8.68274 19.9877C6.01151 19.9954 3.3398 19.9954 0.667599 19.9877C0.577618 19.9885 0.488441 19.9707 0.405671 19.9354C0.322901 19.9001 0.248326 19.8481 0.186632 19.7826C0.124939 19.7171 0.0774595 19.6395 0.0471775 19.5548C0.0168956 19.47 0.00446546 19.3799 0.0106681 19.2902C0.0106681 17.6592 0.0106681 16.0287 0.0106681 14.3987C0.00921791 9.86402 0.0150186 5.33656 0.00196701 0.804748C-0.00583076 0.697309 0.00961482 0.589451 0.0472521 0.488519C0.0848894 0.387587 0.143834 0.29595 0.220074 0.219848C0.296313 0.143747 0.388056 0.0849672 0.489056 0.0475124C0.590056 0.0100575 0.697942 -0.00519316 0.805366 0.00279871C6.49587 0.0144001 12.1859 0.0144001 17.8754 0.00279871C17.9812 -0.00354287 18.0872 0.0126307 18.1863 0.0502519C18.2854 0.0878732 18.3755 0.146087 18.4504 0.221051C18.5254 0.296015 18.5836 0.386024 18.6212 0.485139C18.6588 0.584255 18.675 0.690221 18.6687 0.796047C18.6513 3.18304 18.6614 5.57004 18.66 7.95703C18.6648 8.04689 18.6514 8.1368 18.6205 8.22132C18.5896 8.30584 18.5418 8.38322 18.4802 8.44877C18.4185 8.51433 18.3442 8.5667 18.2618 8.60272C18.1793 8.63875 18.0904 8.65767 18.0004 8.65836C17.9104 8.65905 17.8212 8.64148 17.7382 8.60672C17.6552 8.57196 17.5801 8.52073 17.5174 8.45612C17.4548 8.39151 17.4059 8.31488 17.3737 8.23084C17.3415 8.1468 17.3267 8.05711 17.3302 7.96718C17.3302 5.85089 17.3302 3.73459 17.3302 1.6183V1.35582H11.9993V1.57914C11.9993 2.58557 11.9993 3.59151 11.9993 4.59697C11.9993 5.08133 11.7412 5.33801 11.2525 5.33801H7.39788C6.92947 5.33801 6.67279 5.07407 6.67279 4.60132C6.67279 3.52528 6.67279 2.4507 6.67279 1.35727H1.35498V18.6637ZM10.6608 1.35872H8.01421V3.99369H10.6608V1.35872Z" fill="#6B7280"/>
    <path d="M18.7818 17.8472C19.111 18.1735 19.433 18.4882 19.752 18.8072C20.071 19.1263 20.0783 19.5323 19.797 19.8021C19.5156 20.0718 19.1154 20.0573 18.8021 19.7455C18.4889 19.4337 18.167 19.1074 17.8421 18.7797C16.4108 19.8528 14.8272 20.2386 13.0884 19.8543C11.7405 19.5706 10.5493 18.7885 9.75302 17.6645C9.133 16.8116 8.76335 15.8026 8.68568 14.751C8.60801 13.6994 8.8254 12.6471 9.31338 11.7123C9.80137 10.7776 10.5406 9.99766 11.4478 9.46025C12.355 8.92285 13.3942 8.64934 14.4484 8.67051C15.5027 8.69169 16.53 9.0067 17.4149 9.5801C18.2999 10.1535 19.0071 10.9625 19.4572 11.9161C19.9073 12.8696 20.0822 13.9299 19.9624 14.9775C19.8426 16.0251 19.4327 17.0185 18.7789 17.8458L18.7818 17.8472ZM10.0083 14.3276C10.006 15.1847 10.258 16.0231 10.7326 16.7368C11.2071 17.4505 11.8828 18.0073 12.674 18.3368C13.4652 18.6662 14.3364 18.7535 15.1772 18.5875C16.018 18.4215 16.7907 18.0097 17.3973 17.4043C18.004 16.7988 18.4173 16.027 18.585 15.1865C18.7527 14.346 18.6672 13.4747 18.3394 12.6828C18.0115 11.8909 17.4561 11.2142 16.7433 10.7382C16.0306 10.2622 15.1926 10.0084 14.3356 10.009C13.1913 10.0151 12.0954 10.4717 11.2855 11.2801C10.4755 12.0884 10.0166 13.1833 10.0083 14.3276Z" fill="#6B7280"/>
    <path d="M3.66229 16.6639H3.3505C3.26057 16.6681 3.17073 16.654 3.0864 16.6225C3.00207 16.591 2.92501 16.5427 2.85988 16.4805C2.79475 16.4184 2.74291 16.3437 2.70749 16.2609C2.67207 16.1781 2.65381 16.089 2.65381 15.999C2.65381 15.909 2.67207 15.8199 2.70749 15.7371C2.74291 15.6544 2.79475 15.5796 2.85988 15.5175C2.92501 15.4553 3.00207 15.407 3.0864 15.3755C3.17073 15.344 3.26057 15.3299 3.3505 15.3341C3.57238 15.3341 3.79426 15.3341 4.01613 15.3341C4.19248 15.3341 4.3616 15.4042 4.48629 15.5288C4.61099 15.6535 4.68104 15.8227 4.68104 15.999C4.68104 16.1754 4.61099 16.3445 4.48629 16.4692C4.3616 16.5939 4.19248 16.6639 4.01613 16.6639C3.89867 16.6654 3.7812 16.6625 3.66229 16.6639Z" fill="#6B7280"/>
    <path d="M6.33622 16.664C6.22455 16.664 6.11434 16.664 6.00268 16.664C5.82633 16.664 5.65721 16.5939 5.53252 16.4692C5.40782 16.3445 5.33777 16.1754 5.33777 15.9991C5.33777 15.8227 5.40782 15.6536 5.53252 15.5289C5.65721 15.4042 5.82633 15.3342 6.00268 15.3342C6.22504 15.3342 6.44691 15.3342 6.66831 15.3342C6.84465 15.3342 7.01377 15.4042 7.13847 15.5289C7.26316 15.6536 7.33322 15.8227 7.33322 15.9991C7.33322 16.1754 7.26316 16.3445 7.13847 16.4692C7.01377 16.5939 6.84465 16.664 6.66831 16.664C6.55809 16.6654 6.44788 16.664 6.33622 16.664Z" fill="#6B7280"/>
    <path d="M12.6648 14.3291C12.6648 14.7641 12.6648 15.1992 12.6648 15.6342C12.669 15.7241 12.6549 15.814 12.6234 15.8983C12.5918 15.9826 12.5435 16.0597 12.4814 16.1248C12.4192 16.19 12.3445 16.2418 12.2617 16.2772C12.179 16.3126 12.0899 16.3309 11.9999 16.3309C11.9098 16.3309 11.8207 16.3126 11.738 16.2772C11.6552 16.2418 11.5805 16.19 11.5183 16.1248C11.4562 16.0597 11.4079 15.9826 11.3764 15.8983C11.3448 15.814 11.3308 15.7241 11.335 15.6342C11.335 14.7641 11.335 13.8896 11.335 13.0108C11.3308 12.9209 11.3448 12.8311 11.3764 12.7467C11.4079 12.6624 11.4562 12.5853 11.5183 12.5202C11.5805 12.4551 11.6552 12.4033 11.738 12.3678C11.8207 12.3324 11.9098 12.3141 11.9999 12.3141C12.0899 12.3141 12.179 12.3324 12.2617 12.3678C12.3445 12.4033 12.4192 12.4551 12.4814 12.5202C12.5435 12.5853 12.5918 12.6624 12.6234 12.7467C12.6549 12.8311 12.669 12.9209 12.6648 13.0108C12.6677 13.4546 12.6648 13.8926 12.6648 14.3291Z" fill="#6B7280"/>
    <path d="M15.3301 14.3262C15.3301 14.7613 15.3301 15.1963 15.3301 15.6314C15.3337 15.7213 15.319 15.811 15.2869 15.8951C15.2548 15.9792 15.206 16.0559 15.1434 16.1206C15.0808 16.1853 15.0058 16.2366 14.9228 16.2715C14.8399 16.3063 14.7507 16.324 14.6607 16.3234C14.5707 16.3228 14.4817 16.304 14.3992 16.2681C14.3167 16.2321 14.2423 16.1798 14.1806 16.1143C14.1189 16.0488 14.0711 15.9715 14.0401 15.887C14.0091 15.8025 13.9956 15.7126 14.0003 15.6227C14.0003 14.7526 14.0003 13.8854 14.0003 13.0211C13.9967 12.9311 14.0115 12.8414 14.0435 12.7573C14.0756 12.6733 14.1244 12.5965 14.187 12.5319C14.2496 12.4672 14.3246 12.4159 14.4076 12.381C14.4906 12.3461 14.5798 12.3285 14.6698 12.3291C14.7598 12.3296 14.8487 12.3485 14.9312 12.3844C15.0138 12.4204 15.0881 12.4727 15.1498 12.5382C15.2116 12.6037 15.2594 12.681 15.2904 12.7655C15.3213 12.85 15.3349 12.9399 15.3301 13.0298C15.3316 13.4648 15.3301 13.8955 15.3301 14.3262Z" fill="#6B7280"/>
    <path d="M17.3287 14.3321C17.3287 14.7672 17.3287 15.2022 17.3287 15.6373C17.3329 15.7272 17.3188 15.817 17.2873 15.9014C17.2558 15.9857 17.2075 16.0628 17.1453 16.1279C17.0832 16.193 17.0085 16.2449 16.9257 16.2803C16.8429 16.3157 16.7538 16.334 16.6638 16.334C16.5738 16.334 16.4847 16.3157 16.4019 16.2803C16.3191 16.2449 16.2444 16.193 16.1823 16.1279C16.1201 16.0628 16.0718 15.9857 16.0403 15.9014C16.0088 15.817 15.9947 15.7272 15.9989 15.6373C15.9989 14.7672 15.9989 13.8927 15.9989 13.0139C15.9947 12.924 16.0088 12.8341 16.0403 12.7498C16.0718 12.6655 16.1201 12.5884 16.1823 12.5233C16.2444 12.4581 16.3191 12.4063 16.4019 12.3709C16.4847 12.3355 16.5738 12.3172 16.6638 12.3172C16.7538 12.3172 16.8429 12.3355 16.9257 12.3709C17.0085 12.4063 17.0832 12.4581 17.1453 12.5233C17.2075 12.5884 17.2558 12.6655 17.2873 12.7498C17.3188 12.8341 17.3329 12.924 17.3287 13.0139C17.3302 13.4576 17.3287 13.8956 17.3287 14.3321Z" fill="#6B7280"/>
</svg>