<svg xmlns="http://www.w3.org/2000/svg" width="14" height="14" viewBox="0 0 14 14" fill="none">
    <path d="M9.91668 12.25V11.0833C9.91668 10.4645 9.67084 9.871 9.23326 9.43342C8.79567 8.99583 8.20218 8.75 7.58334 8.75H2.91668C2.29784 8.75 1.70435 8.99583 1.26676 9.43342C0.829176 9.871 0.583344 10.4645 0.583344 11.0833V12.25" stroke="#353535"/>
    <path d="M5.24999 6.41667C6.53865 6.41667 7.58332 5.372 7.58332 4.08333C7.58332 2.79467 6.53865 1.75 5.24999 1.75C3.96133 1.75 2.91666 2.79467 2.91666 4.08333C2.91666 5.372 3.96133 6.41667 5.24999 6.41667Z" stroke="#353535"/>
    <path d="M13.4167 12.25V11.0833C13.4163 10.5663 13.2442 10.0641 12.9275 9.65549C12.6107 9.24689 12.1673 8.95505 11.6667 8.82581M9.33334 1.82581C9.83525 1.95431 10.2801 2.24621 10.5978 2.65549C10.9155 3.06476 11.0879 3.56812 11.0879 4.08622C11.0879 4.60432 10.9155 5.10769 10.5978 5.51696C10.2801 5.92623 9.83525 6.21813 9.33334 6.34664" stroke="#353535"/>
</svg>