<svg xmlns="http://www.w3.org/2000/svg" width="14" height="15" viewBox="0 0 14 15" fill="none">
    <path d="M9.95668 7.22257C9.7142 5.80905 8.48271 4.7334 7 4.7334C5.34315 4.7334 4 6.07655 4 7.7334C4 9.39025 5.34315 10.7334 7 10.7334C7.8885 10.7334 8.68679 10.3471 9.23611 9.7334" stroke="#B92F2E" stroke-linecap="round" stroke-linejoin="round"/>
    <path d="M7 13.75C11 13.75 13.25 11.5 13.25 7.5C13.25 3.5 11 1.25 7 1.25C3 1.25 0.75 3.5 0.75 7.5C0.75 11.5 3 13.75 7 13.75Z" stroke="#B92F2E" stroke-linecap="round" stroke-linejoin="round"/>
    <path d="M10.9728 5.5C11.0885 6.27151 10.8354 6.93007 10.2134 7.47567C9.34905 7.57902 8.61124 7.3531 8 6.7979" stroke="#B92F2E" stroke-linecap="round" stroke-linejoin="round"/>
</svg>