<svg width="25" height="24" viewBox="0 0 25 24" fill="none" xmlns="http://www.w3.org/2000/svg">
<g id="Setting">
<path id="Vector" d="M22.1751 14.6649L20.6399 13.3524C20.7126 12.9071 20.7501 12.4524 20.7501 11.9978C20.7501 11.5431 20.7126 11.0884 20.6399 10.6431L22.1751 9.33057C22.2908 9.23144 22.3737 9.09942 22.4127 8.95205C22.4516 8.80468 22.4447 8.64895 22.393 8.50557L22.3719 8.44463C21.9493 7.26343 21.3165 6.16845 20.504 5.2126L20.4618 5.16338C20.3632 5.04749 20.2318 4.96418 20.085 4.92443C19.9381 4.88468 19.7827 4.89036 19.6391 4.94072L17.7336 5.61807C17.0305 5.0415 16.2454 4.58682 15.3969 4.26807L15.029 2.27588C15.0012 2.12598 14.9285 1.98807 14.8205 1.88048C14.7125 1.77289 14.5743 1.70071 14.4243 1.67354L14.361 1.66182C13.1399 1.4415 11.8555 1.4415 10.6344 1.66182L10.5711 1.67354C10.4211 1.70071 10.283 1.77289 10.1749 1.88048C10.0669 1.98807 9.99422 2.12598 9.96646 2.27588L9.59615 4.27744C8.75449 4.59627 7.97069 5.05072 7.27584 5.62275L5.3563 4.94072C5.21279 4.88996 5.05722 4.88408 4.91028 4.92385C4.76333 4.96362 4.63197 5.04716 4.53365 5.16338L4.49146 5.2126C3.67992 6.16913 3.04718 7.26393 2.62349 8.44463L2.6024 8.50557C2.49693 8.79853 2.58365 9.12666 2.82037 9.33057L4.37427 10.6571C4.30162 11.0978 4.26646 11.5478 4.26646 11.9954C4.26646 12.4454 4.30162 12.8954 4.37427 13.3337L2.82037 14.6603C2.70457 14.7594 2.6217 14.8914 2.58277 15.0388C2.54383 15.1861 2.55068 15.3419 2.6024 15.4853L2.62349 15.5462C3.04771 16.7274 3.67583 17.8173 4.49146 18.7782L4.53365 18.8274C4.63221 18.9433 4.76358 19.0266 4.91043 19.0664C5.05729 19.1061 5.21274 19.1005 5.3563 19.0501L7.27584 18.3681C7.97427 18.9423 8.75474 19.397 9.59615 19.7134L9.96646 21.7149C9.99422 21.8648 10.0669 22.0027 10.1749 22.1103C10.283 22.2179 10.4211 22.2901 10.5711 22.3173L10.6344 22.329C11.8667 22.5505 13.1287 22.5505 14.361 22.329L14.4243 22.3173C14.5743 22.2901 14.7125 22.2179 14.8205 22.1103C14.9285 22.0027 15.0012 21.8648 15.029 21.7149L15.3969 19.7228C16.245 19.4048 17.0346 18.9487 17.7336 18.3728L19.6391 19.0501C19.7826 19.1009 19.9382 19.1067 20.0851 19.067C20.2321 19.0272 20.3634 18.9437 20.4618 18.8274L20.504 18.7782C21.3196 17.8149 21.9477 16.7274 22.3719 15.5462L22.393 15.4853C22.4985 15.197 22.4118 14.8688 22.1751 14.6649ZM18.9758 10.9196C19.0344 11.2735 19.0649 11.6368 19.0649 12.0001C19.0649 12.3634 19.0344 12.7267 18.9758 13.0806L18.8211 14.0204L20.5719 15.5181C20.3065 16.1295 19.9715 16.7084 19.5735 17.2431L17.3985 16.472L16.6626 17.0767C16.1024 17.536 15.479 17.897 14.804 18.1501L13.911 18.4853L13.4915 20.7587C12.8295 20.8337 12.1612 20.8337 11.4993 20.7587L11.0797 18.4806L10.1938 18.1407C9.52584 17.8876 8.90474 17.5267 8.34927 17.0696L7.61334 16.4626L5.42427 17.2407C5.02584 16.704 4.69302 16.1251 4.42583 15.5157L6.19537 14.004L6.04302 13.0665C5.98677 12.7173 5.9563 12.3563 5.9563 12.0001C5.9563 11.6415 5.98443 11.2829 6.04302 10.9337L6.19537 9.99619L4.42583 8.48447C4.69068 7.87275 5.02584 7.29619 5.42427 6.75947L7.61334 7.5376L8.34927 6.93057C8.90474 6.47354 9.52584 6.1126 10.1938 5.85947L11.0821 5.52432L11.5016 3.24619C12.1602 3.17119 12.8329 3.17119 13.4938 3.24619L13.9133 5.51963L14.8063 5.85478C15.479 6.10791 16.1047 6.46885 16.6649 6.92822L17.4008 7.53291L19.5758 6.76182C19.9743 7.29853 20.3071 7.87744 20.5743 8.48682L18.8235 9.98447L18.9758 10.9196ZM12.5001 7.64072C10.2219 7.64072 8.37505 9.4876 8.37505 11.7657C8.37505 14.0438 10.2219 15.8907 12.5001 15.8907C14.7782 15.8907 16.6251 14.0438 16.6251 11.7657C16.6251 9.4876 14.7782 7.64072 12.5001 7.64072ZM14.3563 13.622C14.1128 13.8661 13.8235 14.0598 13.5049 14.1917C13.1864 14.3236 12.8449 14.3913 12.5001 14.3907C11.7993 14.3907 11.1407 14.1165 10.6438 13.622C10.3996 13.3785 10.206 13.0892 10.0741 12.7706C9.94216 12.452 9.87452 12.1105 9.87505 11.7657C9.87505 11.0649 10.1493 10.4063 10.6438 9.90947C11.1407 9.4126 11.7993 9.14072 12.5001 9.14072C13.2008 9.14072 13.8594 9.4126 14.3563 9.90947C14.6005 10.1529 14.7941 10.4423 14.926 10.7608C15.0579 11.0794 15.1256 11.4209 15.1251 11.7657C15.1251 12.4665 14.8508 13.1251 14.3563 13.622Z" fill="#353535"/>
</g>
</svg>
