<svg width="32" height="32" viewBox="0 0 32 32" fill="none" xmlns="http://www.w3.org/2000/svg">
<path fill-rule="evenodd" clip-rule="evenodd" d="M6.51984 2.66664H24.1465C26.2277 2.62936 27.9489 4.279 27.9998 6.35997V14.36C27.3941 13.7607 26.7074 13.249 25.9598 12.84C22.4716 10.9821 18.2037 11.4347 15.1828 13.9829C12.1618 16.5312 10.9964 20.6619 12.2398 24.4133C12.4978 25.2116 12.8658 25.97 13.3332 26.6667H6.51984C4.43349 26.7039 2.71025 25.0461 2.6665 22.96V6.3733C2.71025 4.28709 4.43349 2.62944 6.51984 2.66664ZM9.33317 10.6666H21.3332C22.0696 10.6666 22.6665 10.0697 22.6665 9.3333C22.6665 8.59692 22.0696 7.99997 21.3332 7.99997H9.33317C8.5968 7.99997 7.99984 8.59692 7.99984 9.3333C7.99984 10.0697 8.5968 10.6666 9.33317 10.6666Z" fill="white"/>
<path fill-rule="evenodd" clip-rule="evenodd" d="M25.3335 14.0133C26.375 14.58 27.284 15.3617 28.0002 16.3067C29.0964 17.7517 29.6826 19.5196 29.6668 21.3333C29.6788 24.8541 27.4768 28.0027 24.1655 29.1992C20.8542 30.3957 17.1482 29.382 14.9068 26.6667C14.2546 25.878 13.757 24.9732 13.4402 24C12.5813 21.4569 12.9999 18.6557 14.5648 16.4749C16.1298 14.2941 18.6494 13.0006 21.3335 13C22.7302 13.0016 24.1046 13.3499 25.3335 14.0133ZM21.8935 22.6667H24.0002V22.6133C24.7366 22.6133 25.3335 22.0164 25.3335 21.28C25.3335 20.5436 24.7366 19.9467 24.0002 19.9467H21.9468L22.3335 19.56C22.8563 19.0372 22.8563 18.1895 22.3335 17.6667C21.8107 17.1439 20.9631 17.1439 20.4402 17.6667L17.7735 20.3333C17.4243 20.6819 17.296 21.1948 17.4402 21.6667C17.4283 21.7283 17.4283 21.7917 17.4402 21.8533C17.5052 22.0123 17.6003 22.1571 17.7202 22.28L20.3868 24.9467C20.6372 25.1991 20.978 25.3411 21.3335 25.3411C21.6891 25.3411 22.0299 25.1991 22.2802 24.9467C22.5326 24.6963 22.6746 24.3555 22.6746 24C22.6746 23.6445 22.5326 23.3037 22.2802 23.0533L21.8935 22.6667Z" fill="white"/>
</svg>
