<svg width="108" height="108" viewBox="0 0 108 108" fill="none" xmlns="http://www.w3.org/2000/svg">
<g clip-path="url(#clip0_4423_7524)">
<path d="M52.4741 0.348838L4.11271 23.6958C3.50627 23.9886 3.12109 24.6024 3.12109 25.2757V82.7242C3.12109 83.3975 3.50648 84.0113 4.11271 84.3041L52.4741 107.651C53.4379 108.116 54.5614 108.116 55.5251 107.651L103.887 84.3041C104.493 84.0113 104.878 83.3975 104.878 82.7242V25.2757C104.878 24.6024 104.493 23.9886 103.887 23.6958L55.5251 0.348838C54.5614 -0.116279 53.4379 -0.116279 52.4741 0.348838Z" fill="#FFE17D"/>
<path d="M3.41282 24.3154C3.22846 24.5962 3.12109 24.9267 3.12109 25.2758V82.7242C3.12109 83.3975 3.50648 84.0114 4.11271 84.3041L52.4741 107.651C52.9559 107.884 53.4778 108 53.9996 108V48.7367L3.41282 24.3154Z" fill="#FFC350"/>
<path d="M104.587 24.3154C104.771 24.5962 104.879 24.9267 104.879 25.2758V82.7242C104.879 83.3976 104.493 84.0114 103.887 84.3042L55.5255 107.651C55.0437 107.884 54.5219 108 54 108V48.7367L104.587 24.3154Z" fill="#FFD164"/>
<path d="M17.5936 79.662C17.3383 79.662 17.0778 79.6055 16.8329 79.4874L9.36636 75.8827C8.49266 75.4612 8.12774 74.4126 8.54919 73.5406C8.96896 72.6686 10.0209 72.3054 10.8912 72.7235L18.3578 76.3284C19.2315 76.7498 19.5964 77.7984 19.175 78.6704C18.8735 79.2971 18.2464 79.662 17.5936 79.662Z" fill="#FFE17D"/>
<path d="M24.466 75.1888C24.2108 75.1888 23.9503 75.1322 23.7054 75.0141L9.37682 68.0975C8.5048 67.676 8.13819 66.6274 8.55964 65.7554C8.97941 64.8851 10.033 64.5202 10.9017 64.9383L25.23 71.8549C26.1021 72.2763 26.4687 73.3249 26.0472 74.1969C25.746 74.8236 25.1189 75.1888 24.466 75.1888Z" fill="#FFF6D8"/>
<path d="M87.4444 32.5629L36.6797 8.0387L23.2979 14.525L74.1764 39.0872L87.4444 32.5629Z" fill="#464646"/>
<path d="M74.1758 39.0873V58.1154C74.1758 58.7621 74.8518 59.1865 75.4344 58.9053L86.4521 53.5865C87.0586 53.2937 87.4437 52.6799 87.4437 52.0066V32.5632L74.1758 39.0873Z" fill="#010101"/>
</g>
<defs>
<clipPath id="clip0_4423_7524">
<rect width="108" height="108" fill="white"/>
</clipPath>
</defs>
</svg>
