<svg width="18" height="16" viewBox="0 0 18 16" fill="none" xmlns="http://www.w3.org/2000/svg">
<path d="M12.125 1.33337L12.8147 0.609236C12.6287 0.432149 12.3818 0.333374 12.125 0.333374V1.33337ZM16.5 5.50004H17.5C17.5 5.22636 17.3878 4.96465 17.1897 4.7759L16.5 5.50004ZM15.135 11.0609L14.681 10.1699L15.135 11.0609ZM16.2275 9.96835L15.3365 9.51436L16.2275 9.96835ZM5.10582 9.96835L5.99682 9.51436L5.99682 9.51436L5.10582 9.96835ZM6.19836 11.0609L5.74437 11.9519H5.74437L6.19836 11.0609ZM6.19836 1.60586L6.65235 2.49686L6.65235 2.49686L6.19836 1.60586ZM5.10582 2.6984L5.99682 3.15239L5.99682 3.15239L5.10582 2.6984ZM12.5 1.33337C12.5 0.781089 12.0523 0.333374 11.5 0.333374C10.9477 0.333374 10.5 0.781089 10.5 1.33337H12.5ZM12.41 5.31838L11.956 6.20939L12.41 5.31838ZM11.6817 4.59002L12.5727 4.13603V4.13603L11.6817 4.59002ZM2.5 3.00004C2.5 2.44776 2.05228 2.00004 1.5 2.00004C0.947715 2.00004 0.5 2.44776 0.5 3.00004H2.5ZM14 15.6667C14.5523 15.6667 15 15.219 15 14.6667C15 14.1144 14.5523 13.6667 14 13.6667V15.6667ZM12.125 0.333374H8.83333V2.33337H12.125V0.333374ZM3.83333 5.33337V7.33337H5.83333V5.33337H3.83333ZM8.83333 12.3334H12.5V10.3334H8.83333V12.3334ZM17.5 7.33337V5.50004H15.5V7.33337H17.5ZM17.1897 4.7759L12.8147 0.609236L11.4353 2.05751L15.8103 6.22418L17.1897 4.7759ZM12.5 12.3334C13.1836 12.3334 13.7564 12.3342 14.2234 12.296C14.7021 12.2569 15.1571 12.1719 15.589 11.9519L14.681 10.1699C14.5781 10.2223 14.4156 10.2736 14.0606 10.3026C13.6938 10.3326 13.2166 10.3334 12.5 10.3334V12.3334ZM15.5 7.33337C15.5 8.04994 15.4992 8.52722 15.4693 8.89394C15.4403 9.24898 15.389 9.41144 15.3365 9.51436L17.1185 10.4223C17.3386 9.99048 17.4235 9.53552 17.4626 9.0568C17.5008 8.58975 17.5 8.01694 17.5 7.33337H15.5ZM15.589 11.9519C16.2475 11.6163 16.783 11.0809 17.1185 10.4223L15.3365 9.51436C15.1927 9.7966 14.9632 10.0261 14.681 10.1699L15.589 11.9519ZM3.83333 7.33337C3.83333 8.01694 3.83256 8.58975 3.87071 9.0568C3.90983 9.53552 3.99477 9.99048 4.21481 10.4223L5.99682 9.51436C5.94438 9.41144 5.89308 9.24898 5.86407 8.89394C5.83411 8.52722 5.83333 8.04994 5.83333 7.33337H3.83333ZM8.83333 10.3334C8.11677 10.3334 7.63948 10.3326 7.27277 10.3026C6.91773 10.2736 6.75527 10.2223 6.65235 10.1699L5.74437 11.9519C6.17622 12.1719 6.63118 12.2569 7.10991 12.296C7.57695 12.3342 8.14977 12.3334 8.83333 12.3334V10.3334ZM4.21481 10.4223C4.55037 11.0809 5.0858 11.6163 5.74437 11.9519L6.65235 10.1699C6.3701 10.0261 6.14063 9.7966 5.99682 9.51436L4.21481 10.4223ZM8.83333 0.333374C8.14977 0.333374 7.57695 0.332596 7.10991 0.370756C6.63118 0.409869 6.17622 0.494809 5.74437 0.714851L6.65235 2.49686C6.75527 2.44442 6.91773 2.39312 7.27277 2.36411C7.63948 2.33415 8.11677 2.33337 8.83333 2.33337V0.333374ZM5.83333 5.33337C5.83333 4.61681 5.83411 4.13952 5.86407 3.77281C5.89308 3.41777 5.94438 3.25531 5.99682 3.15239L4.21481 2.24441C3.99477 2.67626 3.90983 3.13123 3.87071 3.60995C3.83256 4.07699 3.83333 4.64981 3.83333 5.33337H5.83333ZM5.74437 0.714851C5.0858 1.05041 4.55037 1.58584 4.21481 2.24441L5.99682 3.15239C6.14063 2.87015 6.3701 2.64067 6.65235 2.49686L5.74437 0.714851ZM16.5 4.50004H14.1667V6.50004H16.5V4.50004ZM12.5 2.83337V1.33337H10.5V2.83337H12.5ZM14.1667 4.50004C13.6835 4.50004 13.3812 4.49926 13.1534 4.48065C12.9374 4.463 12.8778 4.43441 12.864 4.42738L11.956 6.20939C12.2988 6.38402 12.6508 6.44625 12.9906 6.47401C13.3187 6.50082 13.7165 6.50004 14.1667 6.50004V4.50004ZM10.5 2.83337C10.5 3.28358 10.4992 3.68138 10.526 4.00947C10.5538 4.34923 10.616 4.70129 10.7906 5.04402L12.5727 4.13603C12.5656 4.12224 12.537 4.06268 12.5194 3.84661C12.5008 3.61885 12.5 3.31659 12.5 2.83337H10.5ZM12.864 4.42738C12.7386 4.36346 12.6366 4.26148 12.5727 4.13603L10.7906 5.04402C11.0463 5.54578 11.4543 5.95373 11.956 6.20939L12.864 4.42738ZM0.5 3.00004V9.66671H2.5V3.00004H0.5ZM6.5 15.6667H14V13.6667H6.5V15.6667ZM0.5 9.66671C0.5 12.9804 3.18629 15.6667 6.5 15.6667V13.6667C4.29086 13.6667 2.5 11.8758 2.5 9.66671H0.5Z" fill="#6B7280"/>
</svg>
