<svg width="27" height="27" viewBox="0 0 27 27" fill="none" xmlns="http://www.w3.org/2000/svg">
<path d="M1 8.5C1 5.87475 1 4.56213 1.51091 3.55942C1.96031 2.67741 2.67741 1.96031 3.55942 1.51091C4.56213 1 5.87475 1 8.5 1H18.5C21.1252 1 22.4379 1 23.4406 1.51091C24.3226 1.96031 25.0397 2.67741 25.4891 3.55942C26 4.56213 26 5.87475 26 8.5V18.5C26 21.1252 26 22.4379 25.4891 23.4406C25.0397 24.3226 24.3226 25.0397 23.4406 25.4891C22.4379 26 21.1252 26 18.5 26H8.5C5.87475 26 4.56213 26 3.55942 25.4891C2.67741 25.0397 1.96031 24.3226 1.51091 23.4406C1 22.4379 1 21.1252 1 18.5V8.5Z" fill="#B62222"/>
<path d="M8.8125 10.375H18.1875M18.1875 10.375L15.0625 7.25M18.1875 10.375L15.0625 13.5M1 16.625H5.17893C5.94328 16.625 6.32545 16.625 6.6851 16.7113C7.00396 16.7879 7.30879 16.9142 7.58839 17.0855C7.90375 17.2788 8.17399 17.549 8.71447 18.0895L8.91053 18.2855C9.45101 18.826 9.72125 19.0962 10.0366 19.2895C10.3162 19.4608 10.621 19.5871 10.9399 19.6637C11.2995 19.75 11.6817 19.75 12.4461 19.75H14.5539C15.3183 19.75 15.7005 19.75 16.0601 19.6637C16.379 19.5871 16.6838 19.4608 16.9634 19.2895C17.2788 19.0962 17.549 18.826 18.0895 18.2855L18.2855 18.0895C18.826 17.549 19.0962 17.2788 19.4116 17.0855C19.6912 16.9142 19.996 16.7879 20.3149 16.7113C20.6745 16.625 21.0567 16.625 21.8211 16.625H26M8.5 26H18.5C21.1252 26 22.4379 26 23.4406 25.4891C24.3226 25.0397 25.0397 24.3226 25.4891 23.4406C26 22.4379 26 21.1252 26 18.5V8.5C26 5.87475 26 4.56213 25.4891 3.55942C25.0397 2.67741 24.3226 1.96031 23.4406 1.51091C22.4379 1 21.1252 1 18.5 1H8.5C5.87475 1 4.56213 1 3.55942 1.51091C2.67741 1.96031 1.96031 2.67741 1.51091 3.55942C1 4.56213 1 5.87475 1 8.5V18.5C1 21.1252 1 22.4379 1.51091 23.4406C1.96031 24.3226 2.67741 25.0397 3.55942 25.4891C4.56213 26 5.87475 26 8.5 26Z" stroke="white" stroke-width="1.5" stroke-linecap="round" stroke-linejoin="round"/>
</svg>
