<svg width="31" height="30" viewBox="0 0 31 30" fill="none" xmlns="http://www.w3.org/2000/svg">
<path d="M27.0508 6.875C27.0508 17.5755 18.3763 26.25 7.67578 26.25C7.19301 26.25 6.71435 26.2323 6.24044 26.1976C5.69655 26.1578 5.42461 26.1379 5.17707 25.9954C4.97205 25.8773 4.7776 25.6681 4.67485 25.455C4.55078 25.1977 4.55078 24.8977 4.55078 24.2975V20.7759C4.55078 20.2712 4.55078 20.0188 4.63385 19.8025C4.70722 19.6114 4.82639 19.4412 4.9809 19.307C5.15582 19.155 5.39298 19.0687 5.8673 18.8963L9.87584 17.4386C10.4277 17.2379 10.7036 17.1376 10.9654 17.1546C11.1962 17.1697 11.4184 17.2484 11.6071 17.3822C11.8211 17.5339 11.9722 17.7857 12.2743 18.2892L13.3008 20C16.6131 18.4999 19.2984 15.8111 20.8008 12.5L19.09 11.4735C18.5865 11.1714 18.3347 11.0204 18.183 10.8063C18.0492 10.6176 17.9704 10.3955 17.9554 10.1646C17.9384 9.90284 18.0387 9.62692 18.2394 9.07508L18.2394 9.07506L19.697 5.06651C19.8695 4.5922 19.9558 4.35504 20.1078 4.18012C20.242 4.02561 20.4122 3.90644 20.6033 3.83306C20.8196 3.75 21.0719 3.75 21.5766 3.75H25.0983C25.6984 3.75 25.9985 3.75 26.2558 3.87407C26.4689 3.97682 26.6781 4.17127 26.7962 4.37629C26.9387 4.62383 26.9586 4.89577 26.9984 5.43963V5.43966C27.0331 5.91357 27.0508 6.39222 27.0508 6.875Z" stroke="#777E90" stroke-width="1.5" stroke-linecap="round" stroke-linejoin="round"/>
</svg>
