<svg width="32" height="32" viewBox="0 0 32 32" fill="none" xmlns="http://www.w3.org/2000/svg">
<rect width="32" height="32" rx="16" fill="#F8F8FC"/>
<path d="M22.4001 15.5205C22.4001 12.5338 19.5201 10.1338 16.0001 10.1338C12.4801 10.1338 9.6001 12.5338 9.6001 15.4671C9.6001 18.4005 12.4801 20.8005 16.0001 20.8005C16.5374 20.8001 17.0734 20.7465 17.6001 20.6405L20.5868 21.8138C20.6401 21.8138 20.6934 21.8671 20.8001 21.8671C20.9134 21.8561 21.0228 21.8196 21.1201 21.7605C21.191 21.7029 21.2472 21.6294 21.2843 21.546C21.3214 21.4626 21.3382 21.3716 21.3334 21.2805L21.0668 18.7738C21.8989 17.892 22.374 16.7326 22.4001 15.5205ZM16.6433 12.8005L16.391 16.3205H15.6092L15.3713 12.8005H16.6433ZM16.0001 18.6671C15.8454 18.6671 15.6941 18.6212 15.5654 18.5353C15.4368 18.4493 15.3365 18.3271 15.2773 18.1841C15.218 18.0412 15.2025 17.8839 15.2327 17.7321C15.2629 17.5803 15.3374 17.4409 15.4469 17.3315C15.5563 17.2221 15.6957 17.1475 15.8475 17.1174C15.9992 17.0872 16.1565 17.1027 16.2995 17.1619C16.4425 17.2211 16.5647 17.3214 16.6506 17.45C16.7366 17.5787 16.7825 17.73 16.7825 17.8847C16.7825 18.0922 16.7001 18.2912 16.5533 18.438C16.4066 18.5847 16.2076 18.6671 16.0001 18.6671Z" fill="#BCBFD6"/>
</svg>
