<svg width="32" height="32" viewBox="0 0 32 32" fill="none" xmlns="http://www.w3.org/2000/svg">
<rect width="31.5315" height="32" rx="15.7658" fill="#F8F8FC"/>
<path d="M22.3622 14.3895C22.2801 10.8524 19.37 8 15.8044 8C12.2611 8 9.3654 10.8167 9.24866 14.3231C8.52656 14.9316 8 15.8159 8 16.8036C8 17.7645 8.49862 18.6273 9.19062 19.2337C9.39268 21.5062 11.0925 23.1105 13.3975 23.1105H13.6703C14.0544 23.6484 14.6829 24 15.3924 24H15.8684C17.0352 24 17.9845 23.0501 17.9845 21.8825C17.9845 21.1578 17.6173 20.2939 15.8684 20.2939H15.3924C14.1378 20.2939 13.5944 20.7385 13.3873 21.2573C12.4441 21.2543 11.7194 20.8381 11.3296 20.131C11.337 20.131 11.3445 20.1316 11.3519 20.1316C12.1144 20.1316 12.6045 19.7624 12.8331 19.034C13.013 18.4612 13 17.733 13 16.89V16.7168C13 15.8737 13.0129 15.1456 12.8331 14.5728C12.6223 13.9012 12.1843 13.5357 11.5184 13.4827C11.996 11.5709 13.7363 10.1495 15.8013 10.1495C17.8646 10.1495 19.6025 11.5687 20.0815 13.4784C19.375 13.5099 18.8944 13.8771 18.676 14.5729C18.4961 15.1457 18.4851 15.8738 18.4851 16.717V16.8901C18.4851 17.7332 18.4969 18.4613 18.6767 19.0342C18.9053 19.7624 19.4139 20.1318 20.1765 20.1318C21.6947 20.1318 23.5315 18.6472 23.5315 16.8036C23.5315 15.8511 23.0447 14.9951 22.3622 14.3895Z" fill="#BCBFD6"/>
</svg>
