<svg width="32" height="40" viewBox="0 0 32 40" fill="none" xmlns="http://www.w3.org/2000/svg">
<path d="M9.75008 30.4167H22.2501M9.75008 22.0833H22.2501M9.75008 13.75H11.8334M18.0834 1.25H11.4168C7.91642 1.25 6.16626 1.25 4.82931 1.93121C3.65329 2.53042 2.69717 3.48655 2.09796 4.66256C1.41675 5.99951 1.41675 7.74967 1.41675 11.25V28.75C1.41675 32.2503 1.41675 34.0005 2.09796 35.3374C2.69717 36.5135 3.65329 37.4696 4.82931 38.0688C6.16626 38.75 7.91642 38.75 11.4167 38.75H20.5834C24.0837 38.75 25.8339 38.75 27.1709 38.0688C28.3469 37.4696 29.303 36.5135 29.9022 35.3374C30.5834 34.0005 30.5834 32.2503 30.5834 28.75V13.75M18.0834 1.25L30.5834 13.75M18.0834 1.25V7.08333C18.0834 9.41689 18.0834 10.5837 18.5376 11.475C18.937 12.259 19.5744 12.8964 20.3585 13.2959C21.2498 13.75 22.4165 13.75 24.7501 13.75H30.5834" stroke="#27AE60" stroke-width="2" stroke-linecap="round" stroke-linejoin="round"/>
</svg>
