<svg width="19" height="20" viewBox="0 0 19 20" fill="none" xmlns="http://www.w3.org/2000/svg">
<path fill-rule="evenodd" clip-rule="evenodd" d="M4.90236 5.21829C5.18437 3.11871 6.98273 1.5 9.15962 1.5C11.2828 1.5 13.046 3.03989 13.3933 5.06392C12.2616 4.91039 11.266 4.41666 10.5252 3.64402C10.3838 3.4965 10.1882 3.41309 9.98386 3.41309C9.77948 3.41309 9.58395 3.4965 9.4425 3.64402C8.5164 4.60991 7.23434 5.20541 5.81719 5.20541C5.67208 5.20541 5.52906 5.2094 5.39914 5.21303L5.3692 5.21386C5.22729 5.2178 5.10093 5.22092 4.97891 5.2197C4.95278 5.21944 4.92728 5.21897 4.90236 5.21829ZM4.90359 6.71874C5.20072 10.0731 7.12152 11.7733 9.15962 11.7733C11.226 11.7733 13.1718 10.0256 13.4271 6.57811C12.1452 6.44766 10.9552 5.97463 9.98714 5.18487C8.85407 6.13214 7.40299 6.70541 5.81719 6.70541C5.69386 6.70541 5.5707 6.70884 5.43646 6.71257H5.43645L5.41078 6.71329C5.27067 6.71717 5.11788 6.72117 4.96388 6.71963C4.94395 6.71943 4.92385 6.71913 4.90359 6.71874ZM9.15962 0C5.95849 0 3.3639 2.59459 3.3639 5.79572C3.3639 8.17608 4.06363 10.1517 5.22928 11.4733L1.18007 13.9133L1.17972 13.9135C0.448727 14.3532 0 15.1441 0 15.9982V19.251C0 19.6653 0.335786 20.001 0.75 20.001H6.6222C6.63173 20.0012 6.64124 20.0012 6.65074 20.001H11.6684C11.6779 20.0012 11.6874 20.0012 11.6969 20.001H17.5691C17.9833 20.001 18.3191 19.6653 18.3191 19.251V15.9982C18.3191 15.1439 17.8708 14.3525 17.1391 13.9133L17.1382 13.9128L13.0899 11.4734C14.2556 10.1518 14.9553 8.17612 14.9553 5.79572C14.9553 2.59459 12.3608 0 9.15962 0ZM1.95365 15.1984L6.43109 12.5004C7.23101 13.0012 8.15416 13.2733 9.15962 13.2733C10.165 13.2733 11.0882 13.0012 11.8881 12.5004L16.3654 15.1984L16.3668 15.1992C16.6471 15.3673 16.8191 15.6706 16.8191 15.9982V18.501H12.1902L10.6969 14.7677C10.583 14.4829 10.3072 14.2962 10.0005 14.2962H8.31861C8.01193 14.2962 7.73615 14.4829 7.62225 14.7677L6.1289 18.501H1.5V15.9982C1.5 15.6718 1.67175 15.3679 1.95307 15.1987L1.95365 15.1984ZM9.49274 15.7962L10.5747 18.501H7.74445L8.82638 15.7962H9.49274Z" fill="#B62222"/>
</svg>
