<svg width="20" height="18" viewBox="0 0 20 18" fill="none" xmlns="http://www.w3.org/2000/svg">
<path d="M9 17H3C1.89543 17 1 16.1046 1 15C1 13.8954 1.89543 13 3 13M9 17C10.1046 17 11 16.1046 11 15C11 13.8954 10.1046 13 9 13M9 17H17C18.1046 17 19 16.1046 19 15C19 13.8954 18.1046 13 17 13M9 13H3M9 13H17M9 13C10.1046 13 11 12.1046 11 11C11 9.89543 10.1046 9 9 9M3 13C1.89543 13 1 12.1046 1 11C1 9.89543 1.89543 9 3 9M17 13C18.1046 13 19 12.1046 19 11C19 9.89543 18.1046 9 17 9M9 9H17M9 9H3M9 9C10.1046 9 11 8.10457 11 7C11 5.89543 10.1046 5 9 5M17 9C18.1046 9 19 8.10457 19 7C19 5.89543 18.1046 5 17 5H9M9 5H3M9 5C10.1046 5 11 4.10457 11 3C11 1.89543 10.1046 1 9 1H3C1.89543 1 1 1.89543 1 3C1 4.10457 1.89543 5 3 5M3 9C1.89543 9 1 8.10457 1 7C1 5.89543 1.89543 5 3 5" stroke="#B62222" stroke-width="2" stroke-linecap="round" stroke-linejoin="round"/>
</svg>
