<svg width="32" height="29" viewBox="0 0 32 29" fill="none" xmlns="http://www.w3.org/2000/svg">
<path d="M31 4.50008H27.6667M31 14.5001H22.6667M31 24.5001H22.6667M7.66667 27.8334V17.1022C7.66667 16.7555 7.66667 16.5821 7.63264 16.4163C7.60245 16.2692 7.55251 16.1269 7.48419 15.9931C7.40719 15.8424 7.2989 15.707 7.08232 15.4363L1.58435 8.56385C1.36777 8.29313 1.25948 8.15777 1.18247 8.00703C1.11415 7.8733 1.06422 7.73095 1.03403 7.58385C1 7.41804 1 7.24469 1 6.898V3.83341C1 2.89999 1 2.43328 1.18166 2.07676C1.34144 1.76316 1.59641 1.50819 1.91002 1.3484C2.26654 1.16675 2.73325 1.16675 3.66667 1.16675H18.3333C19.2668 1.16675 19.7335 1.16675 20.09 1.3484C20.4036 1.50819 20.6586 1.76316 20.8183 2.07676C21 2.43328 21 2.89999 21 3.83341V6.898C21 7.24469 21 7.41804 20.966 7.58385C20.9358 7.73095 20.8858 7.8733 20.8175 8.00703C20.7405 8.15777 20.6322 8.29313 20.4156 8.56385L14.9177 15.4363C14.7011 15.707 14.5928 15.8424 14.5158 15.9931C14.4475 16.1269 14.3976 16.2692 14.3674 16.4163C14.3333 16.5821 14.3333 16.7555 14.3333 17.1022V22.8334L7.66667 27.8334Z" stroke="#23262F" stroke-width="2" stroke-linecap="round" stroke-linejoin="round"/>
</svg>
