<svg width="24" height="24" viewBox="0 0 24 24" fill="none" xmlns="http://www.w3.org/2000/svg">
<g clip-path="url(#clip0_3653_2604)">
<path d="M12 3C12.4142 3 12.75 3.33579 12.75 3.75V5.25C12.75 5.66421 12.4142 6 12 6C11.5858 6 11.25 5.66421 11.25 5.25V3.75C11.25 3.33579 11.5858 3 12 3Z" fill="#B62222"/>
<path d="M6.69683 5.63617C6.40394 5.34328 5.92907 5.34328 5.63617 5.63617C5.34328 5.92907 5.34328 6.40394 5.63617 6.69683L6.69667 7.75733C6.98957 8.05023 7.46444 8.05023 7.75733 7.75733C8.05023 7.46444 8.05023 6.98957 7.75733 6.69667L6.69683 5.63617Z" fill="#B62222"/>
<path d="M3.75 11.25C3.33579 11.25 3 11.5858 3 12C3 12.4142 3.33579 12.75 3.75 12.75H5.25C5.66421 12.75 6 12.4142 6 12C6 11.5858 5.66421 11.25 5.25 11.25H3.75Z" fill="#B62222"/>
<path d="M18.3638 6.69683C18.6567 6.40394 18.6567 5.92907 18.3638 5.63617C18.0709 5.34328 17.596 5.34328 17.3031 5.63617L16.2426 6.69667C15.9497 6.98957 15.9497 7.46444 16.2426 7.75733C16.5355 8.05023 17.0104 8.05023 17.3033 7.75733L18.3638 6.69683Z" fill="#B62222"/>
<path d="M18 12C18 11.5858 18.3358 11.25 18.75 11.25H20.25C20.6642 11.25 21 11.5858 21 12C21 12.4142 20.6642 12.75 20.25 12.75H18.75C18.3358 12.75 18 12.4142 18 12Z" fill="#B62222"/>
<path fill-rule="evenodd" clip-rule="evenodd" d="M12 6.75C9.10029 6.75 6.75 9.10029 6.75 12C6.75 14.0953 7.9788 15.8974 9.75 16.7388V19.5C9.75 19.9142 10.0858 20.25 10.5 20.25H13.5C13.9142 20.25 14.25 19.9142 14.25 19.5V16.7388C16.0212 15.8974 17.25 14.0953 17.25 12C17.25 9.10029 14.8997 6.75 12 6.75ZM8.25 12C8.25 9.92871 9.92871 8.25 12 8.25C14.0713 8.25 15.75 9.92871 15.75 12C15.75 13.6293 14.7077 15.0154 13.2498 15.5312C12.9503 15.6372 12.75 15.9205 12.75 16.2382V18.75H11.25V16.2382C11.25 15.9205 11.0497 15.6372 10.7502 15.5312C9.29227 15.0154 8.25 13.6293 8.25 12Z" fill="#B62222"/>
</g>
<defs>
<clipPath id="clip0_3653_2604">
<rect width="18" height="18" fill="white" transform="translate(3 3)"/>
</clipPath>
</defs>
</svg>
