<svg xmlns="http://www.w3.org/2000/svg" width="25" height="24" viewBox="0 0 25 24" fill="none">
    <path d="M10.5 18C12.275 17.9998 13.9989 17.4056 15.397 16.312L19.793 20.708L21.207 19.294L16.811 14.898C17.9051 13.4997 18.4997 11.7755 18.5 10C18.5 5.589 14.911 2 10.5 2C6.089 2 2.5 5.589 2.5 10C2.5 14.411 6.089 18 10.5 18ZM10.5 4C13.809 4 16.5 6.691 16.5 10C16.5 13.309 13.809 16 10.5 16C7.191 16 4.5 13.309 4.5 10C4.5 6.691 7.191 4 10.5 4Z" fill="#FAFAFA"/>
    <path d="M11.9121 8.58596C12.2911 8.96596 12.5001 9.46796 12.5001 9.99996H14.5001C14.5008 9.47442 14.3974 8.95393 14.1959 8.46854C13.9944 7.98316 13.6988 7.54249 13.3261 7.17196C11.8121 5.65996 9.18707 5.65996 7.67407 7.17196L9.08607 8.58796C9.84607 7.82996 11.1561 7.83196 11.9121 8.58596Z" fill="#FAFAFA"/>
</svg>